<svg xmlns:xlink="http://www.w3.org/1999/xlink" width="119mm" height="93mm" viewBox="0 0 119 93"><defs><clipPath clipPathUnits="userSpaceOnUse" id="ballotCardJa_svg__a"><path transform="rotate(90)" stroke-width="1.058" stroke-linecap="round" d="M-25.098 162.66h89v63h-89z"/></clipPath></defs><g fill="#fff"><path d="M10 10h99v73H10z"/><path d="M15 15h89v63H15z"/></g><rect ry="1.5" width="78.92" height="54.81" x="-20.058" y="166.755" rx="1.5" fill="#363835" transform="translate(40.098 -147.66)"/><path fill="#fff" d="M22.834 21.853h73.332v49.295H22.834z"/><g transform="translate(-.129 -.104) scale(.26458)" fill="#363835"><circle r="2.19" cy="88.55" cx="92.289" id="ballotCardJa_svg__b" opacity="1" vector-effect="none" fill="#363835" fill-opacity="1" stroke="none" stroke-width="1.057" stroke-linecap="round" stroke-linejoin="miter" stroke-miterlimit="4" stroke-dasharray="3.17029838,3.17029838" stroke-dashoffset="0" stroke-opacity="1" paint-order="normal"/><use height="100%" width="100%" transform="translate(0 3.308)" xlink:href="#ballotCardJa_svg__b"/><use height="100%" width="100%" transform="translate(0 6.615)" xlink:href="#ballotCardJa_svg__b"/><use height="100%" width="100%" transform="translate(0 9.923)" xlink:href="#ballotCardJa_svg__b"/><use height="100%" width="100%" transform="translate(0 13.23)" xlink:href="#ballotCardJa_svg__b"/><use height="100%" width="100%" transform="translate(0 16.538)" xlink:href="#ballotCardJa_svg__b"/><use height="100%" width="100%" transform="translate(0 19.846)" xlink:href="#ballotCardJa_svg__b"/><use height="100%" width="100%" transform="translate(0 23.153)" xlink:href="#ballotCardJa_svg__b"/><use height="100%" width="100%" transform="translate(0 26.461)" xlink:href="#ballotCardJa_svg__b"/><use height="100%" width="100%" transform="translate(0 29.769)" xlink:href="#ballotCardJa_svg__b"/><use height="100%" width="100%" transform="translate(0 33.076)" xlink:href="#ballotCardJa_svg__b"/><use height="100%" width="100%" transform="translate(0 36.384)" xlink:href="#ballotCardJa_svg__b"/><use height="100%" width="100%" transform="translate(0 39.692)" xlink:href="#ballotCardJa_svg__b"/><use height="100%" width="100%" transform="translate(0 43)" xlink:href="#ballotCardJa_svg__b"/><use height="100%" width="100%" transform="translate(0 46.307)" xlink:href="#ballotCardJa_svg__b"/><use height="100%" width="100%" transform="translate(0 49.614)" xlink:href="#ballotCardJa_svg__b"/><use height="100%" width="100%" transform="translate(0 52.922)" xlink:href="#ballotCardJa_svg__b"/><use height="100%" width="100%" transform="translate(0 56.23)" xlink:href="#ballotCardJa_svg__b"/><use height="100%" width="100%" transform="translate(0 59.537)" xlink:href="#ballotCardJa_svg__b"/><use height="100%" width="100%" transform="translate(0 62.845)" xlink:href="#ballotCardJa_svg__b"/><use height="100%" width="100%" transform="translate(0 66.153)" xlink:href="#ballotCardJa_svg__b"/><use height="100%" width="100%" transform="translate(0 69.46)" xlink:href="#ballotCardJa_svg__b"/><use height="100%" width="100%" transform="translate(0 72.768)" xlink:href="#ballotCardJa_svg__b"/><use height="100%" width="100%" transform="translate(0 76.076)" xlink:href="#ballotCardJa_svg__b"/><use height="100%" width="100%" transform="translate(0 79.383)" xlink:href="#ballotCardJa_svg__b"/><use height="100%" width="100%" transform="translate(0 82.69)" xlink:href="#ballotCardJa_svg__b"/><use height="100%" width="100%" transform="translate(0 85.998)" xlink:href="#ballotCardJa_svg__b"/><use height="100%" width="100%" transform="translate(0 89.306)" xlink:href="#ballotCardJa_svg__b"/><use height="100%" width="100%" transform="translate(0 92.614)" xlink:href="#ballotCardJa_svg__b"/><use height="100%" width="100%" transform="translate(0 95.921)" xlink:href="#ballotCardJa_svg__b"/><use height="100%" width="100%" transform="translate(0 99.229)" xlink:href="#ballotCardJa_svg__b"/><use height="100%" width="100%" transform="translate(0 102.537)" xlink:href="#ballotCardJa_svg__b"/><use height="100%" width="100%" transform="translate(0 105.844)" xlink:href="#ballotCardJa_svg__b"/><use height="100%" width="100%" transform="translate(0 109.152)" xlink:href="#ballotCardJa_svg__b"/><use height="100%" width="100%" transform="translate(0 112.46)" xlink:href="#ballotCardJa_svg__b"/><use height="100%" width="100%" transform="translate(0 115.767)" xlink:href="#ballotCardJa_svg__b"/><use height="100%" width="100%" transform="translate(0 119.075)" xlink:href="#ballotCardJa_svg__b"/><use height="100%" width="100%" transform="translate(0 122.382)" xlink:href="#ballotCardJa_svg__b"/><use height="100%" width="100%" transform="translate(0 125.69)" xlink:href="#ballotCardJa_svg__b"/><use height="100%" width="100%" transform="translate(0 128.998)" xlink:href="#ballotCardJa_svg__b"/><use height="100%" width="100%" transform="translate(0 132.305)" xlink:href="#ballotCardJa_svg__b"/><use height="100%" width="100%" transform="translate(0 135.613)" xlink:href="#ballotCardJa_svg__b"/><use height="100%" width="100%" transform="translate(0 138.92)" xlink:href="#ballotCardJa_svg__b"/><use height="100%" width="100%" transform="translate(0 142.228)" xlink:href="#ballotCardJa_svg__b"/><use height="100%" width="100%" transform="translate(0 145.536)" xlink:href="#ballotCardJa_svg__b"/><use height="100%" width="100%" transform="translate(0 148.843)" xlink:href="#ballotCardJa_svg__b"/><use height="100%" width="100%" transform="translate(0 152.151)" xlink:href="#ballotCardJa_svg__b"/><use height="100%" width="100%" transform="translate(0 155.459)" xlink:href="#ballotCardJa_svg__b"/><use height="100%" width="100%" transform="translate(0 158.766)" xlink:href="#ballotCardJa_svg__b"/><use height="100%" width="100%" transform="translate(0 162.074)" xlink:href="#ballotCardJa_svg__b"/><use height="100%" width="100%" transform="translate(0 165.382)" xlink:href="#ballotCardJa_svg__b"/><use height="100%" width="100%" transform="translate(0 168.69)" xlink:href="#ballotCardJa_svg__b"/><use height="100%" width="100%" transform="translate(0 171.997)" xlink:href="#ballotCardJa_svg__b"/><use height="100%" width="100%" transform="translate(0 175.304)" xlink:href="#ballotCardJa_svg__b"/><use height="100%" width="100%" xlink:href="#ballotCardJa_svg__b" transform="translate(3.326)"/><use height="100%" width="100%" xlink:href="#ballotCardJa_svg__b" transform="translate(6.653)"/><use height="100%" width="100%" xlink:href="#ballotCardJa_svg__b" transform="translate(9.979)"/><use height="100%" width="100%" xlink:href="#ballotCardJa_svg__b" transform="translate(13.305)"/><use height="100%" width="100%" xlink:href="#ballotCardJa_svg__b" transform="translate(16.632)"/><use height="100%" width="100%" xlink:href="#ballotCardJa_svg__b" transform="translate(19.958)"/><use height="100%" width="100%" xlink:href="#ballotCardJa_svg__b" transform="translate(23.284)"/><use height="100%" width="100%" xlink:href="#ballotCardJa_svg__b" transform="translate(26.61)"/><use height="100%" width="100%" xlink:href="#ballotCardJa_svg__b" transform="translate(29.937)"/><use height="100%" width="100%" xlink:href="#ballotCardJa_svg__b" transform="translate(33.263)"/><use height="100%" width="100%" xlink:href="#ballotCardJa_svg__b" transform="translate(36.59)"/><use height="100%" width="100%" xlink:href="#ballotCardJa_svg__b" transform="translate(39.916)"/><use height="100%" width="100%" xlink:href="#ballotCardJa_svg__b" transform="translate(43.242)"/><use height="100%" width="100%" xlink:href="#ballotCardJa_svg__b" transform="translate(46.569)"/><use height="100%" width="100%" xlink:href="#ballotCardJa_svg__b" transform="translate(49.895)"/><use height="100%" width="100%" xlink:href="#ballotCardJa_svg__b" transform="translate(53.221)"/><use height="100%" width="100%" xlink:href="#ballotCardJa_svg__b" transform="translate(56.548)"/><use height="100%" width="100%" xlink:href="#ballotCardJa_svg__b" transform="translate(59.874)"/><use height="100%" width="100%" xlink:href="#ballotCardJa_svg__b" transform="translate(63.2)"/><use height="100%" width="100%" xlink:href="#ballotCardJa_svg__b" transform="translate(66.527)"/><use height="100%" width="100%" xlink:href="#ballotCardJa_svg__b" transform="translate(69.853)"/><use height="100%" width="100%" xlink:href="#ballotCardJa_svg__b" transform="translate(73.18)"/><use height="100%" width="100%" xlink:href="#ballotCardJa_svg__b" transform="translate(76.506)"/><use height="100%" width="100%" xlink:href="#ballotCardJa_svg__b" transform="translate(79.832)"/><use height="100%" width="100%" xlink:href="#ballotCardJa_svg__b" transform="translate(83.158)"/><use height="100%" width="100%" xlink:href="#ballotCardJa_svg__b" transform="translate(86.484)"/><use height="100%" width="100%" xlink:href="#ballotCardJa_svg__b" transform="translate(89.81)"/><use height="100%" width="100%" xlink:href="#ballotCardJa_svg__b" transform="translate(93.137)"/><use height="100%" width="100%" xlink:href="#ballotCardJa_svg__b" transform="translate(96.463)"/><use height="100%" width="100%" xlink:href="#ballotCardJa_svg__b" transform="translate(99.79)"/><use height="100%" width="100%" xlink:href="#ballotCardJa_svg__b" transform="translate(103.116)"/><use height="100%" width="100%" xlink:href="#ballotCardJa_svg__b" transform="translate(106.442)"/><use height="100%" width="100%" xlink:href="#ballotCardJa_svg__b" transform="translate(109.769)"/><use height="100%" width="100%" xlink:href="#ballotCardJa_svg__b" transform="translate(113.095)"/><use height="100%" width="100%" xlink:href="#ballotCardJa_svg__b" transform="translate(116.421)"/><use height="100%" width="100%" xlink:href="#ballotCardJa_svg__b" transform="translate(119.748)"/><use height="100%" width="100%" xlink:href="#ballotCardJa_svg__b" transform="translate(123.074)"/><use height="100%" width="100%" xlink:href="#ballotCardJa_svg__b" transform="translate(126.4)"/><use height="100%" width="100%" xlink:href="#ballotCardJa_svg__b" transform="translate(129.727)"/><use height="100%" width="100%" xlink:href="#ballotCardJa_svg__b" transform="translate(133.053)"/><use height="100%" width="100%" xlink:href="#ballotCardJa_svg__b" transform="translate(136.38)"/><use height="100%" width="100%" xlink:href="#ballotCardJa_svg__b" transform="translate(139.706)"/><use height="100%" width="100%" xlink:href="#ballotCardJa_svg__b" transform="translate(143.032)"/><use height="100%" width="100%" xlink:href="#ballotCardJa_svg__b" transform="translate(146.358)"/><use height="100%" width="100%" xlink:href="#ballotCardJa_svg__b" transform="translate(149.685)"/><use height="100%" width="100%" xlink:href="#ballotCardJa_svg__b" transform="translate(153.011)"/><use height="100%" width="100%" xlink:href="#ballotCardJa_svg__b" transform="translate(156.337)"/><use height="100%" width="100%" xlink:href="#ballotCardJa_svg__b" transform="translate(159.664)"/><use height="100%" width="100%" xlink:href="#ballotCardJa_svg__b" transform="translate(162.99)"/><use height="100%" width="100%" xlink:href="#ballotCardJa_svg__b" transform="translate(166.316)"/><use height="100%" width="100%" xlink:href="#ballotCardJa_svg__b" transform="translate(169.643)"/><use height="100%" width="100%" xlink:href="#ballotCardJa_svg__b" transform="translate(172.969)"/><use height="100%" width="100%" xlink:href="#ballotCardJa_svg__b" transform="translate(176.295)"/><use height="100%" width="100%" xlink:href="#ballotCardJa_svg__b" transform="translate(179.622)"/><use height="100%" width="100%" xlink:href="#ballotCardJa_svg__b" transform="translate(182.948)"/><use height="100%" width="100%" xlink:href="#ballotCardJa_svg__b" transform="translate(186.274)"/><use height="100%" width="100%" xlink:href="#ballotCardJa_svg__b" transform="translate(189.6)"/><use height="100%" width="100%" xlink:href="#ballotCardJa_svg__b" transform="translate(192.927)"/><use height="100%" width="100%" xlink:href="#ballotCardJa_svg__b" transform="translate(196.253)"/><use height="100%" width="100%" xlink:href="#ballotCardJa_svg__b" transform="translate(199.58)"/><use height="100%" width="100%" xlink:href="#ballotCardJa_svg__b" transform="translate(202.906)"/><use height="100%" width="100%" xlink:href="#ballotCardJa_svg__b" transform="translate(206.232)"/><use height="100%" width="100%" xlink:href="#ballotCardJa_svg__b" transform="translate(209.559)"/><use height="100%" width="100%" xlink:href="#ballotCardJa_svg__b" transform="translate(212.885)"/><use height="100%" width="100%" xlink:href="#ballotCardJa_svg__b" transform="translate(216.211)"/><use height="100%" width="100%" xlink:href="#ballotCardJa_svg__b" transform="translate(219.538)"/><use height="100%" width="100%" xlink:href="#ballotCardJa_svg__b" transform="translate(222.864)"/><use height="100%" width="100%" xlink:href="#ballotCardJa_svg__b" transform="translate(226.19)"/><use height="100%" width="100%" xlink:href="#ballotCardJa_svg__b" transform="translate(229.517)"/><use height="100%" width="100%" xlink:href="#ballotCardJa_svg__b" transform="translate(232.843)"/><use height="100%" width="100%" xlink:href="#ballotCardJa_svg__b" transform="translate(236.17)"/><use height="100%" width="100%" xlink:href="#ballotCardJa_svg__b" transform="translate(239.495)"/><use height="100%" width="100%" xlink:href="#ballotCardJa_svg__b" transform="translate(242.822)"/><use height="100%" width="100%" xlink:href="#ballotCardJa_svg__b" transform="translate(246.148)"/><use height="100%" width="100%" xlink:href="#ballotCardJa_svg__b" transform="translate(249.474)"/><use height="100%" width="100%" xlink:href="#ballotCardJa_svg__b" transform="translate(252.8)"/><use height="100%" width="100%" xlink:href="#ballotCardJa_svg__b" transform="translate(256.127)"/><use height="100%" width="100%" xlink:href="#ballotCardJa_svg__b" transform="translate(266.106)"/><use transform="translate(266.106 175.304)" xlink:href="#ballotCardJa_svg__b" width="100%" height="100%"/><use height="100%" width="100%" xlink:href="#ballotCardJa_svg__b" transform="translate(266.106 3.308)"/><use height="100%" width="100%" xlink:href="#ballotCardJa_svg__b" transform="translate(266.106 6.615)"/><use height="100%" width="100%" xlink:href="#ballotCardJa_svg__b" transform="translate(266.106 9.923)"/><use height="100%" width="100%" xlink:href="#ballotCardJa_svg__b" transform="translate(266.106 13.23)"/><use height="100%" width="100%" xlink:href="#ballotCardJa_svg__b" transform="translate(266.106 16.538)"/><use height="100%" width="100%" xlink:href="#ballotCardJa_svg__b" transform="translate(266.106 19.846)"/><use height="100%" width="100%" xlink:href="#ballotCardJa_svg__b" transform="translate(266.106 23.153)"/><use height="100%" width="100%" xlink:href="#ballotCardJa_svg__b" transform="translate(266.106 26.461)"/><use height="100%" width="100%" xlink:href="#ballotCardJa_svg__b" transform="translate(266.106 29.769)"/><use height="100%" width="100%" xlink:href="#ballotCardJa_svg__b" transform="translate(266.106 33.076)"/><use height="100%" width="100%" xlink:href="#ballotCardJa_svg__b" transform="translate(266.106 36.384)"/><use height="100%" width="100%" xlink:href="#ballotCardJa_svg__b" transform="translate(266.106 39.692)"/><use height="100%" width="100%" xlink:href="#ballotCardJa_svg__b" transform="translate(266.106 43)"/><use height="100%" width="100%" xlink:href="#ballotCardJa_svg__b" transform="translate(266.106 46.307)"/><use height="100%" width="100%" xlink:href="#ballotCardJa_svg__b" transform="translate(266.106 49.614)"/><use height="100%" width="100%" xlink:href="#ballotCardJa_svg__b" transform="translate(266.106 52.922)"/><use height="100%" width="100%" xlink:href="#ballotCardJa_svg__b" transform="translate(266.106 56.23)"/><use height="100%" width="100%" xlink:href="#ballotCardJa_svg__b" transform="translate(266.106 59.537)"/><use height="100%" width="100%" xlink:href="#ballotCardJa_svg__b" transform="translate(266.106 62.845)"/><use height="100%" width="100%" xlink:href="#ballotCardJa_svg__b" transform="translate(266.106 66.153)"/><use height="100%" width="100%" xlink:href="#ballotCardJa_svg__b" transform="translate(266.106 69.46)"/><use height="100%" width="100%" xlink:href="#ballotCardJa_svg__b" transform="translate(266.106 72.768)"/><use height="100%" width="100%" xlink:href="#ballotCardJa_svg__b" transform="translate(266.106 76.076)"/><use height="100%" width="100%" xlink:href="#ballotCardJa_svg__b" transform="translate(266.106 79.383)"/><use height="100%" width="100%" xlink:href="#ballotCardJa_svg__b" transform="translate(266.106 82.69)"/><use height="100%" width="100%" xlink:href="#ballotCardJa_svg__b" transform="translate(266.106 85.998)"/><use height="100%" width="100%" xlink:href="#ballotCardJa_svg__b" transform="translate(266.106 89.306)"/><use height="100%" width="100%" xlink:href="#ballotCardJa_svg__b" transform="translate(266.106 92.614)"/><use height="100%" width="100%" xlink:href="#ballotCardJa_svg__b" transform="translate(266.106 95.921)"/><use height="100%" width="100%" xlink:href="#ballotCardJa_svg__b" transform="translate(266.106 99.229)"/><use height="100%" width="100%" xlink:href="#ballotCardJa_svg__b" transform="translate(266.106 102.537)"/><use height="100%" width="100%" xlink:href="#ballotCardJa_svg__b" transform="translate(266.106 105.844)"/><use height="100%" width="100%" xlink:href="#ballotCardJa_svg__b" transform="translate(266.106 109.152)"/><use height="100%" width="100%" xlink:href="#ballotCardJa_svg__b" transform="translate(266.106 112.46)"/><use height="100%" width="100%" xlink:href="#ballotCardJa_svg__b" transform="translate(266.106 115.767)"/><use height="100%" width="100%" xlink:href="#ballotCardJa_svg__b" transform="translate(266.106 119.075)"/><use height="100%" width="100%" xlink:href="#ballotCardJa_svg__b" transform="translate(266.106 122.382)"/><use height="100%" width="100%" xlink:href="#ballotCardJa_svg__b" transform="translate(266.106 125.69)"/><use height="100%" width="100%" xlink:href="#ballotCardJa_svg__b" transform="translate(266.106 128.998)"/><use height="100%" width="100%" xlink:href="#ballotCardJa_svg__b" transform="translate(266.106 132.305)"/><use height="100%" width="100%" xlink:href="#ballotCardJa_svg__b" transform="translate(266.106 135.613)"/><use height="100%" width="100%" xlink:href="#ballotCardJa_svg__b" transform="translate(266.106 138.92)"/><use height="100%" width="100%" xlink:href="#ballotCardJa_svg__b" transform="translate(266.106 142.228)"/><use height="100%" width="100%" xlink:href="#ballotCardJa_svg__b" transform="translate(266.106 145.536)"/><use height="100%" width="100%" xlink:href="#ballotCardJa_svg__b" transform="translate(266.106 148.843)"/><use height="100%" width="100%" xlink:href="#ballotCardJa_svg__b" transform="translate(266.106 152.151)"/><use height="100%" width="100%" xlink:href="#ballotCardJa_svg__b" transform="translate(266.106 155.459)"/><use height="100%" width="100%" xlink:href="#ballotCardJa_svg__b" transform="translate(266.106 158.766)"/><use height="100%" width="100%" xlink:href="#ballotCardJa_svg__b" transform="translate(266.106 162.074)"/><use height="100%" width="100%" xlink:href="#ballotCardJa_svg__b" transform="translate(266.106 165.382)"/><use height="100%" width="100%" xlink:href="#ballotCardJa_svg__b" transform="translate(266.106 168.69)"/><use height="100%" width="100%" xlink:href="#ballotCardJa_svg__b" transform="translate(266.106 171.997)"/><use transform="translate(259.453)" xlink:href="#ballotCardJa_svg__b" width="100%" height="100%"/><use height="100%" width="100%" xlink:href="#ballotCardJa_svg__b" transform="translate(262.78)"/><use transform="translate(3.326 175.304)" xlink:href="#ballotCardJa_svg__b" width="100%" height="100%"/><use transform="translate(6.653 175.304)" xlink:href="#ballotCardJa_svg__b" width="100%" height="100%"/><use transform="translate(9.979 175.304)" xlink:href="#ballotCardJa_svg__b" width="100%" height="100%"/><use transform="translate(13.305 175.304)" xlink:href="#ballotCardJa_svg__b" width="100%" height="100%"/><use transform="translate(16.632 175.304)" xlink:href="#ballotCardJa_svg__b" width="100%" height="100%"/><use transform="translate(19.958 175.304)" xlink:href="#ballotCardJa_svg__b" width="100%" height="100%"/><use transform="translate(23.284 175.304)" xlink:href="#ballotCardJa_svg__b" width="100%" height="100%"/><use transform="translate(26.61 175.304)" xlink:href="#ballotCardJa_svg__b" width="100%" height="100%"/><use transform="translate(29.937 175.304)" xlink:href="#ballotCardJa_svg__b" width="100%" height="100%"/><use transform="translate(33.263 175.304)" xlink:href="#ballotCardJa_svg__b" width="100%" height="100%"/><use transform="translate(36.59 175.304)" xlink:href="#ballotCardJa_svg__b" width="100%" height="100%"/><use transform="translate(39.916 175.304)" xlink:href="#ballotCardJa_svg__b" width="100%" height="100%"/><use transform="translate(43.242 175.304)" xlink:href="#ballotCardJa_svg__b" width="100%" height="100%"/><use transform="translate(46.569 175.304)" xlink:href="#ballotCardJa_svg__b" width="100%" height="100%"/><use transform="translate(49.895 175.304)" xlink:href="#ballotCardJa_svg__b" width="100%" height="100%"/><use transform="translate(53.221 175.304)" xlink:href="#ballotCardJa_svg__b" width="100%" height="100%"/><use transform="translate(56.548 175.304)" xlink:href="#ballotCardJa_svg__b" width="100%" height="100%"/><use transform="translate(59.874 175.304)" xlink:href="#ballotCardJa_svg__b" width="100%" height="100%"/><use transform="translate(63.2 175.304)" xlink:href="#ballotCardJa_svg__b" width="100%" height="100%"/><use transform="translate(66.527 175.304)" xlink:href="#ballotCardJa_svg__b" width="100%" height="100%"/><use transform="translate(69.853 175.304)" xlink:href="#ballotCardJa_svg__b" width="100%" height="100%"/><use transform="translate(73.18 175.304)" xlink:href="#ballotCardJa_svg__b" width="100%" height="100%"/><use transform="translate(76.506 175.304)" xlink:href="#ballotCardJa_svg__b" width="100%" height="100%"/><use transform="translate(79.832 175.304)" xlink:href="#ballotCardJa_svg__b" width="100%" height="100%"/><use transform="translate(83.158 175.304)" xlink:href="#ballotCardJa_svg__b" width="100%" height="100%"/><use transform="translate(86.484 175.304)" xlink:href="#ballotCardJa_svg__b" width="100%" height="100%"/><use transform="translate(89.81 175.304)" xlink:href="#ballotCardJa_svg__b" width="100%" height="100%"/><use transform="translate(93.137 175.304)" xlink:href="#ballotCardJa_svg__b" width="100%" height="100%"/><use transform="translate(96.463 175.304)" xlink:href="#ballotCardJa_svg__b" width="100%" height="100%"/><use transform="translate(99.79 175.304)" xlink:href="#ballotCardJa_svg__b" width="100%" height="100%"/><use transform="translate(103.116 175.304)" xlink:href="#ballotCardJa_svg__b" width="100%" height="100%"/><use transform="translate(106.442 175.304)" xlink:href="#ballotCardJa_svg__b" width="100%" height="100%"/><use transform="translate(109.769 175.304)" xlink:href="#ballotCardJa_svg__b" width="100%" height="100%"/><use transform="translate(113.095 175.304)" xlink:href="#ballotCardJa_svg__b" width="100%" height="100%"/><use transform="translate(116.421 175.304)" xlink:href="#ballotCardJa_svg__b" width="100%" height="100%"/><use transform="translate(119.748 175.304)" xlink:href="#ballotCardJa_svg__b" width="100%" height="100%"/><use transform="translate(123.074 175.304)" xlink:href="#ballotCardJa_svg__b" width="100%" height="100%"/><use transform="translate(126.4 175.304)" xlink:href="#ballotCardJa_svg__b" width="100%" height="100%"/><use transform="translate(129.727 175.304)" xlink:href="#ballotCardJa_svg__b" width="100%" height="100%"/><use transform="translate(133.053 175.304)" xlink:href="#ballotCardJa_svg__b" width="100%" height="100%"/><use transform="translate(136.38 175.304)" xlink:href="#ballotCardJa_svg__b" width="100%" height="100%"/><use transform="translate(139.706 175.304)" xlink:href="#ballotCardJa_svg__b" width="100%" height="100%"/><use transform="translate(143.032 175.304)" xlink:href="#ballotCardJa_svg__b" width="100%" height="100%"/><use transform="translate(146.358 175.304)" xlink:href="#ballotCardJa_svg__b" width="100%" height="100%"/><use transform="translate(149.685 175.304)" xlink:href="#ballotCardJa_svg__b" width="100%" height="100%"/><use transform="translate(153.011 175.304)" xlink:href="#ballotCardJa_svg__b" width="100%" height="100%"/><use transform="translate(156.337 175.304)" xlink:href="#ballotCardJa_svg__b" width="100%" height="100%"/><use transform="translate(159.664 175.304)" xlink:href="#ballotCardJa_svg__b" width="100%" height="100%"/><use transform="translate(162.99 175.304)" xlink:href="#ballotCardJa_svg__b" width="100%" height="100%"/><use transform="translate(166.316 175.304)" xlink:href="#ballotCardJa_svg__b" width="100%" height="100%"/><use transform="translate(169.643 175.304)" xlink:href="#ballotCardJa_svg__b" width="100%" height="100%"/><use transform="translate(172.969 175.304)" xlink:href="#ballotCardJa_svg__b" width="100%" height="100%"/><use transform="translate(176.295 175.304)" xlink:href="#ballotCardJa_svg__b" width="100%" height="100%"/><use transform="translate(179.622 175.304)" xlink:href="#ballotCardJa_svg__b" width="100%" height="100%"/><use transform="translate(182.948 175.304)" xlink:href="#ballotCardJa_svg__b" width="100%" height="100%"/><use transform="translate(186.274 175.304)" xlink:href="#ballotCardJa_svg__b" width="100%" height="100%"/><use transform="translate(189.6 175.304)" xlink:href="#ballotCardJa_svg__b" width="100%" height="100%"/><use transform="translate(192.927 175.304)" xlink:href="#ballotCardJa_svg__b" width="100%" height="100%"/><use transform="translate(196.253 175.304)" xlink:href="#ballotCardJa_svg__b" width="100%" height="100%"/><use transform="translate(199.58 175.304)" xlink:href="#ballotCardJa_svg__b" width="100%" height="100%"/><use transform="translate(202.906 175.304)" xlink:href="#ballotCardJa_svg__b" width="100%" height="100%"/><use transform="translate(206.232 175.304)" xlink:href="#ballotCardJa_svg__b" width="100%" height="100%"/><use transform="translate(209.559 175.304)" xlink:href="#ballotCardJa_svg__b" width="100%" height="100%"/><use transform="translate(212.885 175.304)" xlink:href="#ballotCardJa_svg__b" width="100%" height="100%"/><use transform="translate(216.211 175.304)" xlink:href="#ballotCardJa_svg__b" width="100%" height="100%"/><use transform="translate(219.538 175.304)" xlink:href="#ballotCardJa_svg__b" width="100%" height="100%"/><use transform="translate(222.864 175.304)" xlink:href="#ballotCardJa_svg__b" width="100%" height="100%"/><use transform="translate(226.19 175.304)" xlink:href="#ballotCardJa_svg__b" width="100%" height="100%"/><use transform="translate(229.517 175.304)" xlink:href="#ballotCardJa_svg__b" width="100%" height="100%"/><use transform="translate(232.843 175.304)" xlink:href="#ballotCardJa_svg__b" width="100%" height="100%"/><use transform="translate(236.17 175.304)" xlink:href="#ballotCardJa_svg__b" width="100%" height="100%"/><use transform="translate(239.495 175.304)" xlink:href="#ballotCardJa_svg__b" width="100%" height="100%"/><use transform="translate(242.822 175.304)" xlink:href="#ballotCardJa_svg__b" width="100%" height="100%"/><use transform="translate(246.148 175.304)" xlink:href="#ballotCardJa_svg__b" width="100%" height="100%"/><use transform="translate(249.474 175.304)" xlink:href="#ballotCardJa_svg__b" width="100%" height="100%"/><use transform="translate(252.8 175.304)" xlink:href="#ballotCardJa_svg__b" width="100%" height="100%"/><use transform="translate(256.127 175.304)" xlink:href="#ballotCardJa_svg__b" width="100%" height="100%"/><use height="100%" width="100%" xlink:href="#ballotCardJa_svg__b" transform="translate(259.453 175.304)"/><use transform="translate(262.78 175.304)" xlink:href="#ballotCardJa_svg__b" width="100%" height="100%"/></g><g font-weight="400" word-spacing="0" fill="#363835"><text style="line-height:1.25;-inkscape-font-specification:'Germania One';font-variant-ligatures:normal;font-variant-caps:normal;font-variant-numeric:normal;font-feature-settings:normal;text-align:start" x="3.354" y="205.621" font-size="37.672" font-family="Germania One" letter-spacing="0" stroke-width="1.57" transform="translate(40.098 -147.66)"><tspan x="-1" y="205.621" style="-inkscape-font-specification:'Germania One';font-variant-ligatures:normal;font-variant-caps:normal;font-variant-numeric:normal;font-feature-settings:normal;text-align:start">Ja!</tspan></text><g font-size="4.002" font-family="Futura Hv BT" letter-spacing=".852" stroke-width=".167"><text y="212.075" x="15.854" style="line-height:1.25;-inkscape-font-specification:'Futura Hv BT, Normal';font-variant-ligatures:normal;font-variant-caps:normal;font-variant-numeric:normal;font-feature-settings:normal;text-align:start" transform="translate(40.098 -147.844)"><tspan style="-inkscape-font-specification:'Futura Hv BT, Normal';font-variant-ligatures:normal;font-variant-caps:normal;font-variant-numeric:normal;font-feature-settings:normal;text-align:start" y="212.075" x="15.854">YES</tspan></text><text style="line-height:1.25;-inkscape-font-specification:'Futura Hv BT, Normal';font-variant-ligatures:normal;font-variant-caps:normal;font-variant-numeric:normal;font-feature-settings:normal;text-align:start" x="13.356" y="211.841" transform="translate(40.098 -147.844)"><tspan x="13.356" y="211.841" style="-inkscape-font-specification:'Futura Hv BT, Normal';font-variant-ligatures:normal;font-variant-caps:normal;font-variant-numeric:normal;font-feature-settings:normal;text-align:start">(</tspan></text><text y="211.841" x="25.423" style="line-height:1.25;-inkscape-font-specification:'Futura Hv BT, Normal';font-variant-ligatures:normal;font-variant-caps:normal;font-variant-numeric:normal;font-feature-settings:normal;text-align:start" transform="translate(40.098 -147.844)"><tspan style="-inkscape-font-specification:'Futura Hv BT, Normal';font-variant-ligatures:normal;font-variant-caps:normal;font-variant-numeric:normal;font-feature-settings:normal;text-align:start" y="211.841" x="25.423">)</tspan></text></g></g></svg>
