<svg xmlns:xlink="http://www.w3.org/1999/xlink" width="1598.877" height="170mm" viewBox="0 0 423.036 170"><path fill="#363835" d="M10 10h403.036v150H10z"/><path fill="#363835" d="M15 15h393.036v140H15z"/><path fill="#e66443" d="M22.56 22.502h377.782v124.894H22.56z"/><g fill="#363835" transform="translate(405.645 -140.668)"><path d="M-377.007 163.049h4.533l-2.267 2.305z" id="fascistBoardBack_svg__a" opacity="1" vector-effect="none" fill="#363835" fill-opacity="1" stroke="none" stroke-width="1.5" stroke-linecap="round" stroke-linejoin="round" stroke-miterlimit="4" stroke-dasharray="none" stroke-dashoffset="0" stroke-opacity="1" paint-order="normal"/><use xlink:href="#fascistBoardBack_svg__a" width="100%" height="100%" transform="translate(4.352)"/><use transform="translate(8.704)" height="100%" width="100%" xlink:href="#fascistBoardBack_svg__a"/><use xlink:href="#fascistBoardBack_svg__a" width="100%" height="100%" transform="translate(13.056)"/><use transform="translate(17.408)" height="100%" width="100%" xlink:href="#fascistBoardBack_svg__a"/><use transform="translate(21.76)" height="100%" width="100%" xlink:href="#fascistBoardBack_svg__a"/><use xlink:href="#fascistBoardBack_svg__a" width="100%" height="100%" transform="translate(26.112)"/><use transform="translate(30.464)" height="100%" width="100%" xlink:href="#fascistBoardBack_svg__a"/><use xlink:href="#fascistBoardBack_svg__a" width="100%" height="100%" transform="translate(34.816)"/><use xlink:href="#fascistBoardBack_svg__a" width="100%" height="100%" transform="translate(39.168)"/><use transform="translate(43.52)" height="100%" width="100%" xlink:href="#fascistBoardBack_svg__a"/><use xlink:href="#fascistBoardBack_svg__a" width="100%" height="100%" transform="translate(47.872)"/><use transform="translate(52.224)" height="100%" width="100%" xlink:href="#fascistBoardBack_svg__a"/><use transform="translate(56.576)" height="100%" width="100%" xlink:href="#fascistBoardBack_svg__a"/><use xlink:href="#fascistBoardBack_svg__a" width="100%" height="100%" transform="translate(60.928)"/><use transform="translate(65.28)" height="100%" width="100%" xlink:href="#fascistBoardBack_svg__a"/><use xlink:href="#fascistBoardBack_svg__a" width="100%" height="100%" transform="translate(69.632)"/><use transform="translate(73.984)" height="100%" width="100%" xlink:href="#fascistBoardBack_svg__a"/><use xlink:href="#fascistBoardBack_svg__a" width="100%" height="100%" transform="translate(78.336)"/><use transform="translate(82.688)" height="100%" width="100%" xlink:href="#fascistBoardBack_svg__a"/><use xlink:href="#fascistBoardBack_svg__a" width="100%" height="100%" transform="translate(87.04)"/><use xlink:href="#fascistBoardBack_svg__a" width="100%" height="100%" transform="translate(91.392)"/><use transform="translate(95.744)" height="100%" width="100%" xlink:href="#fascistBoardBack_svg__a"/><use xlink:href="#fascistBoardBack_svg__a" width="100%" height="100%" transform="translate(100.096)"/><use transform="translate(104.448)" height="100%" width="100%" xlink:href="#fascistBoardBack_svg__a"/><use transform="translate(108.8)" height="100%" width="100%" xlink:href="#fascistBoardBack_svg__a"/><use xlink:href="#fascistBoardBack_svg__a" width="100%" height="100%" transform="translate(113.152)"/><use transform="translate(117.504)" height="100%" width="100%" xlink:href="#fascistBoardBack_svg__a"/><use xlink:href="#fascistBoardBack_svg__a" width="100%" height="100%" transform="translate(121.856)"/><use xlink:href="#fascistBoardBack_svg__a" width="100%" height="100%" transform="translate(126.208)"/><use transform="translate(130.56)" height="100%" width="100%" xlink:href="#fascistBoardBack_svg__a"/><use xlink:href="#fascistBoardBack_svg__a" width="100%" height="100%" transform="translate(134.912)"/><use transform="translate(139.264)" height="100%" width="100%" xlink:href="#fascistBoardBack_svg__a"/><use xlink:href="#fascistBoardBack_svg__a" width="100%" height="100%" transform="translate(143.616)"/><use transform="translate(147.968)" height="100%" width="100%" xlink:href="#fascistBoardBack_svg__a"/><use xlink:href="#fascistBoardBack_svg__a" width="100%" height="100%" transform="translate(152.32)"/><use transform="translate(156.672)" height="100%" width="100%" xlink:href="#fascistBoardBack_svg__a"/><use transform="translate(161.024)" height="100%" width="100%" xlink:href="#fascistBoardBack_svg__a"/><use xlink:href="#fascistBoardBack_svg__a" width="100%" height="100%" transform="translate(165.376)"/><use transform="translate(169.728)" height="100%" width="100%" xlink:href="#fascistBoardBack_svg__a"/><use xlink:href="#fascistBoardBack_svg__a" width="100%" height="100%" transform="translate(174.08)"/><use xlink:href="#fascistBoardBack_svg__a" width="100%" height="100%" transform="translate(178.432)"/><use transform="translate(182.784)" height="100%" width="100%" xlink:href="#fascistBoardBack_svg__a"/><use xlink:href="#fascistBoardBack_svg__a" width="100%" height="100%" transform="translate(187.136)"/><use transform="translate(191.488)" height="100%" width="100%" xlink:href="#fascistBoardBack_svg__a"/><use transform="translate(195.84)" height="100%" width="100%" xlink:href="#fascistBoardBack_svg__a"/><use xlink:href="#fascistBoardBack_svg__a" width="100%" height="100%" transform="translate(200.192)"/><use transform="translate(204.544)" height="100%" width="100%" xlink:href="#fascistBoardBack_svg__a"/><use xlink:href="#fascistBoardBack_svg__a" width="100%" height="100%" transform="translate(208.896)"/><use transform="translate(213.248)" height="100%" width="100%" xlink:href="#fascistBoardBack_svg__a"/><use xlink:href="#fascistBoardBack_svg__a" width="100%" height="100%" transform="translate(217.6)"/><use transform="translate(221.952)" height="100%" width="100%" xlink:href="#fascistBoardBack_svg__a"/><use xlink:href="#fascistBoardBack_svg__a" width="100%" height="100%" transform="translate(226.304)"/><use xlink:href="#fascistBoardBack_svg__a" width="100%" height="100%" transform="translate(230.656)"/><use transform="translate(235.008)" height="100%" width="100%" xlink:href="#fascistBoardBack_svg__a"/><use xlink:href="#fascistBoardBack_svg__a" width="100%" height="100%" transform="translate(239.36)"/><use transform="translate(243.712)" height="100%" width="100%" xlink:href="#fascistBoardBack_svg__a"/><use transform="translate(248.064)" height="100%" width="100%" xlink:href="#fascistBoardBack_svg__a"/><use xlink:href="#fascistBoardBack_svg__a" width="100%" height="100%" transform="translate(252.416)"/><use transform="translate(256.768)" height="100%" width="100%" xlink:href="#fascistBoardBack_svg__a"/><use xlink:href="#fascistBoardBack_svg__a" width="100%" height="100%" transform="translate(261.12)"/><use xlink:href="#fascistBoardBack_svg__a" width="100%" height="100%" transform="translate(265.472)"/><use transform="translate(269.824)" height="100%" width="100%" xlink:href="#fascistBoardBack_svg__a"/><use xlink:href="#fascistBoardBack_svg__a" width="100%" height="100%" transform="translate(274.176)"/><use transform="translate(278.528)" height="100%" width="100%" xlink:href="#fascistBoardBack_svg__a"/><use xlink:href="#fascistBoardBack_svg__a" width="100%" height="100%" transform="translate(282.88)"/><use transform="translate(287.232)" height="100%" width="100%" xlink:href="#fascistBoardBack_svg__a"/><use xlink:href="#fascistBoardBack_svg__a" width="100%" height="100%" transform="translate(291.584)"/><use transform="translate(295.936)" height="100%" width="100%" xlink:href="#fascistBoardBack_svg__a"/><use transform="translate(300.288)" height="100%" width="100%" xlink:href="#fascistBoardBack_svg__a"/><use xlink:href="#fascistBoardBack_svg__a" width="100%" height="100%" transform="translate(304.64)"/><use transform="translate(308.992)" height="100%" width="100%" xlink:href="#fascistBoardBack_svg__a"/><use xlink:href="#fascistBoardBack_svg__a" width="100%" height="100%" transform="translate(313.344)"/><use xlink:href="#fascistBoardBack_svg__a" width="100%" height="100%" transform="translate(317.696)"/><use transform="translate(322.048)" height="100%" width="100%" xlink:href="#fascistBoardBack_svg__a"/><use xlink:href="#fascistBoardBack_svg__a" width="100%" height="100%" transform="translate(326.4)"/><use transform="translate(330.752)" height="100%" width="100%" xlink:href="#fascistBoardBack_svg__a"/><use transform="translate(335.104)" height="100%" width="100%" xlink:href="#fascistBoardBack_svg__a"/><use xlink:href="#fascistBoardBack_svg__a" width="100%" height="100%" transform="translate(339.456)"/><use transform="translate(343.808)" height="100%" width="100%" xlink:href="#fascistBoardBack_svg__a"/><use xlink:href="#fascistBoardBack_svg__a" width="100%" height="100%" transform="translate(348.16)"/><use transform="translate(352.512)" height="100%" width="100%" xlink:href="#fascistBoardBack_svg__a"/><use xlink:href="#fascistBoardBack_svg__a" width="100%" height="100%" transform="translate(356.864)"/><use transform="translate(361.216)" height="100%" width="100%" xlink:href="#fascistBoardBack_svg__a"/><use transform="matrix(1 0 0 -1 4.352 451.336)" height="100%" width="100%" xlink:href="#fascistBoardBack_svg__a"/><use xlink:href="#fascistBoardBack_svg__a" width="100%" height="100%" transform="matrix(1 0 0 -1 8.704 451.336)"/><use transform="matrix(1 0 0 -1 13.056 451.336)" height="100%" width="100%" xlink:href="#fascistBoardBack_svg__a"/><use xlink:href="#fascistBoardBack_svg__a" width="100%" height="100%" transform="matrix(1 0 0 -1 17.408 451.336)"/><use xlink:href="#fascistBoardBack_svg__a" width="100%" height="100%" transform="matrix(1 0 0 -1 21.76 451.336)"/><use transform="matrix(1 0 0 -1 26.112 451.336)" height="100%" width="100%" xlink:href="#fascistBoardBack_svg__a"/><use xlink:href="#fascistBoardBack_svg__a" width="100%" height="100%" transform="matrix(1 0 0 -1 30.464 451.336)"/><use transform="matrix(1 0 0 -1 34.816 451.336)" height="100%" width="100%" xlink:href="#fascistBoardBack_svg__a"/><use transform="matrix(1 0 0 -1 39.168 451.336)" height="100%" width="100%" xlink:href="#fascistBoardBack_svg__a"/><use xlink:href="#fascistBoardBack_svg__a" width="100%" height="100%" transform="matrix(1 0 0 -1 43.52 451.336)"/><use transform="matrix(1 0 0 -1 47.872 451.336)" height="100%" width="100%" xlink:href="#fascistBoardBack_svg__a"/><use xlink:href="#fascistBoardBack_svg__a" width="100%" height="100%" transform="matrix(1 0 0 -1 52.224 451.336)"/><use xlink:href="#fascistBoardBack_svg__a" width="100%" height="100%" transform="matrix(1 0 0 -1 56.576 451.336)"/><use transform="matrix(1 0 0 -1 60.928 451.336)" height="100%" width="100%" xlink:href="#fascistBoardBack_svg__a"/><use xlink:href="#fascistBoardBack_svg__a" width="100%" height="100%" transform="matrix(1 0 0 -1 65.28 451.336)"/><use transform="matrix(1 0 0 -1 69.632 451.336)" height="100%" width="100%" xlink:href="#fascistBoardBack_svg__a"/><use xlink:href="#fascistBoardBack_svg__a" width="100%" height="100%" transform="matrix(1 0 0 -1 73.984 451.336)"/><use transform="matrix(1 0 0 -1 78.336 451.336)" height="100%" width="100%" xlink:href="#fascistBoardBack_svg__a"/><use xlink:href="#fascistBoardBack_svg__a" width="100%" height="100%" transform="matrix(1 0 0 -1 82.688 451.336)"/><use transform="matrix(1 0 0 -1 87.04 451.336)" height="100%" width="100%" xlink:href="#fascistBoardBack_svg__a"/><use transform="matrix(1 0 0 -1 91.392 451.336)" height="100%" width="100%" xlink:href="#fascistBoardBack_svg__a"/><use xlink:href="#fascistBoardBack_svg__a" width="100%" height="100%" transform="matrix(1 0 0 -1 95.744 451.336)"/><use transform="matrix(1 0 0 -1 100.096 451.336)" height="100%" width="100%" xlink:href="#fascistBoardBack_svg__a"/><use xlink:href="#fascistBoardBack_svg__a" width="100%" height="100%" transform="matrix(1 0 0 -1 104.448 451.336)"/><use xlink:href="#fascistBoardBack_svg__a" width="100%" height="100%" transform="matrix(1 0 0 -1 108.8 451.336)"/><use transform="matrix(1 0 0 -1 113.152 451.336)" height="100%" width="100%" xlink:href="#fascistBoardBack_svg__a"/><use xlink:href="#fascistBoardBack_svg__a" width="100%" height="100%" transform="matrix(1 0 0 -1 117.504 451.336)"/><use transform="matrix(1 0 0 -1 121.856 451.336)" height="100%" width="100%" xlink:href="#fascistBoardBack_svg__a"/><use transform="matrix(1 0 0 -1 126.208 451.336)" height="100%" width="100%" xlink:href="#fascistBoardBack_svg__a"/><use xlink:href="#fascistBoardBack_svg__a" width="100%" height="100%" transform="matrix(1 0 0 -1 130.56 451.336)"/><use transform="matrix(1 0 0 -1 134.912 451.336)" height="100%" width="100%" xlink:href="#fascistBoardBack_svg__a"/><use xlink:href="#fascistBoardBack_svg__a" width="100%" height="100%" transform="matrix(1 0 0 -1 139.264 451.336)"/><use transform="matrix(1 0 0 -1 143.616 451.336)" height="100%" width="100%" xlink:href="#fascistBoardBack_svg__a"/><use xlink:href="#fascistBoardBack_svg__a" width="100%" height="100%" transform="matrix(1 0 0 -1 147.968 451.336)"/><use transform="matrix(1 0 0 -1 152.32 451.336)" height="100%" width="100%" xlink:href="#fascistBoardBack_svg__a"/><use xlink:href="#fascistBoardBack_svg__a" width="100%" height="100%" transform="matrix(1 0 0 -1 156.672 451.336)"/><use xlink:href="#fascistBoardBack_svg__a" width="100%" height="100%" transform="matrix(1 0 0 -1 161.024 451.336)"/><use transform="matrix(1 0 0 -1 165.376 451.336)" height="100%" width="100%" xlink:href="#fascistBoardBack_svg__a"/><use xlink:href="#fascistBoardBack_svg__a" width="100%" height="100%" transform="matrix(1 0 0 -1 169.728 451.336)"/><use transform="matrix(1 0 0 -1 174.08 451.336)" height="100%" width="100%" xlink:href="#fascistBoardBack_svg__a"/><use transform="matrix(1 0 0 -1 178.432 451.336)" height="100%" width="100%" xlink:href="#fascistBoardBack_svg__a"/><use xlink:href="#fascistBoardBack_svg__a" width="100%" height="100%" transform="matrix(1 0 0 -1 182.784 451.336)"/><use transform="matrix(1 0 0 -1 187.136 451.336)" height="100%" width="100%" xlink:href="#fascistBoardBack_svg__a"/><use xlink:href="#fascistBoardBack_svg__a" width="100%" height="100%" transform="matrix(1 0 0 -1 191.488 451.336)"/><use xlink:href="#fascistBoardBack_svg__a" width="100%" height="100%" transform="matrix(1 0 0 -1 195.84 451.336)"/><use transform="matrix(1 0 0 -1 200.192 451.336)" height="100%" width="100%" xlink:href="#fascistBoardBack_svg__a"/><use xlink:href="#fascistBoardBack_svg__a" width="100%" height="100%" transform="matrix(1 0 0 -1 204.544 451.336)"/><use transform="matrix(1 0 0 -1 208.896 451.336)" height="100%" width="100%" xlink:href="#fascistBoardBack_svg__a"/><use xlink:href="#fascistBoardBack_svg__a" width="100%" height="100%" transform="matrix(1 0 0 -1 213.248 451.336)"/><use transform="matrix(1 0 0 -1 217.6 451.336)" height="100%" width="100%" xlink:href="#fascistBoardBack_svg__a"/><use xlink:href="#fascistBoardBack_svg__a" width="100%" height="100%" transform="matrix(1 0 0 -1 221.952 451.336)"/><use transform="matrix(1 0 0 -1 226.304 451.336)" height="100%" width="100%" xlink:href="#fascistBoardBack_svg__a"/><use transform="matrix(1 0 0 -1 230.656 451.336)" height="100%" width="100%" xlink:href="#fascistBoardBack_svg__a"/><use xlink:href="#fascistBoardBack_svg__a" width="100%" height="100%" transform="matrix(1 0 0 -1 235.008 451.336)"/><use transform="matrix(1 0 0 -1 239.36 451.336)" height="100%" width="100%" xlink:href="#fascistBoardBack_svg__a"/><use xlink:href="#fascistBoardBack_svg__a" width="100%" height="100%" transform="matrix(1 0 0 -1 243.712 451.336)"/><use xlink:href="#fascistBoardBack_svg__a" width="100%" height="100%" transform="matrix(1 0 0 -1 248.064 451.336)"/><use transform="matrix(1 0 0 -1 252.416 451.336)" height="100%" width="100%" xlink:href="#fascistBoardBack_svg__a"/><use xlink:href="#fascistBoardBack_svg__a" width="100%" height="100%" transform="matrix(1 0 0 -1 256.768 451.336)"/><use transform="matrix(1 0 0 -1 261.12 451.336)" height="100%" width="100%" xlink:href="#fascistBoardBack_svg__a"/><use transform="matrix(1 0 0 -1 265.472 451.336)" height="100%" width="100%" xlink:href="#fascistBoardBack_svg__a"/><use xlink:href="#fascistBoardBack_svg__a" width="100%" height="100%" transform="matrix(1 0 0 -1 269.824 451.336)"/><use transform="matrix(1 0 0 -1 274.176 451.336)" height="100%" width="100%" xlink:href="#fascistBoardBack_svg__a"/><use xlink:href="#fascistBoardBack_svg__a" width="100%" height="100%" transform="matrix(1 0 0 -1 278.528 451.336)"/><use transform="matrix(1 0 0 -1 282.88 451.336)" height="100%" width="100%" xlink:href="#fascistBoardBack_svg__a"/><use xlink:href="#fascistBoardBack_svg__a" width="100%" height="100%" transform="matrix(1 0 0 -1 287.232 451.336)"/><use transform="matrix(1 0 0 -1 291.584 451.336)" height="100%" width="100%" xlink:href="#fascistBoardBack_svg__a"/><use xlink:href="#fascistBoardBack_svg__a" width="100%" height="100%" transform="matrix(1 0 0 -1 295.936 451.336)"/><use xlink:href="#fascistBoardBack_svg__a" width="100%" height="100%" transform="matrix(1 0 0 -1 300.288 451.336)"/><use transform="matrix(1 0 0 -1 304.64 451.336)" height="100%" width="100%" xlink:href="#fascistBoardBack_svg__a"/><use xlink:href="#fascistBoardBack_svg__a" width="100%" height="100%" transform="matrix(1 0 0 -1 308.992 451.336)"/><use transform="matrix(1 0 0 -1 313.344 451.336)" height="100%" width="100%" xlink:href="#fascistBoardBack_svg__a"/><use transform="matrix(1 0 0 -1 317.696 451.336)" height="100%" width="100%" xlink:href="#fascistBoardBack_svg__a"/><use xlink:href="#fascistBoardBack_svg__a" width="100%" height="100%" transform="matrix(1 0 0 -1 322.048 451.336)"/><use transform="matrix(1 0 0 -1 326.4 451.336)" height="100%" width="100%" xlink:href="#fascistBoardBack_svg__a"/><use xlink:href="#fascistBoardBack_svg__a" width="100%" height="100%" transform="matrix(1 0 0 -1 330.752 451.336)"/><use xlink:href="#fascistBoardBack_svg__a" width="100%" height="100%" transform="matrix(1 0 0 -1 335.104 451.336)"/><use transform="matrix(1 0 0 -1 339.456 451.336)" height="100%" width="100%" xlink:href="#fascistBoardBack_svg__a"/><use xlink:href="#fascistBoardBack_svg__a" width="100%" height="100%" transform="matrix(1 0 0 -1 343.808 451.336)"/><use transform="matrix(1 0 0 -1 348.16 451.336)" height="100%" width="100%" xlink:href="#fascistBoardBack_svg__a"/><use xlink:href="#fascistBoardBack_svg__a" width="100%" height="100%" transform="matrix(1 0 0 -1 352.512 451.336)"/><use transform="matrix(1 0 0 -1 356.864 451.336)" height="100%" width="100%" xlink:href="#fascistBoardBack_svg__a"/><use xlink:href="#fascistBoardBack_svg__a" width="100%" height="100%" transform="matrix(1 0 0 -1 361.216 451.336)"/><use xlink:href="#fascistBoardBack_svg__a" width="100%" height="100%" transform="matrix(1 0 0 -1 0 451.336)"/><use xlink:href="#fascistBoardBack_svg__a" width="100%" height="100%" transform="rotate(-90 -374.795 171.447)"/><use transform="rotate(-90 -372.628 173.614)" height="100%" width="100%" xlink:href="#fascistBoardBack_svg__a"/><use xlink:href="#fascistBoardBack_svg__a" width="100%" height="100%" transform="rotate(-90 -370.46 175.781)"/><use transform="rotate(-90 -368.294 177.949)" height="100%" width="100%" xlink:href="#fascistBoardBack_svg__a"/><use transform="rotate(-90 -366.126 180.116)" height="100%" width="100%" xlink:href="#fascistBoardBack_svg__a"/><use xlink:href="#fascistBoardBack_svg__a" width="100%" height="100%" transform="rotate(-90 -363.96 182.283)"/><use transform="rotate(-90 -361.792 184.45)" height="100%" width="100%" xlink:href="#fascistBoardBack_svg__a"/><use xlink:href="#fascistBoardBack_svg__a" width="100%" height="100%" transform="rotate(-90 -359.625 186.618)"/><use xlink:href="#fascistBoardBack_svg__a" width="100%" height="100%" transform="rotate(-90 -357.457 188.785)"/><use transform="rotate(-90 -355.29 190.952)" height="100%" width="100%" xlink:href="#fascistBoardBack_svg__a"/><use xlink:href="#fascistBoardBack_svg__a" width="100%" height="100%" transform="rotate(-90 -353.123 193.12)"/><use transform="rotate(-90 -350.955 195.287)" height="100%" width="100%" xlink:href="#fascistBoardBack_svg__a"/><use transform="rotate(-90 -348.788 197.454)" height="100%" width="100%" xlink:href="#fascistBoardBack_svg__a"/><use xlink:href="#fascistBoardBack_svg__a" width="100%" height="100%" transform="rotate(-90 -346.62 199.621)"/><use transform="rotate(-90 -344.454 201.789)" height="100%" width="100%" xlink:href="#fascistBoardBack_svg__a"/><use xlink:href="#fascistBoardBack_svg__a" width="100%" height="100%" transform="rotate(-90 -342.286 203.956)"/><use xlink:href="#fascistBoardBack_svg__a" width="100%" height="100%" transform="rotate(-90 -340.119 206.123)"/><use transform="rotate(-90 -337.952 208.29)" height="100%" width="100%" xlink:href="#fascistBoardBack_svg__a"/><use xlink:href="#fascistBoardBack_svg__a" width="100%" height="100%" transform="rotate(-90 -335.784 210.458)"/><use transform="rotate(-90 -333.617 212.625)" height="100%" width="100%" xlink:href="#fascistBoardBack_svg__a"/><use transform="rotate(-90 -331.45 214.792)" height="100%" width="100%" xlink:href="#fascistBoardBack_svg__a"/><use xlink:href="#fascistBoardBack_svg__a" width="100%" height="100%" transform="rotate(-90 -329.283 216.96)"/><use transform="rotate(-90 -327.115 219.127)" height="100%" width="100%" xlink:href="#fascistBoardBack_svg__a"/><use xlink:href="#fascistBoardBack_svg__a" width="100%" height="100%" transform="rotate(-90 -324.948 221.294)"/><use xlink:href="#fascistBoardBack_svg__a" width="100%" height="100%" transform="rotate(-90 -322.78 223.461)"/><use transform="rotate(-90 -320.614 225.629)" height="100%" width="100%" xlink:href="#fascistBoardBack_svg__a"/><use transform="matrix(0 -1 -1 0 157.988 -203.349)" height="100%" width="100%" xlink:href="#fascistBoardBack_svg__a"/><use xlink:href="#fascistBoardBack_svg__a" width="100%" height="100%" transform="matrix(0 -1 -1 0 157.988 -199.014)"/><use transform="matrix(0 -1 -1 0 157.988 -194.68)" height="100%" width="100%" xlink:href="#fascistBoardBack_svg__a"/><use xlink:href="#fascistBoardBack_svg__a" width="100%" height="100%" transform="matrix(0 -1 -1 0 157.988 -190.345)"/><use xlink:href="#fascistBoardBack_svg__a" width="100%" height="100%" transform="matrix(0 -1 -1 0 157.988 -186.01)"/><use transform="matrix(0 -1 -1 0 157.988 -181.676)" height="100%" width="100%" xlink:href="#fascistBoardBack_svg__a"/><use xlink:href="#fascistBoardBack_svg__a" width="100%" height="100%" transform="matrix(0 -1 -1 0 157.988 -177.341)"/><use transform="matrix(0 -1 -1 0 157.988 -173.007)" height="100%" width="100%" xlink:href="#fascistBoardBack_svg__a"/><use transform="matrix(0 -1 -1 0 157.988 -168.672)" height="100%" width="100%" xlink:href="#fascistBoardBack_svg__a"/><use xlink:href="#fascistBoardBack_svg__a" width="100%" height="100%" transform="matrix(0 -1 -1 0 157.988 -164.338)"/><use transform="matrix(0 -1 -1 0 157.988 -160.003)" height="100%" width="100%" xlink:href="#fascistBoardBack_svg__a"/><use xlink:href="#fascistBoardBack_svg__a" width="100%" height="100%" transform="matrix(0 -1 -1 0 157.988 -155.669)"/><use xlink:href="#fascistBoardBack_svg__a" width="100%" height="100%" transform="matrix(0 -1 -1 0 157.988 -151.334)"/><use transform="matrix(0 -1 -1 0 157.988 -147)" height="100%" width="100%" xlink:href="#fascistBoardBack_svg__a"/><use xlink:href="#fascistBoardBack_svg__a" width="100%" height="100%" transform="matrix(0 -1 -1 0 157.988 -142.665)"/><use transform="matrix(0 -1 -1 0 157.988 -138.33)" height="100%" width="100%" xlink:href="#fascistBoardBack_svg__a"/><use transform="matrix(0 -1 -1 0 157.988 -133.996)" height="100%" width="100%" xlink:href="#fascistBoardBack_svg__a"/><use xlink:href="#fascistBoardBack_svg__a" width="100%" height="100%" transform="matrix(0 -1 -1 0 157.988 -129.661)"/><use transform="matrix(0 -1 -1 0 157.988 -125.327)" height="100%" width="100%" xlink:href="#fascistBoardBack_svg__a"/><use xlink:href="#fascistBoardBack_svg__a" width="100%" height="100%" transform="matrix(0 -1 -1 0 157.988 -120.992)"/><use xlink:href="#fascistBoardBack_svg__a" width="100%" height="100%" transform="matrix(0 -1 -1 0 157.988 -116.658)"/><use transform="matrix(0 -1 -1 0 157.988 -112.323)" height="100%" width="100%" xlink:href="#fascistBoardBack_svg__a"/><use xlink:href="#fascistBoardBack_svg__a" width="100%" height="100%" transform="rotate(-90 25 -132.988)"/><use transform="matrix(0 -1 -1 0 157.988 -103.654)" height="100%" width="100%" xlink:href="#fascistBoardBack_svg__a"/><use transform="matrix(0 -1 -1 0 157.988 -99.32)" height="100%" width="100%" xlink:href="#fascistBoardBack_svg__a"/><use xlink:href="#fascistBoardBack_svg__a" width="100%" height="100%" transform="matrix(0 -1 -1 0 157.988 -94.985)"/></g><g font-weight="900" font-size="11.289" font-family="EskapadeFrakturW04-Black" letter-spacing="0" word-spacing="0" paint-order="stroke fill markers"><path style="line-height:1.25;-inkscape-font-specification:'EskapadeFrakturW04-Black, Heavy';font-variant-ligatures:normal;font-variant-position:normal;font-variant-caps:normal;font-variant-numeric:normal;font-variant-alternates:normal;font-feature-settings:normal;text-indent:0;text-align:start;text-decoration-line:none;text-decoration-style:solid;text-decoration-color:#000;text-transform:none;text-orientation:mixed;white-space:normal;shape-padding:0;isolation:auto;mix-blend-mode:normal;solid-color:#000;solid-opacity:1" d="m252.538 38.288-18.092 4.447-.163.55-.185.619-.036.005-.823.1.283-.682-12.432 1.516-.248.451-3.552 6.487-2.629-1.182-2.266-1.018h-.001l-1.132-.51-14.209 2.403-.223.473-.814 1.733-1.242.142.244-.666-8.944 1.027-.234.209c-1.28 1.132-2.656 2.709-4.164 4.742l-.05.07-.565-.254-2.266-1.018h-.002l-1.13-.509-12.432 1.516-.248.451-1.687 3.082-1.983-.89v-.002h-.001l-1.132-.508-9.178 1.029-.228.186c-.639.518-1.354 1.198-2.166 2.052a25.163 25.163 0 0 0-2.354 2.895c-.75 1.04-1.343 1.93-1.777 2.69l-.06.105-.034.117c-.307 1.081-.506 2.354-.611 3.834v.016c-.078 1.41-.091 2.092-.04 3.303l.034.793 1.133.509h.002l1.13.508 1.133.51 1.134.51 1.132.508h.001l1.13.509h.004l1.131.51.688.308c-.012.492-.034.978-.074 1.397l-7.483.867-1.953 7.172 5.652 2.608-2.157-.056-3.323 7.674 2.264 1.018h.002l1.397.628v18.96l2.263 1.017h.001l10.194 4.582v.002h.002l4.53 2.035h.001l4.53 2.036v.002h.001l2.265 1.017 6.822-1.678v-3.57l.948.425v.002h.004l2.264 1.017 7.16.184 1.535-3.547 1.522.684v.002h.002l2.265 1.018 6.822-1.676v-5.35l.8.36h.001l4.53 2.035v.002h.002l2.265 1.018 6.722-1.655V111.45l2.301 1.034.004.003h.002l1.132.508v.001h.001l3.393 1.525.003.002h.002l4.526 2.033.004.003h.002l2.265 1.018 8.45-1.508 1.442-4.583 2.938 1.321.002.002h.002l2.265 1.018 10.662-2.022 1.395-3.623 2.337 1.05v.001h.002l2.265 1.018 6.82-1.676v-3.143l1.01.454v.002h.004l2.264 1.017 6.816-.226 2.12-6.371-1.133-.51v-.001h-.004l-3.395-1.526-.071-.031-1.18-2.206-1.388-1.328 3.438-2.807.015-.453c.056-1.534-.059-4.684-.4-6.505-.329-1.757-.855-2.632-1.399-3.686l-.336-.648-1.13-.508-.002-.003h-.004l-3.395-1.526-.042-.019 1.323-.325V56.772l4.875-1.198 1.967-6.592-13.592-6.11h-.001l-6.796-3.054z" color="#000" overflow="visible" fill="#fff"/><path d="m235.421 73.214-2.185 4.652 3.528-.677v21.094l4.82-1.185V76.356l2.235-.325c.664 1.626.997 3.576.997 5.852l-4.23 4.158v.59l3.424 1.931 2.532 6.627 5.407-.18 1.437-4.32-2.57.133-2.608-4.87-2.09-2 3.964-3.235c.051-1.419-.078-4.649-.384-6.286-.307-1.638-.742-2.32-1.305-3.41zm-14.77 2.771-4.16 7.596v15.018l2.991 3.444 9.55-1.81 1.61-4.177-8.989 1.711V90.85l6.228-1.531v-4.033l-6.228 1.531v-6.9l7.457-.928 1.762-4.25zM179.916 87.54l-1.304 4.37 6.037-1.485v21.455l4.723-1.161V89.263l5.079-1.248 1.304-4.37zm41.804-41.765-4.16 7.596v15.018l2.991 3.444 9.55-1.81 1.61-4.177-8.989 1.711v-6.918l6.228-1.531v-4.033l-6.228 1.531v-6.9l7.457-.928 1.762-4.25zm-35.218 9.366c-1.202 1.063-2.543 2.593-4.026 4.594-1.483 1.975-2.57 3.688-3.26 5.136-.511 2.606-.767 4.803-.767 6.593 0 4.142.525 7.617 1.573 10.428l10.698-1.595 1.69-5.784-9.492 1.712c-.748-3.034-.447-8.4-.447-10.544 0-1.304 1.146-2.507 1.402-3.106.255-.626 1.594-1.35 1.977-1.675l5.446-.495 2.225-6.07zm-42.27 35.074 1.381-5.072 7.67-.889c.256-1.29.269-4.22.039-5.391l-8.59-1.608c-.052-1.19-.039-1.804.038-3.203.102-1.432.294-2.642.575-3.632.41-.714.984-1.584 1.726-2.61a24.17 24.17 0 0 1 2.263-2.78c.792-.835 1.482-1.49 2.07-1.967l7.172-.805-2.224 5.127-5.868.484c-.409 1.097-.537 3.864-.383 4.9l8.245 1.386c.205 1.177.281 1.872.23 3.444-.051 1.546-.217 2.968-.498 4.264-1.688 2.946-3.542 5.37-5.561 7.274zm21.629-30.344-4.16 7.595v15.019l2.991 3.444 9.55-1.81 1.61-4.178-8.99 1.712v-6.919l6.228-1.53V69.17l-6.227 1.531v-6.9l7.456-.928 1.763-4.25zm9.19 29.776v24.66l-4.821 1.185V94.936l-3.107.15 2.416-5.58zm22.685-37.274-2.185 4.652 3.528-.676V77.44l4.82-1.185V55.514l2.235-.325c.664 1.626.997 3.577.997 5.852l-4.23 4.158v.591l3.424 1.93 2.532 6.627 5.407-.18 1.437-4.32-2.57.133-2.608-4.869-2.09-2 3.964-3.236c.051-1.418-.078-4.648-.384-6.286-.307-1.637-.742-2.32-1.305-3.41zm37.505-8.802-1.304 4.37 6.037-1.485V67.91l4.722-1.161V45.294l5.08-1.249 1.304-4.369zm-34.586 38.191-2.417 4.681 3.107-.15v16.969l2.953 2.554 7.386-1.317 1.457-4.636-7.073 1.316V81.926zm-42.91 22.498V92.984l4.82-1.185v20.364l3.107-.15-2.416 5.58-5.511-.141v-10.086l-5.216 1.282v11.122l-4.822 1.185V100.4l-3.106.15 2.416-5.58 5.512.141v10.431z" style="line-height:1.25;-inkscape-font-specification:'EskapadeFrakturW04-Black, Heavy';font-variant-ligatures:normal;font-variant-caps:normal;font-variant-numeric:normal;font-feature-settings:normal;text-align:start" fill="#e66443" stroke="#fff" stroke-width="2"/></g></svg>