<svg width="210mm" height="297mm" viewBox="0 0 210 297"><g font-weight="900" font-family="EskapadeFrakturW04-Black" letter-spacing="0" word-spacing="0"><path d="m98.166 23.97-.824 1.422 1.027.158v4.425l-.71-.079-.452 1.445 3.546.452c.263-.181.322-.46.706-.835.392-.377.655-.674.79-.892.113-.572.143-.687.09-1.402l-1.087-.96.873-.756c-.03-.323-.102-1.202-.215-1.579a5 5 0 0 0-.429-1.038H99.76zm1.593 1.772h.655c.106.188.184.373.237.553.06.173.117.425.17.756l-.72.607v.503l.776.663c.03.308.038.564.022.767a5.301 5.301 0 0 1-.09.734l-1.05-.125zm-7.631-1.885L90.84 26.25v2.235h-.622v.914h.622v2.27h1.39v-2.27h1.365v2.089l1.424.305.69-1.502-.724-.113v-4.143l-.543-1.851zm.102 1.638 1.365.258v2.732H92.23zm33.156 9.461-.712 1.203.915.181v4.995l.869.966 2.174.146.429-1.259-2.082-.124v-5.667zm-18.169 14.942-1.642-.135c-.136.09-.233.237-.294.44-.06.196-.09.46-.09.79 0 .256.057.722.068 1.084.015.52.086 1.047-.005 1.558-.037.205-.215.587-.215.587l1.766.135c.508-1.12.338-2.885.197-3.86zm-1.597-1.66 2.343.215c.422 1.167.632 2.254.632 3.263 0 .783-.082 1.49-.248 2.122-.165.256-.274.576-.59.96-.309.384-.53.752-.929 1.106l-2.66-.248c-.353-1.167-.53-2.22-.53-3.161 0-.331.03-.704.09-1.118a7.68 7.68 0 0 1 .271-1.14c.241-.361.399-.719.737-1.072.347-.354.553-.663.884-.926zm-7.595 10.758-.384 1.192h1.777v6.315h1.39v-6.315h1.495l.384-1.192z" style="line-height:1.25;-inkscape-font-specification:'EskapadeFrakturW04-Black, Heavy';font-variant-ligatures:normal;font-variant-caps:normal;font-variant-numeric:normal;font-feature-settings:normal;text-align:start" font-size="42.667"/><path d="m110.774 24.325-.858 1.456 1.05.158v4.38l-.711-.079-.452 1.479 4.313.474a7.82 7.82 0 0 0 1.083-1.276c.294-.429.504-.813.632-1.151a5.56 5.56 0 0 0 .294-.993c.067-.317.102-.629.102-.937 0-.444-.06-.88-.181-1.31a3.738 3.738 0 0 0-1.038-1.818h-2.18zm1.51 1.795h1.425c.27.3.474.662.61 1.083.143.422.214.885.214 1.389 0 .534-.041.96-.124 1.276a4.05 4.05 0 0 1-.282.823l-1.842-.146zm12.379 22.074-.644 1.211 1.039.056v6.21h1.419v-6.106l.657.066c.196.527.294 1.125.294 1.795l-1.245.918v.174l1.008.816.745 2.133 1.592.339.423-1.168-.757-.147-.767-1.622-.616-.74 1.167-.665c.015-.414-.023-1.374-.113-1.879-.09-.504-.218-.736-.384-1.098zm-3.298 13.139.835 4.019.169.022.937-4.447-1.354-.249.711-1.467 2.035.293-1.761 7.507-1.75-.192-.418-1.862-.034-1.739.499-.011-.847 3.804-2.083-.192-1.22-5.983-.677-.135.745-1.468 1.405.362.97 5.712.159.022.914-4.177zM110.2 48.343l-.632 1.411 1.038.057v6.208h1.32v-2.755l2.578-1.207a5.777 5.777 0 0 0 0-1.253 7.466 7.466 0 0 0-.203-1.298 4.523 4.523 0 0 0-.282-.87zm1.726 1.577 1.046.071c.105.293.08.452.126.873.052.422.063.593.033.917l-1.205.462zm-5.321-14.244v7.258h-1.42v-6.05l-.914-.181.711-1.468zm13.643-11.087-1.225 1.935v4.42l.88 1.23 2.812.159.474-1.113-2.646-.147v-2.036h1.833V27.85h-1.833v-2.032l2.195.267.518-1.123zM90.295 66.467l.407-1.392 2.257.293c.076-.361.08-1.223.012-1.584l-2.53-1.095a7.957 7.957 0 0 1 .012-.94c.03-.414.087-.757.17-1.028.12-.18.29-.395.508-.643.218-.256.44-.474.666-.655.233-.188.436-.331.61-.429l2.11.282-.655 1.348-1.727-.282c-.12.294-.158 1.099-.113 1.415l2.427 1.005c.06.36.083.57.068 1.03a6.44 6.44 0 0 1-.147 1.22c-.496.744-1.042 1.324-1.636 1.738z" style="line-height:1.25;-inkscape-font-specification:'EskapadeFrakturW04-Black, Heavy';font-variant-ligatures:normal;font-variant-caps:normal;font-variant-numeric:normal;font-feature-settings:normal;text-align:start" font-size="11.289"/><g style="line-height:1.25;-inkscape-font-specification:'EskapadeFrakturW04-Black, Heavy';font-variant-ligatures:normal;font-variant-caps:normal;font-variant-numeric:normal;font-feature-settings:normal;text-align:start"><path style="-inkscape-font-specification:'EskapadeFrakturW04-Black, Heavy';font-variant-ligatures:normal;font-variant-caps:normal;font-variant-numeric:normal;font-feature-settings:normal;text-align:start" d="M106.592 24.272c-.353.226-.748.579-1.185 1.06-.436.475-.756.9-.96 1.277-.15.73-.225 1.358-.225 1.885 0 1.219.154 2.28.463 3.183l3.15.305.496-1.58-2.794-.183c-.22-.948-.131-2.506-.131-3.137 0-.383.337-.654.412-.812.076-.166.47-.283.583-.35l1.603.248.654-1.625z" aria-label="C" font-size="11.289"/></g><path d="m126.701 24.556-1.246 1.824v5.852h1.518v-3.194H129V27.75h-2.026V26.2l2.196.296.485-1.569z" style="line-height:1.25;-inkscape-font-specification:'EskapadeFrakturW04-Black, Heavy';font-variant-ligatures:normal;font-variant-caps:normal;font-variant-numeric:normal;font-feature-settings:normal;text-align:start" font-size="11.289"/><g style="line-height:1.25;-inkscape-font-specification:'EskapadeFrakturW04-Black, Heavy';font-variant-ligatures:normal;font-variant-caps:normal;font-variant-numeric:normal;font-feature-settings:normal;text-align:start"><path d="M100.27 38.436v-3.32h1.419v5.995l.914.181-.711 1.468-1.622-.44v-2.97h-1.535v3.274h-1.42v-6.05l-.914-.181.711-1.468 1.623.44v3.07z" style="-inkscape-font-specification:'EskapadeFrakturW04-Black, Heavy';font-variant-ligatures:normal;font-variant-caps:normal;font-variant-numeric:normal;font-feature-settings:normal;text-align:start" aria-label="H" font-size="11.289"/></g><path style="line-height:1.25;-inkscape-font-specification:'EskapadeFrakturW04-Black, Heavy';font-variant-ligatures:normal;font-variant-caps:normal;font-variant-numeric:normal;font-feature-settings:normal;text-align:start" d="m95.092 72.52-.858 3.568v2.686h-1.32v-2.246l-1.343-3.85-.768-.135.712-1.468 1.138.35 1.073 3.229.022.948-.476.034.858-3.578.824-1.028 1.498.192-.7 1.502z" font-size="11.289"/></g></svg>