<svg xmlns:xlink="http://www.w3.org/1999/xlink" width="351.496" height="119mm" viewBox="0 0 93 119"><defs><clipPath clipPathUnits="userSpaceOnUse" id="membershipCardFascist_svg__a"><path stroke-width=".132" stroke-linecap="round" d="M-55.972 192.276h63v89h-63z"/></clipPath></defs><g fill="#fdc34a"><path d="M10 10h73v99H10z"/><path d="M15 15h63v89H15z"/></g><g transform="translate(129.56 -177.276)" fill="#dc3b06"><ellipse ry="25.526" rx="25.608" cy="239.299" cx="-83.06" stroke="#dc3b06" stroke-width=".5" stroke-dasharray=".50000001,.50000001"/><circle r="24.595" cy="239.299" cx="-83.06" stroke="#fdc34a" stroke-width=".636" stroke-dasharray=".63600087,.63600087"/></g><g transform="matrix(-.52791 0 0 .52791 -109.86 -86.963)"><circle cx="-281.466" cy="211.741" r="6.351" fill="#372a10"/><circle r="5.11" cy="211.741" cx="-281.466" fill="#fdc34a"/><circle cx="-281.466" cy="211.741" r="3.299" fill="#654e1e"/><circle r="1.591" cy="211.741" cx="-281.466" fill="#372a10"/><path d="m-277.45 215.874 2.493 2.358" fill="none" stroke="#372a10" stroke-width="1.3"/><path d="m-274.598 216.592-2.134 2.135 8.205 8.755.002-.002a1.999 1.999 0 0 0 1.496.677 1.999 1.999 0 0 0 1.998-2 1.999 1.999 0 0 0-.785-1.584l.002-.002z" fill="#372a10"/></g><text y="204.571" x="-50.959" style="line-height:1.25;-inkscape-font-specification:'Futura-Bold, Medium';font-variant-ligatures:normal;font-variant-caps:normal;font-variant-numeric:normal;font-feature-settings:normal;text-align:start" font-weight="500" font-size="3.903" font-family="Futura-Bold" letter-spacing=".341" word-spacing="7.803" fill="#372a10" stroke-width=".163" transform="translate(70.493 -177.276)"><tspan style="-inkscape-font-specification:'Futura-Bold, Medium';font-variant-ligatures:normal;font-variant-caps:normal;font-variant-numeric:normal;font-feature-settings:normal;text-align:start" y="204.571" x="-50.959">PARTY MEMBERSHIP</tspan></text><g transform="translate(70.493 -177.276)"><circle id="membershipCardFascist_svg__b" cx="-33.571" cy="206.897" r=".535" opacity="1" vector-effect="none" fill="#372a10" fill-opacity="1" stroke="none" stroke-width=".5" stroke-linecap="butt" stroke-linejoin="miter" stroke-miterlimit="4" stroke-dasharray=".50000001,.50000001" stroke-dashoffset="0" stroke-opacity="1" paint-order="normal"/><use xlink:href="#membershipCardFascist_svg__b" transform="translate(.892)" width="100%" height="100%"/><use height="100%" width="100%" transform="translate(1.785)" xlink:href="#membershipCardFascist_svg__b"/><use xlink:href="#membershipCardFascist_svg__b" transform="translate(2.677)" width="100%" height="100%"/><use height="100%" width="100%" transform="translate(3.57)" xlink:href="#membershipCardFascist_svg__b"/><use xlink:href="#membershipCardFascist_svg__b" transform="translate(4.462)" width="100%" height="100%"/><use height="100%" width="100%" transform="translate(5.355)" xlink:href="#membershipCardFascist_svg__b"/><use xlink:href="#membershipCardFascist_svg__b" transform="translate(6.247)" width="100%" height="100%"/><use height="100%" width="100%" transform="translate(7.14)" xlink:href="#membershipCardFascist_svg__b"/><use xlink:href="#membershipCardFascist_svg__b" transform="translate(8.032)" width="100%" height="100%"/><use height="100%" width="100%" transform="translate(8.924)" xlink:href="#membershipCardFascist_svg__b"/><use xlink:href="#membershipCardFascist_svg__b" transform="translate(9.817)" width="100%" height="100%"/><use height="100%" width="100%" transform="translate(10.71)" xlink:href="#membershipCardFascist_svg__b"/><use height="100%" width="100%" transform="translate(11.602)" xlink:href="#membershipCardFascist_svg__b"/><use xlink:href="#membershipCardFascist_svg__b" transform="translate(12.494)" width="100%" height="100%"/><use height="100%" width="100%" transform="translate(13.386)" xlink:href="#membershipCardFascist_svg__b"/><use xlink:href="#membershipCardFascist_svg__b" transform="translate(14.279)" width="100%" height="100%"/><use height="100%" width="100%" transform="translate(15.171)" xlink:href="#membershipCardFascist_svg__b"/><use xlink:href="#membershipCardFascist_svg__b" transform="translate(16.064)" width="100%" height="100%"/><use height="100%" width="100%" transform="translate(16.956)" xlink:href="#membershipCardFascist_svg__b"/><use xlink:href="#membershipCardFascist_svg__b" transform="translate(17.849)" width="100%" height="100%"/><use height="100%" width="100%" transform="translate(18.741)" xlink:href="#membershipCardFascist_svg__b"/><use xlink:href="#membershipCardFascist_svg__b" transform="translate(19.633)" width="100%" height="100%"/><use height="100%" width="100%" transform="translate(20.526)" xlink:href="#membershipCardFascist_svg__b"/><use xlink:href="#membershipCardFascist_svg__b" transform="translate(21.418)" width="100%" height="100%"/><use xlink:href="#membershipCardFascist_svg__b" transform="translate(22.31)" width="100%" height="100%"/><use height="100%" width="100%" transform="translate(23.203)" xlink:href="#membershipCardFascist_svg__b"/><use xlink:href="#membershipCardFascist_svg__b" transform="translate(24.096)" width="100%" height="100%"/><use height="100%" width="100%" transform="translate(24.988)" xlink:href="#membershipCardFascist_svg__b"/><use xlink:href="#membershipCardFascist_svg__b" transform="translate(25.88)" width="100%" height="100%"/><use height="100%" width="100%" transform="translate(26.773)" xlink:href="#membershipCardFascist_svg__b"/><use xlink:href="#membershipCardFascist_svg__b" transform="translate(27.665)" width="100%" height="100%"/><use height="100%" width="100%" transform="translate(28.558)" xlink:href="#membershipCardFascist_svg__b"/><use xlink:href="#membershipCardFascist_svg__b" transform="translate(29.45)" width="100%" height="100%"/><use height="100%" width="100%" transform="translate(30.343)" xlink:href="#membershipCardFascist_svg__b"/><use xlink:href="#membershipCardFascist_svg__b" transform="translate(31.235)" width="100%" height="100%"/><use height="100%" width="100%" transform="translate(32.127)" xlink:href="#membershipCardFascist_svg__b"/><use height="100%" width="100%" transform="translate(33.02)" xlink:href="#membershipCardFascist_svg__b"/><use xlink:href="#membershipCardFascist_svg__b" transform="translate(33.912)" width="100%" height="100%"/><use height="100%" width="100%" transform="translate(34.805)" xlink:href="#membershipCardFascist_svg__b"/><use xlink:href="#membershipCardFascist_svg__b" transform="translate(35.697)" width="100%" height="100%"/></g><g transform="translate(70.493 -177.276)"><circle r=".535" cy="206.897" cx="-33.571" fill="#372a10"/><use height="100%" width="100%" transform="translate(.892)" xlink:href="#membershipCardFascist_svg__b"/><use xlink:href="#membershipCardFascist_svg__b" transform="translate(1.785)" width="100%" height="100%"/><use height="100%" width="100%" transform="translate(2.677)" xlink:href="#membershipCardFascist_svg__b"/><use xlink:href="#membershipCardFascist_svg__b" transform="translate(3.57)" width="100%" height="100%"/><use height="100%" width="100%" transform="translate(4.462)" xlink:href="#membershipCardFascist_svg__b"/><use xlink:href="#membershipCardFascist_svg__b" transform="translate(5.355)" width="100%" height="100%"/><use height="100%" width="100%" transform="translate(6.247)" xlink:href="#membershipCardFascist_svg__b"/><use xlink:href="#membershipCardFascist_svg__b" transform="translate(7.14)" width="100%" height="100%"/><use height="100%" width="100%" transform="translate(8.032)" xlink:href="#membershipCardFascist_svg__b"/><use xlink:href="#membershipCardFascist_svg__b" transform="translate(8.924)" width="100%" height="100%"/><use height="100%" width="100%" transform="translate(9.817)" xlink:href="#membershipCardFascist_svg__b"/><use xlink:href="#membershipCardFascist_svg__b" transform="translate(10.71)" width="100%" height="100%"/><use xlink:href="#membershipCardFascist_svg__b" transform="translate(11.602)" width="100%" height="100%"/><use height="100%" width="100%" transform="translate(12.494)" xlink:href="#membershipCardFascist_svg__b"/><use xlink:href="#membershipCardFascist_svg__b" transform="translate(13.386)" width="100%" height="100%"/><use height="100%" width="100%" transform="translate(14.279)" xlink:href="#membershipCardFascist_svg__b"/><use xlink:href="#membershipCardFascist_svg__b" transform="translate(15.171)" width="100%" height="100%"/><use height="100%" width="100%" transform="translate(16.064)" xlink:href="#membershipCardFascist_svg__b"/><use xlink:href="#membershipCardFascist_svg__b" transform="translate(16.956)" width="100%" height="100%"/><use height="100%" width="100%" transform="translate(17.849)" xlink:href="#membershipCardFascist_svg__b"/><use xlink:href="#membershipCardFascist_svg__b" transform="translate(18.741)" width="100%" height="100%"/><use height="100%" width="100%" transform="translate(19.633)" xlink:href="#membershipCardFascist_svg__b"/><use xlink:href="#membershipCardFascist_svg__b" transform="translate(20.526)" width="100%" height="100%"/><use height="100%" width="100%" transform="translate(21.418)" xlink:href="#membershipCardFascist_svg__b"/><use height="100%" width="100%" transform="translate(22.31)" xlink:href="#membershipCardFascist_svg__b"/><use xlink:href="#membershipCardFascist_svg__b" transform="translate(23.203)" width="100%" height="100%"/><use height="100%" width="100%" transform="translate(24.096)" xlink:href="#membershipCardFascist_svg__b"/><use xlink:href="#membershipCardFascist_svg__b" transform="translate(24.988)" width="100%" height="100%"/><use height="100%" width="100%" transform="translate(25.88)" xlink:href="#membershipCardFascist_svg__b"/><use xlink:href="#membershipCardFascist_svg__b" transform="translate(26.773)" width="100%" height="100%"/><use height="100%" width="100%" transform="translate(27.665)" xlink:href="#membershipCardFascist_svg__b"/><use xlink:href="#membershipCardFascist_svg__b" transform="translate(28.558)" width="100%" height="100%"/><use height="100%" width="100%" transform="translate(29.45)" xlink:href="#membershipCardFascist_svg__b"/><use xlink:href="#membershipCardFascist_svg__b" transform="translate(30.343)" width="100%" height="100%"/><use height="100%" width="100%" transform="translate(31.235)" xlink:href="#membershipCardFascist_svg__b"/><use xlink:href="#membershipCardFascist_svg__b" transform="translate(32.127)" width="100%" height="100%"/><use xlink:href="#membershipCardFascist_svg__b" transform="translate(33.02)" width="100%" height="100%"/><use height="100%" width="100%" transform="translate(33.912)" xlink:href="#membershipCardFascist_svg__b"/><use xlink:href="#membershipCardFascist_svg__b" transform="translate(34.805)" width="100%" height="100%"/><use height="100%" width="100%" transform="translate(35.697)" xlink:href="#membershipCardFascist_svg__b"/></g><g transform="translate(54.004 -177.276)"><circle cx="-33.571" cy="206.897" r=".535" fill="#372a10"/><use xlink:href="#membershipCardFascist_svg__b" transform="translate(.892)" width="100%" height="100%"/><use height="100%" width="100%" transform="translate(1.785)" xlink:href="#membershipCardFascist_svg__b"/><use xlink:href="#membershipCardFascist_svg__b" transform="translate(2.677)" width="100%" height="100%"/><use height="100%" width="100%" transform="translate(3.57)" xlink:href="#membershipCardFascist_svg__b"/><use xlink:href="#membershipCardFascist_svg__b" transform="translate(4.462)" width="100%" height="100%"/><use height="100%" width="100%" transform="translate(5.355)" xlink:href="#membershipCardFascist_svg__b"/><use xlink:href="#membershipCardFascist_svg__b" transform="translate(6.247)" width="100%" height="100%"/><use height="100%" width="100%" transform="translate(7.14)" xlink:href="#membershipCardFascist_svg__b"/><use xlink:href="#membershipCardFascist_svg__b" transform="translate(8.032)" width="100%" height="100%"/><use height="100%" width="100%" transform="translate(8.924)" xlink:href="#membershipCardFascist_svg__b"/><use xlink:href="#membershipCardFascist_svg__b" transform="translate(9.817)" width="100%" height="100%"/><use height="100%" width="100%" transform="translate(10.71)" xlink:href="#membershipCardFascist_svg__b"/></g><g fill="#dc3b06" font-weight="900" font-family="EskapadeFrakturW04-Black" letter-spacing="0" word-spacing="0"><path style="line-height:1.25;-inkscape-font-specification:'EskapadeFrakturW04-Black, Heavy';font-variant-ligatures:normal;font-variant-caps:normal;font-variant-numeric:normal;font-feature-settings:normal;text-align:start" d="m31.502 91.37-1.235 1.806v5.798h1.504V95.81h2.007v-1.275h-2.007V93l2.175.294.481-1.555z" font-size="11.289"/><path d="m36.526 91.37-1.276 2.37v2.214h-.615v.906h.615v2.248h1.377V96.86h1.353v2.07l1.41.301.683-1.487-.716-.112v-4.104l-.538-1.835zm.101 1.623 1.353.255v2.706h-1.353zm21.487-1.623-.38 1.18h1.76v6.256h1.378V92.55h1.48l.381-1.18z" style="line-height:1.25;-inkscape-font-specification:'EskapadeFrakturW04-Black, Heavy';font-variant-ligatures:normal;font-variant-caps:normal;font-variant-numeric:normal;font-feature-settings:normal;text-align:start" font-size="42.667"/><path style="line-height:1.25;-inkscape-font-specification:'EskapadeFrakturW04-Black, Heavy';font-variant-ligatures:normal;font-variant-caps:normal;font-variant-numeric:normal;font-feature-settings:normal;text-align:start" d="M52.176 91.805v7.191H50.77v-5.994l-.906-.179.705-1.454zm-11.828 6.968.403-1.38 2.237.29c.074-.357.078-1.21.011-1.569l-2.505-1.085a7.868 7.868 0 0 1 .011-.931c.03-.41.086-.75.168-1.018a6.31 6.31 0 0 1 .503-.637 4.89 4.89 0 0 1 .66-.649c.231-.186.432-.328.604-.425l2.091.28-.648 1.335-1.712-.28c-.119.291-.156 1.09-.111 1.402l2.404.996c.06.357.082.565.067 1.02-.015.448-.063.85-.145 1.208-.492.738-1.033 1.312-1.622 1.722z" font-size="11.289"/><g style="line-height:1.25;-inkscape-font-specification:'EskapadeFrakturW04-Black, Heavy';font-variant-ligatures:normal;font-variant-caps:normal;font-variant-numeric:normal;font-feature-settings:normal;text-align:start"><path d="M47.454 91.37c-.35.223-.742.573-1.174 1.05-.432.47-.75.891-.95 1.264-.15.723-.224 1.346-.224 1.868 0 1.208.153 2.259.458 3.153l3.12.302.493-1.565-2.768-.181c-.218-.939-.13-2.482-.13-3.107 0-.38.334-.649.408-.806.075-.164.465-.28.577-.346l1.588.246.649-1.61z" style="-inkscape-font-specification:'EskapadeFrakturW04-Black, Heavy';font-variant-ligatures:normal;font-variant-caps:normal;font-variant-numeric:normal;font-feature-settings:normal;text-align:start" aria-label="C" font-size="11.289"/></g><path style="line-height:1.25;-inkscape-font-specification:'EskapadeFrakturW04-Black, Heavy';font-variant-ligatures:normal;font-variant-caps:normal;font-variant-numeric:normal;font-feature-settings:normal;text-align:start" d="m53.132 98.773.402-1.38 2.237.29c.075-.357.078-1.21.011-1.569l-2.505-1.085a7.868 7.868 0 0 1 .011-.931c.03-.41.086-.75.168-1.018a6.31 6.31 0 0 1 .503-.637 4.89 4.89 0 0 1 .66-.649 4.71 4.71 0 0 1 .604-.425l2.092.28-.65 1.335-1.71-.28c-.12.291-.157 1.09-.112 1.402l2.404.996c.06.357.082.565.067 1.02-.014.448-.063.85-.145 1.208-.492.738-1.033 1.312-1.622 1.722z" font-size="11.289"/></g><g stroke-linecap="round" stroke-width=".171"><g fill="#fdc34a" stroke="#fdc34a"><path d="M38.167 48.156c0-.041-.107-.075-.238-.075-.587 0-1.23-.171-1.565-.417a3.144 3.144 0 0 1-.45-.39c-.447-.559-.56-.807-.655-1.446-.022-.145-.073-.306-.115-.357-.095-.118-.375-.122-.49-.006-.144.143-.19-.103-.153-.823.039-.75.255-1.273.726-1.749.314-.317 1.012-.67 1.332-.672.12-.001.505-.07.857-.153.35-.084.96-.216 1.352-.294.392-.078.865-.18 1.051-.226.186-.047.66-.15 1.052-.23.392-.079.916-.194 1.164-.255 1.47-.362 1.948-.435 2.28-.346.362.098.605.317.735.666.082.22.073.238-.205.422-.16.105-.353.192-.43.192-.076 0-.38.186-.677.413-.296.227-.57.413-.61.413-.04 0-.099.045-.132.1-.033.054-.222.214-.421.356a38.98 38.98 0 0 0-.639.467c-.152.114-.361.265-.465.335-.562.377-.66.617-.473 1.152.096.276.19.409.323.46.104.04.306.131.45.204.146.072.433.176.64.23.206.055.41.126.452.158.067.05.468.205 1.913.736.47.173.526.218.526.423 0 .38-.194.405-4.42.558-1.254.045-2.342.115-2.418.155-.176.095-.297.094-.297-.001zm.522-4.026c.291-.332.288-.62-.008-.762-.11-.052-.464-.103-.788-.113-.57-.018-.591-.013-.615.16-.084.594.258.985.862.985.264 0 .348-.04.549-.27zM37.16 65.597a2.742 2.742 0 0 0-.385-.137c-.168-.05-.306-.11-.306-.136 0-.025-.033-.046-.074-.046-.04 0-.093-.042-.116-.093-.047-.103-.164-1.358-.214-2.297-.017-.336-.053-.633-.08-.661-.025-.028-.047-.207-.047-.398a6.33 6.33 0 0 0-.079-.826c-.16-.974-.067-3.564.136-3.769.027-.027.05-.126.05-.22 0-.15.099-.548.21-.844a7.79 7.79 0 0 0 .107-.32c.036-.116.145-.379.241-.583.097-.205.224-.48.283-.614.06-.133.193-.368.297-.523.104-.155.19-.3.19-.32 0-.023.047-.084.105-.137.059-.052.107-.119.107-.146 0-.062.465-.66.793-1.022.404-.443 1.452-1.412 1.622-1.5a1.01 1.01 0 0 0 .24-.168c.086-.09.239-.194.372-.254.044-.02.175-.095.29-.167a7.68 7.68 0 0 1 1.17-.57 1.59 1.59 0 0 0 .316-.138c.028-.025.102-.044.164-.044.063 0 .13-.017.15-.038.055-.054.626-.226.754-.227.06 0 .132-.022.16-.048.06-.058.76-.219.95-.219.163 0 .172.057.03.186-.06.053-.107.12-.107.148 0 .028-.072.132-.16.232-.087.1-.159.214-.159.253 0 .04-.036.101-.08.138a.834.834 0 0 0-.16.233 1.449 1.449 0 0 1-.2.298 1.472 1.472 0 0 0-.219.398 1.63 1.63 0 0 1-.144.316c-.026.028-.046.128-.046.222 0 .095-.022.186-.049.203-.027.016-.064.125-.084.241-.02.117-.058.226-.084.242-.027.017-.049.087-.049.157s-.022.14-.05.157c-.028.017-.066.138-.086.269-.02.13-.057.238-.082.238-.026 0-.048.047-.048.106 0 .096.036.106.372.106.213 0 .372-.023.372-.053s.173-.054.412-.054c.226 0 .555-.035.73-.078.175-.042.43-.078.568-.079.137 0 .264-.025.282-.055.04-.066.685-.07.81-.005.051.027.284.09.517.14.234.049.467.111.518.137a.51.51 0 0 0 .185.049c.17.003.294.137.251.273a.442.442 0 0 1-.071.15c-.071.058-.166.27-.166.373 0 .06-.035.122-.08.139a.136.136 0 0 0-.079.119c0 .048-.162.41-.36.804-.51 1.013-.543 1.116-.543 1.684 0 .267-.024.501-.053.519-.064.04-.072.451-.008.451.087 0 .332-.322.412-.544.018-.051.05-.093.072-.093.021 0 .084-.089.14-.198a1.96 1.96 0 0 1 .22-.331c.066-.074.12-.172.12-.218 0-.046.06-.14.133-.209.073-.068.133-.165.133-.213 0-.05.1-.242.224-.43.278-.422.346-.53.394-.632a.424.424 0 0 1 .068-.106c.045-.039.148-.211.269-.451a7.51 7.51 0 0 1 .236-.425 9.12 9.12 0 0 0 .303-.558c.096-.19.218-.395.271-.457a.725.725 0 0 0 .13-.305c.028-.177.02-.194-.096-.195a.457.457 0 0 1-.23-.08.399.399 0 0 0-.197-.078c-.052 0-.2-.06-.332-.133-.13-.073-.28-.133-.334-.134a.493.493 0 0 1-.228-.105.508.508 0 0 0-.25-.105c-.063 0-.13-.025-.149-.054-.018-.03-.073-.053-.122-.053-.05 0-.208-.06-.351-.133-.272-.138-.789-.186-.854-.08-.039.063-.717.073-.717.012 0-.06.19-.425.272-.524.072-.087.174-.254.24-.39a.419.419 0 0 1 .068-.107c.06-.052.322-.418.322-.45 0-.018.025-.061.056-.096.03-.036.136-.196.236-.357.349-.565.298-.53.797-.53.245 0 .46.023.478.052.018.03.107.053.198.053.186 0 1.074.152 1.236.211.396.145.496.176.638.198.144.023.36.109.787.315.083.04.196.073.253.073.056 0 .101.02.101.046 0 .025.113.089.251.142.138.052.298.14.355.193.058.053.13.097.161.097s.194.096.363.213c.168.116.317.212.33.212.03 0 .175.115.454.358.108.095.218.174.244.174.07.002 1.509 1.484 1.693 1.743.088.123.19.258.226.298.036.041.066.098.066.125 0 .028.038.082.084.12.057.047.075.12.055.217-.02.106-1.321 1.438-4.637 4.751-2.535 2.533-4.793 4.762-5.02 4.955-.618.527-.768.643-.83.643-.03 0-.075.03-.099.066a.583.583 0 0 1-.184.14c-.117.06-.168.06-.296.004a.45.45 0 0 1-.204-.177c-.027-.06-.216-.234-.42-.388a18.657 18.657 0 0 1-.436-.334.264.264 0 0 0-.147-.055.435.435 0 0 1-.175-.051c-.176-.098-.601-.214-.785-.214-.1 0-.184-.024-.184-.053 0-.067-1.98-.073-2.111-.007-.051.026-.176.087-.279.135a3.138 3.138 0 0 0-.567.336.741.741 0 0 1-.212.12c-.026 0-.153.145-.284.322-.13.178-.262.352-.29.388a2.238 2.238 0 0 0-.279.472c-.05.11-.11.199-.133.199-.022 0-.04.04-.04.089 0 .049-.03.168-.064.266-.064.175-.065.176-.412.173-.191-.002-.383-.024-.427-.05z"/><path d="M41.116 81.37c-.018-.029-.079-.052-.136-.052-.1 0-.312-.096-.368-.167-.015-.018-.134-.05-.266-.07-.296-.046-.533-.15-.661-.292-.054-.06-.141-.109-.193-.109-.053 0-.11-.024-.128-.053-.018-.03-.071-.053-.118-.053-.083 0-.278-.085-1.106-.48a42.03 42.03 0 0 0-.558-.263 5.355 5.355 0 0 1-.38-.202 25.061 25.061 0 0 0-.53-.296 3.796 3.796 0 0 1-.362-.215 2.29 2.29 0 0 0-.279-.165c-.11-.057-.199-.121-.199-.144 0-.022-.032-.04-.071-.04-.04 0-.116-.05-.17-.11a.993.993 0 0 0-.261-.185 1.473 1.473 0 0 1-.306-.21.697.697 0 0 0-.175-.133.697.697 0 0 1-.174-.133c-.079-.073-.171-.133-.206-.133-.034 0-.07-.018-.08-.04a2.534 2.534 0 0 0-.308-.28c-.569-.466-.675-.564-1.415-1.299-.412-.41-.92-.947-1.128-1.195a31.393 31.393 0 0 0-.485-.57.507.507 0 0 1-.107-.15c0-.037-.266-.398-.35-.475-.095-.088-.553-.772-.553-.826 0-.028-.02-.05-.044-.05-.024 0-.102-.11-.172-.244-.194-.366-.237-.438-.326-.54a1.556 1.556 0 0 1-.174-.292c-.051-.11-.114-.2-.14-.2-.026 0-.047-.023-.047-.052 0-.09-.182-.479-.225-.479-.022 0-.04-.045-.04-.102 0-.115-.165-.428-.226-.428-.022 0-.04-.056-.04-.123s-.02-.145-.046-.172a1.675 1.675 0 0 1-.143-.33c-.054-.153-.114-.279-.135-.279-.02 0-.052-.065-.072-.146a2.68 2.68 0 0 0-.13-.358 9.158 9.158 0 0 1-.245-.69 6.025 6.025 0 0 0-.186-.532 3.602 3.602 0 0 1-.13-.478 6.576 6.576 0 0 0-.136-.53 4.028 4.028 0 0 1-.106-.426 10.746 10.746 0 0 0-.115-.504c-.09-.33-.169-.87-.287-1.939-.174-1.57-.027-4.6.29-6.001l.113-.505c.036-.16.084-.34.108-.398a1.51 1.51 0 0 0 .07-.24c.069-.337.151-.614.197-.66.027-.028.05-.116.05-.196s.021-.159.047-.175c.025-.016.075-.143.11-.282.035-.139.095-.325.133-.412a8.79 8.79 0 0 0 .164-.425c.052-.146.15-.366.219-.488.068-.123.124-.263.124-.31 0-.05.044-.152.098-.23.054-.077.141-.278.193-.446.052-.168.113-.305.135-.305.021 0 .053-.042.07-.093.032-.096.144-.285.197-.332.016-.015.076-.119.133-.231.194-.383.208-.407.248-.407.023 0 .041-.038.041-.084 0-.047.054-.16.12-.252.128-.179.225-.333.287-.46a.66.66 0 0 1 .095-.139c.076-.08.573-.757.646-.88.032-.056.11-.155.172-.222.063-.066.114-.141.114-.166 0-.049.084-.142.815-.907.253-.265.46-.504.46-.531 0-.084.405-.448.497-.448.063 0 .087.048.087.174 0 .114.037.201.108.252.06.043.121.166.14.277.017.11.052.2.077.2.026 0 .047.043.047.096 0 .2-.219.528-.607.912-.405.399-.489.572-.301.622a.202.202 0 0 1 .129.131.21.21 0 0 0 .137.134c.093.025.11.07.11.288 0 .143-.018.26-.04.26-.022 0-.064.052-.093.115a1.013 1.013 0 0 1-.243.268l-.19.152-.3-.093c-.166-.05-.302-.111-.302-.134 0-.024-.06-.043-.134-.043-.09 0-.15.04-.18.12a.848.848 0 0 1-.185.248c-.076.071-.138.16-.138.2 0 .038-.018.07-.04.07-.036 0-.226.38-.226.452a.993.993 0 0 1-.16.193c-.087.092-.158.208-.158.259 0 .05-.036.122-.08.158-.1.083-.104.212-.007.212.04 0 .105.039.144.086a.546.546 0 0 0 .193.131c.231.088.144.556-.18.97-.11.139-.133.144-.524.13-.321-.012-.417.002-.447.064l-.1.199a.595.595 0 0 0-.062.225c0 .06-.02.107-.046.107-.025 0-.062.096-.08.213-.019.117-.052.212-.073.213-.053 0-.172.262-.172.376a.685.685 0 0 1-.08.241.69.69 0 0 0-.078.205c.003.093.198.293.286.293.092 0 .266.086.416.207.128.102.136.912.011 1.016-.094.078-.605.076-.684-.003-.078-.078-.38-.062-.451.023-.034.04-.077.28-.094.53-.018.252-.053.457-.078.457s-.045.118-.045.263c0 .144-.024.277-.053.295-.03.018-.053.122-.053.231 0 .11-.028.227-.063.262-.048.047-.041.086.029.163.07.078.2.11.567.138.262.02.476.06.476.086 0 .027.056.05.125.05.07 0 .189.062.266.14.122.121.14.183.14.477v.338h-.398c-.23 0-.399.023-.399.053s-.156.054-.358.055c-.324.002-.368.015-.46.14-.094.13-.098.208-.066 1.097.028.782.05.975.122 1.054.08.088.189.098 1.142.098.874 0 1.054.012 1.054.075 0 .041.026.084.057.094.087.03.127.454.051.546-.036.043-.153.093-.26.11a1.775 1.775 0 0 0-.312.081l-.24.099a2.628 2.628 0 0 1-.509.083c-.217.02-.464.076-.557.13l-.168.094.016.473c.009.26.039.494.066.522.028.028.05.14.05.25 0 .109.021.21.047.227.025.015.061.125.08.244.02.119.056.257.083.307.027.05.061.132.077.183.03.1.217.127.271.04.018-.03.098-.053.179-.053.08 0 .173-.028.207-.062s.26-.073.502-.087c.242-.013.452-.04.466-.057.079-.097.29-.16.655-.193.34-.032.408-.026.408.04 0 .042.037.153.084.245.132.267.045.448-.24.496-.125.022-.266.084-.315.14a.576.576 0 0 1-.28.135c-.229.042-.487.164-.575.27a.462.462 0 0 1-.218.11c-.086.018-.156.053-.156.076 0 .043-.125.096-.372.158-.114.028-.13.058-.115.217.01.102.064.234.12.295.056.06.102.14.102.177 0 .069.064.226.298.727.07.15.126.299.126.332 0 .034.024.061.054.061.029 0 .053.032.053.07 0 .074.216.302.286.302.022 0 .076-.036.12-.08a.296.296 0 0 1 .179-.08c.054 0 .114-.023.132-.052.018-.03.082-.053.143-.053.06 0 .148-.044.196-.098a.554.554 0 0 1 .265-.133.552.552 0 0 0 .266-.133.602.602 0 0 1 .291-.137 1.09 1.09 0 0 0 .53-.243c.091-.073.112-.065.25.1a.98.98 0 0 1 .185.39c.03.182.016.23-.11.362a.713.713 0 0 1-.29.184c-.079.017-.223.114-.321.215-.098.1-.217.183-.264.183-.047 0-.156.073-.242.163-.086.09-.24.202-.342.249-.102.047-.25.151-.328.231-.127.13-.134.154-.061.214a.566.566 0 0 1 .13.176c.076.176.172.313.3.428.065.06.119.135.119.166 0 .03.049.1.108.154.06.055.149.184.197.287.09.19.342.481.417.481.09 0 .491-.221.58-.32.052-.057.117-.105.145-.105.027 0 .147-.083.267-.185.119-.103.245-.186.279-.186.034 0 .103-.046.153-.102a.533.533 0 0 1 .226-.135.703.703 0 0 0 .264-.164c.145-.145.378-.173.425-.05.017.043.055.079.085.079.081 0 .196.17.198.293 0 .064-.14.249-.344.45-.19.189-.345.37-.345.402 0 .033-.048.103-.106.156-.058.053-.106.12-.106.149 0 .067-.27.326-.389.371a.25.25 0 0 0-.126.13.764.764 0 0 1-.165.217l-.13.123.15.155c.081.086.174.156.204.156s.332.275.669.612c.599.597.616.61.757.544.08-.037.144-.097.145-.134 0-.038.06-.095.133-.129.073-.033.133-.087.133-.12 0-.034.083-.143.186-.242.102-.099.185-.21.185-.249 0-.038.03-.07.065-.07.036 0 .215-.147.398-.329.273-.27.363-.329.508-.329.185 0 .57.245.57.362 0 .12-.134.345-.219.367-.047.012-.102.09-.123.172a.539.539 0 0 1-.13.233.624.624 0 0 0-.13.162c-.02.044-.084.151-.142.239a2.408 2.408 0 0 0-.153.269c-.027.06-.114.187-.194.282a.601.601 0 0 0-.152.361c-.006.197.017.22.326.346.095.038.173.094.173.123 0 .03.09.096.2.147.278.13.391.206.506.344.054.066.14.12.19.12.11 0 .378.118.378.167 0 .02.06.008.133-.026.073-.034.133-.107.133-.162 0-.055.044-.138.097-.186a.641.641 0 0 0 .133-.165 6.313 6.313 0 0 1 .46-.69c.028-.028.194-.324.35-.628l.091-.176.338.036.337.036v-.493c0-.758.14-.999.446-.767.087.065.096.12.067.396-.029.277-.1.492-.194.586a.721.721 0 0 0-.16.391.28.28 0 0 1-.08.194c-.043.036-.079.133-.079.215 0 .083-.02.163-.046.179-.025.015-.062.124-.08.242-.02.117-.052.214-.074.214-.052 0-.172.263-.172.379 0 .05-.022.106-.05.123-.027.017-.066.138-.085.269-.02.13-.051.237-.07.237-.06 0-.178.32-.147.4.016.042.126.119.244.17.118.051.215.111.215.133 0 .023.058.041.13.041.07 0 .142.021.158.047.016.026.119.063.229.083.24.043.492.146.492.202 0 .022.026.04.058.04a.9.9 0 0 1 .226.074c.092.04.211.088.265.106a.22.22 0 0 1 .126.139c.015.058.049.106.074.106.026 0 .047.073.047.162 0 .09.039.281.086.426.069.21.073.278.02.341-.075.092-.19.104-.239.027zm10.624-.065c-.048-.07-.06-.127-.029-.138.03-.01.055-.093.055-.186a.577.577 0 0 1 .105-.3.501.501 0 0 0 .105-.242.284.284 0 0 1 .05-.16c.028-.027.067-.391.088-.809.021-.417.059-.77.084-.786.025-.016.045-.206.045-.423 0-.342.013-.396.093-.395.092 0 .385.537.385.704 0 .042.048.119.106.172.059.053.107.124.107.16a.78.78 0 0 0 .073.217c.04.084.105.231.145.326.04.095.091.173.113.173.022 0 .04.036.04.08 0 .1.238.056.399-.074a1.06 1.06 0 0 1 .592-.254c.176-.024.252-.062.27-.132.015-.054.047-.098.073-.098.081 0 .472-.183.472-.22 0-.02.072-.053.159-.072.188-.041.253-.12.137-.165-.046-.018-.083-.066-.083-.107a.77.77 0 0 0-.162-.339c-.067-.06-.21-.423-.214-.539a.701.701 0 0 0-.106-.284 2.017 2.017 0 0 1-.133-.24 4.192 4.192 0 0 0-.085-.19c-.108-.227-.035-.358.286-.518l.302-.15.13.128c.07.071.146.187.167.257.021.071.138.236.26.368.121.131.266.322.322.425.056.102.139.222.185.266a.95.95 0 0 1 .142.186c.086.155.246.155.39.001.07-.074.156-.135.191-.135.036 0 .096-.038.135-.085a.576.576 0 0 1 .18-.133c.123-.054.307-.166.347-.21a.41.41 0 0 1 .124-.067.231.231 0 0 0 .126-.142c.018-.069.072-.106.154-.106.07 0 .127-.028.127-.062 0-.035.037-.105.084-.156.077-.085.076-.11-.01-.296a1.49 1.49 0 0 0-.268-.37c-.095-.092-.188-.226-.206-.299-.019-.073-.115-.212-.215-.308-.1-.097-.182-.208-.182-.245 0-.038-.048-.099-.106-.135-.146-.091-.134-.165.06-.387.171-.195.406-.345.54-.345.04 0 .363.288.715.64.52.52.676.646.831.671.128.02.19.01.19-.031 0-.08.368-.451.493-.498a.254.254 0 0 0 .13-.13c.02-.052.138-.195.264-.318s.229-.245.229-.272c0-.027.036-.078.08-.115.16-.133.08-.28-.435-.804-.283-.288-.54-.524-.573-.524-.032 0-.092-.047-.134-.106-.042-.058-.107-.106-.145-.106-.037 0-.068-.036-.068-.08 0-.044.021-.08.047-.08s.061-.041.078-.092a.958.958 0 0 1 .413-.503c.135-.086.144-.084.262.041.067.071.15.13.183.13s.117.06.186.133c.068.073.177.132.242.132s.132.036.149.08c.017.044.063.08.103.08.04 0 .115.045.165.101a.55.55 0 0 0 .234.137c.078.02.158.063.178.096.026.042.068.032.138-.031.055-.05.128-.09.163-.09.034 0 .062-.033.062-.072 0-.04.048-.115.106-.168.058-.053.106-.138.106-.188a.14.14 0 0 1 .08-.123.13.13 0 0 0 .08-.112c0-.045.018-.081.04-.081.022 0 .082-.09.133-.2.105-.226.195-.374.291-.48.11-.118.076-.3-.082-.452-.082-.079-.168-.143-.192-.143-.023 0-.118-.06-.21-.134a2.835 2.835 0 0 0-.684-.436c-.11-.05-.2-.11-.2-.133 0-.022-.035-.04-.08-.04-.043 0-.079-.04-.079-.089 0-.158.29-.7.39-.727.172-.047.45.026.475.124.02.073.098.099.36.118.19.013.345.051.357.086.011.034.064.062.116.062.053 0 .164.036.248.08.307.16.47.084.53-.244.04-.228.14-.473.193-.473.022 0 .04-.058.04-.13 0-.07.024-.144.053-.162.03-.018.053-.076.053-.13a.24.24 0 0 1 .08-.162c.044-.037.08-.134.08-.216 0-.082.023-.164.053-.182.029-.019.053-.102.053-.186 0-.117-.038-.17-.168-.235a.901.901 0 0 0-.212-.084c-.084 0-.47-.185-.47-.225 0-.022-.073-.04-.162-.04-.09 0-.27-.06-.4-.133-.131-.073-.273-.133-.316-.133-.086 0-.11-.24-.03-.29.027-.016.065-.125.085-.241.02-.117.061-.228.093-.248.088-.054.967-.021.987.037.01.028.133.051.275.051.142 0 .273.024.291.054.018.029.127.053.242.053.187 0 .21-.014.21-.13 0-.071.023-.144.053-.162.029-.019.053-.151.053-.296 0-.144.021-.262.047-.262s.065-.24.086-.531c.02-.292.059-.531.085-.531.026 0 .047-.056.047-.124 0-.184-.21-.354-.438-.354-.106 0-.206-.021-.222-.047-.015-.026-.232-.064-.48-.085-.25-.02-.466-.059-.482-.086-.017-.026-.08-.048-.139-.048-.102 0-.108-.026-.09-.42.01-.232.036-.438.057-.459.02-.02.385-.033.81-.028.464.005.814-.015.878-.049.094-.05.106-.11.106-.53 0-.26.024-.487.053-.506.031-.019.054-.31.054-.693v-.66h-.449c-.246 0-.463.023-.48.052-.045.072-.65.068-.694-.005-.02-.032-.093-.047-.162-.034-.108.02-.13-.002-.163-.167a3.114 3.114 0 0 1-.04-.458c-.004-.256.001-.266.155-.283a.53.53 0 0 0 .222-.07c.035-.029.197-.066.36-.083.164-.016.31-.05.326-.076.015-.025.092-.047.17-.05.23-.005.46-.168.48-.338.01-.081-.008-.174-.04-.206-.031-.031-.057-.145-.057-.253a.895.895 0 0 0-.08-.347.773.773 0 0 1-.08-.295c0-.08-.023-.158-.053-.176-.029-.018-.053-.151-.053-.295 0-.145-.02-.263-.047-.263-.025 0-.06-.048-.074-.106-.023-.087-.073-.106-.269-.106-.132 0-.256.024-.274.053-.018.029-.098.053-.178.053-.08 0-.17.024-.2.054s-.184.07-.343.087c-.158.018-.315.054-.349.08-.078.062-.264-.167-.31-.382-.02-.086-.057-.17-.084-.187-.07-.043-.06-.31.014-.385.036-.035.128-.064.206-.064.079 0 .172-.036.209-.08a.281.281 0 0 1 .192-.08c.07 0 .126-.019.126-.042 0-.024.089-.078.197-.12.363-.14.52-.247.538-.362.017-.12-.097-.431-.16-.431-.019 0-.05-.07-.069-.154a.547.547 0 0 0-.137-.247.37.37 0 0 1-.103-.241c0-.082-.022-.162-.05-.18-.08-.048-.216-.352-.216-.48 0-.066-.03-.145-.068-.176-.072-.06-.33-.054-.392.009-.02.019-.076.035-.126.035s-.12.036-.157.08a.247.247 0 0 1-.167.08.738.738 0 0 0-.364.159 1.073 1.073 0 0 1-.162.096c-.147.076-.422.01-.422-.1a.566.566 0 0 0-.103-.204c-.187-.262-.194-.418-.027-.593.082-.085.18-.155.22-.155a.07.07 0 0 0 .069-.07c0-.039.083-.103.186-.143.102-.04.186-.104.186-.143 0-.038.035-.07.08-.07.043 0 .079-.02.079-.044 0-.024.06-.072.133-.105.192-.088.167-.251-.083-.535-.305-.345-.316-.362-.316-.471 0-.054-.083-.18-.185-.278-.103-.1-.186-.203-.186-.23 0-.028-.055-.101-.123-.164a.722.722 0 0 1-.158-.205c-.045-.119-.225-.118-.315.001a.996.996 0 0 1-.387.273.757.757 0 0 0-.207.16c-.056.061-.13.112-.165.112-.034 0-.106.047-.159.106-.053.058-.126.106-.162.106-.089 0-.661-.623-.661-.72 0-.042.03-.077.066-.077.037 0 .1-.077.14-.172.04-.095.242-.346.449-.557l.375-.383-.633-.639c-.348-.351-.66-.639-.692-.639-.032 0-.115-.06-.183-.132-.069-.073-.153-.133-.186-.133-.073 0-.292.223-.292.297 0 .029-.12.17-.266.314-.146.143-.265.292-.265.33 0 .121-.18.071-.415-.115-.29-.231-.435-.415-.435-.555 0-.165.174-.537.251-.537.037 0 .068-.036.068-.08 0-.043.018-.079.04-.079.06 0 .225-.406.225-.557 0-.103-.05-.153-.236-.238-.263-.12-.333-.197-.253-.277.055-.055 1.135.438 1.47.67.183.127.34.222.453.276.104.05.553.407.575.458.01.022.043.04.074.04.052 0 .427.307.635.52.3.307 1.416 1.47 1.504 1.567.059.065.213.261.342.436.13.175.256.326.28.336.023.01.042.047.042.084 0 .036.06.122.133.19.073.069.133.153.133.187s.047.105.105.158c.059.053.183.218.278.367.094.149.184.283.2.297.015.015.063.099.106.186.043.088.13.231.192.319s.128.195.147.239c.02.044.095.175.168.292.073.117.158.272.188.345.14.34.185.425.222.425.022 0 .04.026.04.059 0 .059.071.229.299.717.07.149.126.297.126.33 0 .033.048.144.106.248a.91.91 0 0 1 .107.246c0 .056.12.354.216.536.048.092.14.423.192.692.016.08.048.146.072.146.024 0 .084.186.134.412.05.226.108.435.13.465a.874.874 0 0 1 .07.265c.015.117.05.32.078.452.028.131.078.405.113.608.034.204.083.395.108.425.025.03.057.247.07.48.012.234.053.961.09 1.616.065 1.177.061 1.342-.086 3.483-.014.204-.046.42-.072.478a4.76 4.76 0 0 0-.13.61c-.101.605-.188.965-.25 1.034-.025.028-.045.13-.045.227 0 .098-.036.263-.08.368-.043.105-.08.255-.08.333 0 .078-.02.165-.044.192-.024.028-.112.266-.196.529a5.092 5.092 0 0 1-.188.531.964.964 0 0 0-.076.239c-.022.102-.084.25-.14.327a.558.558 0 0 0-.099.198c0 .065-.23.585-.378.856-.056.102-.187.353-.292.558-.104.204-.247.467-.316.584-.07.117-.143.248-.163.292-.02.044-.086.15-.147.238-.13.186-.183.27-.317.512a9.274 9.274 0 0 1-.724 1.023c-.102.124-.245.307-.318.406-.16.216-.47.576-.598.695-.051.047-.093.104-.093.126 0 .052-1.715 1.743-2.049 2.019a6.4 6.4 0 0 1-.471.353c-.118.077-.28.202-.359.278-.079.077-.162.14-.186.14-.023 0-.124.073-.224.16a2.72 2.72 0 0 1-.385.275c-.111.063-.203.134-.203.158 0 .024-.025.043-.057.043-.03 0-.132.054-.225.12-.249.176-.36.244-.568.346a3.06 3.06 0 0 0-.354.211.86.86 0 0 1-.201.12c-.019 0-.122.06-.23.133-.107.073-.233.132-.28.132-.045 0-.131.045-.19.1a.737.737 0 0 1-.236.14 6.92 6.92 0 0 0-.518.219 3.49 3.49 0 0 1-.433.179c-.024 0-.136.045-.248.101a5.03 5.03 0 0 1-.384.169 1.31 1.31 0 0 0-.319.184.903.903 0 0 1-.364.154c-.124.021-.239.06-.255.087-.017.027-.089.048-.16.048-.071 0-.13.024-.13.053 0 .03-.058.054-.13.054-.07 0-.144.023-.162.053-.055.09-.175.059-.263-.066z"/><path d="M45.047 80.255c-.018-.029-.117-.053-.22-.053-.358 0-.391-.05-.391-.602 0-.27.02-.515.046-.542.026-.028.061-.425.079-.882.036-.946.03-.965-.347-.938l-.23.017-.014.686c-.01.42.006.707.04.74.073.075.072 1.291-.002 1.337-.031.02-.133.006-.226-.029-.502-.19-.862-.347-.877-.383-.01-.023-.046-.042-.08-.043a.445.445 0 0 1-.182-.101c-.115-.097-.12-.131-.12-1.005 0-.545.022-.917.054-.937.03-.018.053-.242.053-.498 0-.418-.012-.478-.123-.581-.177-.167-.377-.15-.515.044-.112.159-.113.17-.05 1.278.034.615.047 1.133.029 1.151-.042.042-.403-.305-.403-.387 0-.033-.048-.104-.106-.157-.059-.053-.107-.126-.107-.162 0-.036-.035-.08-.08-.096-.043-.017-.079-.09-.079-.162 0-.072-.02-.144-.044-.159-.025-.015-.086-.237-.137-.494-.05-.257-.138-.56-.195-.671-.11-.22-.135-.46-.049-.46.033 0 .053-.24.053-.612 0-.336-.024-.659-.053-.717a67.85 67.85 0 0 0-.109-.216c-.031-.06-.07-.446-.088-.857-.029-.665-.043-.749-.13-.772-.054-.014-.098-.043-.098-.065 0-.021-.148-.054-.33-.073-.18-.02-.353-.059-.382-.088-.029-.029-.104-.052-.167-.052-.253 0-.925-.408-1.326-.804-.218-.215-.396-.418-.396-.45 0-.032-.047-.1-.104-.151a.547.547 0 0 1-.137-.247c-.019-.085-.053-.154-.077-.154-.043 0-.097-.13-.156-.371-.018-.073-.076-.14-.13-.151-.123-.024-.333.171-.379.352a.42.42 0 0 1-.137.21c-.056.04-.103.094-.103.122 0 .136-.196.475-.303.524-.067.03-.121.086-.121.124 0 .038-.048.104-.107.146-.058.042-.106.104-.106.138 0 .034-.035.09-.078.126-.062.052-.095.049-.16-.016-.044-.045-.08-.114-.08-.153 0-.09-.183-.614-.23-.662-.02-.02-.036-.097-.036-.173 0-.077-.075-.33-.165-.563-.373-.956-.41-1.611-.127-2.229.148-.322.301-.487.887-.956.244-.195.414-.53.414-.818 0-.144.014-.3.032-.346.035-.091.234-.114.316-.036.062.059.678.217.846.217.168 0 .187.078.187.774 0 .553.051.938.162 1.218.024.059.058.198.076.31.019.111.08.285.137.386.056.101.103.23.103.288 0 .058.018.105.04.105.023 0 .09.09.147.199.222.422.682.97.814.97.03 0 .067.041.084.093.029.092.06.114.41.286.351.172.732.258 1.144.256.374-.001.446-.02.733-.184.176-.101.367-.206.425-.233.059-.027.177-.123.262-.213.086-.09.177-.165.201-.165.025 0 .21-.167.41-.372.2-.204.385-.372.41-.372.025 0 .165-.119.31-.263.147-.145.29-.264.318-.265.075-.004.824-.759.824-.831 0-.034.037-.092.082-.129.044-.037.152-.213.239-.39.15-.31.157-.356.157-1.025 0-.41-.022-.715-.053-.735-.029-.018-.053-.101-.053-.186 0-.084-.024-.167-.053-.185-.094-.059-.062-.48.044-.576.054-.049.122-.088.151-.088.03 0 .097-.048.15-.107.053-.058.124-.106.159-.106.034 0 .118-.06.187-.133.068-.073.15-.132.182-.132s.103-.06.158-.133c.054-.073.127-.133.16-.133.034 0 .179-.12.323-.265.144-.146.286-.266.316-.266.08 0 9.111-9.042 9.111-9.122 0-.072.15-.088.248-.025.034.022.079.105.099.185.02.08.058.146.084.146.026 0 .048.053.049.12 0 .065.036.165.08.222a.38.38 0 0 1 .077.175c0 .04.045.164.1.277.054.112.14.368.19.568.05.2.113.405.14.456.026.05.048.16.048.242 0 .082.022.172.05.2.1.103.178.937.198 2.135.014.763.001 1.272-.031 1.334-.03.054-.068.395-.086.756-.018.362-.053.706-.078.764-.025.059-.059.37-.075.69-.027.55-.055.867-.187 2.099-.08.751-.071 1.71.017 1.881.04.078.316.39.612.695.305.312.585.652.643.78.188.414.122 1.653-.109 2.073a.483.483 0 0 0-.05.196c0 .058-.025.119-.054.137-.03.018-.053.077-.053.13 0 .095-.129.562-.213.773-.024.058-.057.15-.074.203-.042.129-.203.094-.27-.057-.029-.066-.07-.12-.092-.12-.021 0-.085-.102-.142-.227a1.22 1.22 0 0 0-.214-.326c-.06-.055-.11-.124-.11-.152 0-.029-.046-.092-.101-.14a1.444 1.444 0 0 1-.226-.314 62.375 62.375 0 0 0-.184-.333 1.042 1.042 0 0 0-.167-.207c-.103-.096-.112-.096-.193-.006-.047.052-.085.122-.085.156 0 .097-.18.487-.225.487-.023 0-.04.055-.04.123 0 .07-.08.199-.187.302-.102.1-.186.206-.187.236 0 .068-.233.295-.3.295-.027 0-.154.108-.283.24-.143.145-.282.238-.356.238-.067 0-.122.024-.122.053 0 .03-.026.054-.058.054-.057 0-.354.12-.539.216a.741.741 0 0 1-.275.05c-.101 0-.199.023-.217.052-.018.03-.127.053-.242.053h-.21v.475c0 .261-.02.488-.045.503-.025.016-.057.263-.071.548-.014.286-.053.572-.087.636-.076.142-.084 1.218-.009 1.264.077.047.066.802-.013.943a.721.721 0 0 1-.1.146c-.018.014-.05.134-.07.265a2.03 2.03 0 0 1-.133.452l-.18.398c-.044.102-.19.292-.323.422-.234.229-.245.233-.32.133-.09-.118-.112-.69-.029-.74.031-.02.053-.326.053-.738 0-.668-.006-.71-.123-.82a.45.45 0 0 0-.259-.116c-.26 0-.273.07-.262 1.37.006.663.023 1.314.038 1.445.027.23.02.244-.174.37a2.417 2.417 0 0 1-.695.305c-.066.015-.133.05-.149.075-.016.026-.082.047-.148.047a.294.294 0 0 0-.18.061c-.047.047-.081.045-.144-.006-.094-.079-.12-.852-.028-.852.032 0 .053-.244.053-.624 0-.344.022-.703.05-.798.06-.214-.03-.414-.24-.523-.134-.07-.156-.066-.27.041-.117.11-.124.154-.124.76 0 .355.02.667.047.695.026.028.056.373.066.768l.02.717-.399.016c-.219.008-.42.038-.449.066-.027.028-.283.05-.567.05-.458 0-.52-.01-.549-.099a.443.443 0 0 1 .023-.24c.03-.079.07-.578.088-1.11.032-.905.028-.973-.066-1.054-.177-.153-.323-.168-.446-.045-.109.109-.111.142-.076.998.02.488.058.91.083.937.07.075.057.476-.017.55-.08.08-1.242.089-1.29.01zm.53-4.567c.019-.03.088-.053.155-.053.155 0 .33-.19.49-.531.07-.152.24-.372.285-.372.025 0 .073.083.106.186.034.102.084.186.11.186.028 0 .05.035.05.077 0 .043.113.187.251.32.245.233.26.24.59.24h.338l.308-.314c.18-.184.334-.4.373-.518a.996.996 0 0 1 .111-.254c.064-.07.06-.44-.006-.48-.03-.019-.053-.14-.053-.27 0-.263-.122-.526-.368-.797a.998.998 0 0 1-.163-.21c0-.029-.252-.384-.319-.45-.114-.113-.425-.754-.425-.877a.423.423 0 0 0-.078-.215.546.546 0 0 1-.08-.276c0-.094-.02-.172-.043-.172-.024 0-.084-.134-.134-.297-.094-.304-.141-.371-.343-.487-.243-.137-.667-.008-.758.232a7.74 7.74 0 0 1-.153.356 3.39 3.39 0 0 0-.166.478c-.035.137-.084.249-.11.249-.026 0-.047.048-.047.107 0 .096-.024.157-.165.424l-.213.412c-.094.182-.19.332-.215.332-.024 0-.044.03-.044.069 0 .038-.086.151-.191.252-.33.316-.447.63-.447 1.203 0 .449.022.554.168.813.025.043.066.127.093.185.055.125.27.333.441.427.147.082.607.099.653.025zm7.065-4.62c.018-.03.074-.054.125-.054.125 0 .503-.185.589-.289.038-.045.096-.083.13-.083.162 0 .988-1.06.988-1.27 0-.031.02-.057.044-.057.061 0 .144-.183.253-.558.05-.175.118-.352.149-.392.086-.112.079-2.301-.008-2.33-.036-.012-.066-.102-.066-.2 0-.099-.024-.194-.053-.212-.03-.018-.054-.1-.054-.182 0-.083-.035-.18-.08-.216a.243.243 0 0 1-.079-.163c0-.053-.023-.11-.052-.128a.791.791 0 0 1-.144-.23c-.118-.25-.133-.269-.556-.718l-.353-.376-.496.25c-.273.137-.52.25-.548.25-.075 0-.848.39-.87.437-.01.022-.046.04-.08.04-.035 0-.202.072-.371.16-.169.088-.35.16-.402.16-.052 0-.138.047-.19.106-.054.058-.129.106-.168.106-.105 0-.497.177-.497.225 0 .022-.023.04-.051.04-.059 0-.482.187-1.038.457-.204.1-.41.181-.459.18a.135.135 0 0 0-.117.08c-.017.044-.063.08-.103.08-.106 0-.286.217-.315.38-.054.306.048 1.128.164 1.32.062.102.128.221.147.265.047.11 1.095 1.169 1.156 1.169.045 0 .321.243 1.057.93.14.13.273.238.297.238.023 0 .087.05.142.11.055.061.205.163.334.226.39.193.433.219.433.26 0 .062 1.103.05 1.142-.012zm-6.793 16c-.022-.022-.187-.056-.368-.076-.567-.064-1.115-.182-1.443-.31a13.03 13.03 0 0 0-.293-.11c-.247-.087-.55-.223-.584-.26-.04-.043-.217-.148-.425-.25-.319-.156-.687-.451-1.189-.953-.617-.618-.732-.76-.918-1.136a1.252 1.252 0 0 0-.122-.212 1.568 1.568 0 0 1-.134-.266 1.802 1.802 0 0 0-.131-.265c-.074-.07-.152-.265-.186-.467-.02-.123-.06-.237-.086-.253-.027-.017-.048-.102-.048-.189 0-.154.005-.157.199-.122.11.02.207.057.217.082.01.025.097.046.194.046.098 0 .187.028.198.062.012.035.165.073.35.086.182.013.343.045.36.07.015.026.097.047.181.047.084 0 .168.024.186.053.018.03.115.053.216.053.101 0 .23.03.286.064.085.053.122.047.212-.034.096-.087.11-.162.11-.619 0-.29-.024-.534-.054-.552-.03-.018-.053-.2-.053-.402 0-.35.006-.369.122-.369a.33.33 0 0 1 .173.043c.027.023.194.085.369.139.175.053.366.117.425.142.058.025.188.052.288.06l.183.015-.014.637c-.007.35-.036.645-.063.655-.027.01-.049.32-.049.69v.673l.144.067c.198.092.245.084.381-.06.115-.122.118-.15.085-.863-.018-.405-.057-.786-.086-.845-.028-.06-.044-.263-.036-.451.015-.316.027-.345.142-.362.07-.01.152.009.183.04.036.035.312.058.708.058.376 0 .664.022.683.053.018.03.103.053.19.053h.155v.478c0 .283-.021.478-.053.478-.033 0-.053.302-.053.8 0 .871.025.953.292.953.264 0 .292-.086.292-.896 0-.44-.022-.758-.053-.777-.03-.018-.053-.253-.053-.521 0-.478.004-.49.144-.555.083-.038.356-.066.653-.066.292 0 .534-.025.567-.057.03-.032.137-.05.236-.04l.18.017.015.527c.009.314-.007.548-.04.581-.032.032-.055.317-.055.673 0 .576.008.625.123.733.16.15.255.145.41-.02.098-.105.126-.188.118-.359-.04-.907-.08-1.353-.125-1.446-.082-.165-.04-.776.058-.821.044-.02.133-.065.198-.099a.766.766 0 0 1 .292-.061.84.84 0 0 0 .326-.08.702.702 0 0 1 .252-.08c.055 0 .1-.025.1-.056s.054-.05.12-.04c.116.017.12.034.12.654 0 .884.082 2.2.139 2.235.025.016.046.385.046.82 0 .469.022.803.053.822.18.112-.095.475-.539.71-.127.066-.352.188-.501.269-.149.081-.388.19-.531.242a8.867 8.867 0 0 0-.474.188c-.25.11-.758.21-1.248.247-.19.014-.368.048-.395.075-.06.057-1.216.066-1.272.01z"/></g><g fill="#ea6f3a" stroke="#ea6f3a"><path d="M46.498 57.02c.02-.609.026-.637.255-1.13.13-.277.27-.564.312-.637.043-.073.14-.264.216-.425l.318-.664a7.54 7.54 0 0 0 .258-.599l.08-.228-.142-.054a5.474 5.474 0 0 0-.463-.133 14.697 14.697 0 0 1-.56-.151c-.675-.202-.734-.206-1.408-.083-.35.064-.89.136-1.198.161-.308.026-.626.071-.707.102-.08.03-.243.056-.36.056-.213 0-.213 0-.177-.173.02-.095.13-.447.244-.783.113-.336.206-.657.206-.713 0-.056.032-.14.07-.186.04-.046.1-.186.136-.31.058-.204.476-.871.59-.942.025-.015.06-.096.08-.18a.638.638 0 0 1 .163-.274c.071-.067.13-.149.13-.18 0-.033.047-.094.106-.136.058-.042.106-.116.106-.163 0-.068.08-.098.359-.133.328-.041 2.031-.076 2.031-.041 0 .037-.23.425-.297.5-.041.047-.075.104-.075.129 0 .024-.12.208-.265.408-.146.2-.266.38-.266.399 0 .019-.038.076-.084.128a1.662 1.662 0 0 0-.173.252l-.211.38c-.196.354-.171.367.64.333.69-.029.714-.026.971.11.145.078.304.141.354.141.05 0 .105.024.123.053.018.03.088.053.156.053s.153.036.19.08c.036.044.11.08.164.08.054 0 .27.083.48.185.21.103.438.186.508.186.158 0 .205.116.113.282l-.246.441a85.007 85.007 0 0 0-.76 1.388c-.066.125-.139.226-.163.226-.024 0-.044.027-.044.059s-.071.165-.159.295a1.78 1.78 0 0 0-.16.263.996.996 0 0 1-.126.197c-.07.093-.145.228-.167.302a.99.99 0 0 1-.165.282c-.07.083-.126.179-.127.213 0 .034-.073.156-.16.27-.086.116-.157.232-.157.26 0 .028-.044.09-.098.137a1.537 1.537 0 0 0-.228.321c-.072.13-.154.243-.182.252-.031.01-.043-.222-.03-.607zm-1.32-10.695c-.248-.029-.523-.084-.61-.122a3.353 3.353 0 0 0-.548-.14c-.213-.038-.4-.089-.414-.113-.015-.024-.082-.044-.147-.044a1.04 1.04 0 0 1-.333-.103 2.37 2.37 0 0 0-.355-.139c-.08-.02-.157-.057-.173-.083-.016-.026-.097-.047-.18-.047-.084 0-.162-.03-.174-.065-.014-.044-.197-.069-.571-.078l-.55-.014-.07-.2c-.128-.368-.137-.362.518-.343.455.012.629.039.766.116.098.055.269.115.38.134.112.02.356.106.541.194.186.087.425.17.531.185.107.014.242.048.3.074.19.084.824.21 1.063.21.127 0 .247.023.265.052.041.067 1.69.072 1.82.006.05-.026.283-.09.517-.143a1.91 1.91 0 0 0 .754-.325c.18-.125.348-.228.373-.228.056 0 .918-.864.918-.92 0-.024.06-.121.132-.217.073-.096.133-.202.133-.236 0-.033.024-.061.052-.061.029 0 .068-.066.088-.146.019-.08.08-.21.133-.287.125-.18.124-.262-.007-.496a.855.855 0 0 1-.107-.338c0-.147-.14-.623-.212-.725-.021-.029-.053-.182-.071-.34-.018-.16-.057-.313-.087-.343a.244.244 0 0 1-.054-.151.462.462 0 0 0-.066-.202c-.097-.155.007-.288.24-.308.179-.015.2 0 .3.21.06.123.11.315.11.424 0 .11.021.213.048.23.026.016.064.149.085.295.02.146.058.265.084.265.027 0 .048.07.048.156s.024.171.053.19c.03.017.054.09.054.162 0 .153.123.173.236.036.042-.05.234-.262.425-.469.191-.206.348-.393.348-.415 0-.08.56-.616.646-.616.365 0 .348.318-.04.71a4.26 4.26 0 0 0-.317.379 4.338 4.338 0 0 1-.408.457c-.139.135-.253.268-.253.296 0 .027-.074.12-.164.206-.09.086-.22.28-.289.43-.069.15-.15.29-.182.309-.03.019-.104.139-.162.267-.058.128-.13.247-.159.265-.03.018-.053.069-.053.112 0 .044-.06.143-.133.222-.073.079-.133.163-.133.187 0 .057-.555.621-.61.621-.024 0-.124.084-.224.187a1.58 1.58 0 0 1-.35.268 15.83 15.83 0 0 0-.462.236c-.16.085-.347.156-.415.157-.067.001-.228.05-.358.11-.2.09-.377.11-1.152.13-.504.011-1.12-.002-1.368-.03zm-9.082 3.5c0-.079-.083-.207-.217-.337a1.586 1.586 0 0 1-.266-.316 1.564 1.564 0 0 0-.211-.345.424.424 0 0 1-.069-.106 1.815 1.815 0 0 0-.34-.496.876.876 0 0 1-.193-.314c-.036-.158.023-.192.123-.072.048.058.283.08 1.03.096.543.012 1.024.047 1.099.08.073.032.312.089.531.126.22.037.454.11.521.16l.123.095-.176.094c-.242.13-.299.168-.684.456-.185.139-.357.253-.383.253-.025 0-.212.16-.416.358-.203.197-.393.367-.42.376-.029.01-.052-.039-.052-.108zm-2.218 2.188c-.037-.058-.097-.106-.134-.106-.037 0-.268-.202-.513-.448-.495-.498-.49-.463-.123-.79.095-.085.173-.183.173-.219 0-.035.06-.12.133-.19.073-.068.133-.156.133-.194 0-.04.038-.07.085-.07.137 0 .047-.47-.117-.611-.203-.175-.173-.414.084-.677l.212-.216.218.247c.12.136.24.247.267.247.028 0 .289.233.58.518.291.285.604.579.696.654l.167.136-.38.388c-.208.213-.378.41-.378.435 0 .026-.036.047-.08.047-.044 0-.08.03-.08.067 0 .062-.792.889-.851.889-.014 0-.056-.048-.092-.107zM32.1 54.739c-.052-.014-.094-.043-.094-.065 0-.021-.104-.092-.233-.156a1.241 1.241 0 0 1-.298-.195c-.036-.043-.092-.079-.124-.079s-.107-.056-.166-.124a.982.982 0 0 0-.23-.19c-.085-.044-.108-.085-.074-.128a.755.755 0 0 0 .083-.25.475.475 0 0 1 .14-.264c.058-.042.106-.103.106-.136 0-.033.048-.103.107-.157.058-.053.158-.2.222-.327.063-.126.134-.23.158-.23.024 0 .044-.03.044-.069 0-.101.387-.462.496-.462.159 0 .68.27.83.43a.583.583 0 0 0 .214.127.739.739 0 0 1 .199.093c.036.03.114.04.173.025.153-.04.131.023-.08.228-.102.1-.186.208-.186.241 0 .034-.047.105-.106.157-.058.053-.106.12-.106.15s-.034.092-.075.138c-.065.074-.252.391-.426.724-.084.16-.406.556-.446.549a2.34 2.34 0 0 1-.129-.03zm-1.076 3.011a.345.345 0 0 0-.22-.107.827.827 0 0 1-.311-.106.82.82 0 0 0-.294-.106c-.057 0-.105-.024-.105-.053 0-.03-.056-.053-.124-.053-.224 0-.32-.172-.284-.512.017-.165.056-.326.087-.356.03-.031.056-.17.056-.308 0-.139.024-.267.053-.285.03-.018.053-.076.053-.13a.24.24 0 0 1 .08-.162c.044-.037.08-.142.08-.234 0-.107.038-.195.106-.244.058-.042.106-.104.106-.138 0-.096.143-.197.184-.13.02.03.09.055.159.055.068 0 .137.036.154.08.017.044.08.08.14.08.104 0 .155.018.411.15a.583.583 0 0 0 .22.062c.055 0 .131.038.17.084a.21.21 0 0 0 .192.06c.067-.012.123-.01.123.004 0 .023-.206.468-.38.82a.529.529 0 0 0-.045.197c0 .057-.022.117-.049.134-.027.016-.065.131-.086.255-.02.124-.054.237-.074.252-.085.063-.216.43-.216.605 0 .217-.047.239-.186.085zm-.624 3.143c-.11-.01-.2-.039-.2-.066 0-.028-.112-.05-.249-.05-.198 0-.28-.03-.398-.143l-.149-.143v-2.264h.5c.28 0 .508.023.518.053.021.062.478.087.57.03.072-.044.035.148-.083.434a1.492 1.492 0 0 0-.071.461c0 .16-.024.306-.053.324-.03.018-.055.145-.057.282-.002.137-.032.44-.067.674l-.062.424zm-.16 3.088c-.103-.054-.146-.118-.146-.22a.773.773 0 0 0-.08-.295.733.733 0 0 1-.079-.276c0-.068-.024-.138-.053-.156-.03-.018-.053-.126-.053-.24 0-.112-.021-.218-.047-.234-.026-.016-.064-.167-.085-.335-.02-.169-.059-.332-.085-.364-.03-.037-.004-.099.071-.168.093-.087.204-.115.502-.129l.383-.017.025.903c.014.496.041 1.055.06 1.242.031.295.025.336-.047.308-.046-.018-.097-.01-.115.019-.039.063-.068.059-.25-.038zm.526 1.12c-.045-.05-.052-.05-.096-.01-.045.04-.054.038-.129-.033-.06-.057-.08-.1-.08-.172 0-.118.031-.145.19-.162.149-.016.17.014.19.265.014.177 0 .197-.075.112zm9.349 6.039a2.852 2.852 0 0 1-1.098-.719c-.21-.212-.43-.469-.489-.571-.274-.47-.489-.967-.585-1.356-.057-.233-.13-.507-.161-.609-.031-.102-.057-.477-.057-.833 0-.57-.01-.65-.093-.676a9.58 9.58 0 0 0-.487-.11c-.217-.046-.42-.103-.451-.128a.694.694 0 0 0-.206-.08c-.081-.02-.143-.064-.137-.1a.385.385 0 0 0-.034-.168c-.028-.065-.023-.11.013-.122.04-.014.035-.064-.015-.16-.04-.078-.066-.148-.058-.156.008-.008.204.059.436.148.48.186 1.136.267 1.269.156a.496.496 0 0 0 .113-.244.493.493 0 0 1 .107-.24.229.229 0 0 0 .074-.155c0-.05.045-.15.099-.219a1.02 1.02 0 0 0 .12-.185c.04-.115.552-.76.605-.763.029-.002.13-.069.225-.149.242-.204.501-.36.739-.444.434-.154 2.755-.057 2.863.12.016.025.072.047.125.047.243 0 .928.428 1.287.803.336.351.49.352.953.002.187-.142.368-.267.401-.28.148-.052 1.558-1.363 1.562-1.45.001-.032.12-.154.265-.27.144-.117.262-.227.262-.245.001-.03.215-.245.864-.87.139-.133.253-.263.253-.288 0-.025.05-.059.11-.074a.21.21 0 0 0 .137-.135.202.202 0 0 1 .129-.131.222.222 0 0 0 .136-.118c.036-.094.258-.314.51-.506.08-.06.146-.145.146-.187 0-.041.032-.075.07-.075.04 0 .103-.06.142-.132a.372.372 0 0 1 .17-.164.466.466 0 0 0 .19-.173c.05-.078.149-.189.219-.245.24-.194 1.387-1.362 1.387-1.413 0-.028.031-.051.07-.051.04 0 .102-.058.14-.128.037-.07.113-.14.168-.155a.212.212 0 0 0 .131-.11c.038-.099.441-.51.5-.51.023 0 .11-.08.193-.178.236-.277.263-.305 1.095-1.12.43-.422.783-.792.783-.823 0-.031.029-.056.064-.056s.144-.078.242-.173l.178-.173.102.133a.544.544 0 0 1 .103.182c0 .027.04.092.09.146.07.077.072.097.013.097-.041 0-2.264 2.188-4.94 4.86-2.675 2.673-4.894 4.86-4.93 4.86-.037 0-.19.102-.34.227a6.353 6.353 0 0 1-.514.383c-.506.327-.573.476-.4.89.054.13.083.436.093 1.003.015.807.013.82-.139 1.13-.132.268-.773 1.033-.974 1.162a5.67 5.67 0 0 0-.365.318 4.413 4.413 0 0 1-.438.363c-.077.048-.259.21-.404.36-.145.149-.284.271-.309.271-.025 0-.181.12-.348.267-.504.443-.73.53-1.359.525-.294-.002-.57-.017-.615-.033zm4.832 4.47c-.194-.104-.337-.274-.524-.63-.146-.275-.165-.363-.165-.746 0-.512.102-.772.452-1.148.264-.285.486-.622.534-.813a.436.436 0 0 1 .108-.197c.04-.034.109-.172.152-.307.279-.883.536-1.467.666-1.515a.816.816 0 0 0 .164-.092c.212-.156.586.112.687.492.034.127.08.255.102.285.05.067.215.581.216.674 0 .153.396.824.746 1.264.477.601.587.863.599 1.417.006.327-.01.466-.058.482-.036.012-.066.065-.066.117a.241.241 0 0 1-.08.162c-.044.036-.08.094-.08.129 0 .07-.284.341-.463.442a.827.827 0 0 1-.33.066c-.258 0-.656-.258-.75-.486-.034-.083-.083-.151-.107-.151-.025 0-.07-.096-.102-.213-.045-.167-.082-.212-.176-.212-.095 0-.134.047-.187.227-.08.27-.454.729-.594.729-.055 0-.114.024-.132.053-.046.075-.452.056-.612-.03zm6.746-4.574a9.518 9.518 0 0 1-.74-.364 4.821 4.821 0 0 1-.513-.42c-.212-.192-.406-.349-.43-.349-.026 0-.188-.143-.361-.319-.174-.175-.34-.318-.371-.318-.068 0-1.021-.97-1.176-1.195-.175-.255-.23-.495-.245-1.08-.014-.531-.01-.553.119-.65a3.54 3.54 0 0 0 .217-.182c.046-.044.109-.08.14-.08.03 0 .291-.11.58-.243.287-.133.607-.278.71-.321.101-.043.227-.101.278-.129.22-.12.292-.155.518-.254.131-.058.42-.191.643-.296.222-.105.42-.19.44-.19.021 0 .126-.06.233-.134.108-.073.235-.133.283-.133a.233.233 0 0 0 .153-.08.233.233 0 0 1 .153-.079c.048 0 .295-.108.55-.239.256-.131.507-.239.56-.239.093 0 .65.518.65.605 0 .024.06.115.132.202.073.086.133.188.133.225 0 .037.048.11.106.163a.336.336 0 0 1 .106.21.31.31 0 0 0 .043.165c.023.027.085.193.139.369l.143.472c.026.085.047.551.048 1.036 0 .88 0 .883-.2 1.466-.109.321-.222.612-.252.647a4.51 4.51 0 0 0-.237.389c-.226.4-.902 1.062-1.085 1.062a.28.28 0 0 0-.192.08c-.143.171-.976.305-1.275.203zm-9.531 10.501c-.02-.03-.078-.056-.131-.056a.243.243 0 0 1-.163-.08c-.036-.043-.148-.08-.249-.08-.1 0-.168-.021-.152-.049.017-.027-.003-.14-.045-.252a2.36 2.36 0 0 1-.106-.413.928.928 0 0 0-.137-.357c-.126-.17-.143-.32-.032-.277.05.02.105-.04.163-.174.049-.112.11-.24.137-.283a5.45 5.45 0 0 0 .154-.302c.102-.21.117-.22.293-.192.223.036.213.143.128-1.338-.068-1.19-.053-1.264.26-1.238.302.025.365.202.278.784-.037.25-.078.842-.091 1.317-.02.75-.013.868.06.895.068.027.059.05-.05.137-.123.096-.133.138-.133.545 0 .397.012.45.12.525.094.066.104.094.048.132-.051.035-.066.15-.053.402.014.283.003.347-.055.325-.04-.016-.104-.003-.142.028-.047.04-.078.04-.102 0zm2.101-1.433c-.041-.026-.083-.127-.092-.225l-.074-.788c-.093-.97-.12-1.524-.083-1.673.032-.125.056-.137.259-.122l.224.016.016.664c.011.467-.01.79-.072 1.089a3.58 3.58 0 0 0-.07.757c.02.345.015.36-.108.282zm2.187.05a30.43 30.43 0 0 0-.066-.777c-.083-.878-.072-1.533.027-1.615.066-.055.106-.055.21.002.227.12.25.313.156 1.33-.047.51-.09.998-.094 1.086-.006.12-.036.161-.115.166-.086.005-.108-.03-.118-.192z"/><path d="M44.085 83.814c-.078-.046-.093-.135-.093-.575 0-.286.024-.59.052-.674.028-.085.072-.417.098-.739.039-.49.034-.599-.034-.677-.109-.128-.054-.163.242-.159.272.005.439-.093.439-.257 0-.053.026-.111.058-.131.032-.02.047-.093.034-.164-.024-.122-.016-.126.22-.096.135.017.39.035.564.04l.319.01-.019.257c-.015.21.004.28.103.385.118.126.139.129.984.129.519 0 .877-.022.897-.054.018-.029.082-.053.141-.053.06 0 .178-.05.263-.11.134-.095.154-.143.154-.371 0-.184.021-.262.071-.262.04 0 .113-.046.163-.101.083-.091.086-.164.037-.757-.03-.36-.08-.74-.11-.841-.03-.102-.055-.415-.055-.696 0-.432.015-.524.1-.6.225-.204.554.095.439.4-.028.072-.068.612-.09 1.198-.037 1.022-.034 1.07.065 1.122.063.034.132.036.18.006.125-.079.149-.058.108.094-.06.226.047.59.216.732l.149.125-.345.037c-.19.02-.36.061-.379.09-.055.09-.016 1.58.048 1.87.082.366.079.689-.007.793-.096.115-.287.11-.396-.01-.114-.127-.118-.729-.008-1.303.1-.525.104-1.063.009-1.143-.074-.06-1.286 0-1.79.089-.14.025-.471.017-.802-.02-.309-.035-.81-.072-1.114-.083l-.552-.02.014.478c.007.263.026.809.042 1.213.031.782.006.887-.209.884a.5.5 0 0 1-.206-.056zm6.615-4.747c-.07-.079-.11-2.468-.044-2.575.052-.084.377-.068.453.023.05.06.058.344.035 1.17-.017.6-.048 1.12-.069 1.153-.02.034-.009.07.026.082.036.012-.025.067-.134.123-.11.056-.2.1-.201.1l-.066-.076z"/><path d="M46.5 84.073c-.08-.08-.09-1.384-.012-1.528.029-.054.068-.304.087-.555.02-.25.05-.455.067-.455.186.005.227.242.304 1.787.034.675-.007.815-.236.815-.081 0-.176-.029-.21-.064zm4.131-2.879V80.8l.226-.035c.124-.02.297-.055.385-.08.088-.024.25-.057.362-.073l.203-.028-.037.17c-.02.093-.062.23-.092.302a.467.467 0 0 0-.045.178c.006.025-.02.035-.057.022-.037-.012-.1.01-.138.048a.325.325 0 0 1-.2.071.622.622 0 0 0-.236.053l-.21.106a.57.57 0 0 1-.134.053c-.015 0-.027-.177-.027-.393zM37.676 44.137c-.036-.041-.066-.1-.066-.13a.057.057 0 0 0-.058-.056c-.09 0-.257-.226-.259-.349-.001-.06.067-.175.15-.255.119-.113.183-.138.293-.11.077.02.154.057.17.083.016.026.106.047.201.047.18 0 .458.104.459.172 0 .022.039.04.086.04.131 0 .052.423-.101.543-.151.118-.774.129-.875.015z"/></g><g fill="#f8ad52" stroke="#f8ad52"><path d="M35.592 50.192c-.037-.044-.09-.08-.117-.08-.028 0-.301-.251-.606-.558-.306-.307-.576-.557-.6-.557-.025 0-.132-.096-.238-.213-.105-.117-.21-.212-.233-.212-.022 0-.124.095-.224.212-.101.117-.197.213-.212.213-.015 0-.06-.078-.1-.173-.156-.379-.225-.515-.274-.545-.029-.018-.052-.103-.052-.188 0-.086-.024-.157-.053-.157-.11 0-.045-.109.2-.335.437-.406.776-.7.982-.851.285-.21.358-.386.358-.86 0-.372.008-.401.1-.372a.193.193 0 0 0 .183-.05c.097-.097.308-.106.397-.017.035.035.064.152.064.26 0 .109.046.289.103.401.056.113.116.29.133.396a.573.573 0 0 0 .137.287c.058.053.105.128.105.167 0 .04.024.071.053.071.03 0 .053.036.053.08 0 .044.036.08.08.08.044 0 .08.031.08.07 0 .076.216.302.289.302.024 0 .094.053.156.12a.982.982 0 0 0 .245.181c.108.052-.03.064-.746.067-.617.002-.898-.016-.943-.06-.05-.05-.064-.037-.064.06 0 .07.095.232.216.37.267.302.271.308.385.536.148.297.209.381.448.62.288.288.294.432.028.651-.227.187-.244.191-.333.084z"/><path d="M32.777 50.854c0-.067-.052-.127-.138-.16-.076-.029-.15-.1-.166-.158-.015-.058-.06-.105-.1-.105-.164 0-.055-.204.301-.562.207-.208.428-.481.492-.608.132-.263.248-.334.248-.152 0 .066.058.182.129.256.164.174.249.64.116.64-.047 0-.085.032-.085.071 0 .039-.06.127-.133.195-.073.069-.133.15-.133.18 0 .065-.427.51-.49.51-.022 0-.041-.048-.041-.107zm.558 1.683a2.229 2.229 0 0 1-.482-.323 1.003 1.003 0 0 0-.306-.166c-.079-.02-.156-.057-.172-.083-.016-.026-.078-.047-.137-.047-.134 0-.104-.113.051-.191.24-.12.414-.349.499-.654.013-.047.164.068.418.319.218.216.463.436.544.489.08.052.17.155.198.229.043.113.024.166-.122.341-.095.115-.197.207-.226.205a1.307 1.307 0 0 1-.265-.119z"/><path d="M30.742 53.773a.215.215 0 0 0-.139-.14c-.06-.015-.11-.045-.11-.067 0-.02-.06-.065-.133-.098-.147-.068-.175-.195-.053-.242.044-.017.08-.087.08-.157 0-.069.048-.17.106-.222.104-.094.137-.149.406-.668.07-.134.185-.3.258-.368.073-.068.133-.156.133-.195 0-.093.164-.089.352.01.084.043.188.08.232.08.098.003.266.125.266.194 0 .027-.084.131-.186.23-.103.1-.186.211-.186.25 0 .038-.02.069-.044.069-.024 0-.095.103-.159.23a1.373 1.373 0 0 1-.221.327c-.06.053-.107.12-.107.147 0 .028-.06.122-.133.208-.073.087-.133.211-.133.276 0 .114-.088.246-.164.246-.02 0-.049-.05-.065-.11z"/><path d="M31.717 55.346a.28.28 0 0 0-.192-.082c-.067 0-.137-.023-.154-.05-.017-.028-.138-.067-.27-.086-.142-.022-.267-.077-.308-.136-.042-.06-.147-.104-.264-.113-.167-.012-.19-.028-.16-.12a.5.5 0 0 1 .128-.189.516.516 0 0 0 .131-.226c.02-.08.057-.157.083-.173.026-.016.048-.085.048-.153 0-.212.146-.203.393.025.126.116.246.212.267.212.02 0 .113.053.206.12.235.165.363.243.494.3.2.088.195.217-.028.642-.058.11-.292.128-.374.029zm-1.131 3.012c-.11-.011-.2-.043-.2-.07 0-.028-.214-.05-.477-.05-.474 0-.552-.032-.398-.16.058-.048.08-.176.08-.475 0-.359-.016-.423-.124-.524-.067-.064-.151-.116-.186-.116-.034 0-.063-.024-.063-.053 0-.03-.056-.053-.124-.053a.276.276 0 0 1-.27-.34c.019-.076.056-.152.082-.168.026-.016.047-.088.047-.16 0-.072.023-.172.05-.222.028-.051.09-.188.138-.305a4.3 4.3 0 0 1 .135-.305.507.507 0 0 0 .049-.199c0-.059.024-.107.053-.107.029 0 .053-.06.053-.134 0-.18.096-.207.548-.152.34.042.38.059.363.153a.52.52 0 0 1-.12.216.423.423 0 0 0-.1.246c0 .075-.037.166-.08.202a.243.243 0 0 0-.08.163c0 .053-.024.111-.053.13-.03.017-.053.146-.053.284 0 .138-.025.276-.055.306-.03.03-.069.18-.087.331-.028.24-.017.294.087.404a.659.659 0 0 0 .34.164c.12.02.231.052.246.07.06.076.272.166.388.166a.39.39 0 0 1 .237.12c.158.17.11.556-.078.628a.483.483 0 0 1-.139.04 1.566 1.566 0 0 0-.209-.03z"/><path d="M28.687 67.506c0-.073-.024-.133-.053-.133-.029 0-.053-.055-.053-.122s-.025-.148-.056-.179c-.031-.03-.07-.191-.087-.357-.017-.166-.052-.314-.077-.33-.025-.015-.045-.144-.045-.287 0-.142-.024-.274-.054-.292-.076-.047-.065-.341.016-.415.156-.143.315-.191.749-.226.251-.02.457-.058.457-.083s.058-.046.13-.046c.07 0 .142-.02.158-.046.015-.025.125-.059.244-.075a.747.747 0 0 0 .293-.093c.104-.086.098-.322-.014-.582l-.093-.213h-1.07c-.838 0-1.082-.016-1.13-.073-.036-.044-.073-.453-.094-1.062-.041-1.197-.04-1.202.492-1.202.184 0 .349-.024.367-.053.018-.03.21-.053.428-.053h.395v-.308c0-.382-.08-.56-.29-.643a3.28 3.28 0 0 1-.247-.11c-.046-.026-.285-.063-.529-.085-.42-.036-.58-.1-.58-.231 0-.032.024-.057.053-.057.03 0 .053-.108.053-.24 0-.13.022-.238.048-.238.026 0 .065-.252.086-.559.021-.307.06-.571.085-.587.026-.016.047-.096.047-.179 0-.23.102-.28.487-.238.185.02.363.058.395.084.033.025.099.032.146.013.079-.03.087.077.087 1.112v1.146l.135.135c.104.104.19.135.369.135.128 0 .248.024.266.053.018.03.102.053.186.053.203 0 .224.048.182.424l-.037.32h-.355c-.307 0-.372.017-.475.127-.068.072-.097.141-.068.16.029.017.069.175.089.35.02.176.059.332.085.349.026.016.048.122.048.235 0 .114.024.221.053.24.03.017.054.096.055.175 0 .079.036.19.08.246a.518.518 0 0 1 .078.266c0 .123.034.178.141.228.095.044.162.048.205.012.102-.084.188.067.236.41.048.35.037.388-.108.388-.204 0-.1.287.106.291.087.002.177.278.105.323-.077.048-.056.227.032.276.072.04.26.568.327.916.024.126.088.301.175.478.033.066 0 .077-.192.061-.144-.011-.231.004-.231.04 0 .032-.09.059-.2.059a.907.907 0 0 0-.35.08c-.085.043-.29.079-.462.079-.17 0-.324.023-.341.051-.018.029-.151.068-.297.087-.145.02-.277.056-.293.081-.016.026-.087.046-.158.046-.103 0-.13-.027-.13-.132zm1.379 3.397c-.118-.143-.476-.886-.476-.989 0-.054-.023-.098-.052-.098-.03 0-.068-.096-.087-.214-.019-.118-.075-.244-.125-.28-.05-.035-.106-.142-.124-.238-.028-.138-.016-.181.057-.204.16-.051.862-.411.862-.442 0-.046.27-.152.49-.191.108-.02.225-.07.26-.11.09-.109.363-.225.575-.243.173-.016.186-.005.247.204.071.242.173.486.372.895.071.146.129.295.128.332 0 .036.024.066.053.066.029 0 .053.042.053.094s.063.187.14.3c.101.149.117.198.055.175-.047-.018-.099-.012-.115.014-.044.072-.35.214-.46.214-.054 0-.098.024-.098.053 0 .03-.057.053-.126.053a.281.281 0 0 0-.193.08c-.036.043-.099.08-.14.08-.04 0-.072.023-.072.052 0 .03-.057.054-.127.054a.281.281 0 0 0-.192.08.281.281 0 0 1-.192.079c-.07 0-.127.024-.127.053 0 .03-.056.053-.126.053a.281.281 0 0 0-.192.08c-.085.102-.182.101-.268-.002zm1.844 2.907c-.078-.082-.142-.178-.142-.213s-.024-.063-.053-.063c-.03 0-.053-.032-.053-.07 0-.04-.06-.127-.133-.196-.073-.068-.133-.152-.133-.186 0-.033-.06-.117-.133-.186-.073-.068-.133-.145-.133-.17a.229.229 0 0 0-.052-.11 43.065 43.065 0 0 1-.184-.23l-.13-.164.17-.161a.993.993 0 0 1 .303-.202.8.8 0 0 0 .285-.218c.087-.101.203-.179.269-.179.063 0 .196-.083.295-.185.1-.103.212-.186.25-.186.038 0 .07-.024.07-.053 0-.03.028-.054.063-.054s.143-.076.239-.17l.175-.169.101.11c.056.06.15.203.209.318.059.116.145.242.19.28.047.038.084.099.084.135 0 .036.09.17.2.299.11.128.303.37.427.538.187.252.21.306.128.306-.054 0-.155.06-.224.133-.068.073-.156.132-.195.132-.038 0-.07.019-.07.04 0 .043-.044.07-.446.267-.135.067-.275.169-.311.226-.036.058-.092.105-.124.105s-.104.05-.159.11c-.093.104-.492.315-.594.315-.025 0-.11-.067-.189-.15zm2.115 2.22c-.32-.321-.601-.584-.624-.584-.022 0-.116-.072-.209-.16l-.167-.161.133-.145a.95.95 0 0 0 .167-.238c.018-.051.065-.093.104-.093.073 0 .41-.32.41-.39 0-.057.084-.156.527-.626.217-.23.413-.418.436-.418.05 0 .753.706 1.196 1.2.17.19.369.378.44.417l.13.07-.127.04c-.07.021-.266.18-.435.351-.17.172-.33.312-.356.312-.025 0-.084.058-.13.13-.047.07-.14.184-.209.252a.828.828 0 0 0-.16.22.235.235 0 0 1-.144.126c-.058.016-.106.061-.106.101 0 .04-.036.074-.08.074-.043 0-.079.024-.079.053 0 .14-.182.006-.717-.531zm3.532 2.565a.636.636 0 0 0-.217-.068c-.046 0-.14-.06-.208-.134-.069-.073-.153-.132-.187-.132s-.105-.048-.158-.107c-.053-.058-.123-.106-.155-.106s-.15-.082-.263-.183c-.113-.1-.269-.19-.345-.199-.125-.014-.14-.038-.134-.218a.527.527 0 0 1 .114-.318.784.784 0 0 0 .147-.25.573.573 0 0 1 .125-.213 1.28 1.28 0 0 0 .266-.4.566.566 0 0 1 .13-.177.47.47 0 0 0 .116-.223c.018-.086.067-.156.107-.156.089 0 .184-.163.184-.315 0-.06.009-.11.02-.11.01 0 .315.2.677.443.361.243.759.487.883.541.124.055.226.118.226.142 0 .024.033.043.073.043.04 0 .103.036.14.08.052.064.051.08-.008.08-.041 0-.116.089-.167.198-.097.21-.204.394-.255.439a.405.405 0 0 0-.067.106c-.02.044-.078.14-.129.214-.05.074-.14.211-.198.305-.059.094-.124.17-.146.17-.022.001-.04.034-.04.074 0 .04-.036.103-.08.14a.264.264 0 0 0-.08.179c0 .159-.2.242-.371.155zm3.321 1.518c-.115-.027-.223-.068-.239-.09-.042-.062-.403-.222-.498-.222-.045 0-.096-.024-.115-.053-.018-.03-.079-.053-.136-.053a.5.5 0 0 1-.196-.049c-.151-.08-.478-.217-.516-.217-.02 0-.07-.034-.111-.076-.08-.079-.106-.296-.036-.296.05 0 .155-.237.2-.451.019-.088.053-.207.077-.266l.277-.664c.03-.073.077-.174.102-.225a.577.577 0 0 0 .047-.219.28.28 0 0 1 .08-.193c.044-.036.08-.147.08-.245 0-.1.018-.18.04-.18.047 0 .225-.391.225-.494 0-.038.022-.092.05-.12a.458.458 0 0 0 .066-.209l.017-.16.171.18c.106.11.202.167.252.147.093-.035.118.15.028.205-.085.053-.06.29.046.443.125.18.19.545.09.507-.106-.041-.117.102-.075.962.04.82.137 1.659.201 1.752.075.11.16.345.122.34a5.87 5.87 0 0 1-.249-.054zm-.508-5.75c-.167-.162-.344-.28-.742-.492-.162-.087-.935-.092-1.275-.008-.547.134-1.444.03-1.689-.198-.078-.072-.16-.131-.182-.131-.096 0-.451-.423-.581-.691-.197-.405-.223-.599-.093-.68.056-.035.102-.096.102-.135 0-.04.048-.114.107-.167.058-.053.106-.126.106-.162 0-.036.044-.076.098-.09.054-.015.153-.143.22-.286.068-.142.164-.307.215-.365a.772.772 0 0 0 .131-.235.77.77 0 0 1 .168-.257c.125-.125.134-.126.233-.036.057.05.103.129.103.172 0 .109.259.63.35.705.042.034.075.09.075.123 0 .082.861.935.944.935.036 0 .065.024.065.053 0 .03.03.054.067.054.036 0 .184.06.327.133.144.072.313.132.375.132s.137.024.166.053c.028.029.17.067.316.085.144.018.329.06.409.093.145.06.146.064.146.576 0 .286.024.53.053.547.062.039.073.452.012.452-.023 0-.125-.081-.227-.18zm12.005.21c0-.043.024-.092.053-.11.03-.018.053-.234.053-.48 0-.264.022-.45.053-.45.032 0 .053-.201.053-.498v-.5l.425-.037c.234-.02.439-.059.455-.085.016-.026.088-.048.159-.048.071 0 .13-.022.13-.049 0-.026.071-.064.158-.083.088-.02.173-.057.19-.084.016-.027.077-.05.135-.05.058 0 .21-.107.337-.238.128-.132.254-.24.28-.24.058 0 .334-.28.334-.339 0-.022.083-.122.186-.221.102-.1.185-.216.185-.26 0-.043.06-.185.133-.316.073-.131.133-.282.133-.337 0-.186.114-.237.25-.11.067.063.122.147.122.186 0 .038.023.07.052.07.028 0 .098.102.155.227.057.125.153.272.214.327.06.055.11.128.11.162s.06.118.133.187c.073.068.132.156.132.195 0 .039.022.07.047.07.026 0 .062.042.08.093.087.254.233.412.37.402l.14-.01-.132.195a.778.778 0 0 0-.133.35c0 .261-.39.768-.88 1.143-.157.12-.321.168-.792.225-.456.056-.556.053-.884-.032-.567-.147-1.19-.084-1.588.163-.164.1-.403.29-.531.42-.246.25-.317.287-.317.162zm.84 4.914c-.068-.134-.14-.252-.161-.261-.021-.01-.055-.105-.075-.212a.577.577 0 0 0-.126-.275.542.542 0 0 1-.124-.257 1.009 1.009 0 0 0-.141-.327.597.597 0 0 1-.107-.208c0-.032-.06-.058-.133-.058-.077 0-.133.03-.133.073 0 .042-.055.073-.132.073-.073 0-.132-.027-.131-.06.002-.102.147-.258.206-.222.035.022.043.001.021-.056-.023-.062-.015-.079.027-.053.043.026.063-.014.063-.127 0-.108-.021-.153-.06-.13-.068.043-.029-.118.096-.395.061-.134.076-.307.06-.677-.02-.473-.017-.496.081-.465.074.023.151-.019.272-.146.247-.26.398-.372.456-.336.029.017.05.404.05.893 0 .558.021.884.06.922.042.042.139.018.358-.089.165-.08.431-.21.592-.286l.292-.139.016.159c.01.087.04.158.067.158.027 0 .05.057.05.126 0 .07.035.156.08.193.043.036.079.099.079.139 0 .04.024.073.053.073.03 0 .053.084.053.186s.024.186.053.186c.03 0 .053.03.054.066 0 .037.06.184.132.328.073.144.133.293.133.332 0 .039.036.07.08.07.043 0 .08.024.08.054 0 .029-.027.053-.06.053-.068 0-.434.165-.472.214a.867.867 0 0 1-.2.108c-.094.042-.172.105-.172.142 0 .037-.06.067-.133.067a.566.566 0 0 0-.226.05.995.995 0 0 1-.226.077.6.6 0 0 0-.241.128.592.592 0 0 1-.247.127c-.123.023-.155-.003-.264-.218zm-2.367 5.853c-.044-.093-.067-.407-.067-.903 0-.47-.02-.76-.053-.76-.03 0-.053-.166-.053-.394 0-.218-.024-.41-.053-.428-.03-.018-.053-.105-.053-.193 0-.128.018-.154.093-.13.064.02.175-.049.346-.215.138-.135.251-.264.251-.287 0-.023.083-.14.183-.26.1-.12.196-.26.212-.31.023-.07.094-.094.298-.098.148-.003.297-.033.33-.066a.298.298 0 0 1 .183-.061c.067 0 .122-.021.122-.047s.107-.063.238-.083c.13-.02.252-.058.269-.086a.117.117 0 0 1 .088-.05c.145 0-.11 1.36-.363 1.947a.913.913 0 0 0-.072.226c0 .032-.024.058-.054.058-.029 0-.053.038-.053.085 0 .127-.241.584-.396.75-.074.08-.135.172-.135.203 0 .032-.042.104-.093.16-.05.058-.18.212-.286.343-.34.421-.69.745-.799.742a.508.508 0 0 1-.083-.143zm-9.066-2.72c-.017-.027-.192-.065-.388-.083a2.12 2.12 0 0 1-.57-.135 1.922 1.922 0 0 0-.466-.135c-.138-.02-.252-.06-.252-.088 0-.03-.06-.042-.133-.028-.126.024-.132.013-.132-.23 0-.14-.024-.27-.054-.288-.029-.018-.053-.188-.053-.378 0-.334.004-.345.12-.309a.37.37 0 0 1 .146.075c.015.021.138.053.274.071.136.018.34.085.452.149.123.07.303.118.455.121.237.005.252.014.253.149 0 .078.024.157.054.176.03.018.112.147.182.285.07.139.166.284.214.324.047.039.134.14.193.222l.108.15h-.187c-.102 0-.2-.021-.216-.048zm14.64-4.636c-.035-.035-.064-.09-.064-.123s-.058-.114-.128-.18a.64.64 0 0 1-.162-.255c-.019-.073-.134-.232-.257-.353a1.805 1.805 0 0 1-.3-.38 1.474 1.474 0 0 0-.178-.274c-.056-.064-.088-.137-.073-.162.016-.026.168-.117.338-.203.17-.086.392-.235.495-.331.102-.097.305-.244.451-.327a3.23 3.23 0 0 0 .425-.29c.19-.164.239-.172.239-.039 0 .055.036.13.08.166.043.037.08.09.08.12s.078.128.173.22c.096.09.214.249.263.352.048.102.149.244.224.314.075.07.136.15.136.177 0 .027.045.113.1.19.101.142.1.144-.023.288-.069.08-.164.145-.212.145-.048 0-.1.048-.115.107-.016.058-.115.147-.221.196-.168.077-.32.18-.576.388a.229.229 0 0 1-.11.053c-.025 0-.102.06-.17.132-.135.143-.312.172-.415.07zm2.963-2.216c0-.027-.035-.057-.077-.066-.116-.026-1.412-1.325-1.378-1.38a3.73 3.73 0 0 1 .3-.299c.319-.297.895-.89 1.033-1.064.08-.102.12-.114.231-.072a.57.57 0 0 1 .205.137c.04.047.099.085.132.085.104 0 .98.921 1.016 1.068.022.092.005.166-.05.222-.046.046-.084.104-.084.13 0 .025-.086.128-.19.23-.106.1-.213.236-.239.303a.338.338 0 0 1-.167.167c-.139.054-.435.358-.483.496-.034.095-.249.132-.249.043zm2.178-2.805c-.198-.096-.202-.1-.46-.305-.091-.073-.215-.133-.274-.133-.06 0-.155-.06-.213-.133-.057-.073-.126-.133-.153-.133-.027 0-.116-.07-.2-.157-.13-.137-.14-.17-.078-.245.04-.048.097-.13.128-.181.03-.052.15-.234.265-.406.229-.34.367-.565.463-.75.033-.066.081-.12.106-.12.024 0 .044-.045.044-.1 0-.056.033-.114.074-.13.07-.026.654.233.718.32.039.053.208.16.352.223.06.027.14.086.18.133.038.047.094.085.124.085.074 0 .358.303.358.38 0 .035-.04.107-.088.16a1.496 1.496 0 0 0-.263.43c-.018.05-.05.093-.07.093-.02 0-.07.083-.11.185-.04.103-.105.186-.143.186-.038 0-.07.05-.07.109 0 .129-.205.422-.296.422-.035 0-.078.036-.095.08-.038.1-.07.099-.3-.013zm1.779-3.146a.722.722 0 0 0-.239-.104.783.783 0 0 1-.232-.083.983.983 0 0 0-.378-.08c-.176 0-.233-.022-.253-.098-.027-.104-.298-.187-.437-.133-.045.016-.08.017-.08 0 0-.065.125-.3.16-.3.02 0 .079-.132.13-.293.05-.16.149-.412.219-.557.07-.145.128-.296.128-.336 0-.039.017-.088.039-.11.022-.022.078-.163.125-.314.067-.214.113-.28.207-.293.067-.01.136.003.154.03.05.073.408.227.53.227.06 0 .216.06.347.133.13.073.27.132.31.132.183 0 .358.135.359.276 0 .079-.024.158-.053.176-.03.018-.053.1-.053.182 0 .083-.036.18-.08.216a.247.247 0 0 0-.08.167.492.492 0 0 1-.048.192c-.124.235-.218.491-.221.605-.006.181-.174.442-.292.454a.54.54 0 0 1-.262-.089zm1.088-3.395c0-.026-.256-.063-.57-.082-.314-.019-.612-.056-.661-.084-.058-.031-.103-.03-.123.003-.041.066-.238.068-.238.002 0-.028.02-.063.047-.08.025-.015.064-.142.084-.281.02-.14.057-.277.08-.306.045-.058.08-.243.171-.916.033-.241.08-.439.104-.439.025 0 .045-.085.045-.19v-.19l.305.037c.168.02.328.058.356.084.028.026.164.047.302.047.139 0 .267.024.285.053.018.03.123.053.234.053.313 0 .379.111.34.575-.018.211-.053.397-.077.413-.025.015-.046.132-.046.26s-.024.248-.053.266c-.03.018-.053.15-.053.292s-.024.274-.053.292c-.03.018-.053.08-.053.136 0 .085-.038.103-.213.103-.116 0-.212-.022-.212-.048zm-1.02-4.65c-.01-.772.004-1.198.038-1.199l.97-.028.916-.027v.663c0 .384-.022.676-.053.695-.03.018-.053.244-.053.502 0 .46-.003.47-.138.504-.076.019-.456.03-.844.025-.388-.005-.731.006-.763.026-.04.025-.062-.318-.073-1.161zm-.148-2.392a.97.97 0 0 0-.055-.35c-.03-.056-.07-.264-.087-.46-.017-.198-.05-.383-.072-.412-.023-.03-.058-.19-.079-.359-.02-.168-.059-.32-.084-.335-.082-.05-.053-.181.032-.148.044.017.08.007.08-.02 0-.03.148-.068.33-.087.18-.019.353-.058.382-.087.029-.029.118-.053.198-.053.08 0 .16-.024.179-.053.018-.029.133-.053.255-.052.19 0 .233.021.29.143.036.079.065.246.065.371 0 .126.024.229.054.229.029 0 .053.079.053.175 0 .097.035.223.078.28.043.056.078.214.08.352 0 .137.025.263.054.281.081.05.063.29-.028.381-.044.045-.177.094-.293.11-.117.016-.225.049-.241.074-.016.026-.121.046-.235.046-.113 0-.219.021-.235.047-.016.026-.143.063-.282.083-.139.02-.294.048-.346.063-.079.023-.093-.01-.093-.22zm-.796-3.095a.709.709 0 0 0-.08-.258.699.699 0 0 1-.08-.236c0-.045-.056-.2-.125-.345a4.687 4.687 0 0 1-.19-.461c-.035-.11-.084-.2-.107-.2-.024 0-.057-.041-.074-.092a10.618 10.618 0 0 0-.112-.306 4.013 4.013 0 0 1-.081-.225c0-.008.053-.014.119-.014.065 0 .237-.06.38-.133.144-.073.286-.132.315-.132.03 0 .091-.035.138-.077a.572.572 0 0 1 .272-.096.814.814 0 0 0 .253-.06c.095-.06.222.063.222.213 0 .145.09.324.225.45.051.048.093.16.093.25s.031.183.07.207c.038.023.11.138.161.255.051.116.116.254.144.304.106.194.06.336-.136.413-.102.04-.186.09-.186.112 0 .021-.071.054-.158.073-.088.02-.173.057-.19.084-.016.027-.073.05-.126.05a.243.243 0 0 0-.163.079.284.284 0 0 1-.194.08.567.567 0 0 0-.26.085c-.123.082-.13.08-.13-.02zm-1.413-3.079a5.13 5.13 0 0 1-.2-.332 1.649 1.649 0 0 0-.226-.313c-.07-.07-.126-.148-.126-.173 0-.026-.15-.243-.334-.484-.44-.576-.448-.59-.32-.549.069.022.138-.004.202-.074.053-.059.118-.107.144-.107.026 0 .1-.054.165-.12.127-.129.267-.225.437-.3a.576.576 0 0 0 .18-.132c.085-.103.27-.113.27-.015 0 .039.059.127.132.195.073.069.133.15.133.182s.084.138.186.237c.102.1.186.221.186.271 0 .05.047.134.106.187.058.053.106.123.106.157s.072.13.16.214c.252.242.203.393-.173.535-.051.02-.093.07-.093.112 0 .042-.084.11-.186.153s-.186.114-.186.157c0 .044-.032.08-.07.08-.04 0-.127.059-.196.132-.156.167-.178.166-.297-.013zm-2.685-3.373c-.399-.416-.745-.777-.77-.8-.024-.025-.002-.068.048-.096.051-.029.093-.078.093-.11 0-.031.078-.132.173-.223.095-.091.263-.28.375-.418.111-.138.233-.252.27-.252.036 0 .122.06.191.133.069.073.144.133.168.133.065 0 1 .94 1 1.005 0 .032.026.057.057.057.068 0 .21.133.21.197 0 .025-.168.211-.373.414-.204.203-.371.4-.371.437 0 .037-.024.067-.054.067-.029 0-.053.036-.053.08 0 .044-.022.08-.048.08a.425.425 0 0 0-.12.027c-.042.015-.366-.282-.796-.73zM56.618 48a6.116 6.116 0 0 0-.292-.283 29.99 29.99 0 0 1-1.126-1.175l-.122-.134.105-.188c.058-.103.09-.204.07-.224-.05-.05.578.028.69.086a.58.58 0 0 0 .223.047c.073 0 .145.02.161.045.016.026.177.076.358.111.229.045.306.08.253.112-.063.039-.058.064.03.15.06.057.19.15.293.206.183.1.27.26.175.325-.058.04-.228.398-.228.48 0 .031-.036.058-.079.058-.043 0-.133.119-.199.264-.066.146-.132.265-.147.265a.738.738 0 0 1-.165-.145zm-11.444-4.407c-.093-.414-.373-1.232-.479-1.401-.12-.191-.096-.312.06-.312.034 0 .103-.046.153-.101.22-.244.462-.13.567.264.073.277.073.39-.002 1.054-.054.469-.113.642-.22.642-.026 0-.061-.066-.08-.146z"/></g><g fill="#fdc34a" stroke="#fdc34a"><path d="M50.798 69.612a3.04 3.04 0 0 0-.383-.182c-.047 0-.36-.303-.36-.347a.908.908 0 0 0-.127-.201 1.878 1.878 0 0 1-.216-.448c-.05-.153-.113-.291-.14-.308-.06-.038-.065-.948-.005-1.074l.133-.269a.834.834 0 0 0 .089-.258c0-.112.592-.714.806-.82.543-.27.56-.273 1.305-.248.392.014.729.048.748.077.02.03.071.07.115.09.218.105.352.205.59.439.143.14.26.277.26.303 0 .025.044.11.098.187a2 2 0 0 1 .19.437c.156.502.048 1.45-.195 1.719a.689.689 0 0 0-.126.207c-.04.127-.413.514-.495.514-.032 0-.153.06-.27.132-.115.073-.244.133-.287.133-.043 0-.092.024-.11.053-.02.031-.293.052-.654.05-.6-.004-.632-.01-.966-.186zm1.428-.897c.276-.142.49-.36.62-.63.132-.275.17-.65.082-.82a14.509 14.509 0 0 1-.146-.299c-.054-.114-.14-.218-.192-.232-.05-.014-.093-.042-.093-.063 0-.1-.4-.216-.749-.216-.429 0-.52.037-.835.339-.283.27-.38.493-.38.867 0 .233.03.332.154.51.214.31.535.555.833.639.156.044.537-.007.706-.095z"/><path d="M51.302 68.19c-.141-.18-.239-.436-.239-.626 0-.168.039-.252.195-.42.18-.196.214-.21.485-.21.264 0 .306.017.47.189.097.104.193.252.213.328.05.2-.131.704-.253.704-.052 0-.11.024-.127.053-.049.078-.68.063-.744-.018z"/></g></g></svg>