<svg xmlns:xlink="http://www.w3.org/1999/xlink" width="449.764" height="351.496"><defs><clipPath clipPathUnits="userSpaceOnUse" id="ballotCardBackcover_svg__a"><path stroke-width="1.134" stroke-linecap="round" stroke-dasharray="3.40157497,3.40157497" d="M1.666 1028.955h238.11v336.378H1.666z"/></clipPath></defs><g fill="#62c19f"><path d="M37.795 37.795h374.173v275.906H37.795z"/><path d="M56.693 56.693h336.378v238.11H56.693z"/></g><path fill="#373737" d="M85.492 74.55h278.78v202.395H85.492z"/><g transform="translate(-.127 -.28)"><circle id="ballotCardBackcover_svg__b" cx="91.889" cy="80.443" r="10.71" opacity="1" vector-effect="none" fill="#373737" fill-opacity="1" stroke="none" stroke-width="1.301" stroke-linecap="round" stroke-linejoin="miter" stroke-miterlimit="4" stroke-dasharray="3.90380471,3.90380471" stroke-dashoffset="0" stroke-opacity="1" paint-order="normal"/><use xlink:href="#ballotCardBackcover_svg__b" transform="translate(20.48)" width="100%" height="100%"/><use xlink:href="#ballotCardBackcover_svg__b" transform="translate(40.96)" width="100%" height="100%"/><use xlink:href="#ballotCardBackcover_svg__b" transform="translate(61.44)" width="100%" height="100%"/><use xlink:href="#ballotCardBackcover_svg__b" transform="translate(81.92)" width="100%" height="100%"/><use xlink:href="#ballotCardBackcover_svg__b" transform="translate(102.4)" width="100%" height="100%"/><use xlink:href="#ballotCardBackcover_svg__b" transform="translate(122.88)" width="100%" height="100%"/><use xlink:href="#ballotCardBackcover_svg__b" transform="translate(143.36)" width="100%" height="100%"/><use xlink:href="#ballotCardBackcover_svg__b" transform="translate(163.84)" width="100%" height="100%"/><use xlink:href="#ballotCardBackcover_svg__b" transform="translate(184.32)" width="100%" height="100%"/><use xlink:href="#ballotCardBackcover_svg__b" transform="translate(204.799)" width="100%" height="100%"/><use xlink:href="#ballotCardBackcover_svg__b" transform="translate(225.279)" width="100%" height="100%"/><use xlink:href="#ballotCardBackcover_svg__b" transform="translate(245.759)" width="100%" height="100%"/><use xlink:href="#ballotCardBackcover_svg__b" transform="translate(266.239)" width="100%" height="100%"/><use height="100%" width="100%" transform="translate(20.48 191.172)" xlink:href="#ballotCardBackcover_svg__b"/><use height="100%" width="100%" transform="translate(40.96 191.172)" xlink:href="#ballotCardBackcover_svg__b"/><use height="100%" width="100%" transform="translate(61.44 191.172)" xlink:href="#ballotCardBackcover_svg__b"/><use height="100%" width="100%" transform="translate(81.92 191.172)" xlink:href="#ballotCardBackcover_svg__b"/><use height="100%" width="100%" transform="translate(102.4 191.172)" xlink:href="#ballotCardBackcover_svg__b"/><use height="100%" width="100%" transform="translate(122.88 191.172)" xlink:href="#ballotCardBackcover_svg__b"/><use height="100%" width="100%" transform="translate(143.36 191.172)" xlink:href="#ballotCardBackcover_svg__b"/><use height="100%" width="100%" transform="translate(163.84 191.172)" xlink:href="#ballotCardBackcover_svg__b"/><use height="100%" width="100%" transform="translate(184.32 191.172)" xlink:href="#ballotCardBackcover_svg__b"/><use height="100%" width="100%" transform="translate(204.799 191.172)" xlink:href="#ballotCardBackcover_svg__b"/><use height="100%" width="100%" transform="translate(225.279 191.172)" xlink:href="#ballotCardBackcover_svg__b"/><use height="100%" width="100%" transform="translate(245.759 191.172)" xlink:href="#ballotCardBackcover_svg__b"/><use height="100%" width="100%" transform="translate(266.239 191.172)" xlink:href="#ballotCardBackcover_svg__b"/><use xlink:href="#ballotCardBackcover_svg__b" transform="translate(0 191.172)" width="100%" height="100%"/><use xlink:href="#ballotCardBackcover_svg__b" transform="translate(0 21.241)" width="100%" height="100%"/><use height="100%" width="100%" transform="translate(0 42.483)" xlink:href="#ballotCardBackcover_svg__b"/><use xlink:href="#ballotCardBackcover_svg__b" transform="translate(0 63.724)" width="100%" height="100%"/><use height="100%" width="100%" transform="translate(0 84.965)" xlink:href="#ballotCardBackcover_svg__b"/><use xlink:href="#ballotCardBackcover_svg__b" transform="translate(0 106.206)" width="100%" height="100%"/><use height="100%" width="100%" transform="translate(0 127.448)" xlink:href="#ballotCardBackcover_svg__b"/><use xlink:href="#ballotCardBackcover_svg__b" transform="translate(0 148.689)" width="100%" height="100%"/><use height="100%" width="100%" transform="translate(0 169.93)" xlink:href="#ballotCardBackcover_svg__b"/><use height="100%" width="100%" transform="translate(266.239 21.241)" xlink:href="#ballotCardBackcover_svg__b"/><use xlink:href="#ballotCardBackcover_svg__b" transform="translate(266.239 42.483)" width="100%" height="100%"/><use height="100%" width="100%" transform="translate(266.239 63.724)" xlink:href="#ballotCardBackcover_svg__b"/><use xlink:href="#ballotCardBackcover_svg__b" transform="translate(266.239 84.965)" width="100%" height="100%"/><use height="100%" width="100%" transform="translate(266.239 106.206)" xlink:href="#ballotCardBackcover_svg__b"/><use xlink:href="#ballotCardBackcover_svg__b" transform="translate(266.239 127.448)" width="100%" height="100%"/><use height="100%" width="100%" transform="translate(266.239 148.689)" xlink:href="#ballotCardBackcover_svg__b"/><use xlink:href="#ballotCardBackcover_svg__b" transform="translate(266.239 169.93)" width="100%" height="100%"/></g><g transform="translate(-.52 -.454)" fill="#62c19f"><circle r="2.19" cy="88.55" cx="96.574" id="ballotCardBackcover_svg__c" opacity="1" vector-effect="none" fill="#62c19f" fill-opacity="1" stroke="none" stroke-width="1.057" stroke-linecap="round" stroke-linejoin="miter" stroke-miterlimit="4" stroke-dasharray="3.17029838,3.17029838" stroke-dashoffset="0" stroke-opacity="1" paint-order="normal"/><use height="100%" width="100%" transform="translate(0 3.308)" xlink:href="#ballotCardBackcover_svg__c"/><use height="100%" width="100%" transform="translate(0 6.615)" xlink:href="#ballotCardBackcover_svg__c"/><use height="100%" width="100%" transform="translate(0 9.923)" xlink:href="#ballotCardBackcover_svg__c"/><use height="100%" width="100%" transform="translate(0 13.23)" xlink:href="#ballotCardBackcover_svg__c"/><use height="100%" width="100%" transform="translate(0 16.538)" xlink:href="#ballotCardBackcover_svg__c"/><use height="100%" width="100%" transform="translate(0 19.846)" xlink:href="#ballotCardBackcover_svg__c"/><use height="100%" width="100%" transform="translate(0 23.153)" xlink:href="#ballotCardBackcover_svg__c"/><use height="100%" width="100%" transform="translate(0 26.461)" xlink:href="#ballotCardBackcover_svg__c"/><use height="100%" width="100%" transform="translate(0 29.769)" xlink:href="#ballotCardBackcover_svg__c"/><use height="100%" width="100%" transform="translate(0 33.076)" xlink:href="#ballotCardBackcover_svg__c"/><use height="100%" width="100%" transform="translate(0 36.384)" xlink:href="#ballotCardBackcover_svg__c"/><use height="100%" width="100%" transform="translate(0 39.692)" xlink:href="#ballotCardBackcover_svg__c"/><use height="100%" width="100%" transform="translate(0 43)" xlink:href="#ballotCardBackcover_svg__c"/><use height="100%" width="100%" transform="translate(0 46.307)" xlink:href="#ballotCardBackcover_svg__c"/><use height="100%" width="100%" transform="translate(0 49.614)" xlink:href="#ballotCardBackcover_svg__c"/><use height="100%" width="100%" transform="translate(0 52.922)" xlink:href="#ballotCardBackcover_svg__c"/><use height="100%" width="100%" transform="translate(0 56.23)" xlink:href="#ballotCardBackcover_svg__c"/><use height="100%" width="100%" transform="translate(0 59.537)" xlink:href="#ballotCardBackcover_svg__c"/><use height="100%" width="100%" transform="translate(0 62.845)" xlink:href="#ballotCardBackcover_svg__c"/><use height="100%" width="100%" transform="translate(0 66.153)" xlink:href="#ballotCardBackcover_svg__c"/><use height="100%" width="100%" transform="translate(0 69.46)" xlink:href="#ballotCardBackcover_svg__c"/><use height="100%" width="100%" transform="translate(0 72.768)" xlink:href="#ballotCardBackcover_svg__c"/><use height="100%" width="100%" transform="translate(0 76.076)" xlink:href="#ballotCardBackcover_svg__c"/><use height="100%" width="100%" transform="translate(0 79.383)" xlink:href="#ballotCardBackcover_svg__c"/><use height="100%" width="100%" transform="translate(0 82.69)" xlink:href="#ballotCardBackcover_svg__c"/><use height="100%" width="100%" transform="translate(0 85.998)" xlink:href="#ballotCardBackcover_svg__c"/><use height="100%" width="100%" transform="translate(0 89.306)" xlink:href="#ballotCardBackcover_svg__c"/><use height="100%" width="100%" transform="translate(0 92.614)" xlink:href="#ballotCardBackcover_svg__c"/><use height="100%" width="100%" transform="translate(0 95.921)" xlink:href="#ballotCardBackcover_svg__c"/><use height="100%" width="100%" transform="translate(0 99.229)" xlink:href="#ballotCardBackcover_svg__c"/><use height="100%" width="100%" transform="translate(0 102.537)" xlink:href="#ballotCardBackcover_svg__c"/><use height="100%" width="100%" transform="translate(0 105.844)" xlink:href="#ballotCardBackcover_svg__c"/><use height="100%" width="100%" transform="translate(0 109.152)" xlink:href="#ballotCardBackcover_svg__c"/><use height="100%" width="100%" transform="translate(0 112.46)" xlink:href="#ballotCardBackcover_svg__c"/><use height="100%" width="100%" transform="translate(0 115.767)" xlink:href="#ballotCardBackcover_svg__c"/><use height="100%" width="100%" transform="translate(0 119.075)" xlink:href="#ballotCardBackcover_svg__c"/><use height="100%" width="100%" transform="translate(0 122.382)" xlink:href="#ballotCardBackcover_svg__c"/><use height="100%" width="100%" transform="translate(0 125.69)" xlink:href="#ballotCardBackcover_svg__c"/><use height="100%" width="100%" transform="translate(0 128.998)" xlink:href="#ballotCardBackcover_svg__c"/><use height="100%" width="100%" transform="translate(0 132.305)" xlink:href="#ballotCardBackcover_svg__c"/><use height="100%" width="100%" transform="translate(0 135.613)" xlink:href="#ballotCardBackcover_svg__c"/><use height="100%" width="100%" transform="translate(0 138.92)" xlink:href="#ballotCardBackcover_svg__c"/><use height="100%" width="100%" transform="translate(0 142.228)" xlink:href="#ballotCardBackcover_svg__c"/><use height="100%" width="100%" transform="translate(0 145.536)" xlink:href="#ballotCardBackcover_svg__c"/><use height="100%" width="100%" transform="translate(0 148.843)" xlink:href="#ballotCardBackcover_svg__c"/><use height="100%" width="100%" transform="translate(0 152.151)" xlink:href="#ballotCardBackcover_svg__c"/><use height="100%" width="100%" transform="translate(0 155.459)" xlink:href="#ballotCardBackcover_svg__c"/><use height="100%" width="100%" transform="translate(0 158.766)" xlink:href="#ballotCardBackcover_svg__c"/><use height="100%" width="100%" transform="translate(0 162.074)" xlink:href="#ballotCardBackcover_svg__c"/><use height="100%" width="100%" transform="translate(0 165.382)" xlink:href="#ballotCardBackcover_svg__c"/><use height="100%" width="100%" transform="translate(0 168.69)" xlink:href="#ballotCardBackcover_svg__c"/><use height="100%" width="100%" transform="translate(0 171.997)" xlink:href="#ballotCardBackcover_svg__c"/><use height="100%" width="100%" transform="translate(0 175.304)" xlink:href="#ballotCardBackcover_svg__c"/><use height="100%" width="100%" xlink:href="#ballotCardBackcover_svg__c" transform="translate(3.303)"/><use height="100%" width="100%" xlink:href="#ballotCardBackcover_svg__c" transform="translate(6.606)"/><use height="100%" width="100%" xlink:href="#ballotCardBackcover_svg__c" transform="translate(9.91)"/><use height="100%" width="100%" xlink:href="#ballotCardBackcover_svg__c" transform="translate(13.213)"/><use height="100%" width="100%" xlink:href="#ballotCardBackcover_svg__c" transform="translate(16.516)"/><use height="100%" width="100%" xlink:href="#ballotCardBackcover_svg__c" transform="translate(19.82)"/><use height="100%" width="100%" xlink:href="#ballotCardBackcover_svg__c" transform="translate(23.123)"/><use height="100%" width="100%" xlink:href="#ballotCardBackcover_svg__c" transform="translate(26.426)"/><use height="100%" width="100%" xlink:href="#ballotCardBackcover_svg__c" transform="translate(29.73)"/><use height="100%" width="100%" xlink:href="#ballotCardBackcover_svg__c" transform="translate(33.033)"/><use height="100%" width="100%" xlink:href="#ballotCardBackcover_svg__c" transform="translate(36.336)"/><use height="100%" width="100%" xlink:href="#ballotCardBackcover_svg__c" transform="translate(39.639)"/><use height="100%" width="100%" xlink:href="#ballotCardBackcover_svg__c" transform="translate(42.942)"/><use height="100%" width="100%" xlink:href="#ballotCardBackcover_svg__c" transform="translate(46.246)"/><use height="100%" width="100%" xlink:href="#ballotCardBackcover_svg__c" transform="translate(49.549)"/><use height="100%" width="100%" xlink:href="#ballotCardBackcover_svg__c" transform="translate(52.852)"/><use height="100%" width="100%" xlink:href="#ballotCardBackcover_svg__c" transform="translate(56.155)"/><use height="100%" width="100%" xlink:href="#ballotCardBackcover_svg__c" transform="translate(59.459)"/><use height="100%" width="100%" xlink:href="#ballotCardBackcover_svg__c" transform="translate(62.762)"/><use height="100%" width="100%" xlink:href="#ballotCardBackcover_svg__c" transform="translate(66.065)"/><use height="100%" width="100%" xlink:href="#ballotCardBackcover_svg__c" transform="translate(69.368)"/><use height="100%" width="100%" xlink:href="#ballotCardBackcover_svg__c" transform="translate(72.672)"/><use height="100%" width="100%" xlink:href="#ballotCardBackcover_svg__c" transform="translate(75.975)"/><use height="100%" width="100%" xlink:href="#ballotCardBackcover_svg__c" transform="translate(79.278)"/><use height="100%" width="100%" xlink:href="#ballotCardBackcover_svg__c" transform="translate(82.581)"/><use height="100%" width="100%" xlink:href="#ballotCardBackcover_svg__c" transform="translate(85.885)"/><use height="100%" width="100%" xlink:href="#ballotCardBackcover_svg__c" transform="translate(89.188)"/><use height="100%" width="100%" xlink:href="#ballotCardBackcover_svg__c" transform="translate(92.491)"/><use height="100%" width="100%" xlink:href="#ballotCardBackcover_svg__c" transform="translate(95.794)"/><use height="100%" width="100%" xlink:href="#ballotCardBackcover_svg__c" transform="translate(99.098)"/><use height="100%" width="100%" xlink:href="#ballotCardBackcover_svg__c" transform="translate(102.4)"/><use height="100%" width="100%" xlink:href="#ballotCardBackcover_svg__c" transform="translate(105.704)"/><use height="100%" width="100%" xlink:href="#ballotCardBackcover_svg__c" transform="translate(109.007)"/><use height="100%" width="100%" xlink:href="#ballotCardBackcover_svg__c" transform="translate(112.31)"/><use height="100%" width="100%" xlink:href="#ballotCardBackcover_svg__c" transform="translate(115.614)"/><use height="100%" width="100%" xlink:href="#ballotCardBackcover_svg__c" transform="translate(118.917)"/><use height="100%" width="100%" xlink:href="#ballotCardBackcover_svg__c" transform="translate(122.22)"/><use height="100%" width="100%" xlink:href="#ballotCardBackcover_svg__c" transform="translate(125.524)"/><use height="100%" width="100%" xlink:href="#ballotCardBackcover_svg__c" transform="translate(128.827)"/><use height="100%" width="100%" xlink:href="#ballotCardBackcover_svg__c" transform="translate(132.13)"/><use height="100%" width="100%" xlink:href="#ballotCardBackcover_svg__c" transform="translate(135.433)"/><use height="100%" width="100%" xlink:href="#ballotCardBackcover_svg__c" transform="translate(138.737)"/><use height="100%" width="100%" xlink:href="#ballotCardBackcover_svg__c" transform="translate(142.04)"/><use height="100%" width="100%" xlink:href="#ballotCardBackcover_svg__c" transform="translate(145.343)"/><use height="100%" width="100%" xlink:href="#ballotCardBackcover_svg__c" transform="translate(148.646)"/><use height="100%" width="100%" xlink:href="#ballotCardBackcover_svg__c" transform="translate(151.95)"/><use height="100%" width="100%" xlink:href="#ballotCardBackcover_svg__c" transform="translate(155.253)"/><use height="100%" width="100%" xlink:href="#ballotCardBackcover_svg__c" transform="translate(158.556)"/><use height="100%" width="100%" xlink:href="#ballotCardBackcover_svg__c" transform="translate(161.86)"/><use height="100%" width="100%" xlink:href="#ballotCardBackcover_svg__c" transform="translate(165.163)"/><use height="100%" width="100%" xlink:href="#ballotCardBackcover_svg__c" transform="translate(168.466)"/><use height="100%" width="100%" xlink:href="#ballotCardBackcover_svg__c" transform="translate(171.769)"/><use height="100%" width="100%" xlink:href="#ballotCardBackcover_svg__c" transform="translate(175.072)"/><use height="100%" width="100%" xlink:href="#ballotCardBackcover_svg__c" transform="translate(178.376)"/><use height="100%" width="100%" xlink:href="#ballotCardBackcover_svg__c" transform="translate(181.679)"/><use height="100%" width="100%" xlink:href="#ballotCardBackcover_svg__c" transform="translate(184.982)"/><use height="100%" width="100%" xlink:href="#ballotCardBackcover_svg__c" transform="translate(188.285)"/><use height="100%" width="100%" xlink:href="#ballotCardBackcover_svg__c" transform="translate(191.589)"/><use height="100%" width="100%" xlink:href="#ballotCardBackcover_svg__c" transform="translate(194.892)"/><use height="100%" width="100%" xlink:href="#ballotCardBackcover_svg__c" transform="translate(198.195)"/><use height="100%" width="100%" xlink:href="#ballotCardBackcover_svg__c" transform="translate(201.498)"/><use height="100%" width="100%" xlink:href="#ballotCardBackcover_svg__c" transform="translate(204.802)"/><use height="100%" width="100%" xlink:href="#ballotCardBackcover_svg__c" transform="translate(208.105)"/><use height="100%" width="100%" xlink:href="#ballotCardBackcover_svg__c" transform="translate(211.408)"/><use height="100%" width="100%" xlink:href="#ballotCardBackcover_svg__c" transform="translate(214.711)"/><use height="100%" width="100%" xlink:href="#ballotCardBackcover_svg__c" transform="translate(218.015)"/><use height="100%" width="100%" xlink:href="#ballotCardBackcover_svg__c" transform="translate(221.318)"/><use height="100%" width="100%" xlink:href="#ballotCardBackcover_svg__c" transform="translate(224.621)"/><use height="100%" width="100%" xlink:href="#ballotCardBackcover_svg__c" transform="translate(227.924)"/><use height="100%" width="100%" xlink:href="#ballotCardBackcover_svg__c" transform="translate(231.228)"/><use height="100%" width="100%" xlink:href="#ballotCardBackcover_svg__c" transform="translate(234.53)"/><use height="100%" width="100%" xlink:href="#ballotCardBackcover_svg__c" transform="translate(237.834)"/><use height="100%" width="100%" xlink:href="#ballotCardBackcover_svg__c" transform="translate(241.137)"/><use height="100%" width="100%" xlink:href="#ballotCardBackcover_svg__c" transform="translate(244.44)"/><use height="100%" width="100%" xlink:href="#ballotCardBackcover_svg__c" transform="translate(247.744)"/><use height="100%" width="100%" xlink:href="#ballotCardBackcover_svg__c" transform="translate(251.047)"/><use height="100%" width="100%" xlink:href="#ballotCardBackcover_svg__c" transform="translate(254.35)"/><use height="100%" width="100%" xlink:href="#ballotCardBackcover_svg__c" transform="translate(257.654)"/><use transform="translate(3.303 175.304)" xlink:href="#ballotCardBackcover_svg__c" width="100%" height="100%"/><use transform="translate(6.606 175.304)" xlink:href="#ballotCardBackcover_svg__c" width="100%" height="100%"/><use transform="translate(9.91 175.304)" xlink:href="#ballotCardBackcover_svg__c" width="100%" height="100%"/><use transform="translate(13.213 175.304)" xlink:href="#ballotCardBackcover_svg__c" width="100%" height="100%"/><use transform="translate(16.516 175.304)" xlink:href="#ballotCardBackcover_svg__c" width="100%" height="100%"/><use transform="translate(19.82 175.304)" xlink:href="#ballotCardBackcover_svg__c" width="100%" height="100%"/><use transform="translate(23.123 175.304)" xlink:href="#ballotCardBackcover_svg__c" width="100%" height="100%"/><use transform="translate(26.426 175.304)" xlink:href="#ballotCardBackcover_svg__c" width="100%" height="100%"/><use transform="translate(29.73 175.304)" xlink:href="#ballotCardBackcover_svg__c" width="100%" height="100%"/><use transform="translate(33.033 175.304)" xlink:href="#ballotCardBackcover_svg__c" width="100%" height="100%"/><use transform="translate(36.336 175.304)" xlink:href="#ballotCardBackcover_svg__c" width="100%" height="100%"/><use transform="translate(39.639 175.304)" xlink:href="#ballotCardBackcover_svg__c" width="100%" height="100%"/><use transform="translate(42.942 175.304)" xlink:href="#ballotCardBackcover_svg__c" width="100%" height="100%"/><use transform="translate(46.246 175.304)" xlink:href="#ballotCardBackcover_svg__c" width="100%" height="100%"/><use transform="translate(49.549 175.304)" xlink:href="#ballotCardBackcover_svg__c" width="100%" height="100%"/><use transform="translate(52.852 175.304)" xlink:href="#ballotCardBackcover_svg__c" width="100%" height="100%"/><use transform="translate(56.155 175.304)" xlink:href="#ballotCardBackcover_svg__c" width="100%" height="100%"/><use transform="translate(59.459 175.304)" xlink:href="#ballotCardBackcover_svg__c" width="100%" height="100%"/><use transform="translate(62.762 175.304)" xlink:href="#ballotCardBackcover_svg__c" width="100%" height="100%"/><use transform="translate(66.065 175.304)" xlink:href="#ballotCardBackcover_svg__c" width="100%" height="100%"/><use transform="translate(69.368 175.304)" xlink:href="#ballotCardBackcover_svg__c" width="100%" height="100%"/><use transform="translate(72.672 175.304)" xlink:href="#ballotCardBackcover_svg__c" width="100%" height="100%"/><use transform="translate(75.975 175.304)" xlink:href="#ballotCardBackcover_svg__c" width="100%" height="100%"/><use transform="translate(79.278 175.304)" xlink:href="#ballotCardBackcover_svg__c" width="100%" height="100%"/><use transform="translate(82.581 175.304)" xlink:href="#ballotCardBackcover_svg__c" width="100%" height="100%"/><use transform="translate(85.885 175.304)" xlink:href="#ballotCardBackcover_svg__c" width="100%" height="100%"/><use transform="translate(89.188 175.304)" xlink:href="#ballotCardBackcover_svg__c" width="100%" height="100%"/><use transform="translate(92.491 175.304)" xlink:href="#ballotCardBackcover_svg__c" width="100%" height="100%"/><use transform="translate(95.794 175.304)" xlink:href="#ballotCardBackcover_svg__c" width="100%" height="100%"/><use transform="translate(99.098 175.304)" xlink:href="#ballotCardBackcover_svg__c" width="100%" height="100%"/><use transform="translate(102.4 175.304)" xlink:href="#ballotCardBackcover_svg__c" width="100%" height="100%"/><use transform="translate(105.704 175.304)" xlink:href="#ballotCardBackcover_svg__c" width="100%" height="100%"/><use transform="translate(109.007 175.304)" xlink:href="#ballotCardBackcover_svg__c" width="100%" height="100%"/><use transform="translate(112.31 175.304)" xlink:href="#ballotCardBackcover_svg__c" width="100%" height="100%"/><use transform="translate(115.614 175.304)" xlink:href="#ballotCardBackcover_svg__c" width="100%" height="100%"/><use transform="translate(118.917 175.304)" xlink:href="#ballotCardBackcover_svg__c" width="100%" height="100%"/><use transform="translate(122.22 175.304)" xlink:href="#ballotCardBackcover_svg__c" width="100%" height="100%"/><use transform="translate(125.524 175.304)" xlink:href="#ballotCardBackcover_svg__c" width="100%" height="100%"/><use transform="translate(128.827 175.304)" xlink:href="#ballotCardBackcover_svg__c" width="100%" height="100%"/><use transform="translate(132.13 175.304)" xlink:href="#ballotCardBackcover_svg__c" width="100%" height="100%"/><use transform="translate(135.433 175.304)" xlink:href="#ballotCardBackcover_svg__c" width="100%" height="100%"/><use transform="translate(138.737 175.304)" xlink:href="#ballotCardBackcover_svg__c" width="100%" height="100%"/><use transform="translate(142.04 175.304)" xlink:href="#ballotCardBackcover_svg__c" width="100%" height="100%"/><use transform="translate(145.343 175.304)" xlink:href="#ballotCardBackcover_svg__c" width="100%" height="100%"/><use transform="translate(148.646 175.304)" xlink:href="#ballotCardBackcover_svg__c" width="100%" height="100%"/><use transform="translate(151.95 175.304)" xlink:href="#ballotCardBackcover_svg__c" width="100%" height="100%"/><use transform="translate(155.253 175.304)" xlink:href="#ballotCardBackcover_svg__c" width="100%" height="100%"/><use transform="translate(158.556 175.304)" xlink:href="#ballotCardBackcover_svg__c" width="100%" height="100%"/><use transform="translate(161.86 175.304)" xlink:href="#ballotCardBackcover_svg__c" width="100%" height="100%"/><use transform="translate(165.163 175.304)" xlink:href="#ballotCardBackcover_svg__c" width="100%" height="100%"/><use transform="translate(168.466 175.304)" xlink:href="#ballotCardBackcover_svg__c" width="100%" height="100%"/><use transform="translate(171.769 175.304)" xlink:href="#ballotCardBackcover_svg__c" width="100%" height="100%"/><use transform="translate(175.072 175.304)" xlink:href="#ballotCardBackcover_svg__c" width="100%" height="100%"/><use transform="translate(178.376 175.304)" xlink:href="#ballotCardBackcover_svg__c" width="100%" height="100%"/><use transform="translate(181.679 175.304)" xlink:href="#ballotCardBackcover_svg__c" width="100%" height="100%"/><use transform="translate(184.982 175.304)" xlink:href="#ballotCardBackcover_svg__c" width="100%" height="100%"/><use transform="translate(188.285 175.304)" xlink:href="#ballotCardBackcover_svg__c" width="100%" height="100%"/><use transform="translate(191.589 175.304)" xlink:href="#ballotCardBackcover_svg__c" width="100%" height="100%"/><use transform="translate(194.892 175.304)" xlink:href="#ballotCardBackcover_svg__c" width="100%" height="100%"/><use transform="translate(198.195 175.304)" xlink:href="#ballotCardBackcover_svg__c" width="100%" height="100%"/><use transform="translate(201.498 175.304)" xlink:href="#ballotCardBackcover_svg__c" width="100%" height="100%"/><use transform="translate(204.802 175.304)" xlink:href="#ballotCardBackcover_svg__c" width="100%" height="100%"/><use transform="translate(208.105 175.304)" xlink:href="#ballotCardBackcover_svg__c" width="100%" height="100%"/><use transform="translate(211.408 175.304)" xlink:href="#ballotCardBackcover_svg__c" width="100%" height="100%"/><use transform="translate(214.711 175.304)" xlink:href="#ballotCardBackcover_svg__c" width="100%" height="100%"/><use transform="translate(218.015 175.304)" xlink:href="#ballotCardBackcover_svg__c" width="100%" height="100%"/><use transform="translate(221.318 175.304)" xlink:href="#ballotCardBackcover_svg__c" width="100%" height="100%"/><use transform="translate(224.621 175.304)" xlink:href="#ballotCardBackcover_svg__c" width="100%" height="100%"/><use transform="translate(227.924 175.304)" xlink:href="#ballotCardBackcover_svg__c" width="100%" height="100%"/><use transform="translate(231.228 175.304)" xlink:href="#ballotCardBackcover_svg__c" width="100%" height="100%"/><use transform="translate(234.53 175.304)" xlink:href="#ballotCardBackcover_svg__c" width="100%" height="100%"/><use transform="translate(237.834 175.304)" xlink:href="#ballotCardBackcover_svg__c" width="100%" height="100%"/><use transform="translate(241.137 175.304)" xlink:href="#ballotCardBackcover_svg__c" width="100%" height="100%"/><use transform="translate(244.44 175.304)" xlink:href="#ballotCardBackcover_svg__c" width="100%" height="100%"/><use transform="translate(247.744 175.304)" xlink:href="#ballotCardBackcover_svg__c" width="100%" height="100%"/><use transform="translate(251.047 175.304)" xlink:href="#ballotCardBackcover_svg__c" width="100%" height="100%"/><use transform="translate(254.35 175.304)" xlink:href="#ballotCardBackcover_svg__c" width="100%" height="100%"/><use transform="translate(257.654 175.304)" xlink:href="#ballotCardBackcover_svg__c" width="100%" height="100%"/><use height="100%" width="100%" xlink:href="#ballotCardBackcover_svg__c" transform="translate(257.654 3.308)"/><use height="100%" width="100%" xlink:href="#ballotCardBackcover_svg__c" transform="translate(257.654 6.615)"/><use height="100%" width="100%" xlink:href="#ballotCardBackcover_svg__c" transform="translate(257.654 9.923)"/><use height="100%" width="100%" xlink:href="#ballotCardBackcover_svg__c" transform="translate(257.654 13.23)"/><use height="100%" width="100%" xlink:href="#ballotCardBackcover_svg__c" transform="translate(257.654 16.538)"/><use height="100%" width="100%" xlink:href="#ballotCardBackcover_svg__c" transform="translate(257.654 19.846)"/><use height="100%" width="100%" xlink:href="#ballotCardBackcover_svg__c" transform="translate(257.654 23.153)"/><use height="100%" width="100%" xlink:href="#ballotCardBackcover_svg__c" transform="translate(257.654 26.461)"/><use height="100%" width="100%" xlink:href="#ballotCardBackcover_svg__c" transform="translate(257.654 29.769)"/><use height="100%" width="100%" xlink:href="#ballotCardBackcover_svg__c" transform="translate(257.654 33.076)"/><use height="100%" width="100%" xlink:href="#ballotCardBackcover_svg__c" transform="translate(257.654 36.384)"/><use height="100%" width="100%" xlink:href="#ballotCardBackcover_svg__c" transform="translate(257.654 39.692)"/><use height="100%" width="100%" xlink:href="#ballotCardBackcover_svg__c" transform="translate(257.654 43)"/><use height="100%" width="100%" xlink:href="#ballotCardBackcover_svg__c" transform="translate(257.654 46.307)"/><use height="100%" width="100%" xlink:href="#ballotCardBackcover_svg__c" transform="translate(257.654 49.614)"/><use height="100%" width="100%" xlink:href="#ballotCardBackcover_svg__c" transform="translate(257.654 52.922)"/><use height="100%" width="100%" xlink:href="#ballotCardBackcover_svg__c" transform="translate(257.654 56.23)"/><use height="100%" width="100%" xlink:href="#ballotCardBackcover_svg__c" transform="translate(257.654 59.537)"/><use height="100%" width="100%" xlink:href="#ballotCardBackcover_svg__c" transform="translate(257.654 62.845)"/><use height="100%" width="100%" xlink:href="#ballotCardBackcover_svg__c" transform="translate(257.654 66.153)"/><use height="100%" width="100%" xlink:href="#ballotCardBackcover_svg__c" transform="translate(257.654 69.46)"/><use height="100%" width="100%" xlink:href="#ballotCardBackcover_svg__c" transform="translate(257.654 72.768)"/><use height="100%" width="100%" xlink:href="#ballotCardBackcover_svg__c" transform="translate(257.654 76.076)"/><use height="100%" width="100%" xlink:href="#ballotCardBackcover_svg__c" transform="translate(257.654 79.383)"/><use height="100%" width="100%" xlink:href="#ballotCardBackcover_svg__c" transform="translate(257.654 82.69)"/><use height="100%" width="100%" xlink:href="#ballotCardBackcover_svg__c" transform="translate(257.654 85.998)"/><use height="100%" width="100%" xlink:href="#ballotCardBackcover_svg__c" transform="translate(257.654 89.306)"/><use height="100%" width="100%" xlink:href="#ballotCardBackcover_svg__c" transform="translate(257.654 92.614)"/><use height="100%" width="100%" xlink:href="#ballotCardBackcover_svg__c" transform="translate(257.654 95.921)"/><use height="100%" width="100%" xlink:href="#ballotCardBackcover_svg__c" transform="translate(257.654 99.229)"/><use height="100%" width="100%" xlink:href="#ballotCardBackcover_svg__c" transform="translate(257.654 102.537)"/><use height="100%" width="100%" xlink:href="#ballotCardBackcover_svg__c" transform="translate(257.654 105.844)"/><use height="100%" width="100%" xlink:href="#ballotCardBackcover_svg__c" transform="translate(257.654 109.152)"/><use height="100%" width="100%" xlink:href="#ballotCardBackcover_svg__c" transform="translate(257.654 112.46)"/><use height="100%" width="100%" xlink:href="#ballotCardBackcover_svg__c" transform="translate(257.654 115.767)"/><use height="100%" width="100%" xlink:href="#ballotCardBackcover_svg__c" transform="translate(257.654 119.075)"/><use height="100%" width="100%" xlink:href="#ballotCardBackcover_svg__c" transform="translate(257.654 122.382)"/><use height="100%" width="100%" xlink:href="#ballotCardBackcover_svg__c" transform="translate(257.654 125.69)"/><use height="100%" width="100%" xlink:href="#ballotCardBackcover_svg__c" transform="translate(257.654 128.998)"/><use height="100%" width="100%" xlink:href="#ballotCardBackcover_svg__c" transform="translate(257.654 132.305)"/><use height="100%" width="100%" xlink:href="#ballotCardBackcover_svg__c" transform="translate(257.654 135.613)"/><use height="100%" width="100%" xlink:href="#ballotCardBackcover_svg__c" transform="translate(257.654 138.92)"/><use height="100%" width="100%" xlink:href="#ballotCardBackcover_svg__c" transform="translate(257.654 142.228)"/><use height="100%" width="100%" xlink:href="#ballotCardBackcover_svg__c" transform="translate(257.654 145.536)"/><use height="100%" width="100%" xlink:href="#ballotCardBackcover_svg__c" transform="translate(257.654 148.843)"/><use height="100%" width="100%" xlink:href="#ballotCardBackcover_svg__c" transform="translate(257.654 152.151)"/><use height="100%" width="100%" xlink:href="#ballotCardBackcover_svg__c" transform="translate(257.654 155.459)"/><use height="100%" width="100%" xlink:href="#ballotCardBackcover_svg__c" transform="translate(257.654 158.766)"/><use height="100%" width="100%" xlink:href="#ballotCardBackcover_svg__c" transform="translate(257.654 162.074)"/><use height="100%" width="100%" xlink:href="#ballotCardBackcover_svg__c" transform="translate(257.654 165.382)"/><use height="100%" width="100%" xlink:href="#ballotCardBackcover_svg__c" transform="translate(257.654 168.69)"/><use height="100%" width="100%" xlink:href="#ballotCardBackcover_svg__c" transform="translate(257.654 171.997)"/></g><g transform="translate(-.644 -2.28)" fill="#62c19f"><g id="ballotCardBackcover_svg__e" fill-opacity="1"><circle id="ballotCardBackcover_svg__d" cx="105.085" cy="97.801" r="1.13" opacity="1" vector-effect="none" fill="#62c19f" fill-opacity="1" stroke="none" stroke-width="1.134" stroke-linecap="round" stroke-linejoin="miter" stroke-miterlimit="4" stroke-dasharray="3.40157497,3.40157497" stroke-dashoffset="0" stroke-opacity="1" paint-order="normal"/><use height="100%" width="100%" xlink:href="#ballotCardBackcover_svg__d"/><use height="100%" width="100%" xlink:href="#ballotCardBackcover_svg__d" transform="translate(12.678)"/><use height="100%" width="100%" xlink:href="#ballotCardBackcover_svg__d" transform="translate(25.356)"/><use height="100%" width="100%" xlink:href="#ballotCardBackcover_svg__d" transform="translate(38.034)"/><use height="100%" width="100%" xlink:href="#ballotCardBackcover_svg__d" transform="translate(50.712)"/><use height="100%" width="100%" xlink:href="#ballotCardBackcover_svg__d" transform="translate(63.39)"/><use height="100%" width="100%" xlink:href="#ballotCardBackcover_svg__d" transform="translate(76.068)"/><use height="100%" width="100%" xlink:href="#ballotCardBackcover_svg__d" transform="translate(88.746)"/><use height="100%" width="100%" xlink:href="#ballotCardBackcover_svg__d" transform="translate(101.424)"/><use height="100%" width="100%" xlink:href="#ballotCardBackcover_svg__d" transform="translate(114.102)"/><use height="100%" width="100%" xlink:href="#ballotCardBackcover_svg__d" transform="translate(126.78)"/><use height="100%" width="100%" xlink:href="#ballotCardBackcover_svg__d" transform="translate(139.458)"/><use height="100%" width="100%" xlink:href="#ballotCardBackcover_svg__d" transform="translate(152.136)"/><use height="100%" width="100%" xlink:href="#ballotCardBackcover_svg__d" transform="translate(164.814)"/><use height="100%" width="100%" xlink:href="#ballotCardBackcover_svg__d" transform="translate(177.492)"/><use height="100%" width="100%" xlink:href="#ballotCardBackcover_svg__d" transform="translate(190.17)"/><use height="100%" width="100%" xlink:href="#ballotCardBackcover_svg__d" transform="translate(202.847)"/><use height="100%" width="100%" xlink:href="#ballotCardBackcover_svg__d" transform="translate(215.525)"/><use height="100%" width="100%" xlink:href="#ballotCardBackcover_svg__d" transform="translate(228.203)"/><use height="100%" width="100%" xlink:href="#ballotCardBackcover_svg__d" transform="translate(240.881)"/></g><use height="100%" width="100%" transform="translate(0 8.023)" xlink:href="#ballotCardBackcover_svg__e"/><use height="100%" width="100%" transform="translate(0 16.045)" xlink:href="#ballotCardBackcover_svg__e"/><use height="100%" width="100%" transform="translate(0 24.068)" xlink:href="#ballotCardBackcover_svg__e"/><use height="100%" width="100%" transform="translate(0 32.09)" xlink:href="#ballotCardBackcover_svg__e"/><use height="100%" width="100%" transform="translate(0 40.113)" xlink:href="#ballotCardBackcover_svg__e"/><use height="100%" width="100%" transform="translate(0 48.136)" xlink:href="#ballotCardBackcover_svg__e"/><use height="100%" width="100%" transform="translate(0 56.158)" xlink:href="#ballotCardBackcover_svg__e"/><use height="100%" width="100%" transform="translate(0 64.18)" xlink:href="#ballotCardBackcover_svg__e"/><use height="100%" width="100%" transform="translate(0 72.203)" xlink:href="#ballotCardBackcover_svg__e"/><use height="100%" width="100%" transform="translate(0 80.226)" xlink:href="#ballotCardBackcover_svg__e"/><use height="100%" width="100%" transform="translate(0 88.249)" xlink:href="#ballotCardBackcover_svg__e"/><use height="100%" width="100%" transform="translate(0 96.271)" xlink:href="#ballotCardBackcover_svg__e"/><use height="100%" width="100%" transform="translate(0 104.294)" xlink:href="#ballotCardBackcover_svg__e"/><use height="100%" width="100%" transform="translate(0 112.316)" xlink:href="#ballotCardBackcover_svg__e"/><use height="100%" width="100%" transform="translate(0 120.339)" xlink:href="#ballotCardBackcover_svg__e"/><use height="100%" width="100%" transform="translate(0 128.362)" xlink:href="#ballotCardBackcover_svg__e"/><use height="100%" width="100%" transform="translate(0 136.384)" xlink:href="#ballotCardBackcover_svg__e"/><use height="100%" width="100%" transform="translate(0 144.407)" xlink:href="#ballotCardBackcover_svg__e"/><use height="100%" width="100%" transform="translate(0 152.43)" xlink:href="#ballotCardBackcover_svg__e"/><use height="100%" width="100%" transform="translate(0 160.452)" xlink:href="#ballotCardBackcover_svg__e"/><g transform="translate(6.328 3.977)" id="ballotCardBackcover_svg__f" fill-opacity="1"><circle r="1.13" cy="97.801" cx="105.085" stroke-width="1.134" stroke-linecap="round" stroke-dasharray="3.40157497,3.40157497"/><use height="100%" width="100%" xlink:href="#ballotCardBackcover_svg__d"/><use height="100%" width="100%" transform="translate(12.678)" xlink:href="#ballotCardBackcover_svg__d"/><use height="100%" width="100%" transform="translate(25.356)" xlink:href="#ballotCardBackcover_svg__d"/><use height="100%" width="100%" transform="translate(38.034)" xlink:href="#ballotCardBackcover_svg__d"/><use height="100%" width="100%" transform="translate(50.712)" xlink:href="#ballotCardBackcover_svg__d"/><use height="100%" width="100%" transform="translate(63.39)" xlink:href="#ballotCardBackcover_svg__d"/><use height="100%" width="100%" transform="translate(76.068)" xlink:href="#ballotCardBackcover_svg__d"/><use height="100%" width="100%" transform="translate(88.746)" xlink:href="#ballotCardBackcover_svg__d"/><use height="100%" width="100%" transform="translate(101.424)" xlink:href="#ballotCardBackcover_svg__d"/><use height="100%" width="100%" transform="translate(114.102)" xlink:href="#ballotCardBackcover_svg__d"/><use height="100%" width="100%" transform="translate(126.78)" xlink:href="#ballotCardBackcover_svg__d"/><use height="100%" width="100%" transform="translate(139.458)" xlink:href="#ballotCardBackcover_svg__d"/><use height="100%" width="100%" transform="translate(152.136)" xlink:href="#ballotCardBackcover_svg__d"/><use height="100%" width="100%" transform="translate(164.814)" xlink:href="#ballotCardBackcover_svg__d"/><use height="100%" width="100%" transform="translate(177.492)" xlink:href="#ballotCardBackcover_svg__d"/><use height="100%" width="100%" transform="translate(190.17)" xlink:href="#ballotCardBackcover_svg__d"/><use height="100%" width="100%" transform="translate(202.847)" xlink:href="#ballotCardBackcover_svg__d"/><use height="100%" width="100%" transform="translate(215.525)" xlink:href="#ballotCardBackcover_svg__d"/><use height="100%" width="100%" transform="translate(228.203)" xlink:href="#ballotCardBackcover_svg__d"/></g><use height="100%" width="100%" transform="translate(0 8.023)" xlink:href="#ballotCardBackcover_svg__f"/><use height="100%" width="100%" transform="translate(0 16.045)" xlink:href="#ballotCardBackcover_svg__f"/><use height="100%" width="100%" transform="translate(0 24.068)" xlink:href="#ballotCardBackcover_svg__f"/><use height="100%" width="100%" transform="translate(0 32.09)" xlink:href="#ballotCardBackcover_svg__f"/><use height="100%" width="100%" transform="translate(0 40.113)" xlink:href="#ballotCardBackcover_svg__f"/><use height="100%" width="100%" transform="translate(0 48.136)" xlink:href="#ballotCardBackcover_svg__f"/><use height="100%" width="100%" transform="translate(0 56.158)" xlink:href="#ballotCardBackcover_svg__f"/><use height="100%" width="100%" transform="translate(0 64.18)" xlink:href="#ballotCardBackcover_svg__f"/><use height="100%" width="100%" transform="translate(0 72.203)" xlink:href="#ballotCardBackcover_svg__f"/><use height="100%" width="100%" transform="translate(0 80.226)" xlink:href="#ballotCardBackcover_svg__f"/><use height="100%" width="100%" transform="translate(0 88.249)" xlink:href="#ballotCardBackcover_svg__f"/><use height="100%" width="100%" transform="translate(0 96.271)" xlink:href="#ballotCardBackcover_svg__f"/><use height="100%" width="100%" transform="translate(0 104.294)" xlink:href="#ballotCardBackcover_svg__f"/><use height="100%" width="100%" transform="translate(0 112.316)" xlink:href="#ballotCardBackcover_svg__f"/><use height="100%" width="100%" transform="translate(0 120.339)" xlink:href="#ballotCardBackcover_svg__f"/><use height="100%" width="100%" transform="translate(0 128.362)" xlink:href="#ballotCardBackcover_svg__f"/><use height="100%" width="100%" transform="translate(0 136.384)" xlink:href="#ballotCardBackcover_svg__f"/><use height="100%" width="100%" transform="translate(0 144.407)" xlink:href="#ballotCardBackcover_svg__f"/><use height="100%" width="100%" transform="translate(0 152.43)" xlink:href="#ballotCardBackcover_svg__f"/></g><path d="M373.033 220.845s4.858 16.491-6.648 19.432l-231.168 41.151c-5.947.979-12.787-4.246-14.665-16.35L100.266 134.34l-15.253 4.176c-10.474-.605-10.95-20.65-5.606-25.987 1.24-1.237 2.679-2.016 4.203-2.377l229.594-40.669c15.73-2.892 16.62 18.92 16.62 18.92L351.09 224.69z" fill="#62c19f"/><g stroke="#373737" stroke-width="4" fill="none"><path d="m135.367 281.4 231.018-41.123c11.506-2.94 6.648-19.432 6.648-19.432l-229.658 40.232c4.347 24.928-19.082 28.11-22.823 4l-22.02-141.92c-1.43-9.242-8.847-14.442-14.922-13.004-1.524.36-2.964 1.14-4.203 2.377-5.344 5.336-4.868 25.382 5.606 25.987l15.253-4.176"/><path d="m83.61 110.153 229.594-40.669c15.73-2.892 16.62 18.92 16.62 18.92L351.09 224.69M85.013 138.517c-4.091-12.528 13.945-12.61 13.945-12.61"/></g><g fill="#373737"><path style="line-height:1.25;-inkscape-font-specification:'EskapadeFrakturW04-Black, Heavy';font-variant-ligatures:normal;font-variant-caps:normal;font-variant-numeric:normal;font-feature-settings:normal;text-align:start" d="m168.784 159.175-3.115 5.377 3.883.598v16.724l-2.688-.299-1.707 5.461 13.403 1.707c.996-.682 1.22-1.734 2.67-3.156 1.48-1.422 2.475-2.546 2.987-3.37.426-2.163.54-2.596.341-5.298l-4.11-3.627 3.298-2.857c-.114-1.223-.384-4.547-.81-5.969-.427-1.45-.967-2.76-1.622-3.926h-6.51zm6.02 6.7h2.477c.398.71.695 1.408.894 2.091.228.654.442 1.606.64 2.857l-2.717 2.293v1.901l2.93 2.506c.115 1.166.144 2.132.087 2.9-.029.768-.143 1.693-.342 2.774l-3.969-.471zm20.316-7.125-4.87 9.044v8.447h-2.347v3.457h2.347v8.577h5.254v-8.577h5.163v7.893l5.38 1.152 2.604-5.673-2.732-.428v-15.658l-2.053-6.998zm.384 6.193 5.163.974v10.324h-5.163zm16.126-4.508-2.69 4.547 3.457.683v18.877l3.285 3.65 8.218.555 1.62-4.76-7.869-.47v-21.418zm16.746-.255-2.69 4.546 3.458.684v18.876l3.285 3.65 8.217.555 1.622-4.76-7.87-.47v-21.418zm30.592 5.462-6.205-.512c-.512.342-.882.896-1.11 1.664-.227.74-.341 1.736-.341 2.987 0 .967.215 2.729.256 4.096.058 1.962.326 3.956-.019 5.888-.138.775-.81 2.219-.81 2.219l6.674.512c1.918-4.237 1.277-10.904.745-14.592zm-6.035-6.272 8.856.811c1.593 4.409 2.39 8.52 2.39 12.33 0 2.959-.313 5.633-.939 8.022-.626.967-1.036 2.176-2.231 3.627-1.166 1.45-2.003 2.844-3.51 4.181l-10.051-.939c-1.337-4.408-2.006-8.39-2.006-11.946 0-1.252.114-2.66.342-4.224a29.01 29.01 0 0 1 1.024-4.31c.91-1.365 1.505-2.716 2.785-4.053 1.308-1.337 2.089-2.503 3.34-3.499zm14.052 1.004-1.45 4.504h6.716v23.869h5.254v-23.869h5.65l1.451-4.504z" font-weight="900" font-size="42.667" font-family="EskapadeFrakturW04-Black" letter-spacing="0" word-spacing="0"/><g transform="translate(-1.76)"><circle r="1.95" cy="196.3" cx="168.779" id="ballotCardBackcover_svg__g" opacity="1" vector-effect="none" fill="#373737" fill-opacity="1" stroke="none" stroke-width="4" stroke-linecap="round" stroke-linejoin="miter" stroke-miterlimit="4" stroke-dasharray="none" stroke-dashoffset="0" stroke-opacity="1" paint-order="normal"/><use xlink:href="#ballotCardBackcover_svg__g" width="100%" height="100%"/><use transform="translate(3.306)" xlink:href="#ballotCardBackcover_svg__g" width="100%" height="100%"/><use transform="translate(6.613)" xlink:href="#ballotCardBackcover_svg__g" width="100%" height="100%"/><use transform="translate(9.92)" xlink:href="#ballotCardBackcover_svg__g" width="100%" height="100%"/><use transform="translate(13.226)" xlink:href="#ballotCardBackcover_svg__g" width="100%" height="100%"/><use transform="translate(16.532)" xlink:href="#ballotCardBackcover_svg__g" width="100%" height="100%"/><use transform="translate(19.838)" xlink:href="#ballotCardBackcover_svg__g" width="100%" height="100%"/><use transform="translate(23.145)" xlink:href="#ballotCardBackcover_svg__g" width="100%" height="100%"/><use transform="translate(26.451)" xlink:href="#ballotCardBackcover_svg__g" width="100%" height="100%"/><use transform="translate(29.758)" xlink:href="#ballotCardBackcover_svg__g" width="100%" height="100%"/><use transform="translate(33.064)" xlink:href="#ballotCardBackcover_svg__g" width="100%" height="100%"/><use transform="translate(36.37)" xlink:href="#ballotCardBackcover_svg__g" width="100%" height="100%"/><use transform="translate(39.677)" xlink:href="#ballotCardBackcover_svg__g" width="100%" height="100%"/><use transform="translate(42.983)" xlink:href="#ballotCardBackcover_svg__g" width="100%" height="100%"/><use transform="translate(46.29)" xlink:href="#ballotCardBackcover_svg__g" width="100%" height="100%"/><use transform="translate(49.596)" xlink:href="#ballotCardBackcover_svg__g" width="100%" height="100%"/><use transform="translate(52.903)" xlink:href="#ballotCardBackcover_svg__g" width="100%" height="100%"/><use transform="translate(56.21)" xlink:href="#ballotCardBackcover_svg__g" width="100%" height="100%"/><use transform="translate(59.515)" xlink:href="#ballotCardBackcover_svg__g" width="100%" height="100%"/><use transform="translate(62.822)" xlink:href="#ballotCardBackcover_svg__g" width="100%" height="100%"/><use transform="translate(66.128)" xlink:href="#ballotCardBackcover_svg__g" width="100%" height="100%"/><use transform="translate(69.435)" xlink:href="#ballotCardBackcover_svg__g" width="100%" height="100%"/><use transform="translate(72.741)" xlink:href="#ballotCardBackcover_svg__g" width="100%" height="100%"/><use transform="translate(76.048)" xlink:href="#ballotCardBackcover_svg__g" width="100%" height="100%"/><use transform="translate(79.354)" xlink:href="#ballotCardBackcover_svg__g" width="100%" height="100%"/><use transform="translate(82.66)" xlink:href="#ballotCardBackcover_svg__g" width="100%" height="100%"/><use transform="translate(85.967)" xlink:href="#ballotCardBackcover_svg__g" width="100%" height="100%"/><use transform="translate(89.273)" xlink:href="#ballotCardBackcover_svg__g" width="100%" height="100%"/><use transform="translate(92.58)" xlink:href="#ballotCardBackcover_svg__g" width="100%" height="100%"/><use transform="translate(95.886)" xlink:href="#ballotCardBackcover_svg__g" width="100%" height="100%"/><use transform="translate(99.192)" xlink:href="#ballotCardBackcover_svg__g" width="100%" height="100%"/><use transform="translate(102.499)" xlink:href="#ballotCardBackcover_svg__g" width="100%" height="100%"/><use transform="translate(105.805)" xlink:href="#ballotCardBackcover_svg__g" width="100%" height="100%"/><use transform="translate(109.112)" xlink:href="#ballotCardBackcover_svg__g" width="100%" height="100%"/><use transform="translate(112.418)" xlink:href="#ballotCardBackcover_svg__g" width="100%" height="100%"/><use transform="translate(115.725)" xlink:href="#ballotCardBackcover_svg__g" width="100%" height="100%"/></g></g></svg>