<svg xmlns:xlink="http://www.w3.org/1999/xlink" width="119mm" height="93mm" viewBox="0 0 119 93"><defs><clipPath clipPathUnits="userSpaceOnUse" id="ballotCardNein_svg__a"><path transform="rotate(90)" stroke-width="1.058" stroke-linecap="round" d="M-25.098 162.66h89v63h-89z"/></clipPath></defs><g fill="#fff"><path d="M10 10h99v73H10z"/><path d="M15 15h89v63H15z"/></g><rect ry="1.5" width="78.92" height="54.81" x="-20.058" y="166.755" rx="1.5" fill="#363835" transform="translate(40.098 -147.66)"/><g transform="translate(-1.108 -.667) scale(.26458)" fill="#fff"><circle r="2.19" cy="88.55" cx="92.289" id="ballotCardNein_svg__b" opacity="1" vector-effect="none" fill="#fff" fill-opacity="1" stroke="none" stroke-width="1.057" stroke-linecap="round" stroke-linejoin="miter" stroke-miterlimit="4" stroke-dasharray="3.17029838,3.17029838" stroke-dashoffset="0" stroke-opacity="1" paint-order="normal"/><use height="100%" width="100%" transform="translate(0 3.344)" xlink:href="#ballotCardNein_svg__b"/><use height="100%" width="100%" transform="translate(0 6.688)" xlink:href="#ballotCardNein_svg__b"/><use height="100%" width="100%" transform="translate(0 10.032)" xlink:href="#ballotCardNein_svg__b"/><use height="100%" width="100%" transform="translate(0 13.375)" xlink:href="#ballotCardNein_svg__b"/><use height="100%" width="100%" transform="translate(0 16.72)" xlink:href="#ballotCardNein_svg__b"/><use height="100%" width="100%" transform="translate(0 20.063)" xlink:href="#ballotCardNein_svg__b"/><use height="100%" width="100%" transform="translate(0 23.407)" xlink:href="#ballotCardNein_svg__b"/><use height="100%" width="100%" transform="translate(0 26.75)" xlink:href="#ballotCardNein_svg__b"/><use height="100%" width="100%" transform="translate(0 30.095)" xlink:href="#ballotCardNein_svg__b"/><use height="100%" width="100%" transform="translate(0 33.439)" xlink:href="#ballotCardNein_svg__b"/><use height="100%" width="100%" transform="translate(0 36.782)" xlink:href="#ballotCardNein_svg__b"/><use height="100%" width="100%" transform="translate(0 40.126)" xlink:href="#ballotCardNein_svg__b"/><use height="100%" width="100%" transform="translate(0 43.47)" xlink:href="#ballotCardNein_svg__b"/><use height="100%" width="100%" transform="translate(0 46.814)" xlink:href="#ballotCardNein_svg__b"/><use height="100%" width="100%" transform="translate(0 50.158)" xlink:href="#ballotCardNein_svg__b"/><use height="100%" width="100%" transform="translate(0 53.502)" xlink:href="#ballotCardNein_svg__b"/><use height="100%" width="100%" transform="translate(0 56.846)" xlink:href="#ballotCardNein_svg__b"/><use height="100%" width="100%" transform="translate(0 60.19)" xlink:href="#ballotCardNein_svg__b"/><use height="100%" width="100%" transform="translate(0 63.533)" xlink:href="#ballotCardNein_svg__b"/><use height="100%" width="100%" transform="translate(0 66.877)" xlink:href="#ballotCardNein_svg__b"/><use height="100%" width="100%" transform="translate(0 70.221)" xlink:href="#ballotCardNein_svg__b"/><use height="100%" width="100%" transform="translate(0 73.565)" xlink:href="#ballotCardNein_svg__b"/><use height="100%" width="100%" transform="translate(0 76.909)" xlink:href="#ballotCardNein_svg__b"/><use height="100%" width="100%" transform="translate(0 80.253)" xlink:href="#ballotCardNein_svg__b"/><use height="100%" width="100%" transform="translate(0 83.596)" xlink:href="#ballotCardNein_svg__b"/><use height="100%" width="100%" transform="translate(0 86.94)" xlink:href="#ballotCardNein_svg__b"/><use height="100%" width="100%" transform="translate(0 90.284)" xlink:href="#ballotCardNein_svg__b"/><use height="100%" width="100%" transform="translate(0 93.628)" xlink:href="#ballotCardNein_svg__b"/><use height="100%" width="100%" transform="translate(0 96.972)" xlink:href="#ballotCardNein_svg__b"/><use height="100%" width="100%" transform="translate(0 100.316)" xlink:href="#ballotCardNein_svg__b"/><use height="100%" width="100%" transform="translate(0 103.66)" xlink:href="#ballotCardNein_svg__b"/><use height="100%" width="100%" transform="translate(0 107.003)" xlink:href="#ballotCardNein_svg__b"/><use height="100%" width="100%" transform="translate(0 110.347)" xlink:href="#ballotCardNein_svg__b"/><use height="100%" width="100%" transform="translate(0 113.691)" xlink:href="#ballotCardNein_svg__b"/><use height="100%" width="100%" transform="translate(0 117.035)" xlink:href="#ballotCardNein_svg__b"/><use height="100%" width="100%" transform="translate(0 120.379)" xlink:href="#ballotCardNein_svg__b"/><use height="100%" width="100%" transform="translate(0 123.723)" xlink:href="#ballotCardNein_svg__b"/><use height="100%" width="100%" transform="translate(0 127.067)" xlink:href="#ballotCardNein_svg__b"/><use height="100%" width="100%" transform="translate(0 130.41)" xlink:href="#ballotCardNein_svg__b"/><use height="100%" width="100%" transform="translate(0 133.754)" xlink:href="#ballotCardNein_svg__b"/><use height="100%" width="100%" transform="translate(0 137.098)" xlink:href="#ballotCardNein_svg__b"/><use height="100%" width="100%" transform="translate(0 140.442)" xlink:href="#ballotCardNein_svg__b"/><use height="100%" width="100%" transform="translate(0 143.786)" xlink:href="#ballotCardNein_svg__b"/><use height="100%" width="100%" transform="translate(0 147.13)" xlink:href="#ballotCardNein_svg__b"/><use height="100%" width="100%" transform="translate(0 150.474)" xlink:href="#ballotCardNein_svg__b"/><use height="100%" width="100%" transform="translate(0 153.817)" xlink:href="#ballotCardNein_svg__b"/><use height="100%" width="100%" transform="translate(0 157.161)" xlink:href="#ballotCardNein_svg__b"/><use height="100%" width="100%" transform="translate(0 160.505)" xlink:href="#ballotCardNein_svg__b"/><use height="100%" width="100%" transform="translate(0 163.849)" xlink:href="#ballotCardNein_svg__b"/><use height="100%" width="100%" transform="translate(0 167.193)" xlink:href="#ballotCardNein_svg__b"/><use height="100%" width="100%" transform="translate(0 170.537)" xlink:href="#ballotCardNein_svg__b"/><use height="100%" width="100%" transform="translate(0 173.88)" xlink:href="#ballotCardNein_svg__b"/><use height="100%" width="100%" transform="translate(0 177.224)" xlink:href="#ballotCardNein_svg__b"/><use height="100%" width="100%" xlink:href="#ballotCardNein_svg__b" transform="translate(3.336)"/><use height="100%" width="100%" xlink:href="#ballotCardNein_svg__b" transform="translate(6.672)"/><use height="100%" width="100%" xlink:href="#ballotCardNein_svg__b" transform="translate(10.008)"/><use height="100%" width="100%" xlink:href="#ballotCardNein_svg__b" transform="translate(13.345)"/><use height="100%" width="100%" xlink:href="#ballotCardNein_svg__b" transform="translate(16.68)"/><use height="100%" width="100%" xlink:href="#ballotCardNein_svg__b" transform="translate(20.017)"/><use height="100%" width="100%" xlink:href="#ballotCardNein_svg__b" transform="translate(23.353)"/><use height="100%" width="100%" xlink:href="#ballotCardNein_svg__b" transform="translate(26.69)"/><use height="100%" width="100%" xlink:href="#ballotCardNein_svg__b" transform="translate(30.025)"/><use height="100%" width="100%" xlink:href="#ballotCardNein_svg__b" transform="translate(33.361)"/><use height="100%" width="100%" xlink:href="#ballotCardNein_svg__b" transform="translate(36.698)"/><use height="100%" width="100%" xlink:href="#ballotCardNein_svg__b" transform="translate(40.034)"/><use height="100%" width="100%" xlink:href="#ballotCardNein_svg__b" transform="translate(43.37)"/><use height="100%" width="100%" xlink:href="#ballotCardNein_svg__b" transform="translate(46.706)"/><use height="100%" width="100%" xlink:href="#ballotCardNein_svg__b" transform="translate(50.042)"/><use height="100%" width="100%" xlink:href="#ballotCardNein_svg__b" transform="translate(53.378)"/><use height="100%" width="100%" xlink:href="#ballotCardNein_svg__b" transform="translate(56.715)"/><use height="100%" width="100%" xlink:href="#ballotCardNein_svg__b" transform="translate(60.05)"/><use height="100%" width="100%" xlink:href="#ballotCardNein_svg__b" transform="translate(63.387)"/><use height="100%" width="100%" xlink:href="#ballotCardNein_svg__b" transform="translate(66.723)"/><use height="100%" width="100%" xlink:href="#ballotCardNein_svg__b" transform="translate(70.06)"/><use height="100%" width="100%" xlink:href="#ballotCardNein_svg__b" transform="translate(73.395)"/><use height="100%" width="100%" xlink:href="#ballotCardNein_svg__b" transform="translate(76.731)"/><use height="100%" width="100%" xlink:href="#ballotCardNein_svg__b" transform="translate(80.068)"/><use height="100%" width="100%" xlink:href="#ballotCardNein_svg__b" transform="translate(83.404)"/><use height="100%" width="100%" xlink:href="#ballotCardNein_svg__b" transform="translate(86.74)"/><use height="100%" width="100%" xlink:href="#ballotCardNein_svg__b" transform="translate(90.076)"/><use height="100%" width="100%" xlink:href="#ballotCardNein_svg__b" transform="translate(93.412)"/><use height="100%" width="100%" xlink:href="#ballotCardNein_svg__b" transform="translate(96.748)"/><use height="100%" width="100%" xlink:href="#ballotCardNein_svg__b" transform="translate(100.084)"/><use height="100%" width="100%" xlink:href="#ballotCardNein_svg__b" transform="translate(103.42)"/><use height="100%" width="100%" xlink:href="#ballotCardNein_svg__b" transform="translate(106.757)"/><use height="100%" width="100%" xlink:href="#ballotCardNein_svg__b" transform="translate(110.093)"/><use height="100%" width="100%" xlink:href="#ballotCardNein_svg__b" transform="translate(113.429)"/><use height="100%" width="100%" xlink:href="#ballotCardNein_svg__b" transform="translate(116.765)"/><use height="100%" width="100%" xlink:href="#ballotCardNein_svg__b" transform="translate(120.101)"/><use height="100%" width="100%" xlink:href="#ballotCardNein_svg__b" transform="translate(123.437)"/><use height="100%" width="100%" xlink:href="#ballotCardNein_svg__b" transform="translate(126.774)"/><use height="100%" width="100%" xlink:href="#ballotCardNein_svg__b" transform="translate(130.11)"/><use height="100%" width="100%" xlink:href="#ballotCardNein_svg__b" transform="translate(133.446)"/><use height="100%" width="100%" xlink:href="#ballotCardNein_svg__b" transform="translate(136.782)"/><use height="100%" width="100%" xlink:href="#ballotCardNein_svg__b" transform="translate(140.118)"/><use height="100%" width="100%" xlink:href="#ballotCardNein_svg__b" transform="translate(143.454)"/><use height="100%" width="100%" xlink:href="#ballotCardNein_svg__b" transform="translate(146.79)"/><use height="100%" width="100%" xlink:href="#ballotCardNein_svg__b" transform="translate(150.127)"/><use height="100%" width="100%" xlink:href="#ballotCardNein_svg__b" transform="translate(153.463)"/><use height="100%" width="100%" xlink:href="#ballotCardNein_svg__b" transform="translate(156.799)"/><use height="100%" width="100%" xlink:href="#ballotCardNein_svg__b" transform="translate(160.135)"/><use height="100%" width="100%" xlink:href="#ballotCardNein_svg__b" transform="translate(163.471)"/><use height="100%" width="100%" xlink:href="#ballotCardNein_svg__b" transform="translate(166.807)"/><use height="100%" width="100%" xlink:href="#ballotCardNein_svg__b" transform="translate(170.144)"/><use height="100%" width="100%" xlink:href="#ballotCardNein_svg__b" transform="translate(173.48)"/><use height="100%" width="100%" xlink:href="#ballotCardNein_svg__b" transform="translate(176.816)"/><use height="100%" width="100%" xlink:href="#ballotCardNein_svg__b" transform="translate(180.152)"/><use height="100%" width="100%" xlink:href="#ballotCardNein_svg__b" transform="translate(183.488)"/><use height="100%" width="100%" xlink:href="#ballotCardNein_svg__b" transform="translate(186.824)"/><use height="100%" width="100%" xlink:href="#ballotCardNein_svg__b" transform="translate(190.16)"/><use height="100%" width="100%" xlink:href="#ballotCardNein_svg__b" transform="translate(193.497)"/><use height="100%" width="100%" xlink:href="#ballotCardNein_svg__b" transform="translate(196.833)"/><use height="100%" width="100%" xlink:href="#ballotCardNein_svg__b" transform="translate(200.169)"/><use height="100%" width="100%" xlink:href="#ballotCardNein_svg__b" transform="translate(203.505)"/><use height="100%" width="100%" xlink:href="#ballotCardNein_svg__b" transform="translate(206.841)"/><use height="100%" width="100%" xlink:href="#ballotCardNein_svg__b" transform="translate(210.177)"/><use height="100%" width="100%" xlink:href="#ballotCardNein_svg__b" transform="translate(213.513)"/><use height="100%" width="100%" xlink:href="#ballotCardNein_svg__b" transform="translate(216.85)"/><use height="100%" width="100%" xlink:href="#ballotCardNein_svg__b" transform="translate(220.186)"/><use height="100%" width="100%" xlink:href="#ballotCardNein_svg__b" transform="translate(223.522)"/><use height="100%" width="100%" xlink:href="#ballotCardNein_svg__b" transform="translate(226.858)"/><use height="100%" width="100%" xlink:href="#ballotCardNein_svg__b" transform="translate(230.194)"/><use height="100%" width="100%" xlink:href="#ballotCardNein_svg__b" transform="translate(233.53)"/><use height="100%" width="100%" xlink:href="#ballotCardNein_svg__b" transform="translate(236.867)"/><use height="100%" width="100%" xlink:href="#ballotCardNein_svg__b" transform="translate(240.203)"/><use height="100%" width="100%" xlink:href="#ballotCardNein_svg__b" transform="translate(243.539)"/><use height="100%" width="100%" xlink:href="#ballotCardNein_svg__b" transform="translate(246.875)"/><use height="100%" width="100%" xlink:href="#ballotCardNein_svg__b" transform="translate(250.211)"/><use height="100%" width="100%" xlink:href="#ballotCardNein_svg__b" transform="translate(253.547)"/><use height="100%" width="100%" xlink:href="#ballotCardNein_svg__b" transform="translate(256.883)"/><use height="100%" width="100%" xlink:href="#ballotCardNein_svg__b" transform="translate(266.892)"/><use transform="translate(260.22)" xlink:href="#ballotCardNein_svg__b" width="100%" height="100%"/><use height="100%" width="100%" xlink:href="#ballotCardNein_svg__b" transform="translate(263.556)"/><use xlink:href="#ballotCardNein_svg__b" transform="translate(0 180.568)" width="100%" height="100%"/><use transform="translate(270.228)" xlink:href="#ballotCardNein_svg__b" width="100%" height="100%"/><use height="100%" width="100%" xlink:href="#ballotCardNein_svg__b" transform="translate(273.564)"/><use xlink:href="#ballotCardNein_svg__b" transform="translate(273.564 3.344)" width="100%" height="100%"/><use xlink:href="#ballotCardNein_svg__b" transform="translate(273.564 6.688)" width="100%" height="100%"/><use xlink:href="#ballotCardNein_svg__b" transform="translate(273.564 10.032)" width="100%" height="100%"/><use xlink:href="#ballotCardNein_svg__b" transform="translate(273.564 13.375)" width="100%" height="100%"/><use xlink:href="#ballotCardNein_svg__b" transform="translate(273.564 16.72)" width="100%" height="100%"/><use xlink:href="#ballotCardNein_svg__b" transform="translate(273.564 20.063)" width="100%" height="100%"/><use xlink:href="#ballotCardNein_svg__b" transform="translate(273.564 23.407)" width="100%" height="100%"/><use xlink:href="#ballotCardNein_svg__b" transform="translate(273.564 26.75)" width="100%" height="100%"/><use xlink:href="#ballotCardNein_svg__b" transform="translate(273.564 30.095)" width="100%" height="100%"/><use xlink:href="#ballotCardNein_svg__b" transform="translate(273.564 33.439)" width="100%" height="100%"/><use xlink:href="#ballotCardNein_svg__b" transform="translate(273.564 36.782)" width="100%" height="100%"/><use xlink:href="#ballotCardNein_svg__b" transform="translate(273.564 40.126)" width="100%" height="100%"/><use xlink:href="#ballotCardNein_svg__b" transform="translate(273.564 43.47)" width="100%" height="100%"/><use xlink:href="#ballotCardNein_svg__b" transform="translate(273.564 46.814)" width="100%" height="100%"/><use xlink:href="#ballotCardNein_svg__b" transform="translate(273.564 50.158)" width="100%" height="100%"/><use xlink:href="#ballotCardNein_svg__b" transform="translate(273.564 53.502)" width="100%" height="100%"/><use xlink:href="#ballotCardNein_svg__b" transform="translate(273.564 56.846)" width="100%" height="100%"/><use xlink:href="#ballotCardNein_svg__b" transform="translate(273.564 60.19)" width="100%" height="100%"/><use xlink:href="#ballotCardNein_svg__b" transform="translate(273.564 63.533)" width="100%" height="100%"/><use xlink:href="#ballotCardNein_svg__b" transform="translate(273.564 66.877)" width="100%" height="100%"/><use xlink:href="#ballotCardNein_svg__b" transform="translate(273.564 70.221)" width="100%" height="100%"/><use xlink:href="#ballotCardNein_svg__b" transform="translate(273.564 73.565)" width="100%" height="100%"/><use xlink:href="#ballotCardNein_svg__b" transform="translate(273.564 76.909)" width="100%" height="100%"/><use xlink:href="#ballotCardNein_svg__b" transform="translate(273.564 80.253)" width="100%" height="100%"/><use xlink:href="#ballotCardNein_svg__b" transform="translate(273.564 83.596)" width="100%" height="100%"/><use xlink:href="#ballotCardNein_svg__b" transform="translate(273.564 86.94)" width="100%" height="100%"/><use xlink:href="#ballotCardNein_svg__b" transform="translate(273.564 90.284)" width="100%" height="100%"/><use xlink:href="#ballotCardNein_svg__b" transform="translate(273.564 93.628)" width="100%" height="100%"/><use xlink:href="#ballotCardNein_svg__b" transform="translate(273.564 96.972)" width="100%" height="100%"/><use xlink:href="#ballotCardNein_svg__b" transform="translate(273.564 100.316)" width="100%" height="100%"/><use xlink:href="#ballotCardNein_svg__b" transform="translate(273.564 103.66)" width="100%" height="100%"/><use xlink:href="#ballotCardNein_svg__b" transform="translate(273.564 107.003)" width="100%" height="100%"/><use xlink:href="#ballotCardNein_svg__b" transform="translate(273.564 110.347)" width="100%" height="100%"/><use xlink:href="#ballotCardNein_svg__b" transform="translate(273.564 113.691)" width="100%" height="100%"/><use xlink:href="#ballotCardNein_svg__b" transform="translate(273.564 117.035)" width="100%" height="100%"/><use xlink:href="#ballotCardNein_svg__b" transform="translate(273.564 120.379)" width="100%" height="100%"/><use xlink:href="#ballotCardNein_svg__b" transform="translate(273.564 123.723)" width="100%" height="100%"/><use xlink:href="#ballotCardNein_svg__b" transform="translate(273.564 127.067)" width="100%" height="100%"/><use xlink:href="#ballotCardNein_svg__b" transform="translate(273.564 130.41)" width="100%" height="100%"/><use xlink:href="#ballotCardNein_svg__b" transform="translate(273.564 133.754)" width="100%" height="100%"/><use xlink:href="#ballotCardNein_svg__b" transform="translate(273.564 137.098)" width="100%" height="100%"/><use xlink:href="#ballotCardNein_svg__b" transform="translate(273.564 140.442)" width="100%" height="100%"/><use xlink:href="#ballotCardNein_svg__b" transform="translate(273.564 143.786)" width="100%" height="100%"/><use xlink:href="#ballotCardNein_svg__b" transform="translate(273.564 147.13)" width="100%" height="100%"/><use xlink:href="#ballotCardNein_svg__b" transform="translate(273.564 150.474)" width="100%" height="100%"/><use xlink:href="#ballotCardNein_svg__b" transform="translate(273.564 153.817)" width="100%" height="100%"/><use xlink:href="#ballotCardNein_svg__b" transform="translate(273.564 157.161)" width="100%" height="100%"/><use xlink:href="#ballotCardNein_svg__b" transform="translate(273.564 160.505)" width="100%" height="100%"/><use xlink:href="#ballotCardNein_svg__b" transform="translate(273.564 163.849)" width="100%" height="100%"/><use xlink:href="#ballotCardNein_svg__b" transform="translate(273.564 167.193)" width="100%" height="100%"/><use xlink:href="#ballotCardNein_svg__b" transform="translate(273.564 170.537)" width="100%" height="100%"/><use xlink:href="#ballotCardNein_svg__b" transform="translate(273.564 173.88)" width="100%" height="100%"/><use xlink:href="#ballotCardNein_svg__b" transform="translate(273.564 177.224)" width="100%" height="100%"/><use height="100%" width="100%" transform="translate(273.564 180.568)" xlink:href="#ballotCardNein_svg__b"/><use transform="translate(3.336 180.568)" xlink:href="#ballotCardNein_svg__b" width="100%" height="100%"/><use transform="translate(6.672 180.568)" xlink:href="#ballotCardNein_svg__b" width="100%" height="100%"/><use transform="translate(10.008 180.568)" xlink:href="#ballotCardNein_svg__b" width="100%" height="100%"/><use transform="translate(13.345 180.568)" xlink:href="#ballotCardNein_svg__b" width="100%" height="100%"/><use transform="translate(16.68 180.568)" xlink:href="#ballotCardNein_svg__b" width="100%" height="100%"/><use transform="translate(20.017 180.568)" xlink:href="#ballotCardNein_svg__b" width="100%" height="100%"/><use transform="translate(23.353 180.568)" xlink:href="#ballotCardNein_svg__b" width="100%" height="100%"/><use transform="translate(26.69 180.568)" xlink:href="#ballotCardNein_svg__b" width="100%" height="100%"/><use transform="translate(30.025 180.568)" xlink:href="#ballotCardNein_svg__b" width="100%" height="100%"/><use transform="translate(33.361 180.568)" xlink:href="#ballotCardNein_svg__b" width="100%" height="100%"/><use transform="translate(36.698 180.568)" xlink:href="#ballotCardNein_svg__b" width="100%" height="100%"/><use transform="translate(40.034 180.568)" xlink:href="#ballotCardNein_svg__b" width="100%" height="100%"/><use transform="translate(43.37 180.568)" xlink:href="#ballotCardNein_svg__b" width="100%" height="100%"/><use transform="translate(46.706 180.568)" xlink:href="#ballotCardNein_svg__b" width="100%" height="100%"/><use transform="translate(50.042 180.568)" xlink:href="#ballotCardNein_svg__b" width="100%" height="100%"/><use transform="translate(53.378 180.568)" xlink:href="#ballotCardNein_svg__b" width="100%" height="100%"/><use transform="translate(56.715 180.568)" xlink:href="#ballotCardNein_svg__b" width="100%" height="100%"/><use transform="translate(60.05 180.568)" xlink:href="#ballotCardNein_svg__b" width="100%" height="100%"/><use transform="translate(63.387 180.568)" xlink:href="#ballotCardNein_svg__b" width="100%" height="100%"/><use transform="translate(66.723 180.568)" xlink:href="#ballotCardNein_svg__b" width="100%" height="100%"/><use transform="translate(70.06 180.568)" xlink:href="#ballotCardNein_svg__b" width="100%" height="100%"/><use transform="translate(73.395 180.568)" xlink:href="#ballotCardNein_svg__b" width="100%" height="100%"/><use transform="translate(76.731 180.568)" xlink:href="#ballotCardNein_svg__b" width="100%" height="100%"/><use transform="translate(80.068 180.568)" xlink:href="#ballotCardNein_svg__b" width="100%" height="100%"/><use transform="translate(83.404 180.568)" xlink:href="#ballotCardNein_svg__b" width="100%" height="100%"/><use transform="translate(86.74 180.568)" xlink:href="#ballotCardNein_svg__b" width="100%" height="100%"/><use transform="translate(90.076 180.568)" xlink:href="#ballotCardNein_svg__b" width="100%" height="100%"/><use transform="translate(93.412 180.568)" xlink:href="#ballotCardNein_svg__b" width="100%" height="100%"/><use transform="translate(96.748 180.568)" xlink:href="#ballotCardNein_svg__b" width="100%" height="100%"/><use transform="translate(100.084 180.568)" xlink:href="#ballotCardNein_svg__b" width="100%" height="100%"/><use transform="translate(103.42 180.568)" xlink:href="#ballotCardNein_svg__b" width="100%" height="100%"/><use transform="translate(106.757 180.568)" xlink:href="#ballotCardNein_svg__b" width="100%" height="100%"/><use transform="translate(110.093 180.568)" xlink:href="#ballotCardNein_svg__b" width="100%" height="100%"/><use transform="translate(113.429 180.568)" xlink:href="#ballotCardNein_svg__b" width="100%" height="100%"/><use transform="translate(116.765 180.568)" xlink:href="#ballotCardNein_svg__b" width="100%" height="100%"/><use transform="translate(120.101 180.568)" xlink:href="#ballotCardNein_svg__b" width="100%" height="100%"/><use transform="translate(123.437 180.568)" xlink:href="#ballotCardNein_svg__b" width="100%" height="100%"/><use transform="translate(126.774 180.568)" xlink:href="#ballotCardNein_svg__b" width="100%" height="100%"/><use transform="translate(130.11 180.568)" xlink:href="#ballotCardNein_svg__b" width="100%" height="100%"/><use transform="translate(133.446 180.568)" xlink:href="#ballotCardNein_svg__b" width="100%" height="100%"/><use transform="translate(136.782 180.568)" xlink:href="#ballotCardNein_svg__b" width="100%" height="100%"/><use transform="translate(140.118 180.568)" xlink:href="#ballotCardNein_svg__b" width="100%" height="100%"/><use transform="translate(143.454 180.568)" xlink:href="#ballotCardNein_svg__b" width="100%" height="100%"/><use transform="translate(146.79 180.568)" xlink:href="#ballotCardNein_svg__b" width="100%" height="100%"/><use transform="translate(150.127 180.568)" xlink:href="#ballotCardNein_svg__b" width="100%" height="100%"/><use transform="translate(153.463 180.568)" xlink:href="#ballotCardNein_svg__b" width="100%" height="100%"/><use transform="translate(156.799 180.568)" xlink:href="#ballotCardNein_svg__b" width="100%" height="100%"/><use transform="translate(160.135 180.568)" xlink:href="#ballotCardNein_svg__b" width="100%" height="100%"/><use transform="translate(163.471 180.568)" xlink:href="#ballotCardNein_svg__b" width="100%" height="100%"/><use transform="translate(166.807 180.568)" xlink:href="#ballotCardNein_svg__b" width="100%" height="100%"/><use transform="translate(170.144 180.568)" xlink:href="#ballotCardNein_svg__b" width="100%" height="100%"/><use transform="translate(173.48 180.568)" xlink:href="#ballotCardNein_svg__b" width="100%" height="100%"/><use transform="translate(176.816 180.568)" xlink:href="#ballotCardNein_svg__b" width="100%" height="100%"/><use transform="translate(180.152 180.568)" xlink:href="#ballotCardNein_svg__b" width="100%" height="100%"/><use transform="translate(183.488 180.568)" xlink:href="#ballotCardNein_svg__b" width="100%" height="100%"/><use transform="translate(186.824 180.568)" xlink:href="#ballotCardNein_svg__b" width="100%" height="100%"/><use transform="translate(190.16 180.568)" xlink:href="#ballotCardNein_svg__b" width="100%" height="100%"/><use transform="translate(193.497 180.568)" xlink:href="#ballotCardNein_svg__b" width="100%" height="100%"/><use transform="translate(196.833 180.568)" xlink:href="#ballotCardNein_svg__b" width="100%" height="100%"/><use transform="translate(200.169 180.568)" xlink:href="#ballotCardNein_svg__b" width="100%" height="100%"/><use transform="translate(203.505 180.568)" xlink:href="#ballotCardNein_svg__b" width="100%" height="100%"/><use transform="translate(206.841 180.568)" xlink:href="#ballotCardNein_svg__b" width="100%" height="100%"/><use transform="translate(210.177 180.568)" xlink:href="#ballotCardNein_svg__b" width="100%" height="100%"/><use transform="translate(213.513 180.568)" xlink:href="#ballotCardNein_svg__b" width="100%" height="100%"/><use transform="translate(216.85 180.568)" xlink:href="#ballotCardNein_svg__b" width="100%" height="100%"/><use transform="translate(220.186 180.568)" xlink:href="#ballotCardNein_svg__b" width="100%" height="100%"/><use transform="translate(223.522 180.568)" xlink:href="#ballotCardNein_svg__b" width="100%" height="100%"/><use transform="translate(226.858 180.568)" xlink:href="#ballotCardNein_svg__b" width="100%" height="100%"/><use transform="translate(230.194 180.568)" xlink:href="#ballotCardNein_svg__b" width="100%" height="100%"/><use transform="translate(233.53 180.568)" xlink:href="#ballotCardNein_svg__b" width="100%" height="100%"/><use transform="translate(236.867 180.568)" xlink:href="#ballotCardNein_svg__b" width="100%" height="100%"/><use transform="translate(240.203 180.568)" xlink:href="#ballotCardNein_svg__b" width="100%" height="100%"/><use transform="translate(243.539 180.568)" xlink:href="#ballotCardNein_svg__b" width="100%" height="100%"/><use transform="translate(246.875 180.568)" xlink:href="#ballotCardNein_svg__b" width="100%" height="100%"/><use transform="translate(250.211 180.568)" xlink:href="#ballotCardNein_svg__b" width="100%" height="100%"/><use transform="translate(253.547 180.568)" xlink:href="#ballotCardNein_svg__b" width="100%" height="100%"/><use transform="translate(256.883 180.568)" xlink:href="#ballotCardNein_svg__b" width="100%" height="100%"/><use transform="translate(266.892 180.568)" xlink:href="#ballotCardNein_svg__b" width="100%" height="100%"/><use height="100%" width="100%" xlink:href="#ballotCardNein_svg__b" transform="translate(260.22 180.568)"/><use transform="translate(263.556 180.568)" xlink:href="#ballotCardNein_svg__b" width="100%" height="100%"/><use height="100%" width="100%" xlink:href="#ballotCardNein_svg__b" transform="translate(270.228 180.568)"/></g><g word-spacing="0" fill="#fff"><text style="line-height:1.25;-inkscape-font-specification:'Germania One';font-variant-ligatures:normal;font-variant-caps:normal;font-variant-numeric:normal;font-feature-settings:normal;text-align:start" x="-9.48" y="206.28" font-weight="400" font-size="33.367" font-family="Germania One" letter-spacing="0" stroke-width="1.682" transform="translate(40.098 -147.66)"><tspan x="-12.48" y="206.28" style="-inkscape-font-specification:'Germania, Normal';font-variant-ligatures:normal;font-variant-caps:normal;font-variant-numeric:normal;font-feature-settings:normal;text-align:start">Nein!</tspan></text><g font-weight="500" font-family="Futura-Bold"><text y="213.028" x="16.083" style="line-height:1.25;-inkscape-font-specification:'Futura-Bold, Medium';font-variant-ligatures:normal;font-variant-caps:normal;font-variant-numeric:normal;font-feature-settings:normal;text-align:start" font-size="4.128" letter-spacing=".879" stroke-width=".172" transform="translate(40.098 -147.844)"><tspan style="-inkscape-font-specification:'Futura-Bold, Medium';font-variant-ligatures:normal;font-variant-caps:normal;font-variant-numeric:normal;font-feature-settings:normal;text-align:start" y="213.028" x="16.083">NO</tspan></text><text style="line-height:1.25;-inkscape-font-specification:'Futura-Bold, Medium';font-variant-ligatures:normal;font-variant-caps:normal;font-variant-numeric:normal;font-feature-settings:normal;text-align:start" x="13.766" y="212.814" font-size="4.002" letter-spacing=".852" stroke-width=".167" transform="translate(40.098 -147.844)"><tspan x="13.766" y="212.814" style="-inkscape-font-specification:'Futura-Bold, Medium';font-variant-ligatures:normal;font-variant-caps:normal;font-variant-numeric:normal;font-feature-settings:normal;text-align:start">(</tspan></text><text y="212.814" x="25.32" style="line-height:1.25;-inkscape-font-specification:'Futura-Bold, Medium';font-variant-ligatures:normal;font-variant-caps:normal;font-variant-numeric:normal;font-feature-settings:normal;text-align:start" font-size="4.002" letter-spacing=".852" stroke-width=".167" transform="translate(40.098 -147.844)"><tspan style="-inkscape-font-specification:'Futura-Bold, Medium';font-variant-ligatures:normal;font-variant-caps:normal;font-variant-numeric:normal;font-feature-settings:normal;text-align:start" y="212.814" x="25.32">)</tspan></text></g></g></svg>
