<svg xmlns:xlink="http://www.w3.org/1999/xlink" width="351.496" height="119mm" viewBox="0 0 93 119"><defs><clipPath clipPathUnits="userSpaceOnUse" id="discardPile_svg__a"><path stroke-width="1.058" stroke-linecap="round" d="M47.759 138.9h63v89h-63z"/></clipPath></defs><g fill="#fff"><path d="M10 10h73v99H10z"/><path d="M15 15h63v89H15z"/></g><g fill="#e66443" transform="translate(-32.759 -123.9)"><path d="m53.577 212.015-2.576 2.833c.462.307.598.559 2.1.559 5.414.92 6.697 4.919 6.8 7.936.127.806.89 1.543 1.645 1.556h35.425c.755-.013 1.518-.75 1.646-1.556.102-3.017 1.386-7.015 6.8-7.936 1.502 0 1.638-.252 2.099-.56l-2.576-2.832-26.332-1.98z"/><rect ry="2" width="73.567" height="57.632" x="141.84" y="-108.074" rx="2" transform="rotate(90)"/></g><g fill="#fff"><path d="M36.652 29.513v5.995H30.55v46.593h31.9V29.513z"/><path d="M36.064 30.534v4.348h-4.348z"/><g transform="translate(-32.759 -123.9)"><g transform="translate(.442 .22)"><circle id="discardPile_svg__b" cx="57.13" cy="146.562" r=".4" opacity="1" vector-effect="none" fill="#fff" fill-opacity="1" stroke="none" stroke-width=".2" stroke-linecap="round" stroke-linejoin="round" stroke-miterlimit="4" stroke-dasharray="none" stroke-dashoffset="0" stroke-opacity="1" paint-order="normal"/><use xlink:href="#discardPile_svg__b" transform="translate(1.058)" width="100%" height="100%"/><use height="100%" width="100%" transform="translate(2.116)" xlink:href="#discardPile_svg__b"/><use xlink:href="#discardPile_svg__b" transform="translate(3.174)" width="100%" height="100%"/><use height="100%" width="100%" transform="translate(4.231)" xlink:href="#discardPile_svg__b"/><use xlink:href="#discardPile_svg__b" transform="translate(5.29)" width="100%" height="100%"/><use height="100%" width="100%" transform="translate(6.347)" xlink:href="#discardPile_svg__b"/><use xlink:href="#discardPile_svg__b" transform="translate(8.463)" width="100%" height="100%"/><use height="100%" width="100%" transform="translate(10.578)" xlink:href="#discardPile_svg__b"/><use xlink:href="#discardPile_svg__b" transform="translate(7.405)" width="100%" height="100%"/><use xlink:href="#discardPile_svg__b" transform="translate(9.52)" width="100%" height="100%"/><use height="100%" width="100%" transform="translate(11.636)" xlink:href="#discardPile_svg__b"/><use xlink:href="#discardPile_svg__b" transform="translate(12.694)" width="100%" height="100%"/><use height="100%" width="100%" transform="translate(13.752)" xlink:href="#discardPile_svg__b"/><use xlink:href="#discardPile_svg__b" transform="translate(14.81)" width="100%" height="100%"/><use height="100%" width="100%" transform="translate(15.868)" xlink:href="#discardPile_svg__b"/><use xlink:href="#discardPile_svg__b" transform="translate(16.925)" width="100%" height="100%"/><use height="100%" width="100%" transform="translate(17.983)" xlink:href="#discardPile_svg__b"/><use xlink:href="#discardPile_svg__b" transform="translate(19.041)" width="100%" height="100%"/><use height="100%" width="100%" transform="translate(20.099)" xlink:href="#discardPile_svg__b"/><use xlink:href="#discardPile_svg__b" transform="translate(21.157)" width="100%" height="100%"/><use height="100%" width="100%" transform="translate(22.215)" xlink:href="#discardPile_svg__b"/><use xlink:href="#discardPile_svg__b" transform="translate(23.273)" width="100%" height="100%"/><use height="100%" width="100%" transform="translate(24.33)" xlink:href="#discardPile_svg__b"/><use xlink:href="#discardPile_svg__b" transform="translate(25.388)" width="100%" height="100%"/><use height="100%" width="100%" transform="translate(26.446)" xlink:href="#discardPile_svg__b"/><use xlink:href="#discardPile_svg__b" transform="translate(27.504)" width="100%" height="100%"/><use height="100%" width="100%" transform="translate(28.562)" xlink:href="#discardPile_svg__b"/><use xlink:href="#discardPile_svg__b" transform="translate(29.62)" width="100%" height="100%"/><use height="100%" width="100%" transform="translate(30.677)" xlink:href="#discardPile_svg__b"/><use xlink:href="#discardPile_svg__b" transform="translate(31.735)" width="100%" height="100%"/><use height="100%" width="100%" transform="translate(32.793)" xlink:href="#discardPile_svg__b"/><use xlink:href="#discardPile_svg__b" transform="translate(33.851)" width="100%" height="100%"/><use height="100%" width="100%" transform="translate(34.909)" xlink:href="#discardPile_svg__b"/><use xlink:href="#discardPile_svg__b" transform="translate(35.967)" width="100%" height="100%"/><use height="100%" width="100%" transform="translate(37.024)" xlink:href="#discardPile_svg__b"/><use xlink:href="#discardPile_svg__b" transform="translate(38.082)" width="100%" height="100%"/><use height="100%" width="100%" transform="translate(39.14)" xlink:href="#discardPile_svg__b"/><use height="100%" width="100%" transform="translate(40.198)" xlink:href="#discardPile_svg__b"/><use xlink:href="#discardPile_svg__b" transform="translate(41.256)" width="100%" height="100%"/><use height="100%" width="100%" transform="translate(42.314)" xlink:href="#discardPile_svg__b"/><use xlink:href="#discardPile_svg__b" transform="translate(43.372)" width="100%" height="100%"/></g><g transform="translate(.158 .22)"><use xlink:href="#discardPile_svg__b" transform="translate(-1.646 2.387)" width="100%" height="100%"/><use height="100%" width="100%" transform="translate(-1.646 3.445)" xlink:href="#discardPile_svg__b"/><use xlink:href="#discardPile_svg__b" transform="translate(-1.646 4.503)" width="100%" height="100%"/><use height="100%" width="100%" transform="translate(-1.646 5.56)" xlink:href="#discardPile_svg__b"/><use xlink:href="#discardPile_svg__b" transform="translate(-1.646 6.618)" width="100%" height="100%"/><use height="100%" width="100%" transform="translate(-1.646 7.676)" xlink:href="#discardPile_svg__b"/><use xlink:href="#discardPile_svg__b" transform="translate(-1.646 8.734)" width="100%" height="100%"/><use height="100%" width="100%" transform="translate(-1.646 9.792)" xlink:href="#discardPile_svg__b"/><use xlink:href="#discardPile_svg__b" transform="translate(-1.646 10.85)" width="100%" height="100%"/><use height="100%" width="100%" transform="translate(-1.646 11.907)" xlink:href="#discardPile_svg__b"/><use xlink:href="#discardPile_svg__b" transform="translate(-1.646 12.965)" width="100%" height="100%"/><use height="100%" width="100%" transform="translate(-1.646 14.023)" xlink:href="#discardPile_svg__b"/><use xlink:href="#discardPile_svg__b" transform="translate(-1.646 15.081)" width="100%" height="100%"/><use height="100%" width="100%" transform="translate(-1.646 16.139)" xlink:href="#discardPile_svg__b"/><use xlink:href="#discardPile_svg__b" transform="translate(-1.646 17.197)" width="100%" height="100%"/><use height="100%" width="100%" transform="translate(-1.646 18.254)" xlink:href="#discardPile_svg__b"/><use xlink:href="#discardPile_svg__b" transform="translate(-1.646 19.312)" width="100%" height="100%"/><use height="100%" width="100%" transform="translate(-1.646 20.37)" xlink:href="#discardPile_svg__b"/><use xlink:href="#discardPile_svg__b" transform="translate(-1.646 21.428)" width="100%" height="100%"/><use height="100%" width="100%" transform="translate(-1.646 22.486)" xlink:href="#discardPile_svg__b"/><use xlink:href="#discardPile_svg__b" transform="translate(-1.646 23.544)" width="100%" height="100%"/><use height="100%" width="100%" transform="translate(-1.646 24.601)" xlink:href="#discardPile_svg__b"/><use xlink:href="#discardPile_svg__b" transform="translate(-1.646 25.66)" width="100%" height="100%"/><use height="100%" width="100%" transform="translate(-1.646 26.717)" xlink:href="#discardPile_svg__b"/><use xlink:href="#discardPile_svg__b" transform="translate(-1.646 27.775)" width="100%" height="100%"/><use height="100%" width="100%" transform="translate(-1.646 28.833)" xlink:href="#discardPile_svg__b"/><use xlink:href="#discardPile_svg__b" transform="translate(-1.646 29.89)" width="100%" height="100%"/><use height="100%" width="100%" transform="translate(-1.646 30.948)" xlink:href="#discardPile_svg__b"/><use xlink:href="#discardPile_svg__b" transform="translate(-1.646 32.006)" width="100%" height="100%"/><use height="100%" width="100%" transform="translate(-1.646 33.064)" xlink:href="#discardPile_svg__b"/><use xlink:href="#discardPile_svg__b" transform="translate(-1.646 34.122)" width="100%" height="100%"/><use height="100%" width="100%" transform="translate(-1.646 35.18)" xlink:href="#discardPile_svg__b"/><use xlink:href="#discardPile_svg__b" transform="translate(-1.646 36.237)" width="100%" height="100%"/><use height="100%" width="100%" transform="translate(-1.646 37.295)" xlink:href="#discardPile_svg__b"/><use xlink:href="#discardPile_svg__b" transform="translate(-1.646 38.353)" width="100%" height="100%"/><use height="100%" width="100%" transform="translate(-1.646 39.41)" xlink:href="#discardPile_svg__b"/><use xlink:href="#discardPile_svg__b" transform="translate(-1.646 40.469)" width="100%" height="100%"/><use height="100%" width="100%" transform="translate(-1.646 41.527)" xlink:href="#discardPile_svg__b"/><use xlink:href="#discardPile_svg__b" transform="translate(-1.646 42.584)" width="100%" height="100%"/><use height="100%" width="100%" transform="translate(-1.646 43.642)" xlink:href="#discardPile_svg__b"/><use xlink:href="#discardPile_svg__b" transform="translate(-1.646 44.7)" width="100%" height="100%"/><use height="100%" width="100%" transform="translate(-1.646 45.758)" xlink:href="#discardPile_svg__b"/><use xlink:href="#discardPile_svg__b" transform="translate(-1.646 46.816)" width="100%" height="100%"/><use height="100%" width="100%" transform="translate(-1.646 47.873)" xlink:href="#discardPile_svg__b"/><use xlink:href="#discardPile_svg__b" transform="translate(-1.646 48.931)" width="100%" height="100%"/><use height="100%" width="100%" transform="translate(-1.646 49.99)" xlink:href="#discardPile_svg__b"/><use xlink:href="#discardPile_svg__b" transform="translate(-1.646 51.047)" width="100%" height="100%"/><use height="100%" width="100%" transform="translate(-1.646 52.105)" xlink:href="#discardPile_svg__b"/><use xlink:href="#discardPile_svg__b" transform="translate(-1.646 53.163)" width="100%" height="100%"/><use height="100%" width="100%" transform="translate(-1.646 54.22)" xlink:href="#discardPile_svg__b"/><use xlink:href="#discardPile_svg__b" transform="translate(-1.646 55.278)" width="100%" height="100%"/><use height="100%" width="100%" transform="translate(-1.646 56.336)" xlink:href="#discardPile_svg__b"/><use xlink:href="#discardPile_svg__b" transform="translate(-1.646 57.394)" width="100%" height="100%"/><use height="100%" width="100%" transform="translate(-1.646 58.452)" xlink:href="#discardPile_svg__b"/><use xlink:href="#discardPile_svg__b" transform="translate(-1.646 59.51)" width="100%" height="100%"/><use height="100%" width="100%" transform="translate(-1.646 60.567)" xlink:href="#discardPile_svg__b"/><use xlink:href="#discardPile_svg__b" transform="translate(-1.646 61.625)" width="100%" height="100%"/><use height="100%" width="100%" transform="translate(-1.646 62.683)" xlink:href="#discardPile_svg__b"/><use xlink:href="#discardPile_svg__b" transform="translate(-1.646 63.74)" width="100%" height="100%"/></g><g transform="translate(.442 .22)"><use height="100%" width="100%" transform="translate(1.058 65.85)" xlink:href="#discardPile_svg__b"/><use xlink:href="#discardPile_svg__b" transform="translate(2.116 65.85)" width="100%" height="100%"/><use height="100%" width="100%" transform="translate(3.174 65.85)" xlink:href="#discardPile_svg__b"/><use xlink:href="#discardPile_svg__b" transform="translate(4.231 65.85)" width="100%" height="100%"/><use height="100%" width="100%" transform="translate(5.29 65.85)" xlink:href="#discardPile_svg__b"/><use xlink:href="#discardPile_svg__b" transform="translate(6.347 65.85)" width="100%" height="100%"/><use height="100%" width="100%" transform="translate(8.463 65.85)" xlink:href="#discardPile_svg__b"/><use xlink:href="#discardPile_svg__b" transform="translate(10.578 65.85)" width="100%" height="100%"/><use height="100%" width="100%" transform="translate(7.405 65.85)" xlink:href="#discardPile_svg__b"/><use height="100%" width="100%" transform="translate(9.52 65.85)" xlink:href="#discardPile_svg__b"/><use xlink:href="#discardPile_svg__b" transform="translate(11.636 65.85)" width="100%" height="100%"/><use height="100%" width="100%" transform="translate(12.694 65.85)" xlink:href="#discardPile_svg__b"/><use xlink:href="#discardPile_svg__b" transform="translate(13.752 65.85)" width="100%" height="100%"/><use height="100%" width="100%" transform="translate(14.81 65.85)" xlink:href="#discardPile_svg__b"/><use xlink:href="#discardPile_svg__b" transform="translate(15.868 65.85)" width="100%" height="100%"/><use height="100%" width="100%" transform="translate(16.925 65.85)" xlink:href="#discardPile_svg__b"/><use xlink:href="#discardPile_svg__b" transform="translate(17.983 65.85)" width="100%" height="100%"/><use height="100%" width="100%" transform="translate(19.041 65.85)" xlink:href="#discardPile_svg__b"/><use xlink:href="#discardPile_svg__b" transform="translate(20.099 65.85)" width="100%" height="100%"/><use height="100%" width="100%" transform="translate(21.157 65.85)" xlink:href="#discardPile_svg__b"/><use xlink:href="#discardPile_svg__b" transform="translate(22.215 65.85)" width="100%" height="100%"/><use height="100%" width="100%" transform="translate(23.273 65.85)" xlink:href="#discardPile_svg__b"/><use xlink:href="#discardPile_svg__b" transform="translate(24.33 65.85)" width="100%" height="100%"/><use height="100%" width="100%" transform="translate(25.388 65.85)" xlink:href="#discardPile_svg__b"/><use xlink:href="#discardPile_svg__b" transform="translate(26.446 65.85)" width="100%" height="100%"/><use height="100%" width="100%" transform="translate(27.504 65.85)" xlink:href="#discardPile_svg__b"/><use xlink:href="#discardPile_svg__b" transform="translate(28.562 65.85)" width="100%" height="100%"/><use height="100%" width="100%" transform="translate(29.62 65.85)" xlink:href="#discardPile_svg__b"/><use xlink:href="#discardPile_svg__b" transform="translate(30.677 65.85)" width="100%" height="100%"/><use height="100%" width="100%" transform="translate(31.735 65.85)" xlink:href="#discardPile_svg__b"/><use xlink:href="#discardPile_svg__b" transform="translate(32.793 65.85)" width="100%" height="100%"/><use height="100%" width="100%" transform="translate(33.851 65.85)" xlink:href="#discardPile_svg__b"/><use xlink:href="#discardPile_svg__b" transform="translate(34.909 65.85)" width="100%" height="100%"/><use height="100%" width="100%" transform="translate(35.967 65.85)" xlink:href="#discardPile_svg__b"/><use xlink:href="#discardPile_svg__b" transform="translate(37.024 65.85)" width="100%" height="100%"/><use height="100%" width="100%" transform="translate(38.082 65.85)" xlink:href="#discardPile_svg__b"/><use xlink:href="#discardPile_svg__b" transform="translate(39.14 65.85)" width="100%" height="100%"/><use xlink:href="#discardPile_svg__b" transform="translate(40.198 65.85)" width="100%" height="100%"/><use height="100%" width="100%" transform="translate(41.256 65.85)" xlink:href="#discardPile_svg__b"/><use xlink:href="#discardPile_svg__b" transform="translate(42.314 65.85)" width="100%" height="100%"/><use height="100%" width="100%" transform="translate(43.372 65.85)" xlink:href="#discardPile_svg__b"/><use xlink:href="#discardPile_svg__b" transform="translate(0 65.85)" width="100%" height="100%"/></g><g transform="translate(.158 .22)"><use height="100%" width="100%" transform="translate(45.586 2.387)" xlink:href="#discardPile_svg__b"/><use xlink:href="#discardPile_svg__b" transform="translate(45.586 3.445)" width="100%" height="100%"/><use height="100%" width="100%" transform="translate(45.586 4.503)" xlink:href="#discardPile_svg__b"/><use xlink:href="#discardPile_svg__b" transform="translate(45.586 5.56)" width="100%" height="100%"/><use height="100%" width="100%" transform="translate(45.586 6.618)" xlink:href="#discardPile_svg__b"/><use xlink:href="#discardPile_svg__b" transform="translate(45.586 7.676)" width="100%" height="100%"/><use height="100%" width="100%" transform="translate(45.586 8.734)" xlink:href="#discardPile_svg__b"/><use xlink:href="#discardPile_svg__b" transform="translate(45.586 9.792)" width="100%" height="100%"/><use height="100%" width="100%" transform="translate(45.586 10.85)" xlink:href="#discardPile_svg__b"/><use xlink:href="#discardPile_svg__b" transform="translate(45.586 11.907)" width="100%" height="100%"/><use height="100%" width="100%" transform="translate(45.586 12.965)" xlink:href="#discardPile_svg__b"/><use xlink:href="#discardPile_svg__b" transform="translate(45.586 14.023)" width="100%" height="100%"/><use height="100%" width="100%" transform="translate(45.586 15.081)" xlink:href="#discardPile_svg__b"/><use xlink:href="#discardPile_svg__b" transform="translate(45.586 16.139)" width="100%" height="100%"/><use height="100%" width="100%" transform="translate(45.586 17.197)" xlink:href="#discardPile_svg__b"/><use xlink:href="#discardPile_svg__b" transform="translate(45.586 18.254)" width="100%" height="100%"/><use height="100%" width="100%" transform="translate(45.586 19.312)" xlink:href="#discardPile_svg__b"/><use xlink:href="#discardPile_svg__b" transform="translate(45.586 20.37)" width="100%" height="100%"/><use height="100%" width="100%" transform="translate(45.586 21.428)" xlink:href="#discardPile_svg__b"/><use xlink:href="#discardPile_svg__b" transform="translate(45.586 22.486)" width="100%" height="100%"/><use height="100%" width="100%" transform="translate(45.586 23.544)" xlink:href="#discardPile_svg__b"/><use xlink:href="#discardPile_svg__b" transform="translate(45.586 24.601)" width="100%" height="100%"/><use height="100%" width="100%" transform="translate(45.586 25.66)" xlink:href="#discardPile_svg__b"/><use xlink:href="#discardPile_svg__b" transform="translate(45.586 26.717)" width="100%" height="100%"/><use height="100%" width="100%" transform="translate(45.586 27.775)" xlink:href="#discardPile_svg__b"/><use xlink:href="#discardPile_svg__b" transform="translate(45.586 28.833)" width="100%" height="100%"/><use height="100%" width="100%" transform="translate(45.586 29.89)" xlink:href="#discardPile_svg__b"/><use xlink:href="#discardPile_svg__b" transform="translate(45.586 30.948)" width="100%" height="100%"/><use height="100%" width="100%" transform="translate(45.586 32.006)" xlink:href="#discardPile_svg__b"/><use xlink:href="#discardPile_svg__b" transform="translate(45.586 33.064)" width="100%" height="100%"/><use height="100%" width="100%" transform="translate(45.586 34.122)" xlink:href="#discardPile_svg__b"/><use xlink:href="#discardPile_svg__b" transform="translate(45.586 35.18)" width="100%" height="100%"/><use height="100%" width="100%" transform="translate(45.586 36.237)" xlink:href="#discardPile_svg__b"/><use xlink:href="#discardPile_svg__b" transform="translate(45.586 37.295)" width="100%" height="100%"/><use height="100%" width="100%" transform="translate(45.586 38.353)" xlink:href="#discardPile_svg__b"/><use xlink:href="#discardPile_svg__b" transform="translate(45.586 39.41)" width="100%" height="100%"/><use height="100%" width="100%" transform="translate(45.586 40.469)" xlink:href="#discardPile_svg__b"/><use xlink:href="#discardPile_svg__b" transform="translate(45.586 41.527)" width="100%" height="100%"/><use height="100%" width="100%" transform="translate(45.586 42.584)" xlink:href="#discardPile_svg__b"/><use xlink:href="#discardPile_svg__b" transform="translate(45.586 43.642)" width="100%" height="100%"/><use height="100%" width="100%" transform="translate(45.586 44.7)" xlink:href="#discardPile_svg__b"/><use xlink:href="#discardPile_svg__b" transform="translate(45.586 45.758)" width="100%" height="100%"/><use height="100%" width="100%" transform="translate(45.586 46.816)" xlink:href="#discardPile_svg__b"/><use xlink:href="#discardPile_svg__b" transform="translate(45.586 47.873)" width="100%" height="100%"/><use height="100%" width="100%" transform="translate(45.586 48.931)" xlink:href="#discardPile_svg__b"/><use xlink:href="#discardPile_svg__b" transform="translate(45.586 49.99)" width="100%" height="100%"/><use height="100%" width="100%" transform="translate(45.586 51.047)" xlink:href="#discardPile_svg__b"/><use xlink:href="#discardPile_svg__b" transform="translate(45.586 52.105)" width="100%" height="100%"/><use height="100%" width="100%" transform="translate(45.586 53.163)" xlink:href="#discardPile_svg__b"/><use xlink:href="#discardPile_svg__b" transform="translate(45.586 54.22)" width="100%" height="100%"/><use height="100%" width="100%" transform="translate(45.586 55.278)" xlink:href="#discardPile_svg__b"/><use xlink:href="#discardPile_svg__b" transform="translate(45.586 56.336)" width="100%" height="100%"/><use height="100%" width="100%" transform="translate(45.586 57.394)" xlink:href="#discardPile_svg__b"/><use xlink:href="#discardPile_svg__b" transform="translate(45.586 58.452)" width="100%" height="100%"/><use height="100%" width="100%" transform="translate(45.586 59.51)" xlink:href="#discardPile_svg__b"/><use xlink:href="#discardPile_svg__b" transform="translate(45.586 60.567)" width="100%" height="100%"/><use height="100%" width="100%" transform="translate(45.586 61.625)" xlink:href="#discardPile_svg__b"/><use xlink:href="#discardPile_svg__b" transform="translate(45.586 62.683)" width="100%" height="100%"/><use height="100%" width="100%" transform="translate(45.586 63.74)" xlink:href="#discardPile_svg__b"/></g><g transform="translate(.158 .22)"><use height="100%" width="100%" transform="translate(-1.368 1.344)" xlink:href="#discardPile_svg__b"/><use xlink:href="#discardPile_svg__b" transform="translate(-.699 .476)" width="100%" height="100%"/></g><g transform="matrix(-1 0 0 1 158.389 .22)"><use xlink:href="#discardPile_svg__b" transform="translate(-1.368 1.344)" width="100%" height="100%"/><use height="100%" width="100%" transform="translate(-.699 .476)" xlink:href="#discardPile_svg__b"/></g><g transform="rotate(-180 79.194 179.71)"><use height="100%" width="100%" transform="translate(-1.368 1.344)" xlink:href="#discardPile_svg__b"/><use xlink:href="#discardPile_svg__b" transform="translate(-.699 .476)" width="100%" height="100%"/></g><circle transform="scale(1 -1)" r=".4" cy="-211.293" cx="55.762"/><circle transform="scale(1 -1)" r=".4" cy="-212.161" cx="56.431"/></g></g><g fill="#e66443" font-weight="900" font-family="EskapadeFrakturW04-Black" letter-spacing="0" word-spacing="0"><path d="m40.74 57.881-.392.874.643.035v3.847h.818V60.93l1.597-.748a3.576 3.576 0 0 0 0-.776 4.627 4.627 0 0 0-.125-.805 2.803 2.803 0 0 0-.175-.538zm1.069.977.648.044c.065.182.05.28.078.541.033.261.04.367.02.568l-.746.287zm3.874-.704v4.497h-.88v-3.749l-.566-.112.44-.909zm5.105-.273-.759 1.199v2.739l.546.762 1.742.098.293-.69-1.64-.09v-1.262h1.137V59.9H50.97v-1.258l1.36.165.321-.696z" style="line-height:1.25;-inkscape-font-specification:'EskapadeFrakturW04-Black, Heavy';font-variant-ligatures:normal;font-variant-caps:normal;font-variant-numeric:normal;font-feature-settings:normal;text-align:start" font-size="11.289"/><path d="m46.893 58.01-.441.745.567.112v3.095l.538.598 1.347.091.266-.78-1.29-.077v-3.511z" style="line-height:1.25;-inkscape-font-specification:'EskapadeFrakturW04-Black, Heavy';font-variant-ligatures:normal;font-variant-caps:normal;font-variant-numeric:normal;font-feature-settings:normal;text-align:start" font-size="42.667"/></g><g transform="translate(-32.362 -123.9)" fill="#e66443"><circle r=".289" cy="180.191" cx="66.224" id="discardPile_svg__c" opacity="1" vector-effect="none" fill="#e66443" fill-opacity="1" stroke="none" stroke-width="1.058" stroke-linecap="round" stroke-linejoin="miter" stroke-miterlimit="4" stroke-dasharray="none" stroke-dashoffset="0" stroke-opacity="1" paint-order="normal"/><use height="100%" width="100%" transform="translate(1.053)" id="discardPile_svg__d" xlink:href="#discardPile_svg__c" y="0" x="0" fill="#e66443" fill-opacity="1"/><use height="100%" width="100%" transform="translate(1.053)" id="discardPile_svg__e" xlink:href="#discardPile_svg__d" y="0" x="0" fill="#e66443" fill-opacity="1"/><use height="100%" width="100%" transform="translate(1.053)" id="discardPile_svg__f" xlink:href="#discardPile_svg__e" y="0" x="0" fill="#e66443" fill-opacity="1"/><use height="100%" width="100%" transform="translate(1.053)" id="discardPile_svg__g" xlink:href="#discardPile_svg__f" y="0" x="0" fill="#e66443" fill-opacity="1"/><use height="100%" width="100%" transform="translate(1.053)" id="discardPile_svg__h" xlink:href="#discardPile_svg__g" y="0" x="0" fill="#e66443" fill-opacity="1"/><use height="100%" width="100%" transform="translate(1.053)" id="discardPile_svg__i" xlink:href="#discardPile_svg__h" y="0" x="0" fill="#e66443" fill-opacity="1"/><use height="100%" width="100%" transform="translate(1.053)" id="discardPile_svg__j" xlink:href="#discardPile_svg__i" y="0" x="0" fill="#e66443" fill-opacity="1"/><use height="100%" width="100%" transform="translate(1.053)" id="discardPile_svg__k" xlink:href="#discardPile_svg__j" y="0" x="0" fill="#e66443" fill-opacity="1"/><use height="100%" width="100%" transform="translate(1.053)" id="discardPile_svg__l" xlink:href="#discardPile_svg__k" y="0" x="0" fill="#e66443" fill-opacity="1"/><use height="100%" width="100%" transform="translate(1.053)" id="discardPile_svg__m" xlink:href="#discardPile_svg__l" y="0" x="0" fill="#e66443" fill-opacity="1"/><use height="100%" width="100%" transform="translate(1.053)" id="discardPile_svg__n" xlink:href="#discardPile_svg__m" y="0" x="0" fill="#e66443" fill-opacity="1"/><use height="100%" width="100%" transform="translate(1.053)" id="discardPile_svg__o" xlink:href="#discardPile_svg__n" y="0" x="0" fill="#e66443" fill-opacity="1"/><use height="100%" width="100%" transform="translate(1.053)" id="discardPile_svg__p" xlink:href="#discardPile_svg__o" y="0" x="0" fill="#e66443" fill-opacity="1"/><use height="100%" width="100%" transform="translate(1.053)" id="discardPile_svg__q" xlink:href="#discardPile_svg__p" y="0" x="0" fill="#e66443" fill-opacity="1"/><use height="100%" width="100%" transform="translate(1.053)" id="discardPile_svg__r" xlink:href="#discardPile_svg__q" y="0" x="0" fill="#e66443" fill-opacity="1"/><use height="100%" width="100%" transform="translate(1.053)" id="discardPile_svg__s" xlink:href="#discardPile_svg__r" y="0" x="0" fill="#e66443" fill-opacity="1"/><use height="100%" width="100%" transform="translate(1.053)" id="discardPile_svg__t" xlink:href="#discardPile_svg__s" y="0" x="0" fill="#e66443" fill-opacity="1"/><use height="100%" width="100%" transform="translate(1.053)" id="discardPile_svg__u" xlink:href="#discardPile_svg__t" y="0" x="0" fill="#e66443" fill-opacity="1"/><use height="100%" width="100%" transform="translate(1.053)" id="discardPile_svg__v" xlink:href="#discardPile_svg__u" y="0" x="0" fill="#e66443" fill-opacity="1"/><use height="100%" width="100%" transform="translate(1.053)" id="discardPile_svg__w" xlink:href="#discardPile_svg__v" y="0" x="0" fill="#e66443" fill-opacity="1"/><use height="100%" width="100%" transform="translate(1.053)" id="discardPile_svg__x" xlink:href="#discardPile_svg__w" y="0" x="0" fill="#e66443" fill-opacity="1"/><use height="100%" width="100%" transform="translate(1.053)" id="discardPile_svg__y" xlink:href="#discardPile_svg__x" y="0" x="0" fill="#e66443" fill-opacity="1"/><use height="100%" width="100%" transform="translate(1.053)" id="discardPile_svg__z" xlink:href="#discardPile_svg__y" y="0" x="0" fill="#e66443" fill-opacity="1"/><use height="100%" width="100%" transform="translate(1.053)" xlink:href="#discardPile_svg__z"/></g><text style="line-height:1.25;-inkscape-font-specification:'Futura-Bold, Medium';font-variant-ligatures:normal;font-variant-caps:normal;font-variant-numeric:normal;font-feature-settings:normal;text-align:start" x="66.582" y="220.346" font-weight="500" font-size="4.054" font-family="Futura-Bold" letter-spacing=".325" word-spacing="0" fill="#fff" stroke-width=".1" stroke-linejoin="round" transform="translate(-32.759 -123.9)"><tspan x="66.582" y="220.346" style="-inkscape-font-specification:'Futura-Bold, Medium';font-variant-ligatures:normal;font-variant-caps:normal;font-variant-numeric:normal;font-feature-settings:normal;text-align:start">DISCARD 2</tspan></text><g fill="#e66443" font-weight="900" font-family="EskapadeFrakturW04-Black" letter-spacing="0" word-spacing="0"><path style="line-height:1.25;-inkscape-font-specification:'EskapadeFrakturW04-Black, Heavy';font-variant-ligatures:normal;font-variant-caps:normal;font-variant-numeric:normal;font-feature-settings:normal;text-align:start" d="m34.23 49.856-.533.902.651.098v2.714l-.44-.05-.28.917 2.671.294c.27-.261.495-.525.672-.79.182-.266.312-.504.391-.714a3.484 3.484 0 0 0 .245-1.196c0-.275-.037-.545-.112-.811a2.316 2.316 0 0 0-.643-1.127h-1.35zm.935 1.112h.883c.167.186.293.41.377.671.089.261.133.548.133.86 0 .332-.025.595-.077.791a2.508 2.508 0 0 1-.174.51l-1.142-.09zm16.289-1.112-.399.75.644.035v3.847h.879v-3.783l.407.041c.122.327.182.697.182 1.112l-.771.569v.108l.624.505.462 1.322.986.21.262-.723-.468-.091-.476-1.005-.381-.459.723-.412a7.326 7.326 0 0 0-.07-1.164c-.056-.312-.136-.456-.238-.68z" font-size="11.289"/><path d="m48.46 49.856-.798 1.483v1.384h-.384v.567h.384v1.406h.862V53.29h.846v1.294l.882.189.427-.93-.448-.07v-2.567l-.336-1.147zm.064 1.015.846.16v1.692h-.846z" style="line-height:1.25;-inkscape-font-specification:'EskapadeFrakturW04-Black, Heavy';font-variant-ligatures:normal;font-variant-caps:normal;font-variant-numeric:normal;font-feature-settings:normal;text-align:start" font-size="42.667"/><path d="M39.418 50.129v4.497h-.879v-3.749l-.567-.112.441-.91zm1.027 4.357.252-.863 1.399.182c.046-.224.049-.758.007-.981l-1.567-.679c-.01-.22-.007-.33.007-.582.018-.257.053-.47.105-.637.074-.112.18-.245.314-.399.136-.158.273-.293.413-.405a2.9 2.9 0 0 1 .378-.266l1.308.175-.406.835-1.07-.175c-.075.182-.098.68-.07.877l1.504.622c.037.224.051.354.042.639-.01.28-.04.531-.091.755-.308.462-.646.82-1.014 1.077z" style="line-height:1.25;-inkscape-font-specification:'EskapadeFrakturW04-Black, Heavy';font-variant-ligatures:normal;font-variant-caps:normal;font-variant-numeric:normal;font-feature-settings:normal;text-align:start" font-size="11.289"/><g style="line-height:1.25;-inkscape-font-specification:'EskapadeFrakturW04-Black, Heavy';font-variant-ligatures:normal;font-variant-caps:normal;font-variant-numeric:normal;font-feature-settings:normal;text-align:start"><path style="-inkscape-font-specification:'EskapadeFrakturW04-Black, Heavy';font-variant-ligatures:normal;font-variant-caps:normal;font-variant-numeric:normal;font-feature-settings:normal;text-align:start" d="M45.34 49.856c-.219.14-.463.359-.734.657-.27.294-.468.558-.594.79-.094.453-.14.842-.14 1.169 0 .755.095 1.413.287 1.972l1.95.19.309-.98-1.731-.113c-.137-.587-.082-1.553-.082-1.944 0-.237.21-.405.256-.503.047-.103.29-.175.36-.217l.994.154.406-1.007z" aria-label="C" font-size="11.289"/></g><path d="m55.994 49.856-.532.902.65.098v2.714l-.44-.049-.28.916 2.672.294c.27-.261.495-.525.672-.79.182-.266.312-.504.391-.714a3.483 3.483 0 0 0 .245-1.196 2.99 2.99 0 0 0-.112-.811 2.316 2.316 0 0 0-.643-1.127h-1.35zm.936 1.112h.882c.168.186.294.41.378.671.089.261.133.548.133.86 0 .332-.025.595-.077.791a2.51 2.51 0 0 1-.175.51l-1.141-.09z" style="line-height:1.25;-inkscape-font-specification:'EskapadeFrakturW04-Black, Heavy';font-variant-ligatures:normal;font-variant-caps:normal;font-variant-numeric:normal;font-feature-settings:normal;text-align:start" font-size="11.289"/></g></svg>