<svg xmlns:xlink="http://www.w3.org/1999/xlink" width="1598.877" height="170mm" viewBox="0 0 423.036 170"><g transform="translate(562.5 -193.987)"><path fill="#363835" d="M-552.499 203.987h403.036v150h-403.036z"/><path fill="#363835" d="M-547.499 208.987h393.036v140h-393.036z"/><circle id="liberalBoardBack_svg__a" cx="-535.991" cy="219.773" r="2.503" display="inline" opacity="1" vector-effect="none" fill="#61c8d9" fill-opacity="1" stroke="none" stroke-width=".2" stroke-linecap="round" stroke-linejoin="miter" stroke-miterlimit="4" stroke-dasharray="none" stroke-dashoffset="0" stroke-opacity="1" paint-order="normal"/><use xlink:href="#liberalBoardBack_svg__a" transform="translate(4.348)" width="100%" height="100%"/><use height="100%" width="100%" transform="translate(8.696)" xlink:href="#liberalBoardBack_svg__a"/><use xlink:href="#liberalBoardBack_svg__a" transform="translate(13.044)" width="100%" height="100%"/><use height="100%" width="100%" transform="translate(17.392)" xlink:href="#liberalBoardBack_svg__a"/><use height="100%" width="100%" transform="translate(21.74)" xlink:href="#liberalBoardBack_svg__a"/><use xlink:href="#liberalBoardBack_svg__a" transform="translate(26.087)" width="100%" height="100%"/><use height="100%" width="100%" transform="translate(30.435)" xlink:href="#liberalBoardBack_svg__a"/><use xlink:href="#liberalBoardBack_svg__a" transform="translate(34.783)" width="100%" height="100%"/><use xlink:href="#liberalBoardBack_svg__a" transform="translate(39.131)" width="100%" height="100%"/><use height="100%" width="100%" transform="translate(43.479)" xlink:href="#liberalBoardBack_svg__a"/><use xlink:href="#liberalBoardBack_svg__a" transform="translate(47.827)" width="100%" height="100%"/><use height="100%" width="100%" transform="translate(52.175)" xlink:href="#liberalBoardBack_svg__a"/><use height="100%" width="100%" transform="translate(56.523)" xlink:href="#liberalBoardBack_svg__a"/><use xlink:href="#liberalBoardBack_svg__a" transform="translate(60.87)" width="100%" height="100%"/><use height="100%" width="100%" transform="translate(65.218)" xlink:href="#liberalBoardBack_svg__a"/><use xlink:href="#liberalBoardBack_svg__a" transform="translate(69.566)" width="100%" height="100%"/><use xlink:href="#liberalBoardBack_svg__a" transform="translate(73.914)" width="100%" height="100%"/><use height="100%" width="100%" transform="translate(78.262)" xlink:href="#liberalBoardBack_svg__a"/><use xlink:href="#liberalBoardBack_svg__a" transform="translate(82.61)" width="100%" height="100%"/><use height="100%" width="100%" transform="translate(86.958)" xlink:href="#liberalBoardBack_svg__a"/><use height="100%" width="100%" transform="translate(91.306)" xlink:href="#liberalBoardBack_svg__a"/><use xlink:href="#liberalBoardBack_svg__a" transform="translate(95.654)" width="100%" height="100%"/><use height="100%" width="100%" transform="translate(100.001)" xlink:href="#liberalBoardBack_svg__a"/><use xlink:href="#liberalBoardBack_svg__a" transform="translate(104.35)" width="100%" height="100%"/><use height="100%" width="100%" transform="translate(108.697)" xlink:href="#liberalBoardBack_svg__a"/><use xlink:href="#liberalBoardBack_svg__a" transform="translate(113.045)" width="100%" height="100%"/><use height="100%" width="100%" transform="translate(117.393)" xlink:href="#liberalBoardBack_svg__a"/><use xlink:href="#liberalBoardBack_svg__a" transform="translate(121.74)" width="100%" height="100%"/><use xlink:href="#liberalBoardBack_svg__a" transform="translate(126.089)" width="100%" height="100%"/><use height="100%" width="100%" transform="translate(130.437)" xlink:href="#liberalBoardBack_svg__a"/><use xlink:href="#liberalBoardBack_svg__a" transform="translate(134.785)" width="100%" height="100%"/><use height="100%" width="100%" transform="translate(139.132)" xlink:href="#liberalBoardBack_svg__a"/><use height="100%" width="100%" transform="translate(143.48)" xlink:href="#liberalBoardBack_svg__a"/><use xlink:href="#liberalBoardBack_svg__a" transform="translate(147.828)" width="100%" height="100%"/><use height="100%" width="100%" transform="translate(152.176)" xlink:href="#liberalBoardBack_svg__a"/><use xlink:href="#liberalBoardBack_svg__a" transform="translate(156.524)" width="100%" height="100%"/><use xlink:href="#liberalBoardBack_svg__a" transform="translate(160.872)" width="100%" height="100%"/><use height="100%" width="100%" transform="translate(165.22)" xlink:href="#liberalBoardBack_svg__a"/><use xlink:href="#liberalBoardBack_svg__a" transform="translate(169.568)" width="100%" height="100%"/><use height="100%" width="100%" transform="translate(173.916)" xlink:href="#liberalBoardBack_svg__a"/><use height="100%" width="100%" transform="translate(178.263)" xlink:href="#liberalBoardBack_svg__a"/><use xlink:href="#liberalBoardBack_svg__a" transform="translate(182.611)" width="100%" height="100%"/><use height="100%" width="100%" transform="translate(186.96)" xlink:href="#liberalBoardBack_svg__a"/><use xlink:href="#liberalBoardBack_svg__a" transform="translate(191.307)" width="100%" height="100%"/><use xlink:href="#liberalBoardBack_svg__a" transform="translate(195.655)" width="100%" height="100%"/><use height="100%" width="100%" transform="translate(200.003)" xlink:href="#liberalBoardBack_svg__a"/><use xlink:href="#liberalBoardBack_svg__a" transform="translate(204.35)" width="100%" height="100%"/><use height="100%" width="100%" transform="translate(208.699)" xlink:href="#liberalBoardBack_svg__a"/><use xlink:href="#liberalBoardBack_svg__a" transform="translate(213.047)" width="100%" height="100%"/><use height="100%" width="100%" transform="translate(217.394)" xlink:href="#liberalBoardBack_svg__a"/><use xlink:href="#liberalBoardBack_svg__a" transform="translate(221.742)" width="100%" height="100%"/><use height="100%" width="100%" transform="translate(226.09)" xlink:href="#liberalBoardBack_svg__a"/><use height="100%" width="100%" transform="translate(230.438)" xlink:href="#liberalBoardBack_svg__a"/><use xlink:href="#liberalBoardBack_svg__a" transform="translate(234.786)" width="100%" height="100%"/><use height="100%" width="100%" transform="translate(239.134)" xlink:href="#liberalBoardBack_svg__a"/><use xlink:href="#liberalBoardBack_svg__a" transform="translate(243.482)" width="100%" height="100%"/><use xlink:href="#liberalBoardBack_svg__a" transform="translate(247.83)" width="100%" height="100%"/><use height="100%" width="100%" transform="translate(252.178)" xlink:href="#liberalBoardBack_svg__a"/><use xlink:href="#liberalBoardBack_svg__a" transform="translate(256.525)" width="100%" height="100%"/><use height="100%" width="100%" transform="translate(260.873)" xlink:href="#liberalBoardBack_svg__a"/><use height="100%" width="100%" transform="translate(265.221)" xlink:href="#liberalBoardBack_svg__a"/><use xlink:href="#liberalBoardBack_svg__a" transform="translate(269.57)" width="100%" height="100%"/><use height="100%" width="100%" transform="translate(273.917)" xlink:href="#liberalBoardBack_svg__a"/><use xlink:href="#liberalBoardBack_svg__a" transform="translate(278.265)" width="100%" height="100%"/><use xlink:href="#liberalBoardBack_svg__a" transform="translate(282.613)" width="100%" height="100%"/><use height="100%" width="100%" transform="translate(286.96)" xlink:href="#liberalBoardBack_svg__a"/><use xlink:href="#liberalBoardBack_svg__a" transform="translate(291.309)" width="100%" height="100%"/><use height="100%" width="100%" transform="translate(295.656)" xlink:href="#liberalBoardBack_svg__a"/><use height="100%" width="100%" transform="translate(300.004)" xlink:href="#liberalBoardBack_svg__a"/><use xlink:href="#liberalBoardBack_svg__a" transform="translate(304.352)" width="100%" height="100%"/><use height="100%" width="100%" transform="translate(308.7)" xlink:href="#liberalBoardBack_svg__a"/><use xlink:href="#liberalBoardBack_svg__a" transform="translate(313.048)" width="100%" height="100%"/><use xlink:href="#liberalBoardBack_svg__a" transform="translate(317.396)" width="100%" height="100%"/><use height="100%" width="100%" transform="translate(321.744)" xlink:href="#liberalBoardBack_svg__a"/><use height="100%" width="100%" transform="translate(326.092)" xlink:href="#liberalBoardBack_svg__a"/><use xlink:href="#liberalBoardBack_svg__a" transform="translate(330.44)" width="100%" height="100%"/><use height="100%" width="100%" transform="translate(334.787)" xlink:href="#liberalBoardBack_svg__a"/><use xlink:href="#liberalBoardBack_svg__a" transform="translate(339.135)" width="100%" height="100%"/><use height="100%" width="100%" transform="translate(343.483)" xlink:href="#liberalBoardBack_svg__a"/><use xlink:href="#liberalBoardBack_svg__a" transform="translate(347.831)" width="100%" height="100%"/><use height="100%" width="100%" transform="translate(352.179)" xlink:href="#liberalBoardBack_svg__a"/><use xlink:href="#liberalBoardBack_svg__a" transform="translate(356.527)" width="100%" height="100%"/><use xlink:href="#liberalBoardBack_svg__a" transform="translate(360.875)" width="100%" height="100%"/><use height="100%" width="100%" transform="translate(365.223)" xlink:href="#liberalBoardBack_svg__a"/><use xlink:href="#liberalBoardBack_svg__a" transform="translate(369.57)" width="100%" height="100%"/><use height="100%" width="100%" transform="translate(4.348 117.39)" xlink:href="#liberalBoardBack_svg__a"/><use xlink:href="#liberalBoardBack_svg__a" transform="translate(8.696 117.39)" width="100%" height="100%"/><use height="100%" width="100%" transform="translate(13.044 117.39)" xlink:href="#liberalBoardBack_svg__a"/><use xlink:href="#liberalBoardBack_svg__a" transform="translate(17.392 117.39)" width="100%" height="100%"/><use xlink:href="#liberalBoardBack_svg__a" transform="translate(21.74 117.39)" width="100%" height="100%"/><use height="100%" width="100%" transform="translate(26.087 117.39)" xlink:href="#liberalBoardBack_svg__a"/><use xlink:href="#liberalBoardBack_svg__a" transform="translate(30.435 117.39)" width="100%" height="100%"/><use height="100%" width="100%" transform="translate(34.783 117.39)" xlink:href="#liberalBoardBack_svg__a"/><use height="100%" width="100%" transform="translate(39.131 117.39)" xlink:href="#liberalBoardBack_svg__a"/><use xlink:href="#liberalBoardBack_svg__a" transform="translate(43.479 117.39)" width="100%" height="100%"/><use height="100%" width="100%" transform="translate(47.827 117.39)" xlink:href="#liberalBoardBack_svg__a"/><use xlink:href="#liberalBoardBack_svg__a" transform="translate(52.175 117.39)" width="100%" height="100%"/><use xlink:href="#liberalBoardBack_svg__a" transform="translate(56.523 117.39)" width="100%" height="100%"/><use height="100%" width="100%" transform="translate(60.87 117.39)" xlink:href="#liberalBoardBack_svg__a"/><use xlink:href="#liberalBoardBack_svg__a" transform="translate(65.218 117.39)" width="100%" height="100%"/><use height="100%" width="100%" transform="translate(69.566 117.39)" xlink:href="#liberalBoardBack_svg__a"/><use height="100%" width="100%" transform="translate(73.914 117.39)" xlink:href="#liberalBoardBack_svg__a"/><use xlink:href="#liberalBoardBack_svg__a" transform="translate(78.262 117.39)" width="100%" height="100%"/><use height="100%" width="100%" transform="translate(82.61 117.39)" xlink:href="#liberalBoardBack_svg__a"/><use xlink:href="#liberalBoardBack_svg__a" transform="translate(86.958 117.39)" width="100%" height="100%"/><use xlink:href="#liberalBoardBack_svg__a" transform="translate(91.306 117.39)" width="100%" height="100%"/><use height="100%" width="100%" transform="translate(95.654 117.39)" xlink:href="#liberalBoardBack_svg__a"/><use xlink:href="#liberalBoardBack_svg__a" transform="translate(100.001 117.39)" width="100%" height="100%"/><use height="100%" width="100%" transform="translate(104.35 117.39)" xlink:href="#liberalBoardBack_svg__a"/><use xlink:href="#liberalBoardBack_svg__a" transform="translate(108.697 117.39)" width="100%" height="100%"/><use height="100%" width="100%" transform="translate(113.045 117.39)" xlink:href="#liberalBoardBack_svg__a"/><use xlink:href="#liberalBoardBack_svg__a" transform="translate(117.393 117.39)" width="100%" height="100%"/><use height="100%" width="100%" transform="translate(121.74 117.39)" xlink:href="#liberalBoardBack_svg__a"/><use height="100%" width="100%" transform="translate(126.089 117.39)" xlink:href="#liberalBoardBack_svg__a"/><use xlink:href="#liberalBoardBack_svg__a" transform="translate(130.437 117.39)" width="100%" height="100%"/><use height="100%" width="100%" transform="translate(134.785 117.39)" xlink:href="#liberalBoardBack_svg__a"/><use xlink:href="#liberalBoardBack_svg__a" transform="translate(139.132 117.39)" width="100%" height="100%"/><use xlink:href="#liberalBoardBack_svg__a" transform="translate(143.48 117.39)" width="100%" height="100%"/><use height="100%" width="100%" transform="translate(147.828 117.39)" xlink:href="#liberalBoardBack_svg__a"/><use xlink:href="#liberalBoardBack_svg__a" transform="translate(152.176 117.39)" width="100%" height="100%"/><use height="100%" width="100%" transform="translate(156.524 117.39)" xlink:href="#liberalBoardBack_svg__a"/><use height="100%" width="100%" transform="translate(160.872 117.39)" xlink:href="#liberalBoardBack_svg__a"/><use xlink:href="#liberalBoardBack_svg__a" transform="translate(165.22 117.39)" width="100%" height="100%"/><use height="100%" width="100%" transform="translate(169.568 117.39)" xlink:href="#liberalBoardBack_svg__a"/><use xlink:href="#liberalBoardBack_svg__a" transform="translate(173.916 117.39)" width="100%" height="100%"/><use xlink:href="#liberalBoardBack_svg__a" transform="translate(178.263 117.39)" width="100%" height="100%"/><use height="100%" width="100%" transform="translate(182.611 117.39)" xlink:href="#liberalBoardBack_svg__a"/><use xlink:href="#liberalBoardBack_svg__a" transform="translate(186.96 117.39)" width="100%" height="100%"/><use height="100%" width="100%" transform="translate(191.307 117.39)" xlink:href="#liberalBoardBack_svg__a"/><use height="100%" width="100%" transform="translate(195.655 117.39)" xlink:href="#liberalBoardBack_svg__a"/><use xlink:href="#liberalBoardBack_svg__a" transform="translate(200.003 117.39)" width="100%" height="100%"/><use height="100%" width="100%" transform="translate(204.35 117.39)" xlink:href="#liberalBoardBack_svg__a"/><use xlink:href="#liberalBoardBack_svg__a" transform="translate(208.699 117.39)" width="100%" height="100%"/><use height="100%" width="100%" transform="translate(213.047 117.39)" xlink:href="#liberalBoardBack_svg__a"/><use xlink:href="#liberalBoardBack_svg__a" transform="translate(217.394 117.39)" width="100%" height="100%"/><use height="100%" width="100%" transform="translate(221.742 117.39)" xlink:href="#liberalBoardBack_svg__a"/><use xlink:href="#liberalBoardBack_svg__a" transform="translate(226.09 117.39)" width="100%" height="100%"/><use xlink:href="#liberalBoardBack_svg__a" transform="translate(230.438 117.39)" width="100%" height="100%"/><use height="100%" width="100%" transform="translate(234.786 117.39)" xlink:href="#liberalBoardBack_svg__a"/><use xlink:href="#liberalBoardBack_svg__a" transform="translate(239.134 117.39)" width="100%" height="100%"/><use height="100%" width="100%" transform="translate(243.482 117.39)" xlink:href="#liberalBoardBack_svg__a"/><use height="100%" width="100%" transform="translate(247.83 117.39)" xlink:href="#liberalBoardBack_svg__a"/><use xlink:href="#liberalBoardBack_svg__a" transform="translate(252.178 117.39)" width="100%" height="100%"/><use height="100%" width="100%" transform="translate(256.525 117.39)" xlink:href="#liberalBoardBack_svg__a"/><use xlink:href="#liberalBoardBack_svg__a" transform="translate(260.873 117.39)" width="100%" height="100%"/><use xlink:href="#liberalBoardBack_svg__a" transform="translate(265.221 117.39)" width="100%" height="100%"/><use height="100%" width="100%" transform="translate(269.57 117.39)" xlink:href="#liberalBoardBack_svg__a"/><use xlink:href="#liberalBoardBack_svg__a" transform="translate(273.917 117.39)" width="100%" height="100%"/><use height="100%" width="100%" transform="translate(278.265 117.39)" xlink:href="#liberalBoardBack_svg__a"/><use height="100%" width="100%" transform="translate(282.613 117.39)" xlink:href="#liberalBoardBack_svg__a"/><use xlink:href="#liberalBoardBack_svg__a" transform="translate(286.96 117.39)" width="100%" height="100%"/><use height="100%" width="100%" transform="translate(291.309 117.39)" xlink:href="#liberalBoardBack_svg__a"/><use xlink:href="#liberalBoardBack_svg__a" transform="translate(295.656 117.39)" width="100%" height="100%"/><use xlink:href="#liberalBoardBack_svg__a" transform="translate(300.004 117.39)" width="100%" height="100%"/><use height="100%" width="100%" transform="translate(304.352 117.39)" xlink:href="#liberalBoardBack_svg__a"/><use xlink:href="#liberalBoardBack_svg__a" transform="translate(308.7 117.39)" width="100%" height="100%"/><use height="100%" width="100%" transform="translate(313.048 117.39)" xlink:href="#liberalBoardBack_svg__a"/><use height="100%" width="100%" transform="translate(317.396 117.39)" xlink:href="#liberalBoardBack_svg__a"/><use xlink:href="#liberalBoardBack_svg__a" transform="translate(321.744 117.39)" width="100%" height="100%"/><use xlink:href="#liberalBoardBack_svg__a" transform="translate(326.092 117.39)" width="100%" height="100%"/><use height="100%" width="100%" transform="translate(330.44 117.39)" xlink:href="#liberalBoardBack_svg__a"/><use xlink:href="#liberalBoardBack_svg__a" transform="translate(334.787 117.39)" width="100%" height="100%"/><use height="100%" width="100%" transform="translate(339.135 117.39)" xlink:href="#liberalBoardBack_svg__a"/><use xlink:href="#liberalBoardBack_svg__a" transform="translate(343.483 117.39)" width="100%" height="100%"/><use height="100%" width="100%" transform="translate(347.831 117.39)" xlink:href="#liberalBoardBack_svg__a"/><use xlink:href="#liberalBoardBack_svg__a" transform="translate(352.179 117.39)" width="100%" height="100%"/><use height="100%" width="100%" transform="translate(356.527 117.39)" xlink:href="#liberalBoardBack_svg__a"/><use height="100%" width="100%" transform="translate(360.875 117.39)" xlink:href="#liberalBoardBack_svg__a"/><use xlink:href="#liberalBoardBack_svg__a" transform="translate(365.223 117.39)" width="100%" height="100%"/><use height="100%" width="100%" transform="translate(369.57 117.39)" xlink:href="#liberalBoardBack_svg__a"/><use xlink:href="#liberalBoardBack_svg__a" transform="translate(0 117.39)" width="100%" height="100%"/><use xlink:href="#liberalBoardBack_svg__a" transform="translate(0 4.348)" width="100%" height="100%"/><use height="100%" width="100%" transform="translate(0 8.696)" xlink:href="#liberalBoardBack_svg__a"/><use xlink:href="#liberalBoardBack_svg__a" transform="translate(0 13.043)" width="100%" height="100%"/><use height="100%" width="100%" transform="translate(0 17.391)" xlink:href="#liberalBoardBack_svg__a"/><use height="100%" width="100%" transform="translate(0 21.739)" xlink:href="#liberalBoardBack_svg__a"/><use xlink:href="#liberalBoardBack_svg__a" transform="translate(0 26.087)" width="100%" height="100%"/><use height="100%" width="100%" transform="translate(0 30.435)" xlink:href="#liberalBoardBack_svg__a"/><use xlink:href="#liberalBoardBack_svg__a" transform="translate(0 34.782)" width="100%" height="100%"/><use xlink:href="#liberalBoardBack_svg__a" transform="translate(0 39.13)" width="100%" height="100%"/><use height="100%" width="100%" transform="translate(0 43.478)" xlink:href="#liberalBoardBack_svg__a"/><use xlink:href="#liberalBoardBack_svg__a" transform="translate(0 47.826)" width="100%" height="100%"/><use height="100%" width="100%" transform="translate(0 52.174)" xlink:href="#liberalBoardBack_svg__a"/><use xlink:href="#liberalBoardBack_svg__a" transform="translate(0 56.522)" width="100%" height="100%"/><use height="100%" width="100%" transform="translate(0 60.87)" xlink:href="#liberalBoardBack_svg__a"/><use height="100%" width="100%" transform="translate(0 65.217)" xlink:href="#liberalBoardBack_svg__a"/><use xlink:href="#liberalBoardBack_svg__a" transform="translate(0 69.565)" width="100%" height="100%"/><use height="100%" width="100%" transform="translate(0 73.913)" xlink:href="#liberalBoardBack_svg__a"/><use xlink:href="#liberalBoardBack_svg__a" transform="translate(0 78.26)" width="100%" height="100%"/><use height="100%" width="100%" transform="translate(0 82.608)" xlink:href="#liberalBoardBack_svg__a"/><use xlink:href="#liberalBoardBack_svg__a" transform="translate(0 86.956)" width="100%" height="100%"/><use xlink:href="#liberalBoardBack_svg__a" transform="translate(0 91.304)" width="100%" height="100%"/><use height="100%" width="100%" transform="translate(0 95.652)" xlink:href="#liberalBoardBack_svg__a"/><use xlink:href="#liberalBoardBack_svg__a" transform="translate(0 100)" width="100%" height="100%"/><use height="100%" width="100%" transform="translate(0 104.347)" xlink:href="#liberalBoardBack_svg__a"/><use height="100%" width="100%" transform="translate(0 108.695)" xlink:href="#liberalBoardBack_svg__a"/><use xlink:href="#liberalBoardBack_svg__a" transform="translate(0 113.043)" width="100%" height="100%"/><use height="100%" width="100%" transform="translate(369.57 4.348)" xlink:href="#liberalBoardBack_svg__a"/><use xlink:href="#liberalBoardBack_svg__a" transform="translate(369.57 8.696)" width="100%" height="100%"/><use height="100%" width="100%" transform="translate(369.57 13.043)" xlink:href="#liberalBoardBack_svg__a"/><use xlink:href="#liberalBoardBack_svg__a" transform="translate(369.57 17.391)" width="100%" height="100%"/><use xlink:href="#liberalBoardBack_svg__a" transform="translate(369.57 21.739)" width="100%" height="100%"/><use height="100%" width="100%" transform="translate(369.57 26.087)" xlink:href="#liberalBoardBack_svg__a"/><use xlink:href="#liberalBoardBack_svg__a" transform="translate(369.57 30.435)" width="100%" height="100%"/><use height="100%" width="100%" transform="translate(369.57 34.782)" xlink:href="#liberalBoardBack_svg__a"/><use height="100%" width="100%" transform="translate(369.57 39.13)" xlink:href="#liberalBoardBack_svg__a"/><use xlink:href="#liberalBoardBack_svg__a" transform="translate(369.57 43.478)" width="100%" height="100%"/><use height="100%" width="100%" transform="translate(369.57 47.826)" xlink:href="#liberalBoardBack_svg__a"/><use xlink:href="#liberalBoardBack_svg__a" transform="translate(369.57 52.174)" width="100%" height="100%"/><use height="100%" width="100%" transform="translate(369.57 56.522)" xlink:href="#liberalBoardBack_svg__a"/><use xlink:href="#liberalBoardBack_svg__a" transform="translate(369.57 60.87)" width="100%" height="100%"/><use xlink:href="#liberalBoardBack_svg__a" transform="translate(369.57 65.217)" width="100%" height="100%"/><use height="100%" width="100%" transform="translate(369.57 69.565)" xlink:href="#liberalBoardBack_svg__a"/><use xlink:href="#liberalBoardBack_svg__a" transform="translate(369.57 73.913)" width="100%" height="100%"/><use height="100%" width="100%" transform="translate(369.57 78.26)" xlink:href="#liberalBoardBack_svg__a"/><use xlink:href="#liberalBoardBack_svg__a" transform="translate(369.57 82.608)" width="100%" height="100%"/><use height="100%" width="100%" transform="translate(369.57 86.956)" xlink:href="#liberalBoardBack_svg__a"/><use height="100%" width="100%" transform="translate(369.57 91.304)" xlink:href="#liberalBoardBack_svg__a"/><use xlink:href="#liberalBoardBack_svg__a" transform="translate(369.57 95.652)" width="100%" height="100%"/><use height="100%" width="100%" transform="translate(369.57 100)" xlink:href="#liberalBoardBack_svg__a"/><use xlink:href="#liberalBoardBack_svg__a" transform="translate(369.57 104.347)" width="100%" height="100%"/><use xlink:href="#liberalBoardBack_svg__a" transform="translate(369.57 108.695)" width="100%" height="100%"/><use height="100%" width="100%" transform="translate(369.57 113.043)" xlink:href="#liberalBoardBack_svg__a"/><path fill="#61c8d9" d="M-536.386 218.958h370.601V337.03h-370.601z"/></g><g font-weight="900" font-size="11.289" font-family="EskapadeFrakturW04-Black" letter-spacing="0" word-spacing="0" paint-order="stroke fill markers"><path style="line-height:1.25;-inkscape-font-specification:'EskapadeFrakturW04-Black, Heavy';font-variant-ligatures:normal;font-variant-position:normal;font-variant-caps:normal;font-variant-numeric:normal;font-variant-alternates:normal;font-feature-settings:normal;text-indent:0;text-align:start;text-decoration-line:none;text-decoration-style:solid;text-decoration-color:#000;text-transform:none;text-orientation:mixed;white-space:normal;shape-padding:0;isolation:auto;mix-blend-mode:normal;solid-color:#000;solid-opacity:1" d="m252.538 38.288-18.092 4.447-.163.55-.185.619-.036.005-.823.1.283-.682-12.432 1.516-.248.451-3.552 6.487-2.629-1.182-2.266-1.018h-.001l-1.132-.51-14.209 2.403-.223.473-.814 1.733-1.242.142.244-.666-8.944 1.027-.234.209c-1.28 1.132-2.656 2.709-4.164 4.742l-.05.07-.565-.254-2.266-1.018h-.002l-1.13-.509-12.432 1.516-.248.451-1.687 3.082-1.983-.89v-.002h-.001l-1.132-.508-9.178 1.029-.228.186c-.639.518-1.354 1.198-2.166 2.052a25.163 25.163 0 0 0-2.354 2.895c-.75 1.04-1.343 1.93-1.777 2.69l-.06.105-.034.117c-.307 1.081-.506 2.354-.611 3.834v.016c-.078 1.41-.091 2.092-.04 3.303l.034.793 1.133.509h.002l1.13.508 1.133.51 1.134.51 1.132.508h.001l1.13.509h.004l1.131.51.688.308c-.012.492-.034.978-.074 1.397l-7.483.867-1.953 7.172 5.652 2.608-2.157-.056-3.323 7.674 2.264 1.018h.002l1.397.628v18.96l2.263 1.017h.001l10.194 4.582v.002h.002l4.53 2.035h.001l4.53 2.036v.002h.001l2.265 1.017 6.822-1.678v-3.57l.948.425v.002h.004l2.264 1.017 7.16.184 1.535-3.547 1.522.684v.002h.002l2.265 1.018 6.822-1.676v-5.35l.8.36h.001l4.53 2.035v.002h.002l2.265 1.018 6.722-1.655V111.45l2.301 1.034.004.003h.002l1.132.508v.001h.001l3.393 1.525.003.002h.002l4.526 2.033.004.003h.002l2.265 1.018 8.45-1.508 1.442-4.583 2.938 1.321.002.002h.002l2.265 1.018 10.662-2.022 1.395-3.623 2.337 1.05v.001h.002l2.265 1.018 6.82-1.676v-3.143l1.01.454v.002h.004l2.264 1.017 6.816-.226 2.12-6.371-1.133-.51v-.001h-.004l-3.395-1.526-.071-.031-1.18-2.206-1.388-1.328 3.438-2.807.015-.453c.056-1.534-.059-4.684-.4-6.505-.329-1.757-.855-2.632-1.399-3.686l-.336-.648-1.13-.508-.002-.003h-.004l-3.395-1.526-.042-.019 1.323-.325V56.772l4.875-1.198 1.967-6.592-13.592-6.11h-.001l-6.796-3.054z" color="#000" overflow="visible" fill="#fff"/><path d="m235.421 73.214-2.185 4.652 3.528-.677v21.094l4.82-1.185V76.356l2.235-.325c.664 1.626.997 3.576.997 5.852l-4.23 4.158v.59l3.424 1.931 2.532 6.627 5.407-.18 1.437-4.32-2.57.133-2.608-4.87-2.09-2 3.964-3.235c.051-1.419-.078-4.649-.384-6.286-.307-1.638-.742-2.32-1.305-3.41zm-14.77 2.771-4.16 7.596v15.018l2.991 3.444 9.55-1.81 1.61-4.177-8.989 1.711V90.85l6.228-1.531v-4.033l-6.228 1.531v-6.9l7.457-.928 1.762-4.25zM179.916 87.54l-1.304 4.37 6.037-1.485v21.455l4.723-1.161V89.263l5.079-1.248 1.304-4.37zm41.804-41.765-4.16 7.596v15.018l2.991 3.444 9.55-1.81 1.61-4.177-8.989 1.711v-6.918l6.228-1.531v-4.033l-6.228 1.531v-6.9l7.457-.928 1.762-4.25zm-35.218 9.366c-1.202 1.063-2.543 2.593-4.026 4.594-1.483 1.975-2.57 3.688-3.26 5.136-.511 2.606-.767 4.803-.767 6.593 0 4.142.525 7.617 1.573 10.428l10.698-1.595 1.69-5.784-9.492 1.712c-.748-3.034-.447-8.4-.447-10.544 0-1.304 1.146-2.507 1.402-3.106.255-.626 1.594-1.35 1.977-1.675l5.446-.495 2.225-6.07zm-42.27 35.074 1.381-5.072 7.67-.889c.256-1.29.269-4.22.039-5.391l-8.59-1.608c-.052-1.19-.039-1.804.038-3.203.102-1.432.294-2.642.575-3.632.41-.714.984-1.584 1.726-2.61a24.17 24.17 0 0 1 2.263-2.78c.792-.835 1.482-1.49 2.07-1.967l7.172-.805-2.224 5.127-5.868.484c-.409 1.097-.537 3.864-.383 4.9l8.245 1.386c.205 1.177.281 1.872.23 3.444-.051 1.546-.217 2.968-.498 4.264-1.688 2.946-3.542 5.37-5.561 7.274zm21.629-30.344-4.16 7.595v15.019l2.991 3.444 9.55-1.81 1.61-4.178-8.99 1.712v-6.919l6.228-1.53V69.17l-6.227 1.531v-6.9l7.456-.928 1.763-4.25zm9.19 29.776v24.66l-4.821 1.185V94.936l-3.107.15 2.416-5.58zm22.685-37.274-2.185 4.652 3.528-.676V77.44l4.82-1.185V55.514l2.235-.325c.664 1.626.997 3.577.997 5.852l-4.23 4.158v.591l3.424 1.93 2.532 6.627 5.407-.18 1.437-4.32-2.57.133-2.608-4.869-2.09-2 3.964-3.236c.051-1.418-.078-4.648-.384-6.286-.307-1.637-.742-2.32-1.305-3.41zm37.505-8.802-1.304 4.37 6.037-1.485V67.91l4.722-1.161V45.294l5.08-1.249 1.304-4.369zm-34.586 38.191-2.417 4.681 3.107-.15v16.969l2.953 2.554 7.386-1.317 1.457-4.636-7.073 1.316V81.926zm-42.91 22.498V92.984l4.82-1.185v20.364l3.107-.15-2.416 5.58-5.511-.141v-10.086l-5.216 1.282v11.122l-4.822 1.185V100.4l-3.106.15 2.416-5.58 5.512.141v10.431z" style="line-height:1.25;-inkscape-font-specification:'EskapadeFrakturW04-Black, Heavy';font-variant-ligatures:normal;font-variant-caps:normal;font-variant-numeric:normal;font-feature-settings:normal;text-align:start" fill="#61c8d9" stroke="#fff" stroke-width="2"/></g></svg>