<svg xmlns:xlink="http://www.w3.org/1999/xlink" width="351.496" height="449.764"><defs><clipPath clipPathUnits="userSpaceOnUse" id="membershipCardBackcover_svg__a"><path stroke-width="4" stroke-linecap="round" d="M1.666 1028.955h238.11v336.378H1.666z"/></clipPath></defs><g transform="translate(55.026 -972.203)"><path fill="#fec24b" d="M-17.231 1009.998h275.906v374.173H-17.231z"/><path fill="#fec24b" d="M1.666 1028.896h238.11v336.378H1.666z"/><rect width="201.936" height="297.017" x="19.754" y="1048.576" rx="6.6" ry="6.6" fill="#372a0d"/><path d="M121.063 1311.928c-.13-.068-.27-.124-.31-.124-.038 0-.185-.113-.326-.25-.14-.137-.291-.25-.335-.25-.044 0-.164-.073-.268-.162l-.388-.333c-.11-.094-.23-.171-.267-.171-.037 0-.225-.15-.417-.333-.193-.183-.391-.333-.441-.333-.05 0-.255-.15-.455-.334-.2-.183-.399-.333-.441-.333-.042 0-.164-.094-.27-.208-.106-.114-.215-.208-.243-.208-.027 0-.164-.111-.303-.247-.232-.228-.252-.292-.252-.816 0-.313-.04-.609-.088-.657-.049-.05-.11-.31-.137-.58-.026-.269-.075-.527-.108-.573-.034-.046-.086-.458-.117-.916-.03-.458-.092-.846-.136-.86-.044-.016-.08-.358-.08-.76 0-.55-.032-.76-.125-.837-.09-.075-.125-.272-.125-.705 0-.47-.032-.63-.146-.727-.29-.25-.721-.4-1.148-.4-.285 0-.47-.043-.539-.125-.056-.07-.23-.125-.384-.125-.155 0-.282-.035-.282-.076 0-.042-.15-.101-.332-.132-.183-.031-.354-.09-.38-.132-.026-.042-.153-.077-.282-.077-.129 0-.281-.056-.338-.125-.068-.082-.254-.125-.545-.125-.403 0-.95-.19-1.024-.354-.015-.035-.207-.062-.427-.062-.253 0-.437-.046-.503-.125-.057-.069-.202-.126-.322-.128a.742.742 0 0 1-.38-.124.768.768 0 0 0-.396-.123c-.129 0-.234-.037-.234-.083 0-.046-.105-.083-.234-.083a.765.765 0 0 1-.396-.122.622.622 0 0 0-.27-.125c-.059 0-.194-.096-.3-.21-.106-.115-.238-.209-.293-.209-.145 0-1.838-1.725-1.838-1.873 0-.069-.038-.126-.083-.126-.046 0-.084-.095-.084-.21 0-.116-.056-.233-.125-.26-.068-.025-.125-.12-.125-.21s-.056-.22-.125-.29a.523.523 0 0 1-.124-.322c0-.108-.033-.217-.072-.241-.04-.024-.091-.39-.116-.814-.025-.454-.081-.782-.136-.8-.062-.021-.093-.41-.093-1.18 0-.92-.025-1.17-.125-1.252a.395.395 0 0 1-.125-.268c0-.184-.306-.475-.505-.48-.072 0-.39.242-.705.54-.316.297-.623.54-.681.54-.071 0-.107-.124-.107-.37 0-.203-.034-.39-.076-.416-.041-.025-.099-.449-.128-.941-.03-.493-.087-.957-.128-1.032-.041-.075-.1-.366-.132-.647s-.09-.531-.13-.556c-.14-.086-.083-1.334.073-1.631.08-.153.174-.29.208-.305.035-.015.063-.11.063-.21 0-.368.536-.93 1.178-1.234.222-.105.404-.22.404-.255s.375-.063.833-.063c.489 0 .833.034.833.082 0 .045.103.107.229.137.126.031.247.078.27.106.096.114.61.341.77.341a.59.59 0 0 1 .335.145c.151.137.165.137.265 0 .059-.08.149-.145.201-.145.153 0 .126-1.286-.03-1.415-.076-.062-.125-.246-.125-.464 0-.198-.037-.383-.083-.41-.046-.029-.084-.193-.084-.365 0-.171-.055-.385-.122-.474-.073-.096-.123-.35-.125-.63-.002-.312-.044-.503-.127-.572-.069-.057-.125-.23-.125-.385s-.034-.281-.076-.281c-.042 0-.101-.15-.132-.333-.031-.183-.09-.354-.133-.38-.041-.026-.076-.214-.076-.42 0-.254-.04-.387-.124-.42-.076-.029-.125-.155-.125-.32 0-.15-.057-.319-.125-.376a.373.373 0 0 1-.125-.248c0-.079-.094-.245-.208-.369-.115-.123-.21-.27-.21-.324 0-.055-.095-.188-.208-.296-.114-.108-.207-.244-.207-.302 0-.058-.056-.153-.125-.21a.375.375 0 0 1-.125-.25.376.376 0 0 0-.125-.25.373.373 0 0 1-.125-.248c0-.079-.093-.215-.208-.3-.114-.087-.208-.2-.208-.254 0-.053-.056-.117-.125-.144-.069-.026-.125-.124-.125-.217s-.033-.169-.074-.169c-.041 0-.096-.088-.123-.194-.027-.107-.143-.296-.259-.42-.115-.125-.21-.277-.21-.338 0-.06-.056-.157-.125-.214-.069-.057-.125-.16-.125-.23 0-.069-.094-.212-.208-.319-.115-.106-.208-.22-.208-.253 0-.138-.35-.769-.502-.907-.09-.082-.165-.22-.165-.305 0-.086-.056-.178-.124-.204a.214.214 0 0 1-.126-.185c-.001-.076-.15-.298-.334-.494-.182-.197-.333-.403-.334-.458a.628.628 0 0 0-.125-.263c-.163-.214-.155-.408.024-.569.134-.122.183-.107.633.195.267.18.522.328.565.328.043 0 .22.15.395.333.174.183.36.333.412.333.1 0 .447.27.67.52.072.08.177.146.233.146.057 0 .264.15.46.332.197.183.41.333.473.333.064.001.203.095.309.21.106.114.23.208.277.208.047 0 .2.112.34.25.14.137.283.25.316.25.034 0 .131.094.217.208.086.114.222.208.301.208.08 0 .192.056.249.125.118.142 1.07.791 1.161.791.033 0 .154.103.267.23.282.31.75.686.857.688.137 0 1.184 1.1 1.25 1.31.03.103.092.187.135.187.042 0 .077.07.077.156s.056.204.125.26a.365.365 0 0 1 .125.24c0 .076.094.238.208.362.115.123.208.317.208.43 0 .113.057.262.125.33.07.07.125.18.125.246s.057.168.125.225a.38.38 0 0 1 .125.255c0 .083.038.174.083.203.046.028.084.157.084.286 0 .129.056.281.125.338a.441.441 0 0 1 .125.302c0 .109.035.198.08.198.043 0 .103.132.133.292.03.161.089.313.13.338.04.025.073.154.073.285 0 .131.056.295.125.364s.126.174.128.235a.623.623 0 0 0 .124.272.756.756 0 0 1 .123.39c0 .126.037.252.083.28.046.029.083.136.083.24 0 .103.055.26.123.349a.634.634 0 0 1 .124.297.376.376 0 0 0 .128.239c.069.057.125.21.125.338 0 .13.037.258.083.287.046.028.084.121.084.207s.056.212.124.28a.533.533 0 0 1 .125.33c0 .111.057.25.125.307.069.057.125.18.125.273 0 .278.48.643.843.643.172 0 .336-.037.365-.083.028-.046.167-.083.309-.083.196 0 .335-.084.578-.347.176-.19.32-.38.32-.42 0-.04.094-.174.209-.298.114-.123.208-.27.208-.325 0-.055.093-.202.208-.325.114-.124.209-.266.21-.317 0-.05.113-.218.25-.374.136-.155.248-.316.248-.357 0-.042.093-.177.208-.3.114-.124.208-.29.208-.371 0-.08.034-.147.076-.147.082 0 .59-.785.59-.91 0-.041.15-.236.333-.433.184-.196.334-.42.334-.496a.37.37 0 0 1 .125-.243c.068-.057.125-.146.126-.198 0-.05.15-.262.332-.468.181-.206.33-.415.331-.465.001-.049.095-.177.21-.285.114-.107.208-.26.208-.337a.37.37 0 0 1 .125-.246c.069-.057.125-.152.125-.211 0-.06.15-.268.333-.465.183-.196.333-.398.333-.449 0-.123.79-.873.92-.873.056 0 .189-.094.295-.209.106-.114.246-.208.312-.208.065 0 .165-.056.222-.125a.38.38 0 0 1 .255-.125c.083 0 .175-.037.203-.083.028-.046.136-.083.239-.083.103 0 .26-.055.349-.122a.688.688 0 0 1 .34-.125c.098 0 .2-.059.226-.127.027-.07.124-.125.218-.125.093 0 .169-.037.169-.083 0-.046.074-.083.165-.083.21 0 1-.342 1-.432 0-.037.127-.068.282-.068.155 0 .328-.056.385-.125a.385.385 0 0 1 .26-.125c.086 0 .156-.037.156-.083 0-.046.07-.083.157-.083a.386.386 0 0 0 .26-.125.392.392 0 0 1 .266-.125.47.47 0 0 0 .287-.125.546.546 0 0 1 .338-.125c.121 0 .298-.09.407-.208a.616.616 0 0 1 .436-.208c.134 0 .29-.056.348-.125a.421.421 0 0 1 .288-.125c.198 0 1.234-.484 1.28-.598.015-.037.087-.068.16-.068.181 0 .77-.267.77-.349 0-.037.108-.067.24-.067.131 0 .286-.056.343-.125.057-.069.15-.125.209-.125.058 0 .212-.056.344-.124a1.14 1.14 0 0 1 .425-.125c.103 0 .188-.038.188-.084 0-.046.07-.083.156-.083a.386.386 0 0 0 .26-.125c.057-.07.21-.125.34-.125.135 0 .33-.09.46-.208.123-.115.31-.209.414-.209a.51.51 0 0 0 .315-.124.47.47 0 0 1 .287-.125c.09 0 .21-.056.266-.125a.385.385 0 0 1 .26-.125c.086 0 .157-.033.157-.073 0-.04.15-.097.333-.126.183-.029.333-.091.333-.136 0-.046.07-.082.156-.082a.385.385 0 0 0 .26-.125.44.44 0 0 1 .302-.124c.109 0 .198-.033.198-.073 0-.04.15-.097.333-.126.183-.03.333-.09.333-.136 0-.045.132-.082.294-.082.185 0 .312-.047.342-.125.027-.069.138-.125.247-.125.11 0 .2-.034.2-.075 0-.042.15-.1.332-.132.183-.03.354-.09.38-.132.064-.104 1.037-.097 1.037.01 0 .046.06.083.134.083.181 0 .529.34.53.52.001.08.04.146.085.146.134 0 .096.866-.051 1.16-.075.15-.395.544-.712.878-.318.334-.683.77-.812.97-.13.201-.35.459-.492.573-.142.115-.26.259-.261.32-.004.106-.183.316-.982 1.15-.195.203-.354.4-.354.437 0 .038-.262.346-.582.684-.32.339-.583.66-.583.715 0 .055-.095.201-.21.325-.114.123-.207.26-.207.304 0 .044-.132.216-.292.383-.609.635-.874.943-.874 1.013 0 .04-.244.325-.542.633-.297.308-.541.606-.541.662 0 .056-.206.32-.458.59-.252.268-.458.549-.458.624a.213.213 0 0 1-.125.185.212.212 0 0 0-.125.184c0 .075-.244.376-.541.67-.298.293-.542.566-.542.607 0 .04-.054.095-.12.12-.068.026-.223.208-.346.404-.123.197-.275.388-.337.425-.062.036-.113.158-.113.27 0 .113-.037.205-.083.205-.047 0-.083.248-.083.577 0 .54-.018.595-.28.874-.155.164-.344.298-.42.298a.213.213 0 0 0-.186.124c-.027.07-.138.125-.247.125-.11 0-.2.034-.2.075 0 .041-.09.097-.198.125-.11.027-.372.213-.583.412l-.385.363v.836c0 .64-.029.859-.125.938-.068.057-.124.15-.124.205 0 .114-.448.537-.724.683-.1.053-.306.123-.458.156-.151.034-.358.15-.46.258-.1.109-.234.197-.297.197-.063 0-.202.093-.31.208-.16.171-.2.321-.232.867-.034.58-.067.691-.273.917-.13.141-.312.257-.406.257-.095 0-.172.037-.172.083 0 .046-.086.083-.192.083a.69.69 0 0 0-.354.122.658.658 0 0 1-.318.125c-.198 0-.718.547-.718.75 0 .083-.056.172-.125.199-.077.03-.125.156-.125.33 0 .331-.336.722-.62.722-.1 0-.253.055-.342.123a.637.637 0 0 1-.298.125.369.369 0 0 0-.239.127c-.057.07-.156.125-.22.125s-.265.094-.446.208c-.181.115-.382.208-.446.208s-.163.056-.22.125a.44.44 0 0 1-.302.125c-.109 0-.198.037-.198.083 0 .046-.058.083-.128.083-.154 0-.788.647-.788.805 0 .062.206.322.458.58.252.258.458.502.458.542 0 .04.033.072.074.072.1 0 .842.737.842.836 0 .044.038.08.084.08.045 0 .083.044.083.1 0 .133.42.566.55.566.057 0 .178.094.268.208.09.115.205.208.256.208.05 0 .092.056.092.125 0 .07.029.125.065.125.092 0 1.017.915 1.017 1.007 0 .042.054.077.12.077.065 0 .13.08.145.179.015.098.1.22.189.27.09.05.257.176.374.28.116.103.24.187.275.187.035 0 .063.056.063.125s.033.125.072.125c.04 0 1.431 1.349 3.092 2.998 1.66 1.649 3.062 2.998 3.115 2.998.11 0 .384.295.384.414 0 .044.112.195.25.335.137.14.25.277.25.303 0 .026.093.122.207.212.167.13.209.238.209.532 0 .203-.035.369-.076.369-.042 0-.101.15-.132.333-.031.183-.09.353-.133.38-.041.025-.076.171-.076.324 0 .17-.048.296-.125.326-.078.03-.124.157-.124.342 0 .161-.034.294-.075.294-.04 0-.098.094-.126.208-.048.19-.092.208-.499.208-.295 0-.481.042-.55.125-.07.085-.259.125-.588.125-.266 0-.508.037-.536.083-.029.047-.414.083-.87.083h-.818l-.342-.343c-.19-.189-.343-.39-.343-.448 0-.058-.057-.151-.125-.208a.365.365 0 0 1-.125-.24c0-.075-.09-.233-.198-.35a1.334 1.334 0 0 1-.256-.395c-.031-.1-.101-.182-.156-.182a1.41 1.41 0 0 1-.276-.05c-.401-.107-.793.691-.488.996.07.07.125.274.125.464 0 .246-.035.34-.125.34a.125.125 0 0 0-.125.124c0 .07-.066.126-.146.128a.633.633 0 0 0-.307.125c-.237.179-3.064.176-3.408 0z" fill="#fec24b"/></g><text style="line-height:2.04999995;-inkscape-font-specification:'Futura-Bold, Medium';font-variant-ligatures:normal;font-variant-caps:normal;font-variant-numeric:normal;font-feature-settings:normal;text-align:center" x="120.765" y="1182.6" font-weight="500" font-size="21.726" font-family="Futura-Bold" letter-spacing="2.66" word-spacing="0" text-anchor="middle" fill="#fec24b" stroke-width=".905" transform="translate(55.026 -972.203)"><tspan x="122.095" y="1182.6" style="line-height:2.04999995">PARTY</tspan><tspan x="122.095" y="1227.138" style="line-height:2.04999995">MEMBERSHIP</tspan></text><g transform="translate(55.188 -972.203)"><circle r="2.124" cy="1196.892" cx="33.502" id="membershipCardBackcover_svg__b" opacity="1" vector-effect="none" fill="#fec24b" fill-opacity="1" stroke="#fec24b" stroke-width=".5" stroke-linecap="round" stroke-linejoin="miter" stroke-miterlimit="4" stroke-dasharray="none" stroke-dashoffset="0" stroke-opacity="1" paint-order="normal"/><use height="100%" width="100%" transform="translate(3.785)" xlink:href="#membershipCardBackcover_svg__b"/><use xlink:href="#membershipCardBackcover_svg__b" transform="translate(7.57)" width="100%" height="100%"/><use height="100%" width="100%" transform="translate(11.355)" xlink:href="#membershipCardBackcover_svg__b"/><use xlink:href="#membershipCardBackcover_svg__b" transform="translate(15.14)" width="100%" height="100%"/><use xlink:href="#membershipCardBackcover_svg__b" transform="translate(18.926)" width="100%" height="100%"/><use height="100%" width="100%" transform="translate(22.71)" xlink:href="#membershipCardBackcover_svg__b"/><use xlink:href="#membershipCardBackcover_svg__b" transform="translate(26.496)" width="100%" height="100%"/><use height="100%" width="100%" transform="translate(30.281)" xlink:href="#membershipCardBackcover_svg__b"/><use height="100%" width="100%" transform="translate(34.066)" xlink:href="#membershipCardBackcover_svg__b"/><use xlink:href="#membershipCardBackcover_svg__b" transform="translate(37.851)" width="100%" height="100%"/><use height="100%" width="100%" transform="translate(41.636)" xlink:href="#membershipCardBackcover_svg__b"/><use xlink:href="#membershipCardBackcover_svg__b" transform="translate(45.422)" width="100%" height="100%"/><use xlink:href="#membershipCardBackcover_svg__b" transform="translate(49.207)" width="100%" height="100%"/><use height="100%" width="100%" transform="translate(52.992)" xlink:href="#membershipCardBackcover_svg__b"/><use xlink:href="#membershipCardBackcover_svg__b" transform="translate(56.777)" width="100%" height="100%"/><use height="100%" width="100%" transform="translate(60.562)" xlink:href="#membershipCardBackcover_svg__b"/><use xlink:href="#membershipCardBackcover_svg__b" transform="translate(64.347)" width="100%" height="100%"/><use height="100%" width="100%" transform="translate(68.132)" xlink:href="#membershipCardBackcover_svg__b"/><use xlink:href="#membershipCardBackcover_svg__b" transform="translate(71.917)" width="100%" height="100%"/><use height="100%" width="100%" transform="translate(75.703)" xlink:href="#membershipCardBackcover_svg__b"/><use height="100%" width="100%" transform="translate(79.488)" xlink:href="#membershipCardBackcover_svg__b"/><use xlink:href="#membershipCardBackcover_svg__b" transform="translate(83.273)" width="100%" height="100%"/><use height="100%" width="100%" transform="translate(87.058)" xlink:href="#membershipCardBackcover_svg__b"/><use xlink:href="#membershipCardBackcover_svg__b" transform="translate(90.843)" width="100%" height="100%"/><use xlink:href="#membershipCardBackcover_svg__b" transform="translate(94.628)" width="100%" height="100%"/><use height="100%" width="100%" transform="translate(98.413)" xlink:href="#membershipCardBackcover_svg__b"/><use xlink:href="#membershipCardBackcover_svg__b" transform="translate(102.199)" width="100%" height="100%"/><use height="100%" width="100%" transform="translate(105.984)" xlink:href="#membershipCardBackcover_svg__b"/><use height="100%" width="100%" transform="translate(109.769)" xlink:href="#membershipCardBackcover_svg__b"/><use xlink:href="#membershipCardBackcover_svg__b" transform="translate(113.554)" width="100%" height="100%"/><use height="100%" width="100%" transform="translate(117.34)" xlink:href="#membershipCardBackcover_svg__b"/><use xlink:href="#membershipCardBackcover_svg__b" transform="translate(121.124)" width="100%" height="100%"/><use height="100%" width="100%" transform="translate(124.91)" xlink:href="#membershipCardBackcover_svg__b"/><use xlink:href="#membershipCardBackcover_svg__b" transform="translate(128.694)" width="100%" height="100%"/><use height="100%" width="100%" transform="translate(132.48)" xlink:href="#membershipCardBackcover_svg__b"/><use xlink:href="#membershipCardBackcover_svg__b" transform="translate(136.265)" width="100%" height="100%"/><use xlink:href="#membershipCardBackcover_svg__b" transform="translate(140.05)" width="100%" height="100%"/><use height="100%" width="100%" transform="translate(143.835)" xlink:href="#membershipCardBackcover_svg__b"/><use xlink:href="#membershipCardBackcover_svg__b" transform="translate(147.62)" width="100%" height="100%"/><use height="100%" width="100%" transform="translate(151.405)" xlink:href="#membershipCardBackcover_svg__b"/><use height="100%" width="100%" transform="translate(155.19)" xlink:href="#membershipCardBackcover_svg__b"/><use xlink:href="#membershipCardBackcover_svg__b" transform="translate(158.976)" width="100%" height="100%"/><use height="100%" width="100%" transform="translate(162.76)" xlink:href="#membershipCardBackcover_svg__b"/><use xlink:href="#membershipCardBackcover_svg__b" transform="translate(166.546)" width="100%" height="100%"/><use height="100%" width="100%" transform="translate(170.33)" xlink:href="#membershipCardBackcover_svg__b"/><use xlink:href="#membershipCardBackcover_svg__b" transform="translate(174.116)" width="100%" height="100%"/></g><path d="M174.174 159.223c-.052-.052-.4-.11-.773-.13-.373-.02-.698-.067-.722-.105-.024-.038-.18-.069-.346-.069-.173 0-.347-.052-.403-.12a.4.4 0 0 0-.268-.121.639.639 0 0 1-.323-.12.602.602 0 0 0-.299-.116c-.079 0-.143-.031-.143-.07 0-.038-.063-.093-.14-.121-.29-.107-.585-.303-.677-.45-.053-.085-.137-.154-.186-.154-.05 0-.24-.17-.423-.377-.46-.522-.482-.554-.482-.695a.198.198 0 0 0-.12-.17c-.065-.026-.119-.128-.119-.227a.41.41 0 0 0-.119-.28.413.413 0 0 1-.12-.283c0-.101-.035-.206-.079-.233-.048-.03-.08-.635-.08-1.55 0-1.227-.02-1.521-.118-1.619-.066-.066-.12-.143-.12-.173s-.068-.13-.152-.224a79.024 79.024 0 0 1-.446-.508c-.162-.186-.344-.338-.405-.338-.06 0-.11-.033-.11-.073 0-.04-.107-.097-.237-.126-.13-.028-.258-.085-.283-.125-.025-.04-.149-.073-.275-.073-.126 0-.25-.036-.278-.08-.027-.043-.277-.078-.556-.078-.28 0-.53.036-.557.079-.029.046-.474.079-1.068.079-.809 0-1.04-.025-1.118-.12-.054-.065-.148-.119-.208-.119s-.11-.03-.11-.067c0-.036-.09-.107-.199-.157-.109-.05-.198-.14-.198-.2 0-.061-.09-.177-.2-.26-.108-.081-.198-.19-.198-.24 0-.05-.054-.134-.12-.189a.424.424 0 0 1-.118-.29c0-.106-.054-.212-.12-.238-.08-.03-.119-.157-.119-.39 0-.19-.036-.367-.08-.394-.043-.027-.079-.13-.079-.228a.652.652 0 0 0-.117-.333.726.726 0 0 1-.119-.367.552.552 0 0 0-.122-.332c-.065-.066-.119-.245-.119-.399 0-.153-.034-.3-.075-.325-.04-.026-.099-.207-.128-.403-.03-.197-.085-.377-.124-.4-.097-.06-.089-1.286.009-1.346.044-.027.08-.132.08-.234 0-.101.053-.229.119-.283.065-.054.119-.144.119-.198 0-.091.245-.335.964-.955.349-.3.546-.614.546-.867 0-.108.036-.219.08-.246.105-.065.105-1.843 0-1.908-.045-.028-.08-.448-.082-.978-.002-.656-.037-.988-.117-1.128-.077-.135-.114-.456-.116-.998-.002-.44-.035-.833-.074-.874-.039-.042-.086-.569-.105-1.171-.022-.687-.07-1.13-.128-1.189-.116-.115-.134-3.32-.02-3.32.041 0 .1-.287.13-.638.03-.35.087-.657.125-.68.038-.023.069-.239.069-.478 0-.314.033-.448.12-.481.065-.025.12-.122.121-.216a.658.658 0 0 1 .12-.325.722.722 0 0 0 .116-.373c0-.12.036-.24.08-.267.043-.027.079-.132.079-.234 0-.101.054-.229.12-.283a.357.357 0 0 0 .118-.239c0-.077.054-.184.12-.238a.368.368 0 0 0 .119-.248c0-.082.036-.15.08-.15.043 0 .079-.056.079-.124 0-.07.085-.239.189-.378s.25-.383.323-.543a2.11 2.11 0 0 1 .365-.517c.128-.124.232-.276.234-.336 0-.061.091-.193.2-.295.11-.101.2-.221.2-.267 0-.046.053-.084.119-.084.065 0 .119-.04.119-.09 0-.128 1.566-1.64 1.948-1.88a3.06 3.06 0 0 0 .493-.387c.096-.103.208-.187.248-.187.04 0 .118-.053.173-.12.054-.065.147-.119.206-.119.113 0 .848-.474.893-.576.015-.033.128-.06.252-.06s.237-.027.252-.06c.014-.033.17-.125.344-.206.175-.08.42-.196.543-.258a1.08 1.08 0 0 1 .33-.112c.056 0 .205-.053.33-.12.126-.064.325-.118.442-.118.118 0 .236-.036.263-.08.027-.044.138-.08.246-.08.108 0 .217-.052.242-.119.034-.087.17-.119.505-.119.253 0 .562-.053.687-.119.33-.171 5.135-.172 5.435 0 .11.062.364.115.567.116.227 0 .406.048.467.122.054.066.193.12.307.122.214 0 1.005.25 1.099.344.028.028.149.052.268.052.12 0 .237.053.262.119.025.066.134.119.243.119.108 0 .217.033.241.073.025.04.153.097.283.126.131.029.238.085.238.125 0 .04.09.073.199.073.109 0 .198.033.198.074 0 .04.161.154.358.253.197.098.358.208.358.244 0 .036.09.065.199.065.109 0 .198.029.198.064 0 .036.146.17.323.298.408.295.8.618 1.271 1.048.204.186.39.338.416.338.063 0 .534.477.536.543 0 .029.198.26.437.51.24.252.436.49.436.529 0 .039.053.09.119.117.066.025.12.095.12.155s.081.199.182.307c.1.109.285.4.411.65.126.249.276.492.334.54.058.048.106.132.106.187 0 .055.053.144.119.199.065.054.12.182.12.283 0 .102.089.353.198.559.11.206.199.441.199.523 0 .082.053.17.119.196.073.029.12.148.12.31 0 .146.03.285.068.308.038.023.093.257.123.52.03.261.084.494.12.517.037.022.092.31.123.638.03.328.088.617.128.641.117.072.093 3.561-.024 3.679-.064.064-.108.472-.128 1.188-.017.6-.06 1.127-.095 1.17-.035.045-.09.663-.121 1.374-.032.712-.09 1.313-.127 1.337-.037.023-.068.77-.068 1.66 0 1.89-.016 1.838.835 2.71.717.736.8.84.864 1.095.029.116.088.212.13.212.133 0 .093 1.524-.043 1.704-.064.085-.117.29-.117.457 0 .167-.035.303-.08.303-.043 0-.079.098-.08.219 0 .12-.053.32-.118.446a1.09 1.09 0 0 0-.12.409c0 .1-.053.202-.118.227-.078.03-.12.153-.12.354 0 .275-.094.562-.323.987a.737.737 0 0 0-.074.295c0 .086-.143.31-.317.498-.174.187-.317.38-.318.428 0 .047-.144.155-.318.238-.174.084-.318.197-.318.251 0 .126-2.428.145-2.505.02-.027-.044-.224-.079-.437-.079-.214 0-.41.036-.438.08-.027.043-.152.078-.278.078-.126 0-.248.031-.272.07-.023.037-.145.09-.271.114-.141.028-.447.265-.797.616l-.568.57v1.412c0 1.158-.021 1.43-.119 1.51-.066.055-.12.205-.12.334 0 .13-.053.288-.118.354-.066.066-.12.224-.12.352 0 .128-.035.233-.08.233-.043 0-.079.089-.079.199 0 .109-.037.198-.082.198-.045 0-.108.062-.139.14-.114.279-.457.733-.554.734-.054 0-.1.046-.1.1 0 .056-.11.15-.245.21s-.351.211-.48.337c-.128.125-.284.228-.345.228-.062 0-.134.036-.161.08-.027.043-.134.078-.238.078a.495.495 0 0 0-.307.12c-.066.065-.172.119-.235.119s-.16.053-.214.119c-.06.072-.234.12-.442.12-.19 0-.363.03-.386.068-.023.037-.262.088-.53.113-.27.024-.528.083-.575.13-.125.125-3.409.119-3.535-.01zm.022-6.505c.027-.044.145-.08.263-.08.267 0 .608-.222.946-.613.215-.248.274-.28.334-.18.148.243.48.555.59.555.062 0 .157.053.212.12a.416.416 0 0 0 .283.119c.101 0 .207.036.234.079.027.044.118.079.203.079.085 0 .154-.036.154-.08 0-.043.108-.078.239-.078.13 0 .238-.03.238-.064 0-.036.161-.178.358-.317.197-.138.358-.306.358-.373s.029-.12.064-.12c.104 0 .333-.59.333-.857 0-.136.036-.27.08-.296.043-.027.08-.17.08-.318s-.037-.291-.08-.318c-.044-.027-.08-.153-.08-.28 0-.258-.344-.956-.52-1.055-.064-.036-.116-.134-.116-.22s-.037-.155-.082-.155c-.045 0-.105-.062-.133-.139-.029-.077-.189-.302-.356-.502-.167-.2-.303-.42-.303-.492 0-.07-.036-.151-.08-.178-.043-.027-.08-.132-.08-.234a.415.415 0 0 0-.118-.283c-.066-.054-.12-.195-.12-.312a.711.711 0 0 0-.116-.368.646.646 0 0 1-.12-.319c-.004-.247-.296-.803-.496-.944-.114-.079-.352-.124-.663-.124-.453 0-.508.021-.817.306-.183.168-.332.365-.332.437 0 .072-.035.132-.08.132-.043 0-.079.085-.079.19 0 .104-.053.21-.119.236-.07.028-.12.147-.12.297 0 .239-.426 1.224-.568 1.311-.037.023-.067.143-.067.267 0 .127-.052.245-.12.271a.192.192 0 0 0-.118.163c0 .064-.064.164-.142.221-.264.195-.733.835-.733 1.002 0 .091-.036.188-.08.215-.1.062-.106 1.842-.005 1.904.04.025.097.154.126.286.056.258.548.791.73.791.06 0 .13.053.154.12.026.068.145.119.276.119.127 0 .23.036.23.079 0 .044.07.079.154.079.085 0 .177-.036.204-.08zm-5.803-5.326c.027-.044.128-.08.225-.08.236 0 1.074-.44 1.297-.681.099-.106.227-.193.286-.193.058 0 .394-.277.747-.616.668-.643.85-.788 1.081-.866.077-.026.14-.096.14-.157 0-.06.031-.11.07-.11.091 0 1.202-1.095 1.202-1.185 0-.038.047-.087.105-.11.059-.022.208-.241.332-.486.21-.417.225-.506.222-1.404-.002-.604-.036-.993-.093-1.05-.049-.05-.09-.258-.09-.465 0-.228-.046-.423-.119-.495-.077-.076-.119-.274-.119-.553 0-.288-.04-.466-.12-.532a.354.354 0 0 1-.118-.236c0-.307-.538-1.115-.742-1.115-.041 0-.158-.09-.26-.2-.1-.108-.237-.198-.302-.198-.066 0-.215-.089-.332-.197a1.113 1.113 0 0 0-.5-.24 4.157 4.157 0 0 1-.533-.122 2.416 2.416 0 0 0-.6-.077c-.196 0-.395-.038-.442-.085-.048-.048-.562-.105-1.165-.13-.881-.037-1.112-.024-1.262.073-.1.066-.29.139-.42.162-.39.069-.784.247-.97.438-.097.098-.207.179-.244.179-.083 0-.496.421-.496.505 0 .032-.08.138-.179.235-.206.202-.362.432-.429.631-.026.077-.077.14-.115.14-.149 0-.549.971-.552 1.339-.002.203-.055.439-.119.524-.064.085-.116.288-.116.452 0 .164-.036.32-.08.348-.097.06-.107 1.126-.011 1.185.037.023.087.35.11.728.024.377.083.725.131.773a.355.355 0 0 1 .088.22c0 .071.09.299.199.504.11.206.199.427.199.491 0 .065.053.139.119.164.065.025.119.109.119.186a.36.36 0 0 0 .12.24.35.35 0 0 1 .12.228c.004.147.43.646.554.646a.08.08 0 0 1 .08.081c0 .123.5.55.647.553.07 0 .173.056.228.122.054.066.15.12.214.12.063 0 .169.052.235.118.065.066.24.12.387.12.147 0 .29.036.317.079.027.044.241.079.477.079.235 0 .45-.036.477-.08zm15.422 0c.027-.044.17-.08.317-.08s.321-.052.387-.119c.065-.066.17-.119.234-.119s.16-.053.214-.12c.055-.065.134-.118.176-.118.134 0 .695-.433.697-.537.001-.054.038-.099.082-.099.118 0 .55-.496.556-.636.003-.066.11-.223.24-.35.13-.128.237-.298.237-.378 0-.08.027-.146.06-.146.074 0 .336-.716.34-.925a.628.628 0 0 1 .119-.303c.074-.097.117-.337.117-.65 0-.274.036-.52.08-.547.043-.027.079-.349.079-.715 0-.367-.036-.689-.08-.716-.043-.027-.08-.237-.08-.466 0-.244-.048-.482-.116-.572-.064-.085-.118-.288-.12-.452-.001-.164-.032-.298-.069-.298-.036 0-.11-.146-.163-.323-.053-.177-.16-.386-.237-.463a1.176 1.176 0 0 1-.194-.254c-.111-.237-.263-.438-.537-.715-.157-.157-.308-.346-.336-.42a.363.363 0 0 0-.193-.184 1.047 1.047 0 0 1-.26-.15c-.24-.2-.87-.512-1.032-.512a.826.826 0 0 1-.366-.132c-.175-.114-.364-.124-1.488-.077-.707.03-1.32.09-1.362.132-.042.042-.195.077-.34.077a1.05 1.05 0 0 0-.402.075 1.708 1.708 0 0 1-.426.12 1.08 1.08 0 0 0-.48.224 2.873 2.873 0 0 1-.487.334c-.162.086-.295.185-.295.219s-.07.062-.158.062c-.098 0-.24.127-.377.337-.121.186-.247.35-.28.365-.032.014-.06.109-.06.21 0 .1-.053.204-.119.23-.065.024-.119.114-.119.197 0 .084-.053.255-.119.38a1.242 1.242 0 0 0-.119.482c0 .14-.036.276-.08.303-.048.03-.08.621-.08 1.508 0 1.244.021 1.496.14 1.704.076.135.166.245.199.245.032 0 .06.073.06.162 0 .09.053.182.119.207.065.025.119.096.119.157 0 .06.027.111.06.112.032 0 .453.376.934.835.48.458.929.85.995.872a.61.61 0 0 1 .239.212c.198.292.489.544 1.071.929.175.115.336.232.358.258.111.136.971.55 1.143.55.11 0 .22.035.248.078.027.044.242.08.477.08s.45-.037.477-.08z" fill="#fec24b"/></svg>