<svg xmlns:xlink="http://www.w3.org/1999/xlink" width="75mm" height="351.496" viewBox="0 0 75 93"><defs><clipPath clipPathUnits="userSpaceOnUse" id="policyCardHighContrastLiberal_svg__a"><path stroke-width="1.058" stroke-linecap="round" d="M-61.157 204.383h45v63h-45z"/></clipPath></defs><g fill="#fff"><path d="M10 10h55v73H10z"/><path d="M15 15h45v63H15z"/></g><g transform="translate(-2.688 -170.373)"><rect width="38.06" height="58.173" x="21.158" y="187.787" rx="2.2" ry="2.2" fill="#0091b3"/><g fill="#fff"><path d="M50.227 191.521v5.74h5.235v44.99H24.914v-50.73z"/><path d="M50.926 191.991v4.468h4.467z"/></g></g><path d="M37.207 36.829a.341.341 0 0 0-.088-.035.31.31 0 0 1-.092-.071.284.284 0 0 0-.095-.071c-.013 0-.047-.02-.076-.046l-.11-.095a.224.224 0 0 0-.076-.048.524.524 0 0 1-.119-.095.44.44 0 0 0-.125-.094.466.466 0 0 1-.129-.095.512.512 0 0 0-.125-.094c-.012 0-.046-.027-.076-.06a.246.246 0 0 0-.07-.058.37.37 0 0 1-.085-.07c-.066-.065-.072-.083-.072-.232 0-.089-.011-.173-.025-.187a.435.435 0 0 1-.038-.164.614.614 0 0 0-.031-.163 1.314 1.314 0 0 1-.033-.26c-.009-.13-.026-.24-.039-.243-.012-.004-.023-.102-.023-.216 0-.156-.009-.215-.035-.237-.026-.021-.036-.077-.036-.2 0-.133-.009-.179-.041-.207a.512.512 0 0 0-.326-.113c-.08 0-.133-.012-.152-.035-.017-.02-.066-.036-.11-.036-.043 0-.08-.01-.08-.021 0-.012-.042-.029-.094-.038-.052-.009-.1-.025-.107-.037-.008-.012-.044-.022-.08-.022-.037 0-.08-.016-.096-.035-.02-.024-.072-.036-.155-.036-.114 0-.27-.053-.29-.1-.005-.01-.06-.018-.121-.018-.072 0-.124-.013-.143-.035-.016-.02-.057-.036-.091-.036a.215.215 0 0 1-.108-.036.217.217 0 0 0-.113-.034c-.036 0-.066-.011-.066-.024 0-.013-.03-.024-.066-.024a.217.217 0 0 1-.113-.034.175.175 0 0 0-.076-.036c-.017 0-.055-.027-.085-.06-.03-.032-.068-.059-.083-.059-.042 0-.522-.489-.522-.531 0-.02-.01-.036-.024-.036-.013 0-.023-.027-.023-.06 0-.032-.016-.065-.036-.073-.02-.007-.035-.034-.035-.06a.135.135 0 0 0-.036-.082.148.148 0 0 1-.035-.091c0-.031-.009-.062-.02-.069a.788.788 0 0 1-.033-.23c-.007-.13-.023-.222-.039-.228-.017-.006-.026-.116-.026-.334 0-.261-.007-.332-.036-.355a.112.112 0 0 1-.035-.076c0-.053-.087-.135-.143-.136-.02 0-.11.068-.2.152a.873.873 0 0 1-.194.154c-.02 0-.03-.035-.03-.105 0-.058-.01-.11-.021-.118-.012-.007-.028-.128-.037-.267a1.484 1.484 0 0 0-.036-.293.783.783 0 0 1-.037-.183.449.449 0 0 0-.037-.158c-.04-.024-.024-.379.02-.463a.304.304 0 0 1 .06-.086c.01-.004.017-.032.017-.06 0-.104.152-.263.334-.35.064-.03.115-.062.115-.072 0-.01.106-.018.236-.018.139 0 .237.01.237.023s.029.03.065.039c.035.009.07.022.076.03a.52.52 0 0 0 .219.097c.027 0 .07.018.095.04.043.04.046.04.075 0 .016-.022.042-.04.057-.04.043 0 .036-.365-.009-.402-.021-.018-.035-.07-.035-.131 0-.056-.01-.109-.024-.117-.013-.008-.023-.054-.023-.103a.266.266 0 0 0-.035-.135.374.374 0 0 1-.036-.178c0-.089-.012-.143-.036-.163-.02-.016-.035-.065-.035-.109s-.01-.08-.022-.08c-.012 0-.028-.042-.037-.094-.009-.052-.026-.1-.038-.108-.012-.007-.021-.06-.021-.119 0-.072-.011-.11-.036-.12-.021-.007-.035-.043-.035-.09 0-.042-.016-.09-.036-.107a.106.106 0 0 1-.035-.07c0-.022-.027-.07-.059-.105-.033-.035-.06-.076-.06-.092 0-.015-.026-.053-.059-.083-.032-.031-.058-.07-.058-.086 0-.017-.016-.043-.036-.06a.106.106 0 0 1-.035-.07.106.106 0 0 0-.036-.071.106.106 0 0 1-.035-.07c0-.023-.027-.062-.059-.086-.033-.025-.06-.057-.06-.072 0-.015-.015-.033-.035-.04-.019-.008-.035-.036-.035-.062 0-.027-.01-.048-.021-.048-.012 0-.027-.025-.035-.055a.35.35 0 0 0-.073-.12c-.033-.035-.06-.078-.06-.095 0-.018-.016-.045-.035-.061-.02-.016-.036-.046-.036-.065 0-.02-.026-.06-.059-.09-.032-.03-.059-.063-.059-.073a.765.765 0 0 0-.142-.257c-.026-.023-.047-.062-.047-.086 0-.025-.016-.051-.035-.058a.06.06 0 0 1-.036-.053c0-.021-.043-.084-.095-.14a.447.447 0 0 1-.095-.13.178.178 0 0 0-.035-.074c-.046-.061-.044-.116.007-.162.038-.034.052-.03.18.056a.838.838 0 0 0 .16.093c.012 0 .062.042.112.094s.102.095.117.095c.028 0 .126.076.19.147.02.023.05.041.066.041s.075.043.13.095a.41.41 0 0 0 .135.094c.018 0 .057.027.087.06.03.032.066.059.079.059.013 0 .056.031.096.07.04.04.08.071.09.071.01 0 .037.027.061.06.025.032.063.059.086.059.022 0 .054.015.07.035.034.04.304.224.33.224.01 0 .043.03.076.065.08.089.212.195.243.196.039 0 .336.312.354.371.009.03.026.054.038.054s.022.02.022.044a.11.11 0 0 0 .036.074.1.1 0 0 1 .035.068c0 .021.027.067.06.102.032.035.058.09.058.122s.016.075.036.094a.12.12 0 0 1 .035.07c0 .019.016.047.036.063a.11.11 0 0 1 .035.073c0 .023.01.05.024.057.013.008.023.045.023.082 0 .036.016.08.036.096.02.016.035.054.035.085 0 .031.01.056.023.056.012 0 .03.038.038.083.008.046.025.09.036.096.012.007.021.044.021.081 0 .037.016.084.036.103.02.02.036.05.036.067s.016.052.035.077c.02.025.035.075.035.11 0 .037.01.072.024.08.013.008.023.039.023.068 0 .03.016.074.035.1a.18.18 0 0 1 .035.083.106.106 0 0 0 .037.068c.02.016.035.06.035.096 0 .037.01.073.024.081.013.008.023.035.023.06 0 .024.016.06.036.079.02.02.035.061.035.093s.016.071.036.087c.02.017.035.052.035.078 0 .079.136.182.24.182.048 0 .095-.01.103-.023.008-.013.047-.024.087-.024.056 0 .095-.024.164-.098a.488.488 0 0 0 .091-.12c0-.01.027-.049.06-.084.032-.035.058-.076.058-.092s.027-.057.06-.092c.032-.035.059-.076.059-.09 0-.014.032-.062.07-.106a.348.348 0 0 0 .071-.102c0-.011.027-.05.06-.085.032-.035.058-.082.058-.105 0-.023.01-.042.022-.042.023 0 .167-.222.167-.258 0-.012.043-.067.095-.122.052-.056.094-.12.094-.141 0-.022.016-.053.036-.07.02-.015.035-.04.035-.055s.043-.075.095-.133a.502.502 0 0 0 .094-.132c0-.014.027-.05.06-.08.032-.031.058-.074.058-.096 0-.023.016-.054.036-.07.02-.016.035-.043.035-.06s.043-.076.095-.132a.45.45 0 0 0 .094-.127c0-.035.224-.248.26-.248.017 0 .055-.027.085-.06.03-.032.07-.058.088-.058.019 0 .047-.016.063-.036a.108.108 0 0 1 .073-.035c.023 0 .05-.01.057-.024.008-.013.039-.023.068-.023.03 0 .074-.016.099-.035a.194.194 0 0 1 .096-.035c.028 0 .057-.017.065-.037.007-.019.035-.035.061-.035.027 0 .048-.01.048-.024 0-.013.021-.023.047-.023.06 0 .284-.097.284-.123 0-.01.036-.019.08-.019.044 0 .093-.016.109-.035a.11.11 0 0 1 .074-.036c.024 0 .044-.01.044-.023s.02-.024.044-.024a.11.11 0 0 0 .074-.035.112.112 0 0 1 .076-.036.134.134 0 0 0 .081-.035.155.155 0 0 1 .096-.035.184.184 0 0 0 .115-.06.175.175 0 0 1 .124-.059c.038 0 .082-.016.099-.035a.12.12 0 0 1 .081-.035c.057 0 .35-.138.364-.17.004-.01.024-.02.045-.02.051 0 .218-.075.218-.099 0-.01.031-.019.068-.019.038 0 .082-.016.098-.035.016-.02.043-.035.059-.035s.06-.016.097-.036a.326.326 0 0 1 .121-.035c.03 0 .053-.01.053-.024 0-.013.02-.024.045-.024a.11.11 0 0 0 .074-.035c.016-.02.059-.035.096-.035a.22.22 0 0 0 .13-.06c.035-.032.088-.059.118-.059s.07-.015.09-.035a.134.134 0 0 1 .08-.035.11.11 0 0 0 .076-.036.11.11 0 0 1 .074-.035c.024 0 .044-.01.044-.02 0-.012.043-.028.095-.036.052-.008.094-.026.094-.039 0-.013.02-.023.045-.023a.11.11 0 0 0 .073-.036.125.125 0 0 1 .086-.035c.03 0 .056-.009.056-.02 0-.012.043-.028.095-.036.052-.008.094-.026.094-.039 0-.013.038-.023.084-.023.052 0 .088-.013.097-.036.007-.019.039-.035.07-.035.03 0 .056-.01.056-.021 0-.012.043-.03.095-.038.051-.009.1-.026.107-.037.018-.03.294-.028.294.002 0 .013.017.023.038.023.052 0 .15.097.15.148.001.023.012.041.025.041.038 0 .027.246-.015.33a1.614 1.614 0 0 1-.202.248c-.09.095-.193.219-.23.276a.825.825 0 0 1-.14.162c-.04.032-.073.073-.074.09 0 .03-.051.09-.278.327a.564.564 0 0 0-.1.124c0 .01-.075.098-.166.194-.09.096-.165.187-.165.203 0 .015-.027.057-.06.092a.247.247 0 0 0-.058.086.379.379 0 0 1-.083.109c-.173.18-.248.267-.248.287 0 .011-.07.092-.154.18a.872.872 0 0 0-.153.187.695.695 0 0 1-.13.168c-.072.076-.13.155-.13.177a.06.06 0 0 1-.036.052.06.06 0 0 0-.035.052c0 .022-.069.107-.153.19a1.003 1.003 0 0 0-.154.173c0 .011-.016.026-.034.034a.37.37 0 0 0-.098.114.513.513 0 0 1-.096.12c-.018.011-.032.046-.032.078 0 .031-.01.058-.024.058-.013 0-.023.07-.023.163 0 .154-.005.17-.08.248-.043.047-.097.085-.119.085a.06.06 0 0 0-.052.035c-.008.02-.04.035-.07.035-.032 0-.057.01-.057.022 0 .011-.025.027-.056.035a.58.58 0 0 0-.166.117l-.109.103v.237c0 .182-.008.244-.035.266-.02.016-.036.042-.036.058 0 .032-.127.152-.205.194a.624.624 0 0 1-.13.044.29.29 0 0 0-.13.073c-.029.031-.067.056-.085.056-.017 0-.057.027-.087.06-.046.048-.057.09-.066.245-.01.164-.02.196-.078.26-.037.04-.088.073-.115.073-.027 0-.049.01-.049.024 0 .013-.024.023-.054.023a.195.195 0 0 0-.1.035.186.186 0 0 1-.09.035c-.057.001-.205.155-.205.213 0 .024-.015.049-.035.056-.022.008-.035.045-.035.094 0 .094-.096.205-.176.205a.19.19 0 0 0-.097.035.18.18 0 0 1-.085.035.107.107 0 0 0-.068.036c-.016.02-.044.036-.062.036a.403.403 0 0 0-.127.059.403.403 0 0 1-.126.059c-.018 0-.046.016-.063.035a.125.125 0 0 1-.085.036c-.031 0-.056.01-.056.023s-.017.024-.037.024c-.043 0-.223.183-.223.228 0 .018.058.092.13.165.071.073.13.142.13.153 0 .012.01.02.02.02.03 0 .24.21.24.238 0 .013.01.023.023.023s.024.012.024.028c0 .038.12.16.156.16.016 0 .05.027.076.06.025.032.058.059.072.059.015 0 .027.016.027.035 0 .02.008.036.018.036.026 0 .289.26.289.285 0 .012.015.022.033.022.019 0 .038.023.042.05a.121.121 0 0 0 .053.077c.026.015.073.05.106.08a.25.25 0 0 0 .078.053c.01 0 .018.016.018.035 0 .02.01.035.02.035.012 0 .407.383.878.85.47.469.869.851.884.851.03 0 .108.084.108.118a.3.3 0 0 0 .071.095c.04.04.071.079.071.086 0 .007.027.034.059.06.047.037.06.068.06.151 0 .057-.01.105-.022.105-.012 0-.03.042-.038.094-.009.052-.026.1-.037.108-.012.007-.022.048-.022.092 0 .048-.014.084-.035.092-.023.008-.036.045-.036.097 0 .046-.01.084-.02.084-.013 0-.029.026-.037.059-.013.053-.026.059-.141.059-.084 0-.137.012-.156.035-.02.024-.074.036-.167.036-.076 0-.144.01-.152.023-.008.013-.118.024-.247.024h-.232l-.097-.098c-.054-.053-.097-.11-.097-.127 0-.016-.016-.043-.036-.059a.103.103 0 0 1-.035-.068c0-.021-.026-.066-.056-.1a.379.379 0 0 1-.073-.111c-.009-.028-.029-.052-.044-.052a.388.388 0 0 1-.078-.014c-.114-.03-.226.196-.14.283.02.02.036.077.036.132 0 .07-.01.096-.035.096a.036.036 0 0 0-.036.035c0 .02-.018.036-.04.036a.185.185 0 0 0-.088.036c-.067.05-.87.05-.967-.001z" fill="#0091b3"/><g fill="#0091b3" font-weight="900" font-family="EskapadeFrakturW04-Black" letter-spacing="0" word-spacing="0"><path style="line-height:1.25;-inkscape-font-specification:'EskapadeFrakturW04-Black, Heavy';font-variant-ligatures:normal;font-variant-caps:normal;font-variant-numeric:normal;font-feature-settings:normal;text-align:start" d="m30.419 39.955-.65 1.122.81.125v3.49l-.561-.062-.356 1.14 2.797.356c.208-.143.255-.362.557-.659.31-.297.517-.531.624-.703.089-.452.113-.542.071-1.106l-.858-.757.688-.596c-.023-.256-.08-.95-.169-1.246a3.945 3.945 0 0 0-.338-.82h-1.359zm1.256 1.398h.517a2.1 2.1 0 0 1 .187.436c.047.137.092.336.133.597l-.567.478v.397l.612.523c.024.243.03.445.018.605a4.23 4.23 0 0 1-.071.58l-.829-.099zm12.683-1.487-1.017 1.887v1.764h-.49v.721h.49v1.79h1.097v-1.79h1.077v1.647l1.124.24.543-1.183-.57-.09v-3.268l-.429-1.46zm.08 1.292 1.077.204v2.155h-1.077zm3.47-.941-.561.949.722.142v3.94l.685.762 1.715.116.339-.993-1.643-.099v-4.47z" font-size="42.667"/><path d="m38.396 40.121-.507.956.82.044v4.898h1.118v-4.816l.52.052c.154.415.23.887.23 1.416l-.981.724v.137l.795.644.588 1.683 1.255.267.334-.921-.597-.116-.605-1.28-.486-.583.92-.525c.013-.327-.017-1.084-.089-1.482-.07-.398-.172-.581-.302-.866zm-9.406.279v5.726h-1.12v-4.773l-.721-.143.561-1.157zm6.466-.383-.966 1.526v3.488l.695.97 2.217.125.374-.878-2.087-.116v-1.606h1.446v-.937h-1.446v-1.602l1.731.21.41-.886z" style="line-height:1.25;-inkscape-font-specification:'EskapadeFrakturW04-Black, Heavy';font-variant-ligatures:normal;font-variant-caps:normal;font-variant-numeric:normal;font-feature-settings:normal;text-align:start" font-size="11.289"/><path style="line-height:1.25;-inkscape-font-specification:'EskapadeFrakturW04-Black, Heavy';font-variant-ligatures:normal;font-variant-caps:normal;font-variant-numeric:normal;font-feature-settings:normal;text-align:start" d="m24.024 40.217-.561.949.721.142v3.94l.686.762 1.715.116.338-.993-1.642-.099v-4.47z" font-size="42.667"/></g><g transform="translate(15.137 -282.138) scale(.26458)" fill="#0091b3"><circle r="1.311" cy="1249.401" cx="35.48" id="policyCardHighContrastLiberal_svg__b" opacity="1" vector-effect="none" fill="#0091b3" fill-opacity="1" stroke="none" stroke-width="4" stroke-linecap="round" stroke-linejoin="miter" stroke-miterlimit="4" stroke-dasharray="none" stroke-dashoffset="0" stroke-opacity="1" paint-order="normal"/><use height="100%" width="100%" transform="translate(4.087)" xlink:href="#policyCardHighContrastLiberal_svg__b"/><use xlink:href="#policyCardHighContrastLiberal_svg__b" transform="translate(8.173)" width="100%" height="100%"/><use height="100%" width="100%" transform="translate(12.26)" xlink:href="#policyCardHighContrastLiberal_svg__b"/><use xlink:href="#policyCardHighContrastLiberal_svg__b" transform="translate(16.347)" width="100%" height="100%"/><use xlink:href="#policyCardHighContrastLiberal_svg__b" transform="translate(20.433)" width="100%" height="100%"/><use height="100%" width="100%" transform="translate(24.52)" xlink:href="#policyCardHighContrastLiberal_svg__b"/><use xlink:href="#policyCardHighContrastLiberal_svg__b" transform="translate(28.606)" width="100%" height="100%"/><use height="100%" width="100%" transform="translate(32.693)" xlink:href="#policyCardHighContrastLiberal_svg__b"/><use height="100%" width="100%" transform="translate(36.78)" xlink:href="#policyCardHighContrastLiberal_svg__b"/><use xlink:href="#policyCardHighContrastLiberal_svg__b" transform="translate(40.866)" width="100%" height="100%"/><use height="100%" width="100%" transform="translate(44.953)" xlink:href="#policyCardHighContrastLiberal_svg__b"/><use xlink:href="#policyCardHighContrastLiberal_svg__b" transform="translate(49.04)" width="100%" height="100%"/><use xlink:href="#policyCardHighContrastLiberal_svg__b" transform="translate(53.126)" width="100%" height="100%"/><use height="100%" width="100%" transform="translate(57.213)" xlink:href="#policyCardHighContrastLiberal_svg__b"/><use xlink:href="#policyCardHighContrastLiberal_svg__b" transform="translate(61.3)" width="100%" height="100%"/><use height="100%" width="100%" transform="translate(65.386)" xlink:href="#policyCardHighContrastLiberal_svg__b"/><use height="100%" width="100%" transform="translate(69.473)" xlink:href="#policyCardHighContrastLiberal_svg__b"/><use xlink:href="#policyCardHighContrastLiberal_svg__b" transform="translate(73.56)" width="100%" height="100%"/><use height="100%" width="100%" transform="translate(77.646)" xlink:href="#policyCardHighContrastLiberal_svg__b"/><use xlink:href="#policyCardHighContrastLiberal_svg__b" transform="translate(81.733)" width="100%" height="100%"/><use xlink:href="#policyCardHighContrastLiberal_svg__b" transform="translate(85.82)" width="100%" height="100%"/><use height="100%" width="100%" transform="translate(89.906)" xlink:href="#policyCardHighContrastLiberal_svg__b"/><use xlink:href="#policyCardHighContrastLiberal_svg__b" transform="translate(93.992)" width="100%" height="100%"/><use height="100%" width="100%" transform="translate(98.08)" xlink:href="#policyCardHighContrastLiberal_svg__b"/></g><path d="M44.634 51.008h5.883m-5.883 2.259h5.883m-26.034 2.259h26.034m-26.034 2.259h26.034m-26.034 2.259h22.632m-22.632 4.502h26.034m-26.034 2.259h26.034m-26.034 2.259h26.034" fill="none" stroke="#0091b3" stroke-width=".6"/><text y="223.978" x="27.205" style="line-height:1.25;-inkscape-font-specification:'Futura Hv BT, Normal';font-variant-ligatures:normal;font-variant-caps:normal;font-variant-numeric:normal;font-feature-settings:normal;text-align:start" font-weight="400" font-size="3.908" font-family="Futura Hv BT" letter-spacing=".599" word-spacing="0" fill="#0091b3" stroke-width=".163" transform="translate(-2.684 -170.373)"><tspan style="-inkscape-font-specification:'Futura Hv BT, Normal';font-variant-ligatures:normal;font-variant-caps:normal;font-variant-numeric:normal;font-feature-settings:normal;text-align:start" y="223.978" x="27.205">ARTICLE</tspan></text></svg>