<svg xmlns:xlink="http://www.w3.org/1999/xlink" width="75mm" height="351.496" viewBox="0 0 75 93"><defs><clipPath clipPathUnits="userSpaceOnUse" id="policyCardHighContrastFascist_svg__a"><path stroke-width="1.058" stroke-linecap="round" d="M17.688 185.406h45v63h-45z"/></clipPath></defs><g fill="#fff"><path d="M10 10h55v73H10z"/><path d="M15 15h45v63H15z"/></g><g transform="translate(-2.688 -170.373)"><rect width="38.06" height="58.173" x="21.158" y="187.787" rx="2.2" ry="2.2" fill="#d60e00"/><g fill="#fff"><path d="M50.227 191.521v5.74h5.235v44.99H24.914v-50.73z"/><path d="M50.926 191.991v4.468h4.467z"/></g></g><g fill="#d60e00"><g transform="translate(15.137 -282.138) scale(.26458)"><circle r="1.311" cy="1249.401" cx="35.48" id="policyCardHighContrastFascist_svg__b" opacity="1" vector-effect="none" fill="#d60e00" fill-opacity="1" stroke="none" stroke-width="4" stroke-linecap="round" stroke-linejoin="miter" stroke-miterlimit="4" stroke-dasharray="none" stroke-dashoffset="0" stroke-opacity="1" paint-order="normal"/><use height="100%" width="100%" transform="translate(4.087)" xlink:href="#policyCardHighContrastFascist_svg__b"/><use xlink:href="#policyCardHighContrastFascist_svg__b" transform="translate(8.173)" width="100%" height="100%"/><use height="100%" width="100%" transform="translate(12.26)" xlink:href="#policyCardHighContrastFascist_svg__b"/><use xlink:href="#policyCardHighContrastFascist_svg__b" transform="translate(16.347)" width="100%" height="100%"/><use xlink:href="#policyCardHighContrastFascist_svg__b" transform="translate(20.433)" width="100%" height="100%"/><use height="100%" width="100%" transform="translate(24.52)" xlink:href="#policyCardHighContrastFascist_svg__b"/><use xlink:href="#policyCardHighContrastFascist_svg__b" transform="translate(28.606)" width="100%" height="100%"/><use height="100%" width="100%" transform="translate(32.693)" xlink:href="#policyCardHighContrastFascist_svg__b"/><use height="100%" width="100%" transform="translate(36.78)" xlink:href="#policyCardHighContrastFascist_svg__b"/><use xlink:href="#policyCardHighContrastFascist_svg__b" transform="translate(40.866)" width="100%" height="100%"/><use height="100%" width="100%" transform="translate(44.953)" xlink:href="#policyCardHighContrastFascist_svg__b"/><use xlink:href="#policyCardHighContrastFascist_svg__b" transform="translate(49.04)" width="100%" height="100%"/><use xlink:href="#policyCardHighContrastFascist_svg__b" transform="translate(53.126)" width="100%" height="100%"/><use height="100%" width="100%" transform="translate(57.213)" xlink:href="#policyCardHighContrastFascist_svg__b"/><use xlink:href="#policyCardHighContrastFascist_svg__b" transform="translate(61.3)" width="100%" height="100%"/><use height="100%" width="100%" transform="translate(65.386)" xlink:href="#policyCardHighContrastFascist_svg__b"/><use height="100%" width="100%" transform="translate(69.473)" xlink:href="#policyCardHighContrastFascist_svg__b"/><use xlink:href="#policyCardHighContrastFascist_svg__b" transform="translate(73.56)" width="100%" height="100%"/><use height="100%" width="100%" transform="translate(77.646)" xlink:href="#policyCardHighContrastFascist_svg__b"/><use xlink:href="#policyCardHighContrastFascist_svg__b" transform="translate(81.733)" width="100%" height="100%"/><use xlink:href="#policyCardHighContrastFascist_svg__b" transform="translate(85.82)" width="100%" height="100%"/><use height="100%" width="100%" transform="translate(89.906)" xlink:href="#policyCardHighContrastFascist_svg__b"/><use xlink:href="#policyCardHighContrastFascist_svg__b" transform="translate(93.992)" width="100%" height="100%"/><use height="100%" width="100%" transform="translate(98.08)" xlink:href="#policyCardHighContrastFascist_svg__b"/></g><path d="M44.634 51.008h5.883m-5.883 2.259h5.883m-26.034 2.259h26.034m-26.034 2.259h26.034m-26.034 2.259h22.632m-22.632 4.502h26.034m-26.034 2.259h26.034m-26.034 2.259h26.034" stroke="#d60e00" stroke-width=".6"/><text y="223.978" x="27.205" style="line-height:1.25;-inkscape-font-specification:'Futura Hv BT, Normal';font-variant-ligatures:normal;font-variant-caps:normal;font-variant-numeric:normal;font-feature-settings:normal;text-align:start" font-weight="400" font-size="3.908" font-family="Futura Hv BT" letter-spacing=".599" word-spacing="0" stroke-width=".163" transform="translate(-2.684 -170.373)"><tspan style="-inkscape-font-specification:'Futura Hv BT, Normal';font-variant-ligatures:normal;font-variant-caps:normal;font-variant-numeric:normal;font-feature-settings:normal;text-align:start" y="223.978" x="27.205">ARTICLE</tspan></text><path d="M36.4 36.374c-.015-.016-.118-.033-.229-.039a.754.754 0 0 1-.215-.03c-.007-.012-.053-.022-.103-.022-.05 0-.102-.015-.12-.035a.12.12 0 0 0-.079-.036.195.195 0 0 1-.096-.036.178.178 0 0 0-.089-.034c-.023 0-.042-.01-.042-.021 0-.012-.019-.028-.042-.036a.456.456 0 0 1-.201-.134c-.016-.025-.04-.046-.055-.046a.44.44 0 0 1-.126-.112c-.137-.155-.143-.164-.143-.206a.059.059 0 0 0-.036-.051c-.02-.007-.035-.038-.035-.067a.122.122 0 0 0-.036-.083.123.123 0 0 1-.035-.084c0-.03-.01-.062-.024-.07-.014-.009-.023-.188-.023-.46 0-.365-.007-.452-.036-.481-.02-.02-.035-.043-.035-.052a.203.203 0 0 0-.045-.067 20.562 20.562 0 0 1-.133-.15c-.048-.056-.102-.1-.12-.1-.018 0-.033-.01-.033-.023 0-.012-.032-.028-.07-.037-.04-.008-.077-.025-.084-.037-.008-.012-.045-.022-.082-.022-.037 0-.075-.01-.083-.024-.008-.013-.082-.023-.165-.023s-.157.01-.165.023c-.009.014-.141.024-.318.024-.24 0-.309-.007-.332-.035-.016-.02-.044-.036-.062-.036-.018 0-.033-.009-.033-.02 0-.01-.026-.032-.059-.046-.032-.015-.059-.042-.059-.06 0-.018-.026-.053-.059-.077-.032-.024-.059-.056-.059-.071 0-.015-.016-.04-.035-.057a.126.126 0 0 1-.036-.086c0-.031-.016-.063-.035-.07-.024-.01-.036-.047-.036-.116 0-.057-.01-.11-.023-.117-.013-.008-.024-.039-.024-.068a.193.193 0 0 0-.035-.1.216.216 0 0 1-.035-.108.164.164 0 0 0-.036-.099c-.02-.02-.036-.073-.036-.118 0-.046-.01-.09-.022-.097-.012-.008-.03-.062-.038-.12-.009-.058-.025-.112-.037-.119-.029-.018-.026-.382.003-.4.013-.008.024-.04.024-.07 0-.03.016-.067.035-.083.02-.017.035-.043.035-.06 0-.027.073-.099.287-.283.104-.09.162-.183.162-.258 0-.032.01-.065.024-.073.031-.019.031-.547 0-.567-.014-.008-.024-.133-.025-.29 0-.195-.01-.294-.034-.336-.023-.04-.034-.135-.035-.296 0-.13-.01-.248-.022-.26a1.8 1.8 0 0 1-.031-.348c-.006-.204-.02-.336-.038-.353-.034-.034-.04-.987-.006-.987.012 0 .03-.085.039-.19a.634.634 0 0 1 .037-.202c.011-.007.02-.07.02-.142 0-.093.01-.133.036-.142.02-.008.036-.037.036-.065 0-.028.016-.07.035-.096a.214.214 0 0 0 .035-.111c0-.036.01-.071.024-.08.013-.008.023-.039.023-.069a.12.12 0 0 1 .036-.084.106.106 0 0 0 .035-.07c0-.024.016-.056.036-.072a.11.11 0 0 0 .035-.074c0-.024.01-.044.024-.044.013 0 .023-.017.023-.037 0-.02.026-.07.057-.112a1.19 1.19 0 0 0 .096-.162.628.628 0 0 1 .108-.153c.038-.037.07-.082.07-.1 0-.018.027-.058.06-.088.032-.03.058-.066.058-.08 0-.013.016-.024.036-.024.02 0 .035-.012.035-.027 0-.038.466-.487.579-.558a.91.91 0 0 0 .146-.115c.03-.03.062-.056.074-.056.012 0 .035-.016.052-.035.016-.02.043-.036.06-.036.034 0 .253-.14.266-.171.005-.01.038-.018.075-.018s.07-.008.075-.017a.353.353 0 0 1 .102-.062c.052-.023.125-.058.162-.076a.316.316 0 0 1 .097-.034.31.31 0 0 0 .099-.035.344.344 0 0 1 .131-.035c.035 0 .07-.011.078-.024.008-.013.041-.024.073-.024.032 0 .065-.016.072-.035.01-.026.05-.036.15-.036a.556.556 0 0 0 .205-.035c.097-.05 1.526-.051 1.615 0a.423.423 0 0 0 .168.034c.067.001.12.015.139.037.016.02.057.036.091.036.064 0 .299.074.327.102.008.008.044.015.08.015.035 0 .07.016.077.036.008.02.04.035.072.035.032 0 .065.01.072.022.008.012.045.029.084.037.039.009.07.026.07.038s.027.021.06.021c.032 0 .059.01.059.022 0 .012.048.046.106.075.059.03.107.062.107.073 0 .01.026.02.059.02.032 0 .059.008.059.018 0 .01.043.05.096.089.12.088.237.184.377.312.06.055.116.1.124.1a.65.65 0 0 1 .16.161c0 .009.058.077.129.152.071.075.13.145.13.157 0 .012.015.027.035.035.02.007.035.028.035.046s.025.059.055.091.084.12.122.193a.788.788 0 0 0 .1.16c.016.015.03.04.03.056 0 .017.016.043.036.06.02.015.035.053.035.084a.5.5 0 0 0 .06.166c.032.06.058.13.058.155 0 .025.016.05.036.058.022.009.035.044.035.093 0 .043.01.084.02.091.012.007.029.076.037.154a.414.414 0 0 0 .036.154c.01.007.027.092.036.19.01.097.027.183.039.19.034.022.027 1.058-.008 1.093-.019.02-.032.14-.038.353a1.902 1.902 0 0 1-.028.348c-.01.013-.026.197-.036.409-.01.211-.026.39-.037.397-.012.007-.02.229-.02.493 0 .562-.006.546.247.805.214.219.238.25.257.326.009.034.026.063.04.063.038 0 .027.453-.014.506a.27.27 0 0 0-.035.136c0 .05-.01.09-.023.09s-.024.03-.024.065a.346.346 0 0 1-.035.133.324.324 0 0 0-.036.121c0 .03-.016.06-.035.068-.023.008-.036.045-.036.105 0 .081-.028.167-.096.293a.22.22 0 0 0-.022.088c0 .025-.042.092-.094.148a.46.46 0 0 0-.094.127c0 .014-.043.046-.095.07-.052.026-.094.06-.094.075 0 .038-.722.043-.745.006-.008-.013-.066-.023-.13-.023-.063 0-.122.01-.13.023-.008.013-.045.024-.082.024-.038 0-.074.01-.081.02-.007.012-.044.027-.08.035-.043.008-.134.078-.238.183l-.168.17v.419c0 .344-.007.425-.036.449-.02.016-.035.06-.035.099a.171.171 0 0 1-.036.105.17.17 0 0 0-.035.104c0 .038-.01.07-.024.07-.013 0-.023.026-.023.059 0 .032-.011.059-.025.059-.013 0-.032.018-.041.041-.034.083-.136.218-.165.218a.03.03 0 0 0-.03.03c0 .017-.032.044-.072.062a.593.593 0 0 0-.143.1c-.038.038-.084.068-.103.068-.018 0-.04.011-.047.024-.008.013-.04.024-.071.024a.148.148 0 0 0-.091.035c-.02.02-.051.036-.07.036-.019 0-.048.016-.064.035-.018.021-.07.035-.131.035-.056 0-.108.01-.115.02-.007.012-.078.027-.157.034a.451.451 0 0 0-.171.039c-.037.037-1.013.035-1.05-.002zm.007-1.933c.008-.013.043-.024.078-.024.08 0 .181-.066.282-.182.063-.074.08-.083.099-.054.044.073.142.165.175.165.018 0 .047.016.063.036.016.02.054.035.084.035.03 0 .062.01.07.024.008.013.035.023.06.023.025 0 .046-.01.046-.023s.032-.024.07-.024c.04 0 .072-.008.072-.019 0-.01.047-.053.106-.094.058-.041.106-.091.106-.11 0-.02.009-.037.02-.037.03 0 .098-.175.098-.254 0-.04.011-.08.024-.088.013-.008.024-.05.024-.095 0-.044-.011-.086-.024-.094-.013-.008-.024-.046-.024-.083 0-.077-.102-.284-.154-.314-.02-.01-.035-.04-.035-.065s-.01-.046-.024-.046c-.013 0-.031-.019-.04-.041a.853.853 0 0 0-.105-.15.42.42 0 0 1-.09-.146c0-.021-.011-.045-.024-.053-.013-.008-.024-.04-.024-.07a.123.123 0 0 0-.035-.083c-.02-.017-.036-.058-.036-.093a.212.212 0 0 0-.034-.11.192.192 0 0 1-.036-.094.516.516 0 0 0-.147-.28c-.034-.024-.105-.038-.197-.038-.135 0-.151.006-.243.091-.054.05-.099.109-.099.13 0 .022-.01.04-.023.04s-.024.025-.024.056c0 .03-.016.062-.035.07-.021.008-.036.044-.036.088 0 .071-.127.364-.169.39-.01.007-.02.042-.02.08 0 .037-.015.072-.035.08-.02.007-.036.029-.036.048 0 .02-.018.049-.042.066-.078.058-.217.248-.217.297 0 .028-.011.056-.024.064-.03.019-.032.548-.002.566.012.008.029.046.038.085.016.077.163.235.216.235.018 0 .039.016.046.036.008.02.043.035.082.035.038 0 .069.01.069.024 0 .013.02.023.046.023.025 0 .052-.01.06-.023zm-1.724-1.583c.008-.013.038-.024.067-.024.07 0 .319-.13.385-.202.03-.032.068-.057.085-.057s.117-.083.222-.184c.198-.19.252-.234.321-.257.023-.008.042-.029.042-.046 0-.018.01-.033.02-.033.028 0 .358-.326.358-.352 0-.012.014-.027.031-.033a.448.448 0 0 0 .099-.145c.062-.123.066-.15.066-.417 0-.18-.011-.295-.028-.312-.015-.014-.027-.077-.027-.138 0-.068-.013-.126-.035-.147-.023-.023-.035-.081-.035-.164 0-.086-.012-.139-.036-.158a.106.106 0 0 1-.035-.07c0-.092-.16-.332-.22-.332-.013 0-.048-.027-.078-.06-.03-.032-.07-.058-.09-.058-.02 0-.064-.026-.098-.059a.33.33 0 0 0-.15-.071 1.272 1.272 0 0 1-.157-.036.727.727 0 0 0-.179-.023c-.058 0-.117-.012-.131-.026-.014-.014-.167-.031-.346-.039-.262-.01-.33-.006-.375.022a.402.402 0 0 1-.125.049.583.583 0 0 0-.289.13c-.028.029-.06.053-.072.053a.429.429 0 0 0-.147.15c0 .01-.024.041-.053.07a.512.512 0 0 0-.128.187c-.007.023-.023.042-.034.042-.044 0-.163.288-.164.398a.32.32 0 0 1-.035.155.266.266 0 0 0-.035.135c0 .049-.01.095-.024.103-.028.018-.031.335-.003.352a.704.704 0 0 1 .033.217c.007.112.024.215.039.23a.106.106 0 0 1 .026.065c0 .021.026.089.059.15.032.06.059.126.059.146 0 .019.016.04.035.048.02.008.036.033.036.056s.016.055.035.07c.02.017.036.048.036.069.001.043.128.192.165.192.013 0 .024.01.024.024 0 .036.148.163.192.164.02 0 .051.017.068.036.016.02.044.036.063.036a.12.12 0 0 1 .07.035c.02.02.071.035.115.035.044 0 .086.011.094.024.008.013.072.024.142.024.07 0 .134-.011.142-.024zm4.583 0c.008-.013.05-.024.094-.024s.095-.016.115-.035c.02-.02.05-.035.07-.035.018 0 .047-.016.063-.036.016-.02.04-.035.052-.035.04 0 .207-.129.207-.16 0-.016.012-.03.025-.03.035 0 .163-.147.165-.188 0-.02.033-.067.071-.105.04-.038.07-.088.07-.112 0-.024.009-.043.019-.043.022 0 .1-.213.1-.275a.194.194 0 0 1 .036-.09c.022-.029.035-.1.035-.193 0-.082.01-.155.023-.163.013-.008.024-.103.024-.212 0-.11-.01-.205-.024-.213-.013-.008-.023-.07-.023-.139a.34.34 0 0 0-.035-.17.27.27 0 0 1-.035-.134c-.001-.049-.01-.088-.021-.088-.011 0-.033-.044-.049-.096a.398.398 0 0 0-.07-.138.345.345 0 0 1-.058-.075.735.735 0 0 0-.16-.213.577.577 0 0 1-.1-.125.108.108 0 0 0-.056-.054.304.304 0 0 1-.078-.045c-.071-.06-.258-.152-.306-.152a.245.245 0 0 1-.11-.04c-.051-.033-.108-.036-.441-.022-.21.01-.393.027-.405.04-.013.012-.058.022-.101.022a.31.31 0 0 0-.12.022.506.506 0 0 1-.126.036.322.322 0 0 0-.143.066.846.846 0 0 1-.145.1c-.048.025-.087.055-.087.065 0 .01-.021.018-.047.018-.03 0-.072.038-.112.1a.553.553 0 0 1-.083.109c-.01.004-.018.032-.018.062s-.016.06-.035.068c-.02.008-.036.034-.036.06a.313.313 0 0 1-.035.112.37.37 0 0 0-.036.143c0 .042-.01.082-.023.09-.015.009-.024.185-.024.448 0 .37.006.445.041.507.023.04.05.073.06.073.01 0 .017.021.017.048 0 .026.016.054.036.061.019.008.035.029.035.047s.008.033.018.033c.01 0 .134.112.277.248.143.136.276.253.296.26a.17.17 0 0 1 .071.063c.06.086.145.161.318.275.052.035.1.07.107.077.033.04.288.163.34.163.032 0 .065.011.073.024.008.013.072.024.142.024.07 0 .134-.011.142-.024z"/><g font-weight="900" font-family="EskapadeFrakturW04-Black" letter-spacing="0" word-spacing="0"><path style="line-height:1.25;-inkscape-font-specification:'EskapadeFrakturW04-Black, Heavy';font-variant-ligatures:normal;font-variant-caps:normal;font-variant-numeric:normal;font-feature-settings:normal;text-align:start" d="m25.877 39.757-.984 1.439v4.616h1.198v-2.52h1.598v-1.015h-1.598v-1.222l1.732.233.383-1.237z" font-size="11.289"/><path d="m29.877 39.757-1.016 1.888v1.763h-.49v.721h.49v1.79h1.097v-1.79h1.077v1.647l1.123.241.543-1.184-.57-.09v-3.267l-.428-1.461zm.08 1.293 1.078.203v2.155h-1.077zm17.109-1.293-.302.94h1.401v4.982h1.097v-4.982h1.18l.302-.94z" style="line-height:1.25;-inkscape-font-specification:'EskapadeFrakturW04-Black, Heavy';font-variant-ligatures:normal;font-variant-caps:normal;font-variant-numeric:normal;font-feature-settings:normal;text-align:start" font-size="42.667"/><path style="line-height:1.25;-inkscape-font-specification:'EskapadeFrakturW04-Black, Heavy';font-variant-ligatures:normal;font-variant-caps:normal;font-variant-numeric:normal;font-feature-settings:normal;text-align:start" d="M42.338 40.104v5.726h-1.12v-4.773l-.72-.142.56-1.158zm-9.418 5.548.321-1.099 1.781.232c.06-.285.062-.965.009-1.25l-1.995-.864a6.265 6.265 0 0 1 .01-.741c.023-.327.067-.597.133-.81a4.98 4.98 0 0 1 .4-.508 3.98 3.98 0 0 1 .526-.517c.184-.148.344-.26.48-.338l1.666.223-.516 1.063-1.363-.223c-.095.232-.125.867-.089 1.116l1.915.793c.047.285.065.45.053.813-.012.356-.05.676-.116.961-.392.588-.822 1.045-1.291 1.372z" font-size="11.289"/><g style="line-height:1.25;-inkscape-font-specification:'EskapadeFrakturW04-Black, Heavy';font-variant-ligatures:normal;font-variant-caps:normal;font-variant-numeric:normal;font-feature-settings:normal;text-align:start"><path d="M38.578 39.757c-.279.178-.59.457-.934.837-.345.374-.597.71-.757 1.006a7.528 7.528 0 0 0-.179 1.487c0 .962.122 1.799.366 2.511l2.484.24.392-1.246-2.204-.144c-.174-.747-.104-1.976-.104-2.474 0-.303.266-.516.326-.641.06-.13.37-.223.459-.276l1.264.196.517-1.282z" style="-inkscape-font-specification:'EskapadeFrakturW04-Black, Heavy';font-variant-ligatures:normal;font-variant-caps:normal;font-variant-numeric:normal;font-feature-settings:normal;text-align:start" aria-label="C" font-size="11.289"/></g><path style="line-height:1.25;-inkscape-font-specification:'EskapadeFrakturW04-Black, Heavy';font-variant-ligatures:normal;font-variant-caps:normal;font-variant-numeric:normal;font-feature-settings:normal;text-align:start" d="m43.1 45.652.32-1.099 1.78.232c.06-.285.063-.965.01-1.25l-1.995-.864a6.265 6.265 0 0 1 .009-.741c.024-.327.068-.597.133-.81a5.01 5.01 0 0 1 .401-.508c.172-.202.347-.374.525-.517.185-.148.345-.26.481-.338l1.666.223-.517 1.063-1.362-.223c-.095.232-.125.867-.09 1.116l1.915.793c.048.285.065.45.054.813a5.108 5.108 0 0 1-.116.961c-.392.588-.822 1.045-1.291 1.372z" font-size="11.289"/></g></g></svg>