<svg xmlns:xlink="http://www.w3.org/1999/xlink" width="283.465" height="351.496"><defs><clipPath clipPathUnits="userSpaceOnUse" id="policyCardBackcoverMirroredBlemish_svg__a"><path stroke-width="4" stroke-linecap="round" d="M0 1123.283h170.079v238.11H0z"/></clipPath></defs><g fill="#fff"><path d="M37.64 37.494h207.875v275.905H37.64z"/><path d="M56.693 56.692h170.079v238.11H56.692z"/></g><g fill="#363835"><path d="M103.635 79.58v21.696H83.85v170.037h115.455V79.58z"/><path d="M100.995 81.356v16.886H84.109z"/></g><g font-weight="900" font-family="EskapadeFrakturW04-Black" letter-spacing="0" word-spacing="0" fill="#fff"><path d="m131.614 151.674-2.153 3.64 2.767.547v15.113l2.63 2.922 6.579.444 1.298-3.81-6.3-.377v-17.147zm-9.416 4.352-4.968-.41c-.41.273-.706.718-.888 1.332-.182.592-.273 1.39-.273 2.391 0 .775.172 2.185.205 3.28.046 1.57.261 3.167-.015 4.713-.111.62-.65 1.777-.65 1.777l5.344.41c1.536-3.392 1.022-8.73.596-11.682zm-4.831-5.021 7.09.649c1.275 3.53 1.913 6.82 1.913 9.872 0 2.368-.25 4.508-.752 6.421-.5.774-.83 1.742-1.786 2.904-.933 1.161-1.603 2.277-2.81 3.347l-8.047-.751c-1.07-3.53-1.605-6.718-1.605-9.565 0-1.002.091-2.129.273-3.381.205-1.253.478-2.403.82-3.45.729-1.093 1.205-2.175 2.23-3.245 1.047-1.07 1.672-2.004 2.674-2.801z" style="line-height:1.25;-inkscape-font-specification:'EskapadeFrakturW04-Black, Heavy';font-variant-ligatures:normal;font-variant-caps:normal;font-variant-numeric:normal;font-feature-settings:normal;text-align:start" font-size="42.667"/><path style="line-height:1.25;-inkscape-font-specification:'EskapadeFrakturW04-Black, Heavy';font-variant-ligatures:normal;font-variant-caps:normal;font-variant-numeric:normal;font-feature-settings:normal;text-align:start" d="m96.511 150.959-1.912 4.27 3.143.17v18.786h3.993v-8.335l7.801-3.654c.136-1.048.136-2.312 0-3.792-.114-1.48-.318-2.789-.614-3.927-.274-1.139-.558-2.016-.854-2.63zm5.224 4.77 3.165.216c.32.888.244 1.366.38 2.642.16 1.275.194 1.793.102 2.773l-3.647 1.4zm50.43-3.687v21.963h-4.294v-18.308l-2.767-.547 2.152-4.44z" font-size="11.289"/><g style="line-height:1.25;-inkscape-font-specification:'EskapadeFrakturW04-Black, Heavy';font-variant-ligatures:normal;font-variant-caps:normal;font-variant-numeric:normal;font-feature-settings:normal;text-align:start"><path d="M163.337 150.44c-1.07.683-2.265 1.753-3.586 3.21-1.32 1.435-2.289 2.722-2.903 3.86-.456 2.21-.684 4.11-.684 5.705 0 3.689.468 6.9 1.401 9.632l9.53.922 1.503-4.781-8.453-.554c-.667-2.866-.399-7.58-.399-9.49 0-1.16 1.021-1.98 1.249-2.459.228-.5 1.42-.854 1.762-1.059l4.85.753 1.981-4.92z" style="-inkscape-font-specification:'EskapadeFrakturW04-Black, Heavy';font-variant-ligatures:normal;font-variant-caps:normal;font-variant-numeric:normal;font-feature-settings:normal;text-align:start" aria-label="C" font-size="11.289"/></g><path d="m184.748 154.949-2.596 10.794v8.13h-4.307v-6.798l-4.065-11.648-2.822-.41 2.152-4.44 4.26 1.059 3.244 9.769.069 2.869-1.44.102 2.596-10.828 2.494-3.108 4.532.58-2.118 4.544z" style="line-height:1.25;-inkscape-font-specification:'EskapadeFrakturW04-Black, Heavy';font-variant-ligatures:normal;font-variant-caps:normal;font-variant-numeric:normal;font-feature-settings:normal;text-align:start" font-size="11.289"/></g><g transform="translate(57.213 -1066.59)"><circle r="1.311" cy="1249.401" cx="35.48" id="policyCardBackcoverMirroredBlemish_svg__b" opacity="1" vector-effect="none" fill="#fff" fill-opacity="1" stroke="none" stroke-width="4" stroke-linecap="round" stroke-linejoin="miter" stroke-miterlimit="4" stroke-dasharray="none" stroke-dashoffset="0" stroke-opacity="1" paint-order="normal"/><use height="100%" width="100%" transform="translate(4.087)" xlink:href="#policyCardBackcoverMirroredBlemish_svg__b"/><use xlink:href="#policyCardBackcoverMirroredBlemish_svg__b" transform="translate(8.173)" width="100%" height="100%"/><use height="100%" width="100%" transform="translate(12.26)" xlink:href="#policyCardBackcoverMirroredBlemish_svg__b"/><use xlink:href="#policyCardBackcoverMirroredBlemish_svg__b" transform="translate(16.347)" width="100%" height="100%"/><use xlink:href="#policyCardBackcoverMirroredBlemish_svg__b" transform="translate(20.433)" width="100%" height="100%"/><use height="100%" width="100%" transform="translate(24.52)" xlink:href="#policyCardBackcoverMirroredBlemish_svg__b"/><use xlink:href="#policyCardBackcoverMirroredBlemish_svg__b" transform="translate(28.606)" width="100%" height="100%"/><use height="100%" width="100%" transform="translate(32.693)" xlink:href="#policyCardBackcoverMirroredBlemish_svg__b"/><use height="100%" width="100%" transform="translate(36.78)" xlink:href="#policyCardBackcoverMirroredBlemish_svg__b"/><use xlink:href="#policyCardBackcoverMirroredBlemish_svg__b" transform="translate(40.866)" width="100%" height="100%"/><use height="100%" width="100%" transform="translate(44.953)" xlink:href="#policyCardBackcoverMirroredBlemish_svg__b"/><use xlink:href="#policyCardBackcoverMirroredBlemish_svg__b" transform="translate(49.04)" width="100%" height="100%"/><use xlink:href="#policyCardBackcoverMirroredBlemish_svg__b" transform="translate(53.126)" width="100%" height="100%"/><use height="100%" width="100%" transform="translate(57.213)" xlink:href="#policyCardBackcoverMirroredBlemish_svg__b"/><use xlink:href="#policyCardBackcoverMirroredBlemish_svg__b" transform="translate(61.3)" width="100%" height="100%"/><use height="100%" width="100%" transform="translate(65.386)" xlink:href="#policyCardBackcoverMirroredBlemish_svg__b"/><use height="100%" width="100%" transform="translate(69.473)" xlink:href="#policyCardBackcoverMirroredBlemish_svg__b"/><use xlink:href="#policyCardBackcoverMirroredBlemish_svg__b" transform="translate(73.56)" width="100%" height="100%"/><use height="100%" width="100%" transform="translate(77.646)" xlink:href="#policyCardBackcoverMirroredBlemish_svg__b"/><use xlink:href="#policyCardBackcoverMirroredBlemish_svg__b" transform="translate(81.733)" width="100%" height="100%"/><use xlink:href="#policyCardBackcoverMirroredBlemish_svg__b" transform="translate(85.82)" width="100%" height="100%"/><use height="100%" width="100%" transform="translate(89.906)" xlink:href="#policyCardBackcoverMirroredBlemish_svg__b"/><use xlink:href="#policyCardBackcoverMirroredBlemish_svg__b" transform="translate(93.992)" width="100%" height="100%"/><use height="100%" width="100%" transform="translate(98.08)" xlink:href="#policyCardBackcoverMirroredBlemish_svg__b"/></g></svg>